<?xml version="1.0" encoding="utf-8" standalone="no"?>
<!DOCTYPE svg PUBLIC "-//W3C//DTD SVG 1.1//EN"
  "http://www.w3.org/Graphics/SVG/1.1/DTD/svg11.dtd">
<!-- Created with matplotlib (http://matplotlib.org/) -->
<svg height="230pt" version="1.1" viewBox="0 0 230 230" width="230pt" xmlns="http://www.w3.org/2000/svg" xmlns:xlink="http://www.w3.org/1999/xlink">
 <defs>
  <style type="text/css">
*{stroke-linecap:butt;stroke-linejoin:round;}
  </style>
 </defs>
 <g id="figure_1">
  <g id="patch_1">
   <path d="M 0 230.4 
L 230.4 230.4 
L 230.4 0 
L 0 0 
z
" style="fill:#ffffff;"/>
  </g>
  <g id="axes_1">
   <g id="patch_2">
    <path d="M 57.71 181.24 
L 217.08 181.24 
L 217.08 16.2 
L 57.71 16.2 
z
" style="fill:#ffffff;"/>
   </g>
   <g id="patch_3">
    <path clip-path="url(#p7a9a2fb8f2)" d="M 96.593432 181.24 
L 96.593432 16.2 
L 114.522393 16.2 
L 114.522393 181.24 
z
" style="fill:#d3d3d3;opacity:0.3;stroke:#d3d3d3;stroke-linejoin:miter;"/>
   </g>
   <g id="patch_4">
    <path clip-path="url(#p7a9a2fb8f2)" d="M 146.689057 181.24 
L 146.689057 16.2 
L 159.344793 16.2 
L 159.344793 181.24 
z
" style="fill:#d3d3d3;opacity:0.3;stroke:#d3d3d3;stroke-linejoin:miter;"/>
   </g>
   <g id="patch_5">
    <path clip-path="url(#p7a9a2fb8f2)" d="M 191.511457 181.24 
L 191.511457 16.2 
L 209.440417 16.2 
L 209.440417 181.24 
z
" style="fill:#d3d3d3;opacity:0.3;stroke:#d3d3d3;stroke-linejoin:miter;"/>
   </g>
   <g id="matplotlib.axis_1">
    <g id="xtick_1">
     <g id="line2d_1">
      <defs>
       <path d="M 0 0 
L 0 3.5 
" id="madb6ae2cf0" style="stroke:#000000;stroke-width:0.8;"/>
      </defs>
      <g>
       <use style="stroke:#000000;stroke-width:0.8;" x="64.954091" xlink:href="#madb6ae2cf0" y="181.24"/>
      </g>
     </g>
     <g id="text_1">
      <!-- 0 -->
      <defs>
       <path d="M 31.78125 66.40625 
Q 24.171875 66.40625 20.328125 58.90625 
Q 16.5 51.421875 16.5 36.375 
Q 16.5 21.390625 20.328125 13.890625 
Q 24.171875 6.390625 31.78125 6.390625 
Q 39.453125 6.390625 43.28125 13.890625 
Q 47.125 21.390625 47.125 36.375 
Q 47.125 51.421875 43.28125 58.90625 
Q 39.453125 66.40625 31.78125 66.40625 
z
M 31.78125 74.21875 
Q 44.046875 74.21875 50.515625 64.515625 
Q 56.984375 54.828125 56.984375 36.375 
Q 56.984375 17.96875 50.515625 8.265625 
Q 44.046875 -1.421875 31.78125 -1.421875 
Q 19.53125 -1.421875 13.0625 8.265625 
Q 6.59375 17.96875 6.59375 36.375 
Q 6.59375 54.828125 13.0625 64.515625 
Q 19.53125 74.21875 31.78125 74.21875 
z
" id="DejaVuSans-30"/>
      </defs>
      <g transform="translate(60.500341 198.877813)scale(0.14 -0.14)">
       <use xlink:href="#DejaVuSans-30"/>
      </g>
     </g>
    </g>
    <g id="xtick_2">
     <g id="line2d_2">
      <g>
       <use style="stroke:#000000;stroke-width:0.8;" x="130.869386" xlink:href="#madb6ae2cf0" y="181.24"/>
      </g>
     </g>
     <g id="text_2">
      <!-- 500 -->
      <defs>
       <path d="M 10.796875 72.90625 
L 49.515625 72.90625 
L 49.515625 64.59375 
L 19.828125 64.59375 
L 19.828125 46.734375 
Q 21.96875 47.46875 24.109375 47.828125 
Q 26.265625 48.1875 28.421875 48.1875 
Q 40.625 48.1875 47.75 41.5 
Q 54.890625 34.8125 54.890625 23.390625 
Q 54.890625 11.625 47.5625 5.09375 
Q 40.234375 -1.421875 26.90625 -1.421875 
Q 22.3125 -1.421875 17.546875 -0.640625 
Q 12.796875 0.140625 7.71875 1.703125 
L 7.71875 11.625 
Q 12.109375 9.234375 16.796875 8.0625 
Q 21.484375 6.890625 26.703125 6.890625 
Q 35.15625 6.890625 40.078125 11.328125 
Q 45.015625 15.765625 45.015625 23.390625 
Q 45.015625 31 40.078125 35.4375 
Q 35.15625 39.890625 26.703125 39.890625 
Q 22.75 39.890625 18.8125 39.015625 
Q 14.890625 38.140625 10.796875 36.28125 
z
" id="DejaVuSans-35"/>
      </defs>
      <g transform="translate(117.508136 198.877813)scale(0.14 -0.14)">
       <use xlink:href="#DejaVuSans-35"/>
       <use x="63.623047" xlink:href="#DejaVuSans-30"/>
       <use x="127.246094" xlink:href="#DejaVuSans-30"/>
      </g>
     </g>
    </g>
    <g id="xtick_3">
     <g id="line2d_3">
      <g>
       <use style="stroke:#000000;stroke-width:0.8;" x="196.784681" xlink:href="#madb6ae2cf0" y="181.24"/>
      </g>
     </g>
     <g id="text_3">
      <!-- 1000 -->
      <defs>
       <path d="M 12.40625 8.296875 
L 28.515625 8.296875 
L 28.515625 63.921875 
L 10.984375 60.40625 
L 10.984375 69.390625 
L 28.421875 72.90625 
L 38.28125 72.90625 
L 38.28125 8.296875 
L 54.390625 8.296875 
L 54.390625 0 
L 12.40625 0 
z
" id="DejaVuSans-31"/>
      </defs>
      <g transform="translate(178.969681 198.877813)scale(0.14 -0.14)">
       <use xlink:href="#DejaVuSans-31"/>
       <use x="63.623047" xlink:href="#DejaVuSans-30"/>
       <use x="127.246094" xlink:href="#DejaVuSans-30"/>
       <use x="190.869141" xlink:href="#DejaVuSans-30"/>
      </g>
     </g>
    </g>
    <g id="text_4">
     <!-- seconds -->
     <defs>
      <path d="M 44.28125 53.078125 
L 44.28125 44.578125 
Q 40.484375 46.53125 36.375 47.5 
Q 32.28125 48.484375 27.875 48.484375 
Q 21.1875 48.484375 17.84375 46.4375 
Q 14.5 44.390625 14.5 40.28125 
Q 14.5 37.15625 16.890625 35.375 
Q 19.28125 33.59375 26.515625 31.984375 
L 29.59375 31.296875 
Q 39.15625 29.25 43.1875 25.515625 
Q 47.21875 21.78125 47.21875 15.09375 
Q 47.21875 7.46875 41.1875 3.015625 
Q 35.15625 -1.421875 24.609375 -1.421875 
Q 20.21875 -1.421875 15.453125 -0.5625 
Q 10.6875 0.296875 5.421875 2 
L 5.421875 11.28125 
Q 10.40625 8.6875 15.234375 7.390625 
Q 20.0625 6.109375 24.8125 6.109375 
Q 31.15625 6.109375 34.5625 8.28125 
Q 37.984375 10.453125 37.984375 14.40625 
Q 37.984375 18.0625 35.515625 20.015625 
Q 33.0625 21.96875 24.703125 23.78125 
L 21.578125 24.515625 
Q 13.234375 26.265625 9.515625 29.90625 
Q 5.8125 33.546875 5.8125 39.890625 
Q 5.8125 47.609375 11.28125 51.796875 
Q 16.75 56 26.8125 56 
Q 31.78125 56 36.171875 55.265625 
Q 40.578125 54.546875 44.28125 53.078125 
z
" id="DejaVuSans-73"/>
      <path d="M 56.203125 29.59375 
L 56.203125 25.203125 
L 14.890625 25.203125 
Q 15.484375 15.921875 20.484375 11.0625 
Q 25.484375 6.203125 34.421875 6.203125 
Q 39.59375 6.203125 44.453125 7.46875 
Q 49.3125 8.734375 54.109375 11.28125 
L 54.109375 2.78125 
Q 49.265625 0.734375 44.1875 -0.34375 
Q 39.109375 -1.421875 33.890625 -1.421875 
Q 20.796875 -1.421875 13.15625 6.1875 
Q 5.515625 13.8125 5.515625 26.8125 
Q 5.515625 40.234375 12.765625 48.109375 
Q 20.015625 56 32.328125 56 
Q 43.359375 56 49.78125 48.890625 
Q 56.203125 41.796875 56.203125 29.59375 
z
M 47.21875 32.234375 
Q 47.125 39.59375 43.09375 43.984375 
Q 39.0625 48.390625 32.421875 48.390625 
Q 24.90625 48.390625 20.390625 44.140625 
Q 15.875 39.890625 15.1875 32.171875 
z
" id="DejaVuSans-65"/>
      <path d="M 48.78125 52.59375 
L 48.78125 44.1875 
Q 44.96875 46.296875 41.140625 47.34375 
Q 37.3125 48.390625 33.40625 48.390625 
Q 24.65625 48.390625 19.8125 42.84375 
Q 14.984375 37.3125 14.984375 27.296875 
Q 14.984375 17.28125 19.8125 11.734375 
Q 24.65625 6.203125 33.40625 6.203125 
Q 37.3125 6.203125 41.140625 7.25 
Q 44.96875 8.296875 48.78125 10.40625 
L 48.78125 2.09375 
Q 45.015625 0.34375 40.984375 -0.53125 
Q 36.96875 -1.421875 32.421875 -1.421875 
Q 20.0625 -1.421875 12.78125 6.34375 
Q 5.515625 14.109375 5.515625 27.296875 
Q 5.515625 40.671875 12.859375 48.328125 
Q 20.21875 56 33.015625 56 
Q 37.15625 56 41.109375 55.140625 
Q 45.0625 54.296875 48.78125 52.59375 
z
" id="DejaVuSans-63"/>
      <path d="M 30.609375 48.390625 
Q 23.390625 48.390625 19.1875 42.75 
Q 14.984375 37.109375 14.984375 27.296875 
Q 14.984375 17.484375 19.15625 11.84375 
Q 23.34375 6.203125 30.609375 6.203125 
Q 37.796875 6.203125 41.984375 11.859375 
Q 46.1875 17.53125 46.1875 27.296875 
Q 46.1875 37.015625 41.984375 42.703125 
Q 37.796875 48.390625 30.609375 48.390625 
z
M 30.609375 56 
Q 42.328125 56 49.015625 48.375 
Q 55.71875 40.765625 55.71875 27.296875 
Q 55.71875 13.875 49.015625 6.21875 
Q 42.328125 -1.421875 30.609375 -1.421875 
Q 18.84375 -1.421875 12.171875 6.21875 
Q 5.515625 13.875 5.515625 27.296875 
Q 5.515625 40.765625 12.171875 48.375 
Q 18.84375 56 30.609375 56 
z
" id="DejaVuSans-6f"/>
      <path d="M 54.890625 33.015625 
L 54.890625 0 
L 45.90625 0 
L 45.90625 32.71875 
Q 45.90625 40.484375 42.875 44.328125 
Q 39.84375 48.1875 33.796875 48.1875 
Q 26.515625 48.1875 22.3125 43.546875 
Q 18.109375 38.921875 18.109375 30.90625 
L 18.109375 0 
L 9.078125 0 
L 9.078125 54.6875 
L 18.109375 54.6875 
L 18.109375 46.1875 
Q 21.34375 51.125 25.703125 53.5625 
Q 30.078125 56 35.796875 56 
Q 45.21875 56 50.046875 50.171875 
Q 54.890625 44.34375 54.890625 33.015625 
z
" id="DejaVuSans-6e"/>
      <path d="M 45.40625 46.390625 
L 45.40625 75.984375 
L 54.390625 75.984375 
L 54.390625 0 
L 45.40625 0 
L 45.40625 8.203125 
Q 42.578125 3.328125 38.25 0.953125 
Q 33.9375 -1.421875 27.875 -1.421875 
Q 17.96875 -1.421875 11.734375 6.484375 
Q 5.515625 14.40625 5.515625 27.296875 
Q 5.515625 40.1875 11.734375 48.09375 
Q 17.96875 56 27.875 56 
Q 33.9375 56 38.25 53.625 
Q 42.578125 51.265625 45.40625 46.390625 
z
M 14.796875 27.296875 
Q 14.796875 17.390625 18.875 11.75 
Q 22.953125 6.109375 30.078125 6.109375 
Q 37.203125 6.109375 41.296875 11.75 
Q 45.40625 17.390625 45.40625 27.296875 
Q 45.40625 37.203125 41.296875 42.84375 
Q 37.203125 48.484375 30.078125 48.484375 
Q 22.953125 48.484375 18.875 42.84375 
Q 14.796875 37.203125 14.796875 27.296875 
z
" id="DejaVuSans-64"/>
     </defs>
     <g transform="translate(108.7825 216.427188)scale(0.14 -0.14)">
      <use xlink:href="#DejaVuSans-73"/>
      <use x="52.099609" xlink:href="#DejaVuSans-65"/>
      <use x="113.623047" xlink:href="#DejaVuSans-63"/>
      <use x="168.603516" xlink:href="#DejaVuSans-6f"/>
      <use x="229.785156" xlink:href="#DejaVuSans-6e"/>
      <use x="293.164062" xlink:href="#DejaVuSans-64"/>
      <use x="356.640625" xlink:href="#DejaVuSans-73"/>
     </g>
    </g>
   </g>
   <g id="matplotlib.axis_2">
    <g id="ytick_1">
     <g id="line2d_4">
      <defs>
       <path d="M 0 0 
L -3.5 0 
" id="m5ec4284e93" style="stroke:#000000;stroke-width:0.8;"/>
      </defs>
      <g>
       <use style="stroke:#000000;stroke-width:0.8;" x="57.71" xlink:href="#m5ec4284e93" y="181.24"/>
      </g>
     </g>
     <g id="text_5">
      <!-- 0.0 -->
      <defs>
       <path d="M 10.6875 12.40625 
L 21 12.40625 
L 21 0 
L 10.6875 0 
z
" id="DejaVuSans-2e"/>
      </defs>
      <g transform="translate(28.445625 186.558906)scale(0.14 -0.14)">
       <use xlink:href="#DejaVuSans-30"/>
       <use x="63.623047" xlink:href="#DejaVuSans-2e"/>
       <use x="95.410156" xlink:href="#DejaVuSans-30"/>
      </g>
     </g>
    </g>
    <g id="ytick_2">
     <g id="line2d_5">
      <g>
       <use style="stroke:#000000;stroke-width:0.8;" x="57.71" xlink:href="#m5ec4284e93" y="98.72"/>
      </g>
     </g>
     <g id="text_6">
      <!-- 0.1 -->
      <g transform="translate(28.445625 104.038906)scale(0.14 -0.14)">
       <use xlink:href="#DejaVuSans-30"/>
       <use x="63.623047" xlink:href="#DejaVuSans-2e"/>
       <use x="95.410156" xlink:href="#DejaVuSans-31"/>
      </g>
     </g>
    </g>
    <g id="ytick_3">
     <g id="line2d_6">
      <g>
       <use style="stroke:#000000;stroke-width:0.8;" x="57.71" xlink:href="#m5ec4284e93" y="16.2"/>
      </g>
     </g>
     <g id="text_7">
      <!-- 0.2 -->
      <defs>
       <path d="M 19.1875 8.296875 
L 53.609375 8.296875 
L 53.609375 0 
L 7.328125 0 
L 7.328125 8.296875 
Q 12.9375 14.109375 22.625 23.890625 
Q 32.328125 33.6875 34.8125 36.53125 
Q 39.546875 41.84375 41.421875 45.53125 
Q 43.3125 49.21875 43.3125 52.78125 
Q 43.3125 58.59375 39.234375 62.25 
Q 35.15625 65.921875 28.609375 65.921875 
Q 23.96875 65.921875 18.8125 64.3125 
Q 13.671875 62.703125 7.8125 59.421875 
L 7.8125 69.390625 
Q 13.765625 71.78125 18.9375 73 
Q 24.125 74.21875 28.421875 74.21875 
Q 39.75 74.21875 46.484375 68.546875 
Q 53.21875 62.890625 53.21875 53.421875 
Q 53.21875 48.921875 51.53125 44.890625 
Q 49.859375 40.875 45.40625 35.40625 
Q 44.1875 33.984375 37.640625 27.21875 
Q 31.109375 20.453125 19.1875 8.296875 
z
" id="DejaVuSans-32"/>
      </defs>
      <g transform="translate(28.445625 21.518906)scale(0.14 -0.14)">
       <use xlink:href="#DejaVuSans-30"/>
       <use x="63.623047" xlink:href="#DejaVuSans-2e"/>
       <use x="95.410156" xlink:href="#DejaVuSans-32"/>
      </g>
     </g>
    </g>
    <g id="text_8">
     <!-- ΔF/F -->
     <defs>
      <path d="M 34.1875 63.1875 
L 14.15625 8.203125 
L 54.25 8.203125 
z
M 0.78125 0 
L 28.609375 72.90625 
L 39.796875 72.90625 
L 67.578125 0 
z
" id="DejaVuSans-394"/>
      <path d="M 9.8125 72.90625 
L 51.703125 72.90625 
L 51.703125 64.59375 
L 19.671875 64.59375 
L 19.671875 43.109375 
L 48.578125 43.109375 
L 48.578125 34.8125 
L 19.671875 34.8125 
L 19.671875 0 
L 9.8125 0 
z
" id="DejaVuSans-46"/>
      <path d="M 25.390625 72.90625 
L 33.6875 72.90625 
L 8.296875 -9.28125 
L 0 -9.28125 
z
" id="DejaVuSans-2f"/>
     </defs>
     <g transform="translate(21.534062 113.91875)rotate(-90)scale(0.14 -0.14)">
      <use xlink:href="#DejaVuSans-394"/>
      <use x="68.408203" xlink:href="#DejaVuSans-46"/>
      <use x="125.927734" xlink:href="#DejaVuSans-2f"/>
      <use x="159.619141" xlink:href="#DejaVuSans-46"/>
     </g>
    </g>
   </g>
   <g id="line2d_7">
    <path clip-path="url(#p7a9a2fb8f2)" d="M 64.954091 174.723406 
L 65.085921 168.187383 
L 65.349583 166.95554 
L 65.613244 169.016368 
L 65.745074 168.572829 
L 66.008736 169.982348 
L 66.140566 169.787073 
L 66.404227 170.534577 
L 66.536058 170.305425 
L 66.93155 172.428306 
L 67.06338 172.351009 
L 67.195211 172.116369 
L 67.327042 172.25738 
L 67.854364 170.306351 
L 68.118025 171.427112 
L 68.249856 171.713612 
L 68.513517 170.545841 
L 68.645347 171.260165 
L 68.777178 169.88013 
L 68.909009 170.679029 
L 69.040839 169.749538 
L 69.17267 167.673118 
L 69.699992 169.025497 
L 69.831823 169.182459 
L 70.095484 164.077855 
L 70.227315 164.255905 
L 70.754637 168.819905 
L 71.018298 169.466968 
L 71.150129 170.463247 
L 71.41379 170.060319 
L 71.54562 170.832593 
L 71.677451 170.86919 
L 71.809282 170.310143 
L 72.072943 171.074567 
L 72.204773 171.233801 
L 72.336604 170.516308 
L 72.600265 171.025266 
L 72.732096 171.228563 
L 72.863926 170.867374 
L 72.995757 170.900341 
L 73.127587 170.7887 
L 73.259418 171.624636 
L 73.391249 171.688472 
L 73.523079 172.052422 
L 73.65491 171.443541 
L 73.78674 171.911858 
L 73.918571 171.853858 
L 74.050402 172.181319 
L 74.314063 171.554899 
L 74.445893 172.128574 
L 74.577724 172.124744 
L 74.709555 172.605355 
L 74.973216 171.143332 
L 75.105046 171.706963 
L 75.236877 171.288655 
L 75.368708 172.547749 
L 75.632369 170.946116 
L 75.764199 170.264642 
L 76.02786 170.353416 
L 76.291522 171.405815 
L 76.555183 169.768759 
L 76.687013 169.664424 
L 76.818844 169.255577 
L 76.950675 168.35475 
L 77.082505 168.899277 
L 77.346166 168.058471 
L 77.477997 168.35532 
L 77.609828 169.384826 
L 77.741658 168.943127 
L 78.13715 170.511306 
L 78.26898 170.478956 
L 78.400811 170.23948 
L 78.532642 171.953853 
L 78.796303 169.374025 
L 78.928133 169.932648 
L 79.059964 169.279829 
L 79.323625 170.874483 
L 79.455456 170.611893 
L 79.587286 170.736023 
L 79.719117 171.334993 
L 79.850948 171.22339 
L 79.982778 169.870931 
L 80.114609 170.027715 
L 80.246439 169.58321 
L 80.37827 170.037263 
L 80.773762 169.822949 
L 80.905592 169.218737 
L 81.169253 170.657818 
L 81.432915 169.178209 
L 81.564745 169.471286 
L 81.696576 168.322495 
L 81.828406 168.861719 
L 81.960237 167.701372 
L 82.223898 167.882057 
L 82.355729 167.774068 
L 82.487559 169.348418 
L 82.61939 168.56486 
L 82.883051 169.298238 
L 83.146712 170.125867 
L 83.278543 169.807566 
L 83.410373 170.183395 
L 83.542204 169.600471 
L 83.674035 169.873546 
L 83.805865 170.736263 
L 83.937696 169.886431 
L 84.201357 170.609745 
L 84.333188 170.405923 
L 84.465018 170.677258 
L 84.596849 170.594529 
L 84.728679 170.2033 
L 84.86051 170.178751 
L 84.992341 170.82073 
L 85.124171 170.183367 
L 85.256002 170.381156 
L 85.387832 171.099452 
L 85.519663 170.901434 
L 85.651494 170.051518 
L 85.915155 170.848351 
L 86.178816 171.17977 
L 86.310646 171.349957 
L 86.442477 170.629811 
L 86.706138 171.60547 
L 86.837969 171.153678 
L 86.969799 172.208325 
L 87.10163 171.858992 
L 87.497122 173.410152 
L 87.628952 173.682832 
L 88.024444 173.107039 
L 88.288105 172.343572 
L 88.419936 173.034898 
L 88.551766 172.55255 
L 88.683597 173.251538 
L 88.947258 171.452484 
L 89.079089 172.262181 
L 89.210919 172.142604 
L 89.34275 172.457313 
L 89.474581 172.013724 
L 89.606411 171.994329 
L 89.870072 172.776135 
L 90.001903 171.902414 
L 90.133734 172.530056 
L 90.265564 172.580037 
L 90.397395 173.071672 
L 90.661056 171.849187 
L 90.792887 172.066646 
L 90.924717 171.967088 
L 91.056548 171.436636 
L 91.320209 172.03127 
L 91.58387 173.202929 
L 91.715701 173.091414 
L 91.847531 173.280401 
L 91.979362 172.117105 
L 92.111192 172.65931 
L 92.243023 172.416062 
L 92.374854 171.047036 
L 92.506684 170.944222 
L 92.638515 172.237793 
L 92.902176 170.009131 
L 93.034007 169.414144 
L 93.165837 169.742729 
L 93.297668 169.542057 
L 93.429498 170.10457 
L 93.561329 169.51507 
L 93.693159 166.447084 
L 93.82499 168.627582 
L 93.956821 168.23679 
L 94.220482 171.33431 
L 94.352312 171.299434 
L 94.484143 172.202643 
L 94.615974 171.224734 
L 94.747804 172.504699 
L 94.879635 171.148623 
L 95.275127 173.291021 
L 95.406957 172.649092 
L 95.802449 174.414822 
L 95.93428 173.708225 
L 96.197941 174.100051 
L 96.329771 173.681517 
L 96.461602 174.049705 
L 96.593432 170.664838 
L 96.857094 144.218103 
L 97.120755 146.288979 
L 97.384416 125.861605 
L 97.648077 130.66268 
L 97.779908 109.310421 
L 97.911738 107.662267 
L 98.1754 115.515246 
L 98.30723 93.148543 
L 98.439061 89.970518 
L 98.702722 96.660223 
L 98.834552 77.790648 
L 98.966383 76.077875 
L 99.230044 87.338294 
L 99.361875 71.784249 
L 99.493705 71.930377 
L 99.625536 79.027541 
L 99.757367 76.659831 
L 99.889197 59.793369 
L 100.021028 62.451486 
L 100.284689 77.825361 
L 100.41652 57.485122 
L 100.54835 59.161296 
L 100.812011 73.791251 
L 101.075673 53.538592 
L 101.339334 66.861461 
L 101.471164 55.368557 
L 101.602995 60.470576 
L 101.734825 72.408919 
L 101.866656 73.857383 
L 101.998487 42.808871 
L 102.130317 43.222312 
L 102.393978 62.127942 
L 102.525809 52.989935 
L 102.65764 55.589495 
L 102.921301 71.38983 
L 103.053131 58.663884 
L 103.184962 64.241193 
L 103.448623 77.832658 
L 103.580454 65.270409 
L 103.712284 65.512999 
L 103.975945 79.260119 
L 104.107776 66.045646 
L 104.239607 68.740666 
L 104.503268 81.950671 
L 104.635098 68.281616 
L 104.766929 71.892536 
L 104.89876 82.530249 
L 105.03059 80.65679 
L 105.162421 53.761042 
L 105.294251 54.500062 
L 105.557913 70.066724 
L 105.689743 59.916077 
L 106.085235 79.451817 
L 106.217066 68.955613 
L 106.348896 72.38809 
L 106.612557 84.970625 
L 106.744388 72.585499 
L 106.876218 76.696277 
L 107.008049 85.584346 
L 107.13988 82.857111 
L 107.27171 55.41235 
L 107.403541 53.631748 
L 107.667202 68.142794 
L 107.799033 59.507196 
L 108.194524 80.262875 
L 108.326355 70.800721 
L 108.458186 74.163029 
L 108.721847 85.272257 
L 108.853677 76.32578 
L 109.249169 91.456559 
L 109.381 81.812285 
L 109.51283 84.239892 
L 109.776491 96.1927 
L 109.908322 84.745174 
L 110.040153 87.942587 
L 110.303814 98.780493 
L 110.435644 87.149855 
L 110.567475 90.006159 
L 110.699306 97.96399 
L 110.831136 94.348599 
L 110.962967 71.35341 
L 111.094797 75.049151 
L 111.358459 86.654397 
L 111.490289 80.754371 
L 111.885781 96.448835 
L 112.017611 88.810991 
L 112.149442 91.844734 
L 112.413103 100.844736 
L 112.544934 90.685739 
L 112.676764 94.432839 
L 112.808595 102.415666 
L 112.940426 102.871408 
L 113.072256 94.622598 
L 113.335917 105.808996 
L 113.467748 99.491459 
L 113.599579 78.033293 
L 113.731409 80.882636 
L 113.99507 93.699809 
L 114.126901 86.819634 
L 114.522393 102.598564 
L 114.654223 95.832453 
L 114.786054 100.39039 
L 115.313376 127.693257 
L 115.840699 143.43093 
L 116.23619 150.595987 
L 116.631682 153.492815 
L 117.027174 156.716976 
L 117.159004 156.840542 
L 117.554496 160.307669 
L 117.686327 159.53996 
L 117.818157 161.455059 
L 117.949988 161.273685 
L 118.34548 163.827681 
L 118.609141 164.915084 
L 118.740972 165.977567 
L 118.872802 165.563867 
L 119.136463 166.829001 
L 119.268294 166.289739 
L 119.400124 166.322432 
L 119.531955 167.200671 
L 119.663786 167.093788 
L 119.795616 167.319348 
L 119.927447 166.634654 
L 120.191108 169.059098 
L 120.322939 168.091329 
L 120.454769 168.319788 
L 120.5866 168.240043 
L 120.71843 168.753456 
L 120.850261 168.696665 
L 121.113922 169.312443 
L 121.377583 168.667496 
L 121.509414 169.852184 
L 121.641245 169.218323 
L 121.773075 170.650533 
L 122.036736 169.399079 
L 122.300397 170.599139 
L 122.432228 169.015407 
L 122.82772 170.307624 
L 122.95955 169.928772 
L 123.223212 170.51842 
L 123.355042 170.813248 
L 123.486873 171.458133 
L 123.882365 170.30354 
L 124.014195 170.638086 
L 124.146026 171.353173 
L 124.409687 171.174329 
L 124.541517 171.081917 
L 124.673348 171.227871 
L 124.805179 170.397692 
L 124.937009 170.697349 
L 125.20067 170.079872 
L 125.332501 170.101396 
L 125.464332 170.282885 
L 125.727993 171.060796 
L 125.859823 171.087789 
L 125.991654 170.260127 
L 126.123485 171.358956 
L 126.255315 170.6681 
L 126.387146 170.950849 
L 126.518976 170.808538 
L 126.650807 169.553947 
L 126.782638 171.413811 
L 126.914468 170.364694 
L 127.046299 170.34176 
L 127.178129 171.986898 
L 127.30996 171.841927 
L 127.44179 171.17951 
L 127.705452 172.046158 
L 127.837282 171.487525 
L 127.969113 172.286486 
L 128.232774 171.030286 
L 128.364605 171.04393 
L 128.496435 170.810777 
L 128.628266 170.011176 
L 128.891927 171.581259 
L 129.155588 170.466885 
L 129.287419 171.272242 
L 129.68291 171.43876 
L 129.946572 172.277738 
L 130.078402 172.071256 
L 130.210233 171.473446 
L 130.342063 170.336433 
L 130.605725 170.991865 
L 131.001216 165.201181 
L 131.264878 167.672791 
L 131.396708 167.483186 
L 131.660369 169.48642 
L 131.7922 170.744046 
L 131.924031 170.68946 
L 132.055861 169.613325 
L 132.187692 170.317275 
L 132.319522 170.286187 
L 132.451353 168.510232 
L 132.583183 169.954082 
L 132.715014 170.059048 
L 132.978675 170.484898 
L 133.110506 169.215354 
L 133.242336 169.538067 
L 133.505998 171.702553 
L 133.637828 170.838769 
L 133.769659 171.870351 
L 133.901489 171.747077 
L 134.03332 171.903412 
L 134.296981 170.971336 
L 134.428812 172.137681 
L 134.560642 171.986104 
L 134.692473 172.391275 
L 134.824303 172.376593 
L 134.956134 172.506549 
L 135.087965 172.850319 
L 135.219795 172.730261 
L 135.351626 173.170839 
L 135.483456 172.447095 
L 135.747118 173.79941 
L 136.010779 174.293888 
L 136.27444 172.681476 
L 136.406271 173.094309 
L 136.669932 172.617122 
L 136.801762 171.867681 
L 137.065424 173.665869 
L 137.197254 172.855511 
L 137.329085 173.308547 
L 137.460915 173.240331 
L 137.592746 172.404293 
L 137.724576 173.126759 
L 137.856407 173.1804 
L 137.988238 172.468635 
L 138.383729 174.217001 
L 138.911052 171.697054 
L 139.042882 172.405614 
L 139.174713 172.295504 
L 139.306544 172.378426 
L 139.570205 173.03439 
L 139.702035 173.342554 
L 139.833866 173.01718 
L 140.097527 173.920401 
L 140.229358 173.970284 
L 140.361188 173.515493 
L 140.493019 173.868377 
L 140.624849 172.551732 
L 140.888511 172.89434 
L 141.020341 172.628599 
L 141.152172 173.317845 
L 141.284002 173.23965 
L 141.415833 173.994538 
L 141.547664 173.35618 
L 141.943155 174.874996 
L 142.074986 174.973863 
L 142.206817 174.664634 
L 142.338647 173.772828 
L 142.470478 175.075418 
L 142.602308 174.979564 
L 142.734139 174.296596 
L 142.9978 175.487573 
L 143.129631 175.821035 
L 143.525122 174.216767 
L 143.920614 175.073182 
L 144.184275 172.948586 
L 144.316106 174.611194 
L 144.447937 174.813576 
L 144.579767 174.607137 
L 144.711598 175.251463 
L 144.843428 174.431211 
L 144.975259 174.468164 
L 145.10709 175.171909 
L 145.502581 173.800093 
L 145.634412 174.069114 
L 145.766242 173.729191 
L 145.898073 173.818608 
L 146.161734 174.59127 
L 146.293565 173.694835 
L 146.425395 173.827454 
L 146.557226 174.370162 
L 146.820887 157.742462 
L 146.952718 157.919194 
L 147.084548 160.694163 
L 147.34821 130.508441 
L 147.48004 131.102759 
L 147.611871 129.771442 
L 147.875532 99.828919 
L 148.007362 101.113593 
L 148.139193 104.976961 
L 148.402854 99.017412 
L 148.666515 112.944122 
L 149.062007 100.491649 
L 149.193838 109.566947 
L 149.58933 71.765024 
L 149.72116 82.973531 
L 149.984821 79.168084 
L 150.248483 95.030038 
L 150.512144 66.529603 
L 150.643974 67.567177 
L 150.775805 77.226697 
L 150.907635 78.676174 
L 151.039466 82.414247 
L 151.303127 101.197335 
L 151.566788 90.545502 
L 151.83045 103.016519 
L 152.094111 75.855522 
L 152.225941 75.876895 
L 152.357772 83.434948 
L 152.489603 80.890919 
L 152.621433 83.854398 
L 152.885094 100.433842 
L 153.148755 70.841933 
L 153.280586 75.423684 
L 153.412417 84.797542 
L 153.676078 81.051516 
L 153.807908 86.017649 
L 153.939739 95.457045 
L 154.2034 92.641975 
L 154.467061 108.956053 
L 154.730723 79.881794 
L 154.862553 82.705261 
L 154.994384 89.679907 
L 155.126214 85.656573 
L 155.258045 87.793324 
L 155.521706 104.492828 
L 155.785367 93.858093 
L 156.049028 105.069357 
L 156.31269 82.454395 
L 156.576351 98.633336 
L 156.708181 95.669375 
L 156.840012 95.642575 
L 157.103673 111.804292 
L 157.235504 109.085194 
L 157.367334 109.043587 
L 157.630996 120.960908 
L 157.894657 93.130918 
L 158.158318 104.405789 
L 158.290148 101.506207 
L 158.421979 101.68698 
L 158.68564 115.169896 
L 158.949301 111.35904 
L 159.212963 123.459338 
L 159.476624 98.722345 
L 160.399438 138.765017 
L 160.92676 149.885716 
L 161.190421 152.58609 
L 161.585913 156.608521 
L 161.717744 158.721271 
L 161.849574 158.958016 
L 161.981405 159.528059 
L 162.245066 161.888448 
L 162.376897 161.25732 
L 162.640558 163.486558 
L 162.772389 163.024416 
L 163.03605 164.680294 
L 163.16788 164.8983 
L 163.299711 165.414653 
L 163.563372 165.07732 
L 163.958864 166.994333 
L 164.222525 166.143287 
L 164.354356 166.755952 
L 164.486186 165.874204 
L 164.749847 166.832986 
L 164.881678 166.944785 
L 165.013509 167.312833 
L 165.145339 168.488776 
L 165.27717 167.708677 
L 165.409 168.634741 
L 165.540831 167.828112 
L 165.672662 168.739937 
L 165.936323 167.603886 
L 166.331814 169.274736 
L 166.463645 169.041209 
L 166.595476 169.455141 
L 166.727306 169.360609 
L 166.859137 170.335579 
L 166.990967 170.077944 
L 167.122798 170.714743 
L 167.386459 167.862811 
L 167.51829 167.945171 
L 167.65012 168.883709 
L 167.781951 167.998094 
L 167.913782 168.713139 
L 168.045612 168.736599 
L 168.177443 168.174217 
L 168.441104 169.812295 
L 168.704765 169.485208 
L 168.836596 170.382857 
L 168.968426 170.052334 
L 169.100257 170.526602 
L 169.232087 169.60312 
L 169.495749 170.687758 
L 169.627579 170.485308 
L 169.75941 169.267718 
L 169.89124 170.025949 
L 170.023071 169.576063 
L 170.154902 170.263702 
L 170.286732 169.972991 
L 170.550393 170.619997 
L 170.814055 170.076781 
L 170.945885 170.344495 
L 171.077716 169.981836 
L 171.341377 171.023964 
L 171.473207 171.027396 
L 171.736869 171.36563 
L 171.868699 170.796436 
L 172.00053 170.84867 
L 172.13236 171.197135 
L 172.264191 170.696236 
L 172.527852 171.08442 
L 172.659683 170.940605 
L 173.055175 171.828146 
L 173.187005 171.599946 
L 173.450666 171.737432 
L 173.582497 172.304971 
L 173.714327 170.531256 
L 173.977989 171.932768 
L 174.109819 170.25425 
L 174.24165 170.38 
L 174.37348 170.285107 
L 174.505311 171.117084 
L 174.637142 171.182313 
L 174.768972 170.978837 
L 175.032633 172.151595 
L 175.164464 172.120483 
L 175.428125 171.242894 
L 175.559956 171.164816 
L 175.691786 172.364067 
L 175.823617 172.362911 
L 175.955448 171.346188 
L 176.087278 171.993763 
L 176.219109 171.764949 
L 176.350939 172.418612 
L 176.48277 172.013579 
L 176.6146 172.110279 
L 176.746431 172.423874 
L 176.878262 172.052812 
L 177.010092 172.130825 
L 177.141923 171.855492 
L 177.273753 173.085721 
L 177.537415 172.770321 
L 177.801076 172.226186 
L 177.932906 173.09085 
L 178.064737 172.683359 
L 178.196568 172.839256 
L 178.328398 173.609765 
L 178.460229 173.027216 
L 178.592059 173.259955 
L 178.85572 172.800559 
L 179.119382 173.638764 
L 179.251212 173.551328 
L 179.383043 174.124516 
L 179.514873 172.645207 
L 179.646704 172.625428 
L 179.778535 173.205906 
L 179.910365 173.141891 
L 180.042196 173.431027 
L 180.174026 173.077656 
L 180.305857 171.706749 
L 180.437688 171.536446 
L 180.569518 169.903986 
L 180.833179 172.134415 
L 180.96501 171.194065 
L 181.492332 173.738492 
L 181.624163 172.994935 
L 181.755993 173.770799 
L 182.019655 172.726133 
L 182.151485 173.901145 
L 182.283316 173.481207 
L 182.415146 173.642527 
L 182.546977 172.234515 
L 182.678808 172.652727 
L 182.810638 172.472653 
L 183.20613 173.971327 
L 183.337961 173.177121 
L 183.469791 173.405199 
L 183.601622 172.959513 
L 183.733452 173.14582 
L 183.865283 173.56759 
L 183.997113 173.371876 
L 184.128944 173.63693 
L 184.260775 174.291715 
L 184.524436 173.700048 
L 184.788097 174.400378 
L 184.919928 174.559459 
L 185.183589 172.64889 
L 185.315419 173.172 
L 185.44725 172.113196 
L 185.579081 172.351747 
L 185.710911 173.253099 
L 185.842742 173.078255 
L 185.974572 172.474169 
L 186.238234 173.477309 
L 186.370064 173.127502 
L 186.765556 174.572417 
L 187.029217 173.694441 
L 187.161048 174.611539 
L 187.292878 174.368605 
L 187.556539 174.744535 
L 187.68837 174.359398 
L 187.820201 175.082824 
L 187.952031 174.647389 
L 188.083862 175.105911 
L 188.215692 174.869143 
L 188.347523 173.531091 
L 188.479354 174.56751 
L 188.611184 174.198577 
L 188.743015 174.219339 
L 188.874845 174.667012 
L 189.270337 173.903987 
L 189.402168 175.375411 
L 189.533998 174.54093 
L 189.665829 174.511809 
L 189.797659 174.241801 
L 189.92949 174.823789 
L 190.061321 174.0522 
L 190.193151 174.61041 
L 190.324982 176.12671 
L 190.456812 175.14095 
L 190.588643 175.268363 
L 190.720474 173.730764 
L 190.984135 175.204247 
L 191.115965 174.946259 
L 191.379627 170.554788 
L 191.643288 138.082011 
L 191.775118 138.330184 
L 191.906949 143.487812 
L 192.17061 118.546478 
L 192.434271 130.167863 
L 192.697932 103.490106 
L 192.961594 114.729465 
L 193.093424 92.743881 
L 193.225255 89.877188 
L 193.488916 108.335292 
L 193.752577 81.737366 
L 194.016238 99.839007 
L 194.148069 77.012904 
L 194.279899 76.923653 
L 194.543561 96.263451 
L 194.675391 76.963545 
L 194.807222 75.366835 
L 195.070883 93.848086 
L 195.202714 73.057054 
L 195.334544 73.107528 
L 195.598205 93.767934 
L 195.730036 76.423781 
L 195.861867 74.062744 
L 196.125528 93.576133 
L 196.257358 74.988271 
L 196.389189 76.628765 
L 196.65285 94.614347 
L 196.784681 88.508961 
L 196.916511 91.302934 
L 197.180172 106.280888 
L 197.312003 87.003858 
L 197.443834 85.020939 
L 197.707495 100.786236 
L 197.839325 85.062517 
L 197.971156 85.460351 
L 198.234817 102.550287 
L 198.366648 84.904195 
L 198.498478 83.623092 
L 198.76214 102.307753 
L 198.89397 83.69802 
L 199.025801 84.787187 
L 199.289462 103.462183 
L 199.421292 84.710779 
L 199.553123 86.522287 
L 199.816784 105.96559 
L 199.948615 98.785269 
L 200.080445 101.484614 
L 200.344107 115.585411 
L 200.475937 97.6822 
L 200.607768 98.653637 
L 200.871429 113.553056 
L 201.00326 96.988484 
L 201.13509 97.219016 
L 201.398751 113.934086 
L 201.530582 96.544475 
L 201.662413 96.092314 
L 201.926074 113.33179 
L 202.057904 107.070559 
L 202.189735 108.236605 
L 202.453396 121.458191 
L 202.585227 103.204128 
L 202.717057 102.852818 
L 202.980718 116.975302 
L 203.112549 101.084968 
L 203.24438 101.602133 
L 203.508041 116.643554 
L 203.639871 101.065731 
L 203.771702 100.842148 
L 204.035363 112.05586 
L 204.167194 98.709483 
L 204.299024 100.707668 
L 204.562685 119.38078 
L 204.694516 110.075827 
L 205.090008 149.122688 
L 205.221838 133.887331 
L 205.353669 137.038666 
L 205.61733 153.305165 
L 205.749161 149.842152 
L 206.144653 169.316027 
L 206.276483 153.142011 
L 206.408314 154.021164 
L 206.671975 167.599125 
L 206.803806 151.36912 
L 206.935636 152.157173 
L 207.199297 166.147917 
L 207.331128 152.640009 
L 207.462958 154.464491 
L 207.72662 167.895408 
L 207.85845 155.161938 
L 207.990281 157.881626 
L 208.253942 171.985138 
L 208.385773 167.734877 
L 208.517603 170.147471 
L 208.781264 180.773402 
L 208.913095 165.564959 
L 209.044926 165.451291 
L 209.308587 177.237486 
L 209.440417 164.213354 
L 209.572248 164.97303 
L 209.835909 177.732651 
L 209.835909 177.732651 
" style="fill:none;stroke:#000000;stroke-linecap:square;"/>
   </g>
   <g id="patch_6">
    <path d="M 57.71 181.24 
L 57.71 16.2 
" style="fill:none;stroke:#000000;stroke-linecap:square;stroke-linejoin:miter;stroke-width:0.8;"/>
   </g>
   <g id="patch_7">
    <path d="M 57.71 181.24 
L 217.08 181.24 
" style="fill:none;stroke:#000000;stroke-linecap:square;stroke-linejoin:miter;stroke-width:0.8;"/>
   </g>
   <g id="text_9">
    <!-- Auditory -->
    <defs>
     <path d="M 34.1875 63.1875 
L 20.796875 26.90625 
L 47.609375 26.90625 
z
M 28.609375 72.90625 
L 39.796875 72.90625 
L 67.578125 0 
L 57.328125 0 
L 50.6875 18.703125 
L 17.828125 18.703125 
L 11.1875 0 
L 0.78125 0 
z
" id="DejaVuSans-41"/>
     <path d="M 8.5 21.578125 
L 8.5 54.6875 
L 17.484375 54.6875 
L 17.484375 21.921875 
Q 17.484375 14.15625 20.5 10.265625 
Q 23.53125 6.390625 29.59375 6.390625 
Q 36.859375 6.390625 41.078125 11.03125 
Q 45.3125 15.671875 45.3125 23.6875 
L 45.3125 54.6875 
L 54.296875 54.6875 
L 54.296875 0 
L 45.3125 0 
L 45.3125 8.40625 
Q 42.046875 3.421875 37.71875 1 
Q 33.40625 -1.421875 27.6875 -1.421875 
Q 18.265625 -1.421875 13.375 4.4375 
Q 8.5 10.296875 8.5 21.578125 
z
M 31.109375 56 
z
" id="DejaVuSans-75"/>
     <path d="M 9.421875 54.6875 
L 18.40625 54.6875 
L 18.40625 0 
L 9.421875 0 
z
M 9.421875 75.984375 
L 18.40625 75.984375 
L 18.40625 64.59375 
L 9.421875 64.59375 
z
" id="DejaVuSans-69"/>
     <path d="M 18.3125 70.21875 
L 18.3125 54.6875 
L 36.8125 54.6875 
L 36.8125 47.703125 
L 18.3125 47.703125 
L 18.3125 18.015625 
Q 18.3125 11.328125 20.140625 9.421875 
Q 21.96875 7.515625 27.59375 7.515625 
L 36.8125 7.515625 
L 36.8125 0 
L 27.59375 0 
Q 17.1875 0 13.234375 3.875 
Q 9.28125 7.765625 9.28125 18.015625 
L 9.28125 47.703125 
L 2.6875 47.703125 
L 2.6875 54.6875 
L 9.28125 54.6875 
L 9.28125 70.21875 
z
" id="DejaVuSans-74"/>
     <path d="M 41.109375 46.296875 
Q 39.59375 47.171875 37.8125 47.578125 
Q 36.03125 48 33.890625 48 
Q 26.265625 48 22.1875 43.046875 
Q 18.109375 38.09375 18.109375 28.8125 
L 18.109375 0 
L 9.078125 0 
L 9.078125 54.6875 
L 18.109375 54.6875 
L 18.109375 46.1875 
Q 20.953125 51.171875 25.484375 53.578125 
Q 30.03125 56 36.53125 56 
Q 37.453125 56 38.578125 55.875 
Q 39.703125 55.765625 41.0625 55.515625 
z
" id="DejaVuSans-72"/>
     <path d="M 32.171875 -5.078125 
Q 28.375 -14.84375 24.75 -17.8125 
Q 21.140625 -20.796875 15.09375 -20.796875 
L 7.90625 -20.796875 
L 7.90625 -13.28125 
L 13.1875 -13.28125 
Q 16.890625 -13.28125 18.9375 -11.515625 
Q 21 -9.765625 23.484375 -3.21875 
L 25.09375 0.875 
L 2.984375 54.6875 
L 12.5 54.6875 
L 29.59375 11.921875 
L 46.6875 54.6875 
L 56.203125 54.6875 
z
" id="DejaVuSans-79"/>
    </defs>
    <g transform="translate(65.613244 26.1024)scale(0.14 -0.14)">
     <use xlink:href="#DejaVuSans-41"/>
     <use x="68.408203" xlink:href="#DejaVuSans-75"/>
     <use x="131.787109" xlink:href="#DejaVuSans-64"/>
     <use x="195.263672" xlink:href="#DejaVuSans-69"/>
     <use x="223.046875" xlink:href="#DejaVuSans-74"/>
     <use x="262.255859" xlink:href="#DejaVuSans-6f"/>
     <use x="323.4375" xlink:href="#DejaVuSans-72"/>
     <use x="364.550781" xlink:href="#DejaVuSans-79"/>
    </g>
   </g>
  </g>
 </g>
 <defs>
  <clipPath id="p7a9a2fb8f2">
   <rect height="165.04" width="159.37" x="57.71" y="16.2"/>
  </clipPath>
 </defs>
</svg>
