<?xml version="1.0" encoding="utf-8" standalone="no"?>
<!DOCTYPE svg PUBLIC "-//W3C//DTD SVG 1.1//EN"
  "http://www.w3.org/Graphics/SVG/1.1/DTD/svg11.dtd">
<!-- Created with matplotlib (http://matplotlib.org/) -->
<svg height="230pt" version="1.1" viewBox="0 0 576 230" width="576pt" xmlns="http://www.w3.org/2000/svg" xmlns:xlink="http://www.w3.org/1999/xlink">
 <defs>
  <style type="text/css">
*{stroke-linecap:butt;stroke-linejoin:round;}
  </style>
 </defs>
 <g id="figure_1">
  <g id="patch_1">
   <path d="M 0 230.4 
L 576 230.4 
L 576 0 
L 0 0 
z
" style="fill:#ffffff;"/>
  </g>
  <g id="axes_1">
   <g id="patch_2">
    <path d="M 57.71 181.24 
L 209.468039 181.24 
L 209.468039 27.6 
L 57.71 27.6 
z
" style="fill:#ffffff;"/>
   </g>
   <g id="PolyCollection_1">
    <defs>
     <path d="M 64.454802 -60.625672 
L 64.454802 -60.625672 
L 71.199603 -86.383051 
L 77.944405 -95.500769 
L 84.689207 -97.091166 
L 91.434009 -88.93961 
L 91.434009 -159.825076 
L 91.434009 -159.825076 
L 84.689207 -173.745731 
L 77.944405 -175.409442 
L 71.199603 -136.646923 
L 64.454802 -60.625672 
z
" id="m4f7a104625" style="stroke:#001a33;stroke-opacity:0.2;"/>
    </defs>
    <g clip-path="url(#p350875d4e2)">
     <use style="fill:#001a33;fill-opacity:0.2;stroke:#001a33;stroke-opacity:0.2;" x="0" xlink:href="#m4f7a104625" y="230.4"/>
    </g>
   </g>
   <g id="PolyCollection_2">
    <defs>
     <path d="M 91.434009 -61.898554 
L 91.434009 -59.923064 
L 98.17881 -94.086557 
L 104.923612 -106.297171 
L 111.668414 -92.361678 
L 118.413216 -74.963304 
L 118.413216 -133.655608 
L 118.413216 -133.655608 
L 111.668414 -142.169692 
L 104.923612 -146.589458 
L 98.17881 -132.026413 
L 91.434009 -61.898554 
z
" id="m144a4b5f14" style="stroke:#003366;stroke-opacity:0.2;"/>
    </defs>
    <g clip-path="url(#p350875d4e2)">
     <use style="fill:#003366;fill-opacity:0.2;stroke:#003366;stroke-opacity:0.2;" x="0" xlink:href="#m144a4b5f14" y="230.4"/>
    </g>
   </g>
   <g id="PolyCollection_3">
    <defs>
     <path d="M 118.413216 -81.018095 
L 118.413216 -49.369431 
L 125.158017 -83.035723 
L 131.902819 -99.035316 
L 138.647621 -87.532378 
L 145.392423 -69.241974 
L 145.392423 -124.118445 
L 145.392423 -124.118445 
L 138.647621 -143.636201 
L 131.902819 -159.348112 
L 125.158017 -133.010161 
L 118.413216 -81.018095 
z
" id="m721fef7311" style="stroke:#004d99;stroke-opacity:0.2;"/>
    </defs>
    <g clip-path="url(#p350875d4e2)">
     <use style="fill:#004d99;fill-opacity:0.2;stroke:#004d99;stroke-opacity:0.2;" x="0" xlink:href="#m721fef7311" y="230.4"/>
    </g>
   </g>
   <g id="PolyCollection_4">
    <defs>
     <path d="M 145.392423 -63.71409 
L 145.392423 -59.121599 
L 152.137224 -87.243185 
L 158.882026 -92.009113 
L 165.626828 -79.554965 
L 172.37163 -62.714345 
L 172.37163 -97.945002 
L 172.37163 -97.945002 
L 165.626828 -121.260219 
L 158.882026 -145.688594 
L 152.137224 -138.308156 
L 145.392423 -63.71409 
z
" id="meacdf01ba3" style="stroke:#0066cc;stroke-opacity:0.2;"/>
    </defs>
    <g clip-path="url(#p350875d4e2)">
     <use style="fill:#0066cc;fill-opacity:0.2;stroke:#0066cc;stroke-opacity:0.2;" x="0" xlink:href="#meacdf01ba3" y="230.4"/>
    </g>
   </g>
   <g id="PolyCollection_5">
    <defs>
     <path d="M 172.37163 -70.901279 
L 172.37163 -57.114005 
L 179.116431 -85.30991 
L 185.861233 -88.380529 
L 192.606035 -74.201483 
L 199.350837 -58.746739 
L 199.350837 -96.972381 
L 199.350837 -96.972381 
L 192.606035 -122.07749 
L 185.861233 -149.631326 
L 179.116431 -139.492544 
L 172.37163 -70.901279 
z
" id="m034a256b5b" style="stroke:#0080ff;stroke-opacity:0.2;"/>
    </defs>
    <g clip-path="url(#p350875d4e2)">
     <use style="fill:#0080ff;fill-opacity:0.2;stroke:#0080ff;stroke-opacity:0.2;" x="0" xlink:href="#m034a256b5b" y="230.4"/>
    </g>
   </g>
   <g id="matplotlib.axis_1">
    <g id="xtick_1">
     <g id="line2d_1">
      <defs>
       <path d="M 0 0 
L 0 3.5 
" id="m6f1b4f6322" style="stroke:#000000;stroke-width:0.8;"/>
      </defs>
      <g>
       <use style="stroke:#000000;stroke-width:0.8;" x="74.572004" xlink:href="#m6f1b4f6322" y="181.24"/>
      </g>
     </g>
     <g id="text_1">
      <!-- 1 -->
      <defs>
       <path d="M 12.40625 8.296875 
L 28.515625 8.296875 
L 28.515625 63.921875 
L 10.984375 60.40625 
L 10.984375 69.390625 
L 28.421875 72.90625 
L 38.28125 72.90625 
L 38.28125 8.296875 
L 54.390625 8.296875 
L 54.390625 0 
L 12.40625 0 
z
" id="DejaVuSans-31"/>
      </defs>
      <g transform="translate(70.118254 198.877813)scale(0.14 -0.14)">
       <use xlink:href="#DejaVuSans-31"/>
      </g>
     </g>
    </g>
    <g id="xtick_2">
     <g id="line2d_2">
      <g>
       <use style="stroke:#000000;stroke-width:0.8;" x="101.551211" xlink:href="#m6f1b4f6322" y="181.24"/>
      </g>
     </g>
     <g id="text_2">
      <!-- 2 -->
      <defs>
       <path d="M 19.1875 8.296875 
L 53.609375 8.296875 
L 53.609375 0 
L 7.328125 0 
L 7.328125 8.296875 
Q 12.9375 14.109375 22.625 23.890625 
Q 32.328125 33.6875 34.8125 36.53125 
Q 39.546875 41.84375 41.421875 45.53125 
Q 43.3125 49.21875 43.3125 52.78125 
Q 43.3125 58.59375 39.234375 62.25 
Q 35.15625 65.921875 28.609375 65.921875 
Q 23.96875 65.921875 18.8125 64.3125 
Q 13.671875 62.703125 7.8125 59.421875 
L 7.8125 69.390625 
Q 13.765625 71.78125 18.9375 73 
Q 24.125 74.21875 28.421875 74.21875 
Q 39.75 74.21875 46.484375 68.546875 
Q 53.21875 62.890625 53.21875 53.421875 
Q 53.21875 48.921875 51.53125 44.890625 
Q 49.859375 40.875 45.40625 35.40625 
Q 44.1875 33.984375 37.640625 27.21875 
Q 31.109375 20.453125 19.1875 8.296875 
z
" id="DejaVuSans-32"/>
      </defs>
      <g transform="translate(97.097461 198.877813)scale(0.14 -0.14)">
       <use xlink:href="#DejaVuSans-32"/>
      </g>
     </g>
    </g>
    <g id="xtick_3">
     <g id="line2d_3">
      <g>
       <use style="stroke:#000000;stroke-width:0.8;" x="128.530418" xlink:href="#m6f1b4f6322" y="181.24"/>
      </g>
     </g>
     <g id="text_3">
      <!-- 3 -->
      <defs>
       <path d="M 40.578125 39.3125 
Q 47.65625 37.796875 51.625 33 
Q 55.609375 28.21875 55.609375 21.1875 
Q 55.609375 10.40625 48.1875 4.484375 
Q 40.765625 -1.421875 27.09375 -1.421875 
Q 22.515625 -1.421875 17.65625 -0.515625 
Q 12.796875 0.390625 7.625 2.203125 
L 7.625 11.71875 
Q 11.71875 9.328125 16.59375 8.109375 
Q 21.484375 6.890625 26.8125 6.890625 
Q 36.078125 6.890625 40.9375 10.546875 
Q 45.796875 14.203125 45.796875 21.1875 
Q 45.796875 27.640625 41.28125 31.265625 
Q 36.765625 34.90625 28.71875 34.90625 
L 20.21875 34.90625 
L 20.21875 43.015625 
L 29.109375 43.015625 
Q 36.375 43.015625 40.234375 45.921875 
Q 44.09375 48.828125 44.09375 54.296875 
Q 44.09375 59.90625 40.109375 62.90625 
Q 36.140625 65.921875 28.71875 65.921875 
Q 24.65625 65.921875 20.015625 65.03125 
Q 15.375 64.15625 9.8125 62.3125 
L 9.8125 71.09375 
Q 15.4375 72.65625 20.34375 73.4375 
Q 25.25 74.21875 29.59375 74.21875 
Q 40.828125 74.21875 47.359375 69.109375 
Q 53.90625 64.015625 53.90625 55.328125 
Q 53.90625 49.265625 50.4375 45.09375 
Q 46.96875 40.921875 40.578125 39.3125 
z
" id="DejaVuSans-33"/>
      </defs>
      <g transform="translate(124.076668 198.877813)scale(0.14 -0.14)">
       <use xlink:href="#DejaVuSans-33"/>
      </g>
     </g>
    </g>
    <g id="xtick_4">
     <g id="line2d_4">
      <g>
       <use style="stroke:#000000;stroke-width:0.8;" x="155.509625" xlink:href="#m6f1b4f6322" y="181.24"/>
      </g>
     </g>
     <g id="text_4">
      <!-- 4 -->
      <defs>
       <path d="M 37.796875 64.3125 
L 12.890625 25.390625 
L 37.796875 25.390625 
z
M 35.203125 72.90625 
L 47.609375 72.90625 
L 47.609375 25.390625 
L 58.015625 25.390625 
L 58.015625 17.1875 
L 47.609375 17.1875 
L 47.609375 0 
L 37.796875 0 
L 37.796875 17.1875 
L 4.890625 17.1875 
L 4.890625 26.703125 
z
" id="DejaVuSans-34"/>
      </defs>
      <g transform="translate(151.055875 198.877813)scale(0.14 -0.14)">
       <use xlink:href="#DejaVuSans-34"/>
      </g>
     </g>
    </g>
    <g id="xtick_5">
     <g id="line2d_5">
      <g>
       <use style="stroke:#000000;stroke-width:0.8;" x="182.488832" xlink:href="#m6f1b4f6322" y="181.24"/>
      </g>
     </g>
     <g id="text_5">
      <!-- 5 -->
      <defs>
       <path d="M 10.796875 72.90625 
L 49.515625 72.90625 
L 49.515625 64.59375 
L 19.828125 64.59375 
L 19.828125 46.734375 
Q 21.96875 47.46875 24.109375 47.828125 
Q 26.265625 48.1875 28.421875 48.1875 
Q 40.625 48.1875 47.75 41.5 
Q 54.890625 34.8125 54.890625 23.390625 
Q 54.890625 11.625 47.5625 5.09375 
Q 40.234375 -1.421875 26.90625 -1.421875 
Q 22.3125 -1.421875 17.546875 -0.640625 
Q 12.796875 0.140625 7.71875 1.703125 
L 7.71875 11.625 
Q 12.109375 9.234375 16.796875 8.0625 
Q 21.484375 6.890625 26.703125 6.890625 
Q 35.15625 6.890625 40.078125 11.328125 
Q 45.015625 15.765625 45.015625 23.390625 
Q 45.015625 31 40.078125 35.4375 
Q 35.15625 39.890625 26.703125 39.890625 
Q 22.75 39.890625 18.8125 39.015625 
Q 14.890625 38.140625 10.796875 36.28125 
z
" id="DejaVuSans-35"/>
      </defs>
      <g transform="translate(178.035082 198.877813)scale(0.14 -0.14)">
       <use xlink:href="#DejaVuSans-35"/>
      </g>
     </g>
    </g>
    <g id="xtick_6">
     <g id="line2d_6">
      <g>
       <use style="stroke:#000000;stroke-width:0.8;" x="209.468039" xlink:href="#m6f1b4f6322" y="181.24"/>
      </g>
     </g>
    </g>
   </g>
   <g id="matplotlib.axis_2">
    <g id="ytick_1">
     <g id="line2d_7">
      <defs>
       <path d="M 0 0 
L -3.5 0 
" id="m7f9982645e" style="stroke:#000000;stroke-width:0.8;"/>
      </defs>
      <g>
       <use style="stroke:#000000;stroke-width:0.8;" x="57.71" xlink:href="#m7f9982645e" y="169.774328"/>
      </g>
     </g>
     <g id="text_6">
      <!-- 0 -->
      <defs>
       <path d="M 31.78125 66.40625 
Q 24.171875 66.40625 20.328125 58.90625 
Q 16.5 51.421875 16.5 36.375 
Q 16.5 21.390625 20.328125 13.890625 
Q 24.171875 6.390625 31.78125 6.390625 
Q 39.453125 6.390625 43.28125 13.890625 
Q 47.125 21.390625 47.125 36.375 
Q 47.125 51.421875 43.28125 58.90625 
Q 39.453125 66.40625 31.78125 66.40625 
z
M 31.78125 74.21875 
Q 44.046875 74.21875 50.515625 64.515625 
Q 56.984375 54.828125 56.984375 36.375 
Q 56.984375 17.96875 50.515625 8.265625 
Q 44.046875 -1.421875 31.78125 -1.421875 
Q 19.53125 -1.421875 13.0625 8.265625 
Q 6.59375 17.96875 6.59375 36.375 
Q 6.59375 54.828125 13.0625 64.515625 
Q 19.53125 74.21875 31.78125 74.21875 
z
" id="DejaVuSans-30"/>
      </defs>
      <g transform="translate(41.8025 175.093235)scale(0.14 -0.14)">
       <use xlink:href="#DejaVuSans-30"/>
      </g>
     </g>
    </g>
    <g id="ytick_2">
     <g id="line2d_8">
      <g>
       <use style="stroke:#000000;stroke-width:0.8;" x="57.71" xlink:href="#m7f9982645e" y="123.911642"/>
      </g>
     </g>
     <g id="text_7">
      <!-- .02 -->
      <defs>
       <path d="M 10.6875 12.40625 
L 21 12.40625 
L 21 0 
L 10.6875 0 
z
" id="DejaVuSans-2e"/>
      </defs>
      <g transform="translate(28.445625 129.230548)scale(0.14 -0.14)">
       <use xlink:href="#DejaVuSans-2e"/>
       <use x="31.787109" xlink:href="#DejaVuSans-30"/>
       <use x="95.410156" xlink:href="#DejaVuSans-32"/>
      </g>
     </g>
    </g>
    <g id="ytick_3">
     <g id="line2d_9">
      <g>
       <use style="stroke:#000000;stroke-width:0.8;" x="57.71" xlink:href="#m7f9982645e" y="78.048955"/>
      </g>
     </g>
     <g id="text_8">
      <!-- .04 -->
      <g transform="translate(28.445625 83.367861)scale(0.14 -0.14)">
       <use xlink:href="#DejaVuSans-2e"/>
       <use x="31.787109" xlink:href="#DejaVuSans-30"/>
       <use x="95.410156" xlink:href="#DejaVuSans-34"/>
      </g>
     </g>
    </g>
    <g id="ytick_4">
     <g id="line2d_10">
      <g>
       <use style="stroke:#000000;stroke-width:0.8;" x="57.71" xlink:href="#m7f9982645e" y="32.186269"/>
      </g>
     </g>
     <g id="text_9">
      <!-- .06 -->
      <defs>
       <path d="M 33.015625 40.375 
Q 26.375 40.375 22.484375 35.828125 
Q 18.609375 31.296875 18.609375 23.390625 
Q 18.609375 15.53125 22.484375 10.953125 
Q 26.375 6.390625 33.015625 6.390625 
Q 39.65625 6.390625 43.53125 10.953125 
Q 47.40625 15.53125 47.40625 23.390625 
Q 47.40625 31.296875 43.53125 35.828125 
Q 39.65625 40.375 33.015625 40.375 
z
M 52.59375 71.296875 
L 52.59375 62.3125 
Q 48.875 64.0625 45.09375 64.984375 
Q 41.3125 65.921875 37.59375 65.921875 
Q 27.828125 65.921875 22.671875 59.328125 
Q 17.53125 52.734375 16.796875 39.40625 
Q 19.671875 43.65625 24.015625 45.921875 
Q 28.375 48.1875 33.59375 48.1875 
Q 44.578125 48.1875 50.953125 41.515625 
Q 57.328125 34.859375 57.328125 23.390625 
Q 57.328125 12.15625 50.6875 5.359375 
Q 44.046875 -1.421875 33.015625 -1.421875 
Q 20.359375 -1.421875 13.671875 8.265625 
Q 6.984375 17.96875 6.984375 36.375 
Q 6.984375 53.65625 15.1875 63.9375 
Q 23.390625 74.21875 37.203125 74.21875 
Q 40.921875 74.21875 44.703125 73.484375 
Q 48.484375 72.75 52.59375 71.296875 
z
" id="DejaVuSans-36"/>
      </defs>
      <g transform="translate(28.445625 37.505175)scale(0.14 -0.14)">
       <use xlink:href="#DejaVuSans-2e"/>
       <use x="31.787109" xlink:href="#DejaVuSans-30"/>
       <use x="95.410156" xlink:href="#DejaVuSans-36"/>
      </g>
     </g>
    </g>
    <g id="text_10">
     <!-- ΔF/F -->
     <defs>
      <path d="M 34.1875 63.1875 
L 14.15625 8.203125 
L 54.25 8.203125 
z
M 0.78125 0 
L 28.609375 72.90625 
L 39.796875 72.90625 
L 67.578125 0 
z
" id="DejaVuSans-394"/>
      <path d="M 9.8125 72.90625 
L 51.703125 72.90625 
L 51.703125 64.59375 
L 19.671875 64.59375 
L 19.671875 43.109375 
L 48.578125 43.109375 
L 48.578125 34.8125 
L 19.671875 34.8125 
L 19.671875 0 
L 9.8125 0 
z
" id="DejaVuSans-46"/>
      <path d="M 25.390625 72.90625 
L 33.6875 72.90625 
L 8.296875 -9.28125 
L 0 -9.28125 
z
" id="DejaVuSans-2f"/>
     </defs>
     <g transform="translate(21.534063 119.61875)rotate(-90)scale(0.14 -0.14)">
      <use xlink:href="#DejaVuSans-394"/>
      <use x="68.408203" xlink:href="#DejaVuSans-46"/>
      <use x="125.927734" xlink:href="#DejaVuSans-2f"/>
      <use x="159.619141" xlink:href="#DejaVuSans-46"/>
     </g>
    </g>
   </g>
   <g id="line2d_11">
    <path clip-path="url(#p350875d4e2)" d="M 64.454802 169.774328 
L 71.199603 118.885013 
L 77.944405 94.944894 
L 84.689207 94.981551 
L 91.434009 106.017657 
" style="fill:none;stroke:#001a33;stroke-linecap:square;stroke-width:1.5;"/>
   </g>
   <g id="line2d_12">
    <path clip-path="url(#p350875d4e2)" d="M 91.434009 169.489191 
L 98.17881 117.343515 
L 104.923612 103.956686 
L 111.668414 113.134315 
L 118.413216 126.090544 
" style="fill:none;stroke:#003366;stroke-linecap:square;stroke-width:1.5;"/>
   </g>
   <g id="line2d_13">
    <path clip-path="url(#p350875d4e2)" d="M 118.413216 165.206237 
L 125.158017 122.377058 
L 131.902819 101.208286 
L 138.647621 114.81571 
L 145.392423 133.719791 
" style="fill:none;stroke:#004d99;stroke-linecap:square;stroke-width:1.5;"/>
   </g>
   <g id="line2d_14">
    <path clip-path="url(#p350875d4e2)" d="M 145.392423 168.982155 
L 152.137224 117.624329 
L 158.882026 111.551146 
L 165.626828 129.992408 
L 172.37163 150.070327 
" style="fill:none;stroke:#0066cc;stroke-linecap:square;stroke-width:1.5;"/>
   </g>
   <g id="line2d_15">
    <path clip-path="url(#p350875d4e2)" d="M 172.37163 166.392358 
L 179.116431 117.998773 
L 185.861233 111.394072 
L 192.606035 132.260513 
L 199.350837 152.54044 
" style="fill:none;stroke:#0080ff;stroke-linecap:square;stroke-width:1.5;"/>
   </g>
   <g id="patch_3">
    <path d="M 57.71 181.24 
L 57.71 27.6 
" style="fill:none;stroke:#000000;stroke-linecap:square;stroke-linejoin:miter;stroke-width:0.8;"/>
   </g>
   <g id="patch_4">
    <path d="M 57.71 181.24 
L 209.468039 181.24 
" style="fill:none;stroke:#000000;stroke-linecap:square;stroke-linejoin:miter;stroke-width:0.8;"/>
   </g>
   <g id="text_11">
    <!-- Reference -->
    <defs>
     <path d="M 44.390625 34.1875 
Q 47.5625 33.109375 50.5625 29.59375 
Q 53.5625 26.078125 56.59375 19.921875 
L 66.609375 0 
L 56 0 
L 46.6875 18.703125 
Q 43.0625 26.03125 39.671875 28.421875 
Q 36.28125 30.8125 30.421875 30.8125 
L 19.671875 30.8125 
L 19.671875 0 
L 9.8125 0 
L 9.8125 72.90625 
L 32.078125 72.90625 
Q 44.578125 72.90625 50.734375 67.671875 
Q 56.890625 62.453125 56.890625 51.90625 
Q 56.890625 45.015625 53.6875 40.46875 
Q 50.484375 35.9375 44.390625 34.1875 
z
M 19.671875 64.796875 
L 19.671875 38.921875 
L 32.078125 38.921875 
Q 39.203125 38.921875 42.84375 42.21875 
Q 46.484375 45.515625 46.484375 51.90625 
Q 46.484375 58.296875 42.84375 61.546875 
Q 39.203125 64.796875 32.078125 64.796875 
z
" id="DejaVuSans-52"/>
     <path d="M 56.203125 29.59375 
L 56.203125 25.203125 
L 14.890625 25.203125 
Q 15.484375 15.921875 20.484375 11.0625 
Q 25.484375 6.203125 34.421875 6.203125 
Q 39.59375 6.203125 44.453125 7.46875 
Q 49.3125 8.734375 54.109375 11.28125 
L 54.109375 2.78125 
Q 49.265625 0.734375 44.1875 -0.34375 
Q 39.109375 -1.421875 33.890625 -1.421875 
Q 20.796875 -1.421875 13.15625 6.1875 
Q 5.515625 13.8125 5.515625 26.8125 
Q 5.515625 40.234375 12.765625 48.109375 
Q 20.015625 56 32.328125 56 
Q 43.359375 56 49.78125 48.890625 
Q 56.203125 41.796875 56.203125 29.59375 
z
M 47.21875 32.234375 
Q 47.125 39.59375 43.09375 43.984375 
Q 39.0625 48.390625 32.421875 48.390625 
Q 24.90625 48.390625 20.390625 44.140625 
Q 15.875 39.890625 15.1875 32.171875 
z
" id="DejaVuSans-65"/>
     <path d="M 37.109375 75.984375 
L 37.109375 68.5 
L 28.515625 68.5 
Q 23.6875 68.5 21.796875 66.546875 
Q 19.921875 64.59375 19.921875 59.515625 
L 19.921875 54.6875 
L 34.71875 54.6875 
L 34.71875 47.703125 
L 19.921875 47.703125 
L 19.921875 0 
L 10.890625 0 
L 10.890625 47.703125 
L 2.296875 47.703125 
L 2.296875 54.6875 
L 10.890625 54.6875 
L 10.890625 58.5 
Q 10.890625 67.625 15.140625 71.796875 
Q 19.390625 75.984375 28.609375 75.984375 
z
" id="DejaVuSans-66"/>
     <path d="M 41.109375 46.296875 
Q 39.59375 47.171875 37.8125 47.578125 
Q 36.03125 48 33.890625 48 
Q 26.265625 48 22.1875 43.046875 
Q 18.109375 38.09375 18.109375 28.8125 
L 18.109375 0 
L 9.078125 0 
L 9.078125 54.6875 
L 18.109375 54.6875 
L 18.109375 46.1875 
Q 20.953125 51.171875 25.484375 53.578125 
Q 30.03125 56 36.53125 56 
Q 37.453125 56 38.578125 55.875 
Q 39.703125 55.765625 41.0625 55.515625 
z
" id="DejaVuSans-72"/>
     <path d="M 54.890625 33.015625 
L 54.890625 0 
L 45.90625 0 
L 45.90625 32.71875 
Q 45.90625 40.484375 42.875 44.328125 
Q 39.84375 48.1875 33.796875 48.1875 
Q 26.515625 48.1875 22.3125 43.546875 
Q 18.109375 38.921875 18.109375 30.90625 
L 18.109375 0 
L 9.078125 0 
L 9.078125 54.6875 
L 18.109375 54.6875 
L 18.109375 46.1875 
Q 21.34375 51.125 25.703125 53.5625 
Q 30.078125 56 35.796875 56 
Q 45.21875 56 50.046875 50.171875 
Q 54.890625 44.34375 54.890625 33.015625 
z
" id="DejaVuSans-6e"/>
     <path d="M 48.78125 52.59375 
L 48.78125 44.1875 
Q 44.96875 46.296875 41.140625 47.34375 
Q 37.3125 48.390625 33.40625 48.390625 
Q 24.65625 48.390625 19.8125 42.84375 
Q 14.984375 37.3125 14.984375 27.296875 
Q 14.984375 17.28125 19.8125 11.734375 
Q 24.65625 6.203125 33.40625 6.203125 
Q 37.3125 6.203125 41.140625 7.25 
Q 44.96875 8.296875 48.78125 10.40625 
L 48.78125 2.09375 
Q 45.015625 0.34375 40.984375 -0.53125 
Q 36.96875 -1.421875 32.421875 -1.421875 
Q 20.0625 -1.421875 12.78125 6.34375 
Q 5.515625 14.109375 5.515625 27.296875 
Q 5.515625 40.671875 12.859375 48.328125 
Q 20.21875 56 33.015625 56 
Q 37.15625 56 41.109375 55.140625 
Q 45.0625 54.296875 48.78125 52.59375 
z
" id="DejaVuSans-63"/>
    </defs>
    <g transform="translate(97.875895 21.6)scale(0.14 -0.14)">
     <use xlink:href="#DejaVuSans-52"/>
     <use x="69.419922" xlink:href="#DejaVuSans-65"/>
     <use x="130.943359" xlink:href="#DejaVuSans-66"/>
     <use x="166.148438" xlink:href="#DejaVuSans-65"/>
     <use x="227.671875" xlink:href="#DejaVuSans-72"/>
     <use x="268.753906" xlink:href="#DejaVuSans-65"/>
     <use x="330.277344" xlink:href="#DejaVuSans-6e"/>
     <use x="393.65625" xlink:href="#DejaVuSans-63"/>
     <use x="448.636719" xlink:href="#DejaVuSans-65"/>
    </g>
   </g>
  </g>
  <g id="axes_2">
   <g id="patch_5">
    <path d="M 234.31598 181.24 
L 386.07402 181.24 
L 386.07402 27.6 
L 234.31598 27.6 
z
" style="fill:#ffffff;"/>
   </g>
   <g id="PolyCollection_6">
    <defs>
     <path d="M 241.060782 -115.304032 
L 241.060782 -73.425256 
L 247.805584 -56.402026 
L 254.550386 -85.004884 
L 261.295187 -76.149937 
L 268.039989 -58.279917 
L 268.039989 -109.109781 
L 268.039989 -109.109781 
L 261.295187 -126.762503 
L 254.550386 -120.926014 
L 247.805584 -88.022202 
L 241.060782 -115.304032 
z
" id="m6891e3fa35" style="stroke:#001a33;stroke-opacity:0.2;"/>
    </defs>
    <g clip-path="url(#p9a2fefadd3)">
     <use style="fill:#001a33;fill-opacity:0.2;stroke:#001a33;stroke-opacity:0.2;" x="0" xlink:href="#m6891e3fa35" y="230.4"/>
    </g>
   </g>
   <g id="PolyCollection_7">
    <defs>
     <path d="M 268.039989 -116.021277 
L 268.039989 -83.404516 
L 274.784791 -58.9788 
L 281.529593 -81.526064 
L 288.274394 -73.585134 
L 295.019196 -51.254814 
L 295.019196 -107.12626 
L 295.019196 -107.12626 
L 288.274394 -123.256738 
L 281.529593 -118.797185 
L 274.784791 -87.352294 
L 268.039989 -116.021277 
z
" id="ma609f92a95" style="stroke:#003366;stroke-opacity:0.2;"/>
    </defs>
    <g clip-path="url(#p9a2fefadd3)">
     <use style="fill:#003366;fill-opacity:0.2;stroke:#003366;stroke-opacity:0.2;" x="0" xlink:href="#ma609f92a95" y="230.4"/>
    </g>
   </g>
   <g id="PolyCollection_8">
    <defs>
     <path d="M 295.019196 -112.77887 
L 295.019196 -82.234324 
L 301.763998 -56.682943 
L 308.5088 -87.455207 
L 315.253601 -76.009023 
L 321.998403 -52.070823 
L 321.998403 -122.657415 
L 321.998403 -122.657415 
L 315.253601 -142.358788 
L 308.5088 -125.836924 
L 301.763998 -96.684741 
L 295.019196 -112.77887 
z
" id="m4b5cb04b3f" style="stroke:#004d99;stroke-opacity:0.2;"/>
    </defs>
    <g clip-path="url(#p9a2fefadd3)">
     <use style="fill:#004d99;fill-opacity:0.2;stroke:#004d99;stroke-opacity:0.2;" x="0" xlink:href="#m4b5cb04b3f" y="230.4"/>
    </g>
   </g>
   <g id="PolyCollection_9">
    <defs>
     <path d="M 321.998403 -122.96996 
L 321.998403 -87.053825 
L 328.743205 -58.968908 
L 335.488007 -90.920393 
L 342.232808 -70.939395 
L 348.97761 -47.593584 
L 348.97761 -108.258384 
L 348.97761 -108.258384 
L 342.232808 -116.769365 
L 335.488007 -116.36849 
L 328.743205 -98.774937 
L 321.998403 -122.96996 
z
" id="m6b95cd1f4e" style="stroke:#0066cc;stroke-opacity:0.2;"/>
    </defs>
    <g clip-path="url(#p9a2fefadd3)">
     <use style="fill:#0066cc;fill-opacity:0.2;stroke:#0066cc;stroke-opacity:0.2;" x="0" xlink:href="#m6b95cd1f4e" y="230.4"/>
    </g>
   </g>
   <g id="PolyCollection_10">
    <defs>
     <path d="M 348.97761 -106.046566 
L 348.97761 -83.103999 
L 355.722412 -57.485887 
L 362.467214 -79.411347 
L 369.212015 -67.207451 
L 375.956817 -51.487169 
L 375.956817 -114.020597 
L 375.956817 -114.020597 
L 369.212015 -123.9976 
L 362.467214 -113.580617 
L 355.722412 -91.463548 
L 348.97761 -106.046566 
z
" id="md157cf1a2f" style="stroke:#0080ff;stroke-opacity:0.2;"/>
    </defs>
    <g clip-path="url(#p9a2fefadd3)">
     <use style="fill:#0080ff;fill-opacity:0.2;stroke:#0080ff;stroke-opacity:0.2;" x="0" xlink:href="#md157cf1a2f" y="230.4"/>
    </g>
   </g>
   <g id="matplotlib.axis_3">
    <g id="xtick_7">
     <g id="line2d_16">
      <g>
       <use style="stroke:#000000;stroke-width:0.8;" x="251.177985" xlink:href="#m6f1b4f6322" y="181.24"/>
      </g>
     </g>
     <g id="text_12">
      <!-- 1 -->
      <g transform="translate(246.724235 198.877813)scale(0.14 -0.14)">
       <use xlink:href="#DejaVuSans-31"/>
      </g>
     </g>
    </g>
    <g id="xtick_8">
     <g id="line2d_17">
      <g>
       <use style="stroke:#000000;stroke-width:0.8;" x="278.157192" xlink:href="#m6f1b4f6322" y="181.24"/>
      </g>
     </g>
     <g id="text_13">
      <!-- 2 -->
      <g transform="translate(273.703442 198.877813)scale(0.14 -0.14)">
       <use xlink:href="#DejaVuSans-32"/>
      </g>
     </g>
    </g>
    <g id="xtick_9">
     <g id="line2d_18">
      <g>
       <use style="stroke:#000000;stroke-width:0.8;" x="305.136399" xlink:href="#m6f1b4f6322" y="181.24"/>
      </g>
     </g>
     <g id="text_14">
      <!-- 3 -->
      <g transform="translate(300.682649 198.877813)scale(0.14 -0.14)">
       <use xlink:href="#DejaVuSans-33"/>
      </g>
     </g>
    </g>
    <g id="xtick_10">
     <g id="line2d_19">
      <g>
       <use style="stroke:#000000;stroke-width:0.8;" x="332.115606" xlink:href="#m6f1b4f6322" y="181.24"/>
      </g>
     </g>
     <g id="text_15">
      <!-- 4 -->
      <g transform="translate(327.661856 198.877813)scale(0.14 -0.14)">
       <use xlink:href="#DejaVuSans-34"/>
      </g>
     </g>
    </g>
    <g id="xtick_11">
     <g id="line2d_20">
      <g>
       <use style="stroke:#000000;stroke-width:0.8;" x="359.094813" xlink:href="#m6f1b4f6322" y="181.24"/>
      </g>
     </g>
     <g id="text_16">
      <!-- 5 -->
      <g transform="translate(354.641063 198.877813)scale(0.14 -0.14)">
       <use xlink:href="#DejaVuSans-35"/>
      </g>
     </g>
    </g>
    <g id="xtick_12">
     <g id="line2d_21">
      <g>
       <use style="stroke:#000000;stroke-width:0.8;" x="386.07402" xlink:href="#m6f1b4f6322" y="181.24"/>
      </g>
     </g>
    </g>
    <g id="text_17">
     <!-- Stimulus presentation -->
     <defs>
      <path d="M 53.515625 70.515625 
L 53.515625 60.890625 
Q 47.90625 63.578125 42.921875 64.890625 
Q 37.9375 66.21875 33.296875 66.21875 
Q 25.25 66.21875 20.875 63.09375 
Q 16.5 59.96875 16.5 54.203125 
Q 16.5 49.359375 19.40625 46.890625 
Q 22.3125 44.4375 30.421875 42.921875 
L 36.375 41.703125 
Q 47.40625 39.59375 52.65625 34.296875 
Q 57.90625 29 57.90625 20.125 
Q 57.90625 9.515625 50.796875 4.046875 
Q 43.703125 -1.421875 29.984375 -1.421875 
Q 24.8125 -1.421875 18.96875 -0.25 
Q 13.140625 0.921875 6.890625 3.21875 
L 6.890625 13.375 
Q 12.890625 10.015625 18.65625 8.296875 
Q 24.421875 6.59375 29.984375 6.59375 
Q 38.421875 6.59375 43.015625 9.90625 
Q 47.609375 13.234375 47.609375 19.390625 
Q 47.609375 24.75 44.3125 27.78125 
Q 41.015625 30.8125 33.5 32.328125 
L 27.484375 33.5 
Q 16.453125 35.6875 11.515625 40.375 
Q 6.59375 45.0625 6.59375 53.421875 
Q 6.59375 63.09375 13.40625 68.65625 
Q 20.21875 74.21875 32.171875 74.21875 
Q 37.3125 74.21875 42.625 73.28125 
Q 47.953125 72.359375 53.515625 70.515625 
z
" id="DejaVuSans-53"/>
      <path d="M 18.3125 70.21875 
L 18.3125 54.6875 
L 36.8125 54.6875 
L 36.8125 47.703125 
L 18.3125 47.703125 
L 18.3125 18.015625 
Q 18.3125 11.328125 20.140625 9.421875 
Q 21.96875 7.515625 27.59375 7.515625 
L 36.8125 7.515625 
L 36.8125 0 
L 27.59375 0 
Q 17.1875 0 13.234375 3.875 
Q 9.28125 7.765625 9.28125 18.015625 
L 9.28125 47.703125 
L 2.6875 47.703125 
L 2.6875 54.6875 
L 9.28125 54.6875 
L 9.28125 70.21875 
z
" id="DejaVuSans-74"/>
      <path d="M 9.421875 54.6875 
L 18.40625 54.6875 
L 18.40625 0 
L 9.421875 0 
z
M 9.421875 75.984375 
L 18.40625 75.984375 
L 18.40625 64.59375 
L 9.421875 64.59375 
z
" id="DejaVuSans-69"/>
      <path d="M 52 44.1875 
Q 55.375 50.25 60.0625 53.125 
Q 64.75 56 71.09375 56 
Q 79.640625 56 84.28125 50.015625 
Q 88.921875 44.046875 88.921875 33.015625 
L 88.921875 0 
L 79.890625 0 
L 79.890625 32.71875 
Q 79.890625 40.578125 77.09375 44.375 
Q 74.3125 48.1875 68.609375 48.1875 
Q 61.625 48.1875 57.5625 43.546875 
Q 53.515625 38.921875 53.515625 30.90625 
L 53.515625 0 
L 44.484375 0 
L 44.484375 32.71875 
Q 44.484375 40.625 41.703125 44.40625 
Q 38.921875 48.1875 33.109375 48.1875 
Q 26.21875 48.1875 22.15625 43.53125 
Q 18.109375 38.875 18.109375 30.90625 
L 18.109375 0 
L 9.078125 0 
L 9.078125 54.6875 
L 18.109375 54.6875 
L 18.109375 46.1875 
Q 21.1875 51.21875 25.484375 53.609375 
Q 29.78125 56 35.6875 56 
Q 41.65625 56 45.828125 52.96875 
Q 50 49.953125 52 44.1875 
z
" id="DejaVuSans-6d"/>
      <path d="M 8.5 21.578125 
L 8.5 54.6875 
L 17.484375 54.6875 
L 17.484375 21.921875 
Q 17.484375 14.15625 20.5 10.265625 
Q 23.53125 6.390625 29.59375 6.390625 
Q 36.859375 6.390625 41.078125 11.03125 
Q 45.3125 15.671875 45.3125 23.6875 
L 45.3125 54.6875 
L 54.296875 54.6875 
L 54.296875 0 
L 45.3125 0 
L 45.3125 8.40625 
Q 42.046875 3.421875 37.71875 1 
Q 33.40625 -1.421875 27.6875 -1.421875 
Q 18.265625 -1.421875 13.375 4.4375 
Q 8.5 10.296875 8.5 21.578125 
z
M 31.109375 56 
z
" id="DejaVuSans-75"/>
      <path d="M 9.421875 75.984375 
L 18.40625 75.984375 
L 18.40625 0 
L 9.421875 0 
z
" id="DejaVuSans-6c"/>
      <path d="M 44.28125 53.078125 
L 44.28125 44.578125 
Q 40.484375 46.53125 36.375 47.5 
Q 32.28125 48.484375 27.875 48.484375 
Q 21.1875 48.484375 17.84375 46.4375 
Q 14.5 44.390625 14.5 40.28125 
Q 14.5 37.15625 16.890625 35.375 
Q 19.28125 33.59375 26.515625 31.984375 
L 29.59375 31.296875 
Q 39.15625 29.25 43.1875 25.515625 
Q 47.21875 21.78125 47.21875 15.09375 
Q 47.21875 7.46875 41.1875 3.015625 
Q 35.15625 -1.421875 24.609375 -1.421875 
Q 20.21875 -1.421875 15.453125 -0.5625 
Q 10.6875 0.296875 5.421875 2 
L 5.421875 11.28125 
Q 10.40625 8.6875 15.234375 7.390625 
Q 20.0625 6.109375 24.8125 6.109375 
Q 31.15625 6.109375 34.5625 8.28125 
Q 37.984375 10.453125 37.984375 14.40625 
Q 37.984375 18.0625 35.515625 20.015625 
Q 33.0625 21.96875 24.703125 23.78125 
L 21.578125 24.515625 
Q 13.234375 26.265625 9.515625 29.90625 
Q 5.8125 33.546875 5.8125 39.890625 
Q 5.8125 47.609375 11.28125 51.796875 
Q 16.75 56 26.8125 56 
Q 31.78125 56 36.171875 55.265625 
Q 40.578125 54.546875 44.28125 53.078125 
z
" id="DejaVuSans-73"/>
      <path id="DejaVuSans-20"/>
      <path d="M 18.109375 8.203125 
L 18.109375 -20.796875 
L 9.078125 -20.796875 
L 9.078125 54.6875 
L 18.109375 54.6875 
L 18.109375 46.390625 
Q 20.953125 51.265625 25.265625 53.625 
Q 29.59375 56 35.59375 56 
Q 45.5625 56 51.78125 48.09375 
Q 58.015625 40.1875 58.015625 27.296875 
Q 58.015625 14.40625 51.78125 6.484375 
Q 45.5625 -1.421875 35.59375 -1.421875 
Q 29.59375 -1.421875 25.265625 0.953125 
Q 20.953125 3.328125 18.109375 8.203125 
z
M 48.6875 27.296875 
Q 48.6875 37.203125 44.609375 42.84375 
Q 40.53125 48.484375 33.40625 48.484375 
Q 26.265625 48.484375 22.1875 42.84375 
Q 18.109375 37.203125 18.109375 27.296875 
Q 18.109375 17.390625 22.1875 11.75 
Q 26.265625 6.109375 33.40625 6.109375 
Q 40.53125 6.109375 44.609375 11.75 
Q 48.6875 17.390625 48.6875 27.296875 
z
" id="DejaVuSans-70"/>
      <path d="M 34.28125 27.484375 
Q 23.390625 27.484375 19.1875 25 
Q 14.984375 22.515625 14.984375 16.5 
Q 14.984375 11.71875 18.140625 8.90625 
Q 21.296875 6.109375 26.703125 6.109375 
Q 34.1875 6.109375 38.703125 11.40625 
Q 43.21875 16.703125 43.21875 25.484375 
L 43.21875 27.484375 
z
M 52.203125 31.203125 
L 52.203125 0 
L 43.21875 0 
L 43.21875 8.296875 
Q 40.140625 3.328125 35.546875 0.953125 
Q 30.953125 -1.421875 24.3125 -1.421875 
Q 15.921875 -1.421875 10.953125 3.296875 
Q 6 8.015625 6 15.921875 
Q 6 25.140625 12.171875 29.828125 
Q 18.359375 34.515625 30.609375 34.515625 
L 43.21875 34.515625 
L 43.21875 35.40625 
Q 43.21875 41.609375 39.140625 45 
Q 35.0625 48.390625 27.6875 48.390625 
Q 23 48.390625 18.546875 47.265625 
Q 14.109375 46.140625 10.015625 43.890625 
L 10.015625 52.203125 
Q 14.9375 54.109375 19.578125 55.046875 
Q 24.21875 56 28.609375 56 
Q 40.484375 56 46.34375 49.84375 
Q 52.203125 43.703125 52.203125 31.203125 
z
" id="DejaVuSans-61"/>
      <path d="M 30.609375 48.390625 
Q 23.390625 48.390625 19.1875 42.75 
Q 14.984375 37.109375 14.984375 27.296875 
Q 14.984375 17.484375 19.15625 11.84375 
Q 23.34375 6.203125 30.609375 6.203125 
Q 37.796875 6.203125 41.984375 11.859375 
Q 46.1875 17.53125 46.1875 27.296875 
Q 46.1875 37.015625 41.984375 42.703125 
Q 37.796875 48.390625 30.609375 48.390625 
z
M 30.609375 56 
Q 42.328125 56 49.015625 48.375 
Q 55.71875 40.765625 55.71875 27.296875 
Q 55.71875 13.875 49.015625 6.21875 
Q 42.328125 -1.421875 30.609375 -1.421875 
Q 18.84375 -1.421875 12.171875 6.21875 
Q 5.515625 13.875 5.515625 27.296875 
Q 5.515625 40.765625 12.171875 48.375 
Q 18.84375 56 30.609375 56 
z
" id="DejaVuSans-6f"/>
     </defs>
     <g transform="translate(233.096562 216.427188)scale(0.14 -0.14)">
      <use xlink:href="#DejaVuSans-53"/>
      <use x="63.476562" xlink:href="#DejaVuSans-74"/>
      <use x="102.685547" xlink:href="#DejaVuSans-69"/>
      <use x="130.46875" xlink:href="#DejaVuSans-6d"/>
      <use x="227.880859" xlink:href="#DejaVuSans-75"/>
      <use x="291.259766" xlink:href="#DejaVuSans-6c"/>
      <use x="319.042969" xlink:href="#DejaVuSans-75"/>
      <use x="382.421875" xlink:href="#DejaVuSans-73"/>
      <use x="434.521484" xlink:href="#DejaVuSans-20"/>
      <use x="466.308594" xlink:href="#DejaVuSans-70"/>
      <use x="529.785156" xlink:href="#DejaVuSans-72"/>
      <use x="570.867188" xlink:href="#DejaVuSans-65"/>
      <use x="632.390625" xlink:href="#DejaVuSans-73"/>
      <use x="684.490234" xlink:href="#DejaVuSans-65"/>
      <use x="746.013672" xlink:href="#DejaVuSans-6e"/>
      <use x="809.392578" xlink:href="#DejaVuSans-74"/>
      <use x="848.601562" xlink:href="#DejaVuSans-61"/>
      <use x="909.880859" xlink:href="#DejaVuSans-74"/>
      <use x="949.089844" xlink:href="#DejaVuSans-69"/>
      <use x="976.873047" xlink:href="#DejaVuSans-6f"/>
      <use x="1038.054688" xlink:href="#DejaVuSans-6e"/>
     </g>
    </g>
   </g>
   <g id="matplotlib.axis_4"/>
   <g id="line2d_22">
    <path clip-path="url(#p9a2fefadd3)" d="M 241.060782 136.035356 
L 247.805584 158.187886 
L 254.550386 127.434551 
L 261.295187 128.94378 
L 268.039989 146.705151 
" style="fill:none;stroke:#001a33;stroke-linecap:square;stroke-width:1.5;"/>
   </g>
   <g id="line2d_23">
    <path clip-path="url(#p9a2fefadd3)" d="M 268.039989 130.687104 
L 274.784791 157.234453 
L 281.529593 130.238375 
L 288.274394 131.979064 
L 295.019196 151.209463 
" style="fill:none;stroke:#003366;stroke-linecap:square;stroke-width:1.5;"/>
   </g>
   <g id="line2d_24">
    <path clip-path="url(#p9a2fefadd3)" d="M 295.019196 132.893403 
L 301.763998 153.716158 
L 308.5088 123.753934 
L 315.253601 121.216094 
L 321.998403 143.035881 
" style="fill:none;stroke:#004d99;stroke-linecap:square;stroke-width:1.5;"/>
   </g>
   <g id="line2d_25">
    <path clip-path="url(#p9a2fefadd3)" d="M 321.998403 125.388108 
L 328.743205 151.528077 
L 335.488007 126.755558 
L 342.232808 136.54562 
L 348.97761 152.474016 
" style="fill:none;stroke:#0066cc;stroke-linecap:square;stroke-width:1.5;"/>
   </g>
   <g id="line2d_26">
    <path clip-path="url(#p9a2fefadd3)" d="M 348.97761 135.824718 
L 355.722412 155.925282 
L 362.467214 133.904018 
L 369.212015 134.797474 
L 375.956817 147.646117 
" style="fill:none;stroke:#0080ff;stroke-linecap:square;stroke-width:1.5;"/>
   </g>
   <g id="patch_6">
    <path d="M 234.31598 181.24 
L 386.07402 181.24 
" style="fill:none;stroke:#000000;stroke-linecap:square;stroke-linejoin:miter;stroke-width:0.8;"/>
   </g>
   <g id="text_18">
    <!-- Oddball 2 -->
    <defs>
     <path d="M 39.40625 66.21875 
Q 28.65625 66.21875 22.328125 58.203125 
Q 16.015625 50.203125 16.015625 36.375 
Q 16.015625 22.609375 22.328125 14.59375 
Q 28.65625 6.59375 39.40625 6.59375 
Q 50.140625 6.59375 56.421875 14.59375 
Q 62.703125 22.609375 62.703125 36.375 
Q 62.703125 50.203125 56.421875 58.203125 
Q 50.140625 66.21875 39.40625 66.21875 
z
M 39.40625 74.21875 
Q 54.734375 74.21875 63.90625 63.9375 
Q 73.09375 53.65625 73.09375 36.375 
Q 73.09375 19.140625 63.90625 8.859375 
Q 54.734375 -1.421875 39.40625 -1.421875 
Q 24.03125 -1.421875 14.8125 8.828125 
Q 5.609375 19.09375 5.609375 36.375 
Q 5.609375 53.65625 14.8125 63.9375 
Q 24.03125 74.21875 39.40625 74.21875 
z
" id="DejaVuSans-4f"/>
     <path d="M 45.40625 46.390625 
L 45.40625 75.984375 
L 54.390625 75.984375 
L 54.390625 0 
L 45.40625 0 
L 45.40625 8.203125 
Q 42.578125 3.328125 38.25 0.953125 
Q 33.9375 -1.421875 27.875 -1.421875 
Q 17.96875 -1.421875 11.734375 6.484375 
Q 5.515625 14.40625 5.515625 27.296875 
Q 5.515625 40.1875 11.734375 48.09375 
Q 17.96875 56 27.875 56 
Q 33.9375 56 38.25 53.625 
Q 42.578125 51.265625 45.40625 46.390625 
z
M 14.796875 27.296875 
Q 14.796875 17.390625 18.875 11.75 
Q 22.953125 6.109375 30.078125 6.109375 
Q 37.203125 6.109375 41.296875 11.75 
Q 45.40625 17.390625 45.40625 27.296875 
Q 45.40625 37.203125 41.296875 42.84375 
Q 37.203125 48.484375 30.078125 48.484375 
Q 22.953125 48.484375 18.875 42.84375 
Q 14.796875 37.203125 14.796875 27.296875 
z
" id="DejaVuSans-64"/>
     <path d="M 48.6875 27.296875 
Q 48.6875 37.203125 44.609375 42.84375 
Q 40.53125 48.484375 33.40625 48.484375 
Q 26.265625 48.484375 22.1875 42.84375 
Q 18.109375 37.203125 18.109375 27.296875 
Q 18.109375 17.390625 22.1875 11.75 
Q 26.265625 6.109375 33.40625 6.109375 
Q 40.53125 6.109375 44.609375 11.75 
Q 48.6875 17.390625 48.6875 27.296875 
z
M 18.109375 46.390625 
Q 20.953125 51.265625 25.265625 53.625 
Q 29.59375 56 35.59375 56 
Q 45.5625 56 51.78125 48.09375 
Q 58.015625 40.1875 58.015625 27.296875 
Q 58.015625 14.40625 51.78125 6.484375 
Q 45.5625 -1.421875 35.59375 -1.421875 
Q 29.59375 -1.421875 25.265625 0.953125 
Q 20.953125 3.328125 18.109375 8.203125 
L 18.109375 0 
L 9.078125 0 
L 9.078125 75.984375 
L 18.109375 75.984375 
z
" id="DejaVuSans-62"/>
    </defs>
    <g transform="translate(276.495469 21.6)scale(0.14 -0.14)">
     <use xlink:href="#DejaVuSans-4f"/>
     <use x="78.710938" xlink:href="#DejaVuSans-64"/>
     <use x="142.1875" xlink:href="#DejaVuSans-64"/>
     <use x="205.664062" xlink:href="#DejaVuSans-62"/>
     <use x="269.140625" xlink:href="#DejaVuSans-61"/>
     <use x="330.419922" xlink:href="#DejaVuSans-6c"/>
     <use x="358.203125" xlink:href="#DejaVuSans-6c"/>
     <use x="385.986328" xlink:href="#DejaVuSans-20"/>
     <use x="417.773438" xlink:href="#DejaVuSans-32"/>
    </g>
   </g>
  </g>
  <g id="axes_3">
   <g id="patch_7">
    <path d="M 410.921961 181.24 
L 562.68 181.24 
L 562.68 27.6 
L 410.921961 27.6 
z
" style="fill:#ffffff;"/>
   </g>
   <g id="PolyCollection_11">
    <defs>
     <path d="M 417.666763 -78.541353 
L 417.666763 -55.209225 
L 424.411564 -84.236502 
L 431.156366 -90.324866 
L 437.901168 -78.742002 
L 444.645969 -57.803065 
L 444.645969 -75.710536 
L 444.645969 -75.710536 
L 437.901168 -99.076658 
L 431.156366 -126.028639 
L 424.411564 -137.816154 
L 417.666763 -78.541353 
z
" id="m3201b688a7" style="stroke:#001a33;stroke-opacity:0.2;"/>
    </defs>
    <g clip-path="url(#pdec0ab1159)">
     <use style="fill:#001a33;fill-opacity:0.2;stroke:#001a33;stroke-opacity:0.2;" x="0" xlink:href="#m3201b688a7" y="230.4"/>
    </g>
   </g>
   <g id="PolyCollection_12">
    <defs>
     <path d="M 444.645969 -91.769129 
L 444.645969 -61.483696 
L 451.390771 -100.358395 
L 458.135573 -99.867906 
L 464.880375 -82.549118 
L 471.625176 -57.140618 
L 471.625176 -69.160776 
L 471.625176 -69.160776 
L 464.880375 -96.846974 
L 458.135573 -123.374503 
L 451.390771 -133.058547 
L 444.645969 -91.769129 
z
" id="mbd9e386102" style="stroke:#003366;stroke-opacity:0.2;"/>
    </defs>
    <g clip-path="url(#pdec0ab1159)">
     <use style="fill:#003366;fill-opacity:0.2;stroke:#003366;stroke-opacity:0.2;" x="0" xlink:href="#mbd9e386102" y="230.4"/>
    </g>
   </g>
   <g id="PolyCollection_13">
    <defs>
     <path d="M 471.625176 -77.152275 
L 471.625176 -57.199124 
L 478.369978 -89.997548 
L 485.11478 -91.532276 
L 491.859582 -70.03607 
L 498.604383 -53.111374 
L 498.604383 -82.330109 
L 498.604383 -82.330109 
L 491.859582 -107.050924 
L 485.11478 -127.242648 
L 478.369978 -127.119 
L 471.625176 -77.152275 
z
" id="m5586471a29" style="stroke:#004d99;stroke-opacity:0.2;"/>
    </defs>
    <g clip-path="url(#pdec0ab1159)">
     <use style="fill:#004d99;fill-opacity:0.2;stroke:#004d99;stroke-opacity:0.2;" x="0" xlink:href="#m5586471a29" y="230.4"/>
    </g>
   </g>
   <g id="PolyCollection_14">
    <defs>
     <path d="M 498.604383 -98.816388 
L 498.604383 -63.96711 
L 505.349185 -97.091338 
L 512.093987 -90.9162 
L 518.838789 -76.774352 
L 525.58359 -57.608729 
L 525.58359 -68.781689 
L 525.58359 -68.781689 
L 518.838789 -101.896005 
L 512.093987 -124.739829 
L 505.349185 -136.929881 
L 498.604383 -98.816388 
z
" id="m0063868697" style="stroke:#0066cc;stroke-opacity:0.2;"/>
    </defs>
    <g clip-path="url(#pdec0ab1159)">
     <use style="fill:#0066cc;fill-opacity:0.2;stroke:#0066cc;stroke-opacity:0.2;" x="0" xlink:href="#m0063868697" y="230.4"/>
    </g>
   </g>
   <g id="PolyCollection_15">
    <defs>
     <path d="M 525.58359 -83.634448 
L 525.58359 -60.444476 
L 532.328392 -88.276196 
L 539.073194 -87.128198 
L 545.817996 -72.448481 
L 552.562797 -59.070769 
L 552.562797 -63.919531 
L 552.562797 -63.919531 
L 545.817996 -90.742949 
L 539.073194 -107.081953 
L 532.328392 -115.689838 
L 525.58359 -83.634448 
z
" id="mbd78d06ede" style="stroke:#0080ff;stroke-opacity:0.2;"/>
    </defs>
    <g clip-path="url(#pdec0ab1159)">
     <use style="fill:#0080ff;fill-opacity:0.2;stroke:#0080ff;stroke-opacity:0.2;" x="0" xlink:href="#mbd78d06ede" y="230.4"/>
    </g>
   </g>
   <g id="matplotlib.axis_5">
    <g id="xtick_13">
     <g id="line2d_27">
      <g>
       <use style="stroke:#000000;stroke-width:0.8;" x="427.783965" xlink:href="#m6f1b4f6322" y="181.24"/>
      </g>
     </g>
     <g id="text_19">
      <!-- 1 -->
      <g transform="translate(423.330215 198.877813)scale(0.14 -0.14)">
       <use xlink:href="#DejaVuSans-31"/>
      </g>
     </g>
    </g>
    <g id="xtick_14">
     <g id="line2d_28">
      <g>
       <use style="stroke:#000000;stroke-width:0.8;" x="454.763172" xlink:href="#m6f1b4f6322" y="181.24"/>
      </g>
     </g>
     <g id="text_20">
      <!-- 2 -->
      <g transform="translate(450.309422 198.877813)scale(0.14 -0.14)">
       <use xlink:href="#DejaVuSans-32"/>
      </g>
     </g>
    </g>
    <g id="xtick_15">
     <g id="line2d_29">
      <g>
       <use style="stroke:#000000;stroke-width:0.8;" x="481.742379" xlink:href="#m6f1b4f6322" y="181.24"/>
      </g>
     </g>
     <g id="text_21">
      <!-- 3 -->
      <g transform="translate(477.288629 198.877813)scale(0.14 -0.14)">
       <use xlink:href="#DejaVuSans-33"/>
      </g>
     </g>
    </g>
    <g id="xtick_16">
     <g id="line2d_30">
      <g>
       <use style="stroke:#000000;stroke-width:0.8;" x="508.721586" xlink:href="#m6f1b4f6322" y="181.24"/>
      </g>
     </g>
     <g id="text_22">
      <!-- 4 -->
      <g transform="translate(504.267836 198.877813)scale(0.14 -0.14)">
       <use xlink:href="#DejaVuSans-34"/>
      </g>
     </g>
    </g>
    <g id="xtick_17">
     <g id="line2d_31">
      <g>
       <use style="stroke:#000000;stroke-width:0.8;" x="535.700793" xlink:href="#m6f1b4f6322" y="181.24"/>
      </g>
     </g>
     <g id="text_23">
      <!-- 5 -->
      <g transform="translate(531.247043 198.877813)scale(0.14 -0.14)">
       <use xlink:href="#DejaVuSans-35"/>
      </g>
     </g>
    </g>
    <g id="xtick_18">
     <g id="line2d_32">
      <g>
       <use style="stroke:#000000;stroke-width:0.8;" x="562.68" xlink:href="#m6f1b4f6322" y="181.24"/>
      </g>
     </g>
    </g>
   </g>
   <g id="matplotlib.axis_6"/>
   <g id="line2d_33">
    <path clip-path="url(#pdec0ab1159)" d="M 417.666763 163.524711 
L 424.411564 119.373672 
L 431.156366 122.223248 
L 437.901168 141.49067 
L 444.645969 163.6432 
" style="fill:none;stroke:#001a33;stroke-linecap:square;stroke-width:1.5;"/>
   </g>
   <g id="line2d_34">
    <path clip-path="url(#pdec0ab1159)" d="M 444.645969 153.773587 
L 451.390771 113.691529 
L 458.135573 118.778796 
L 464.880375 140.701954 
L 471.625176 167.249303 
" style="fill:none;stroke:#003366;stroke-linecap:square;stroke-width:1.5;"/>
   </g>
   <g id="line2d_35">
    <path clip-path="url(#pdec0ab1159)" d="M 471.625176 163.224301 
L 478.369978 121.841726 
L 485.11478 121.012538 
L 491.859582 141.856503 
L 498.604383 162.679258 
" style="fill:none;stroke:#004d99;stroke-linecap:square;stroke-width:1.5;"/>
   </g>
   <g id="line2d_36">
    <path clip-path="url(#pdec0ab1159)" d="M 498.604383 149.008251 
L 505.349185 113.38939 
L 512.093987 122.571985 
L 518.838789 141.064821 
L 525.58359 167.204791 
" style="fill:none;stroke:#0066cc;stroke-linecap:square;stroke-width:1.5;"/>
   </g>
   <g id="line2d_37">
    <path clip-path="url(#pdec0ab1159)" d="M 525.58359 158.360538 
L 532.328392 128.416983 
L 539.073194 133.294925 
L 545.817996 148.804285 
L 552.562797 168.90485 
" style="fill:none;stroke:#0080ff;stroke-linecap:square;stroke-width:1.5;"/>
   </g>
   <g id="patch_8">
    <path d="M 410.921961 181.24 
L 562.68 181.24 
" style="fill:none;stroke:#000000;stroke-linecap:square;stroke-linejoin:miter;stroke-width:0.8;"/>
   </g>
   <g id="text_24">
    <!-- Pre-oddball -->
    <defs>
     <path d="M 19.671875 64.796875 
L 19.671875 37.40625 
L 32.078125 37.40625 
Q 38.96875 37.40625 42.71875 40.96875 
Q 46.484375 44.53125 46.484375 51.125 
Q 46.484375 57.671875 42.71875 61.234375 
Q 38.96875 64.796875 32.078125 64.796875 
z
M 9.8125 72.90625 
L 32.078125 72.90625 
Q 44.34375 72.90625 50.609375 67.359375 
Q 56.890625 61.8125 56.890625 51.125 
Q 56.890625 40.328125 50.609375 34.8125 
Q 44.34375 29.296875 32.078125 29.296875 
L 19.671875 29.296875 
L 19.671875 0 
L 9.8125 0 
z
" id="DejaVuSans-50"/>
     <path d="M 4.890625 31.390625 
L 31.203125 31.390625 
L 31.203125 23.390625 
L 4.890625 23.390625 
z
" id="DejaVuSans-2d"/>
    </defs>
    <g transform="translate(447.078168 21.6)scale(0.14 -0.14)">
     <use xlink:href="#DejaVuSans-50"/>
     <use x="60.287109" xlink:href="#DejaVuSans-72"/>
     <use x="101.369141" xlink:href="#DejaVuSans-65"/>
     <use x="162.892578" xlink:href="#DejaVuSans-2d"/>
     <use x="198.992188" xlink:href="#DejaVuSans-6f"/>
     <use x="260.173828" xlink:href="#DejaVuSans-64"/>
     <use x="323.650391" xlink:href="#DejaVuSans-64"/>
     <use x="387.126953" xlink:href="#DejaVuSans-62"/>
     <use x="450.603516" xlink:href="#DejaVuSans-61"/>
     <use x="511.882812" xlink:href="#DejaVuSans-6c"/>
     <use x="539.666016" xlink:href="#DejaVuSans-6c"/>
    </g>
   </g>
  </g>
 </g>
 <defs>
  <clipPath id="p350875d4e2">
   <rect height="153.64" width="151.758039" x="57.71" y="27.6"/>
  </clipPath>
  <clipPath id="p9a2fefadd3">
   <rect height="153.64" width="151.758039" x="234.31598" y="27.6"/>
  </clipPath>
  <clipPath id="pdec0ab1159">
   <rect height="153.64" width="151.758039" x="410.921961" y="27.6"/>
  </clipPath>
 </defs>
</svg>
