<?xml version="1.0" encoding="utf-8" standalone="no"?>
<!DOCTYPE svg PUBLIC "-//W3C//DTD SVG 1.1//EN"
  "http://www.w3.org/Graphics/SVG/1.1/DTD/svg11.dtd">
<!-- Created with matplotlib (http://matplotlib.org/) -->
<svg height="230pt" version="1.1" viewBox="0 0 432 230" width="432pt" xmlns="http://www.w3.org/2000/svg" xmlns:xlink="http://www.w3.org/1999/xlink">
 <defs>
  <style type="text/css">
*{stroke-linecap:butt;stroke-linejoin:round;}
  </style>
 </defs>
 <g id="figure_1">
  <g id="patch_1">
   <path d="M 0 230.4 
L 432 230.4 
L 432 0 
L 0 0 
z
" style="fill:#ffffff;"/>
  </g>
  <g id="axes_1">
   <g id="patch_2">
    <path d="M 60.59 178.36 
L 416.118719 178.36 
L 416.118719 13.32 
L 60.59 13.32 
z
" style="fill:#ffffff;"/>
   </g>
   <g id="PolyCollection_1">
    <defs>
     <path d="M 76.750396 -188.103752 
L 76.750396 -161.322924 
L 77.081892 -177.246196 
L 77.413387 -179.297788 
L 77.744882 -175.604638 
L 78.076378 -169.838614 
L 78.407873 -166.745807 
L 78.739368 -161.971738 
L 79.070863 -158.400487 
L 79.402359 -155.257941 
L 79.733854 -153.233835 
L 80.065349 -152.527656 
L 80.396845 -150.374261 
L 80.72834 -150.021828 
L 81.059835 -148.066632 
L 81.391331 -145.949561 
L 81.722826 -143.852173 
L 82.054321 -142.191113 
L 82.385817 -140.506638 
L 82.717312 -140.449668 
L 83.048807 -140.042888 
L 83.380302 -139.778078 
L 83.711798 -139.013732 
L 84.043293 -136.450649 
L 84.374788 -134.429578 
L 84.706284 -134.504629 
L 85.037779 -135.162103 
L 85.369274 -135.500431 
L 85.70077 -134.434692 
L 86.032265 -132.961144 
L 86.36376 -130.835091 
L 86.695256 -132.115583 
L 87.026751 -135.386659 
L 87.358246 -135.140409 
L 87.689742 -133.84754 
L 88.021237 -132.018158 
L 88.352732 -130.611774 
L 88.684227 -129.854551 
L 89.015723 -129.725436 
L 89.347218 -129.380282 
L 89.678713 -127.465854 
L 90.010209 -127.927205 
L 90.341704 -128.440134 
L 90.673199 -127.963797 
L 91.004695 -129.113711 
L 91.33619 -130.707582 
L 91.667685 -129.615864 
L 91.999181 -127.157292 
L 92.330676 -126.670617 
L 92.662171 -124.808476 
L 92.993666 -123.669697 
L 93.325162 -123.02677 
L 93.656657 -122.746123 
L 93.988152 -122.496089 
L 94.319648 -121.231177 
L 94.651143 -121.163135 
L 94.982638 -119.92339 
L 95.314134 -120.821198 
L 95.645629 -119.082223 
L 95.977124 -118.404106 
L 96.30862 -117.634457 
L 96.640115 -117.790304 
L 96.97161 -118.499012 
L 97.303105 -118.470008 
L 97.634601 -118.020604 
L 97.966096 -118.109751 
L 98.297591 -117.292307 
L 98.629087 -116.492156 
L 98.960582 -115.009041 
L 99.292077 -114.543666 
L 99.623573 -112.754987 
L 99.955068 -111.387724 
L 100.286563 -110.730798 
L 100.618059 -110.606279 
L 100.949554 -110.124575 
L 101.281049 -108.965238 
L 101.612544 -109.795299 
L 101.94404 -108.01771 
L 102.275535 -106.421124 
L 102.60703 -108.330779 
L 102.938526 -108.865766 
L 103.270021 -110.928592 
L 103.601516 -110.954767 
L 103.933012 -109.323571 
L 104.264507 -107.979639 
L 104.596002 -106.694922 
L 104.927498 -106.821212 
L 105.258993 -106.81595 
L 105.590488 -106.197291 
L 105.921984 -105.495921 
L 106.253479 -105.037003 
L 106.584974 -104.415 
L 106.916469 -104.560411 
L 107.247965 -103.658318 
L 107.57946 -103.669821 
L 107.910955 -102.312787 
L 108.242451 -103.127859 
L 108.573946 -101.973102 
L 108.905441 -101.722142 
L 109.236937 -101.784462 
L 109.568432 -102.382065 
L 109.899927 -102.000381 
L 110.231423 -102.229581 
L 110.562918 -102.256764 
L 110.894413 -101.233418 
L 111.225908 -100.440319 
L 111.557404 -99.774656 
L 111.888899 -99.881707 
L 112.220394 -99.415775 
L 112.55189 -98.33845 
L 112.883385 -98.008347 
L 113.21488 -98.579051 
L 113.546376 -98.54519 
L 113.877871 -99.168817 
L 114.209366 -98.626819 
L 114.540862 -98.42956 
L 114.872357 -97.628912 
L 115.203852 -97.389162 
L 115.535347 -98.483817 
L 115.866843 -98.408723 
L 116.198338 -99.979685 
L 116.529833 -103.913322 
L 116.861329 -116.470953 
L 117.192824 -129.753132 
L 117.524319 -139.676984 
L 117.855815 -143.781415 
L 118.18731 -146.650821 
L 118.518805 -145.277256 
L 118.850301 -146.329018 
L 119.181796 -145.105675 
L 119.513291 -147.187906 
L 119.844786 -146.329356 
L 120.176282 -149.111263 
L 120.507777 -148.046888 
L 120.839272 -150.067695 
L 121.170768 -150.038216 
L 121.502263 -153.030471 
L 121.833758 -153.097695 
L 122.165254 -157.473559 
L 122.496749 -157.514669 
L 122.828244 -157.767755 
L 123.15974 -156.654837 
L 123.491235 -157.429879 
L 123.82273 -156.007025 
L 124.154226 -154.82299 
L 124.485721 -149.294924 
L 124.817216 -148.98635 
L 125.148711 -147.815726 
L 125.480207 -147.367222 
L 125.811702 -145.278664 
L 126.143197 -145.425554 
L 126.474693 -144.843648 
L 126.806188 -146.034857 
L 127.137683 -145.073068 
L 127.469179 -144.709005 
L 127.800674 -142.928031 
L 128.132169 -142.420194 
L 128.463665 -139.719505 
L 128.79516 -138.240262 
L 129.126655 -137.027047 
L 129.45815 -135.710678 
L 129.789646 -132.805762 
L 130.121141 -131.123168 
L 130.452636 -127.797981 
L 130.784132 -128.48071 
L 131.115627 -128.51879 
L 131.447122 -129.522182 
L 131.778618 -128.398679 
L 132.110113 -128.636649 
L 132.441608 -127.968621 
L 132.773104 -127.688305 
L 133.104599 -127.345064 
L 133.436094 -127.403314 
L 133.767589 -126.485932 
L 134.099085 -126.88822 
L 134.43058 -124.933184 
L 134.762075 -127.767133 
L 135.093571 -125.753128 
L 135.425066 -125.219222 
L 135.756561 -124.60304 
L 136.088057 -125.714264 
L 136.419552 -125.015557 
L 136.751047 -127.043541 
L 137.082543 -125.786165 
L 137.414038 -125.368756 
L 137.745533 -122.779039 
L 138.077028 -122.356485 
L 138.408524 -120.056936 
L 138.740019 -119.714747 
L 139.071514 -118.488096 
L 139.40301 -118.392277 
L 139.734505 -116.353419 
L 140.066 -115.035488 
L 140.397496 -112.90087 
L 140.728991 -111.766871 
L 141.060486 -110.659801 
L 141.391982 -110.256824 
L 141.723477 -109.436419 
L 142.054972 -109.399091 
L 142.386468 -108.301216 
L 142.717963 -109.251855 
L 143.049458 -109.802127 
L 143.380953 -113.183686 
L 143.712449 -111.054856 
L 144.043944 -109.476314 
L 144.375439 -107.799738 
L 144.706935 -106.393656 
L 145.03843 -104.934798 
L 145.369925 -104.554188 
L 145.701421 -102.958096 
L 146.032916 -102.874502 
L 146.364411 -100.764458 
L 146.695907 -98.249052 
L 147.027402 -96.621032 
L 147.358897 -96.581835 
L 147.690392 -96.480108 
L 148.021888 -98.568175 
L 148.353383 -99.182408 
L 148.684878 -98.893662 
L 149.016374 -98.120363 
L 149.347869 -98.800224 
L 149.679364 -97.623121 
L 150.01086 -98.537698 
L 150.342355 -96.952107 
L 150.67385 -99.030183 
L 151.005346 -98.874655 
L 151.336841 -99.360834 
L 151.668336 -98.016416 
L 151.999831 -97.089208 
L 152.331327 -96.950883 
L 152.662822 -99.08634 
L 152.994317 -98.817472 
L 153.325813 -101.463165 
L 153.657308 -102.031285 
L 153.988803 -102.48691 
L 154.320299 -100.104979 
L 154.651794 -99.934844 
L 154.983289 -98.808864 
L 155.314785 -97.79325 
L 155.64628 -96.895921 
L 155.977775 -96.686319 
L 156.30927 -95.331528 
L 156.640766 -96.077673 
L 156.972261 -94.268336 
L 157.303756 -95.166 
L 157.635252 -94.314941 
L 157.966747 -92.033674 
L 158.298242 -91.430642 
L 158.629738 -90.386342 
L 158.961233 -92.538171 
L 159.292728 -93.184202 
L 159.624224 -90.589148 
L 159.955719 -93.105472 
L 160.287214 -91.826672 
L 160.618709 -88.649217 
L 160.950205 -87.67676 
L 161.2817 -89.195093 
L 161.613195 -89.369719 
L 161.944691 -90.845252 
L 162.276186 -91.069221 
L 162.607681 -91.668254 
L 162.939177 -90.644779 
L 163.270672 -92.211642 
L 163.602167 -92.228724 
L 163.933663 -89.959753 
L 164.265158 -87.78986 
L 164.596653 -88.78354 
L 164.928149 -89.034467 
L 165.259644 -92.403811 
L 165.591139 -94.8468 
L 165.922634 -99.88756 
L 166.25413 -103.126972 
L 166.585625 -105.528361 
L 166.91712 -103.397521 
L 167.248616 -101.841549 
L 167.580111 -100.136253 
L 167.911606 -98.995783 
L 168.243102 -97.455035 
L 168.574597 -95.734984 
L 168.906092 -95.287111 
L 169.237588 -97.349246 
L 169.569083 -97.660509 
L 169.900578 -98.614013 
L 170.232073 -98.234115 
L 170.563569 -99.915225 
L 170.895064 -98.352421 
L 171.226559 -96.172136 
L 171.558055 -94.694174 
L 171.88955 -94.910537 
L 172.221045 -94.372361 
L 172.552541 -95.398508 
L 172.884036 -95.4676 
L 173.215531 -95.936743 
L 173.547027 -94.678168 
L 173.878522 -93.958541 
L 174.210017 -92.806557 
L 174.541512 -93.409626 
L 174.873008 -92.324004 
L 175.204503 -91.562135 
L 175.535998 -90.425543 
L 175.867494 -88.834419 
L 176.198989 -86.963489 
L 176.530484 -87.647272 
L 176.86198 -89.574689 
L 177.193475 -90.693506 
L 177.52497 -91.18358 
L 177.856466 -92.285504 
L 178.187961 -90.632348 
L 178.519456 -89.79771 
L 178.850951 -88.387321 
L 179.182447 -85.274905 
L 179.513942 -83.572637 
L 179.845437 -84.924008 
L 180.176933 -86.511099 
L 180.508428 -88.663235 
L 180.839923 -88.871904 
L 181.171419 -91.522897 
L 181.502914 -93.959483 
L 181.834409 -97.055443 
L 182.165905 -97.152898 
L 182.4974 -94.711489 
L 182.828895 -95.429432 
L 183.160391 -95.807361 
L 183.491886 -95.455857 
L 183.823381 -95.68193 
L 184.154876 -95.091678 
L 184.486372 -97.580419 
L 184.817867 -99.981291 
L 185.149362 -102.090328 
L 185.480858 -99.262901 
L 185.812353 -99.147929 
L 186.143848 -96.666868 
L 186.475344 -95.216768 
L 186.806839 -92.961418 
L 187.138334 -92.003651 
L 187.46983 -91.200972 
L 187.801325 -91.198228 
L 188.13282 -89.347632 
L 188.464315 -87.599615 
L 188.795811 -85.804217 
L 189.127306 -86.129338 
L 189.458801 -85.269853 
L 189.790297 -85.615681 
L 190.121792 -84.924245 
L 190.453287 -86.504149 
L 190.784783 -86.82518 
L 191.116278 -86.781615 
L 191.447773 -86.655211 
L 191.779269 -86.917556 
L 192.110764 -86.960709 
L 192.442259 -86.60674 
L 192.773754 -86.843535 
L 193.10525 -86.139792 
L 193.436745 -85.439456 
L 193.76824 -85.376876 
L 194.099736 -84.168368 
L 194.431231 -85.229615 
L 194.762726 -84.747009 
L 195.094222 -83.639568 
L 195.425717 -83.348876 
L 195.757212 -83.741125 
L 196.088708 -82.897048 
L 196.420203 -80.148636 
L 196.751698 -80.239907 
L 197.083193 -81.013105 
L 197.414689 -80.089078 
L 197.746184 -79.900041 
L 198.077679 -80.395459 
L 198.409175 -82.078838 
L 198.74067 -81.679556 
L 199.072165 -82.183435 
L 199.403661 -82.628764 
L 199.735156 -83.723772 
L 200.066651 -82.289295 
L 200.398147 -83.226561 
L 200.729642 -83.217439 
L 201.061137 -83.695409 
L 201.392633 -82.097194 
L 201.724128 -82.190882 
L 202.055623 -81.628514 
L 202.387118 -81.645068 
L 202.718614 -81.845704 
L 203.050109 -81.802745 
L 203.381604 -85.313267 
L 203.7131 -83.178784 
L 204.044595 -82.062721 
L 204.37609 -79.355433 
L 204.707586 -78.090323 
L 205.039081 -79.095639 
L 205.370576 -78.967712 
L 205.702072 -78.601289 
L 206.033567 -77.953328 
L 206.365062 -78.942047 
L 206.696557 -78.737054 
L 207.028053 -79.971227 
L 207.359548 -79.809872 
L 207.691043 -81.884415 
L 208.022539 -81.390647 
L 208.354034 -81.518688 
L 208.685529 -80.746341 
L 209.017025 -80.533205 
L 209.34852 -79.600455 
L 209.680015 -80.933023 
L 210.011511 -81.248087 
L 210.343006 -80.748579 
L 210.674501 -80.285694 
L 211.005996 -79.955939 
L 211.337492 -79.650975 
L 211.668987 -81.320153 
L 212.000482 -82.222825 
L 212.331978 -82.196812 
L 212.663473 -82.061739 
L 212.994968 -79.963402 
L 213.326464 -78.655709 
L 213.657959 -78.149659 
L 213.989454 -75.953323 
L 214.32095 -73.565272 
L 214.652445 -72.32352 
L 214.98394 -72.118648 
L 215.315435 -72.482047 
L 215.646931 -72.454601 
L 215.978426 -73.709955 
L 216.309921 -74.418146 
L 216.641417 -74.750148 
L 216.972912 -77.355119 
L 217.304407 -78.494493 
L 217.635903 -78.784659 
L 217.967398 -77.304917 
L 218.298893 -76.265363 
L 218.630389 -77.646292 
L 218.961884 -79.987958 
L 219.293379 -78.66408 
L 219.624875 -81.160909 
L 219.95637 -85.584051 
L 220.287865 -86.289582 
L 220.61936 -85.234748 
L 220.950856 -84.555479 
L 221.282351 -83.360486 
L 221.613846 -84.015913 
L 221.945342 -82.207865 
L 222.276837 -81.449814 
L 222.608332 -80.181356 
L 222.939828 -79.141952 
L 223.271323 -79.986796 
L 223.602818 -78.900329 
L 223.934314 -78.927894 
L 224.265809 -79.275404 
L 224.597304 -76.928467 
L 224.928799 -75.435068 
L 225.260295 -74.653644 
L 225.59179 -75.578094 
L 225.923285 -76.250867 
L 226.254781 -76.226378 
L 226.586276 -74.877686 
L 226.917771 -76.03371 
L 227.249267 -75.053608 
L 227.580762 -75.446534 
L 227.912257 -74.549025 
L 228.243753 -74.182318 
L 228.575248 -74.972234 
L 228.906743 -74.273348 
L 229.238238 -73.125508 
L 229.569734 -74.884747 
L 229.901229 -74.956398 
L 230.232724 -73.333151 
L 230.56422 -72.491953 
L 230.895715 -70.906274 
L 231.22721 -70.186007 
L 231.558706 -71.846051 
L 231.890201 -72.934201 
L 232.221696 -72.468712 
L 232.553192 -73.062487 
L 232.884687 -73.643017 
L 233.216182 -74.871994 
L 233.547677 -74.843628 
L 233.879173 -75.428577 
L 234.210668 -75.20502 
L 234.542163 -74.642612 
L 234.873659 -75.07463 
L 235.205154 -76.087764 
L 235.536649 -76.813077 
L 235.868145 -80.277289 
L 236.19964 -79.190654 
L 236.531135 -78.537661 
L 236.862631 -77.476969 
L 237.194126 -77.479953 
L 237.525621 -75.952784 
L 237.857117 -73.756021 
L 238.188612 -72.369641 
L 238.520107 -71.373769 
L 238.851602 -72.763696 
L 239.183098 -74.757314 
L 239.514593 -77.343626 
L 239.846088 -78.474626 
L 240.177584 -77.456509 
L 240.509079 -76.473308 
L 240.840574 -76.00183 
L 241.17207 -75.596017 
L 241.503565 -74.960748 
L 241.83506 -73.372498 
L 242.166556 -72.289379 
L 242.498051 -70.04525 
L 242.829546 -68.620169 
L 243.161041 -69.165024 
L 243.492537 -69.752877 
L 243.824032 -70.563795 
L 244.155527 -69.70135 
L 244.487023 -69.554061 
L 244.818518 -69.55241 
L 245.150013 -67.840114 
L 245.481509 -67.936803 
L 245.813004 -68.134741 
L 246.144499 -68.746309 
L 246.475995 -68.46458 
L 246.80749 -70.50182 
L 247.138985 -71.235841 
L 247.47048 -70.059854 
L 247.801976 -70.108874 
L 248.133471 -68.848427 
L 248.464966 -69.008317 
L 248.796462 -68.097398 
L 249.127957 -67.476719 
L 249.459452 -69.166652 
L 249.790948 -69.708397 
L 250.122443 -70.287976 
L 250.453938 -71.492548 
L 250.785434 -72.959332 
L 251.116929 -74.783972 
L 251.448424 -73.881753 
L 251.779919 -73.52972 
L 252.111415 -74.363619 
L 252.44291 -75.627379 
L 252.774405 -77.489405 
L 253.105901 -77.882925 
L 253.437396 -78.361898 
L 253.768891 -76.597004 
L 254.100387 -74.549439 
L 254.431882 -73.231234 
L 254.763377 -72.49381 
L 255.094873 -72.128053 
L 255.426368 -73.055915 
L 255.757863 -73.599915 
L 256.089359 -75.886829 
L 256.420854 -75.365167 
L 256.752349 -76.274276 
L 257.083844 -74.395875 
L 257.41534 -73.748175 
L 257.746835 -74.355018 
L 258.07833 -75.161719 
L 258.409826 -76.18721 
L 258.741321 -74.956419 
L 259.072816 -72.518983 
L 259.404312 -71.238722 
L 259.735807 -71.041538 
L 260.067302 -70.817572 
L 260.398798 -71.441499 
L 260.730293 -70.298187 
L 261.061788 -70.556502 
L 261.393283 -70.457028 
L 261.724779 -69.051277 
L 262.056274 -67.024824 
L 262.387769 -66.97487 
L 262.719265 -68.125687 
L 263.05076 -68.090491 
L 263.382255 -68.994842 
L 263.713751 -69.180118 
L 264.045246 -69.969896 
L 264.376741 -70.563628 
L 264.708237 -71.968274 
L 265.039732 -72.126601 
L 265.371227 -72.39984 
L 265.702722 -73.562651 
L 266.034218 -75.1872 
L 266.365713 -76.37174 
L 266.697208 -74.44885 
L 267.028704 -74.232818 
L 267.360199 -75.812087 
L 267.691694 -78.995122 
L 268.02319 -80.571376 
L 268.354685 -83.163952 
L 268.68618 -83.471076 
L 269.017676 -83.200347 
L 269.349171 -80.159375 
L 269.680666 -79.655489 
L 270.012161 -77.886795 
L 270.343657 -77.630719 
L 270.675152 -76.330864 
L 271.006647 -74.882857 
L 271.338143 -75.167641 
L 271.669638 -72.825183 
L 272.001133 -72.142335 
L 272.332629 -72.377097 
L 272.664124 -71.725679 
L 272.995619 -72.022358 
L 273.327115 -72.923349 
L 273.65861 -73.183961 
L 273.990105 -72.458938 
L 274.3216 -72.582786 
L 274.653096 -73.308167 
L 274.984591 -73.869334 
L 275.316086 -73.526913 
L 275.647582 -74.224751 
L 275.979077 -73.431104 
L 276.310572 -73.499178 
L 276.642068 -73.17484 
L 276.973563 -72.010027 
L 277.305058 -73.27417 
L 277.636554 -73.307938 
L 277.968049 -73.142268 
L 278.299544 -71.983394 
L 278.63104 -72.066239 
L 278.962535 -71.871956 
L 279.29403 -74.022532 
L 279.625525 -74.191614 
L 279.957021 -73.630306 
L 280.288516 -72.792759 
L 280.620011 -71.958077 
L 280.951507 -71.451922 
L 281.283002 -70.437988 
L 281.614497 -70.157114 
L 281.945993 -70.874662 
L 282.277488 -68.822068 
L 282.608983 -66.29886 
L 282.940479 -65.815064 
L 283.271974 -66.813659 
L 283.603469 -67.301705 
L 283.934964 -66.848091 
L 284.26646 -66.6219 
L 284.597955 -65.268238 
L 284.92945 -65.354181 
L 285.260946 -65.273028 
L 285.592441 -65.884393 
L 285.923936 -65.035107 
L 286.255432 -64.704498 
L 286.586927 -64.402858 
L 286.918422 -64.185901 
L 287.249918 -65.02277 
L 287.581413 -64.845074 
L 287.912908 -65.477984 
L 288.244403 -64.232369 
L 288.575899 -63.853185 
L 288.907394 -63.681657 
L 289.238889 -63.219558 
L 289.570385 -62.703362 
L 289.90188 -62.233887 
L 290.233375 -64.232841 
L 290.564871 -64.572677 
L 290.896366 -65.660823 
L 291.227861 -64.478692 
L 291.559357 -65.831279 
L 291.890852 -65.808946 
L 292.222347 -66.33642 
L 292.553842 -64.579064 
L 292.885338 -65.167906 
L 293.216833 -63.821273 
L 293.548328 -62.91036 
L 293.879824 -63.34605 
L 294.211319 -64.391421 
L 294.542814 -63.658899 
L 294.87431 -63.081749 
L 295.205805 -62.152475 
L 295.5373 -64.255976 
L 295.868796 -66.369137 
L 296.200291 -68.671341 
L 296.531786 -68.971967 
L 296.863282 -68.905275 
L 297.194777 -69.609404 
L 297.526272 -70.450115 
L 297.857767 -71.190801 
L 298.189263 -70.960627 
L 298.520758 -72.306044 
L 298.852253 -73.00615 
L 299.183749 -71.340074 
L 299.515244 -71.612644 
L 299.846739 -70.946236 
L 300.178235 -70.98809 
L 300.50973 -69.905966 
L 300.841225 -70.129642 
L 301.172721 -68.090114 
L 301.504216 -68.980496 
L 301.835711 -68.068276 
L 302.167206 -70.535006 
L 302.498702 -69.485235 
L 302.830197 -69.937465 
L 303.161692 -70.845326 
L 303.493188 -70.675214 
L 303.824683 -68.949039 
L 304.156178 -66.538524 
L 304.487674 -67.918442 
L 304.819169 -68.699594 
L 305.150664 -68.589195 
L 305.48216 -69.822087 
L 305.813655 -71.227552 
L 306.14515 -69.991848 
L 306.476645 -68.82852 
L 306.808141 -68.666998 
L 307.139636 -68.196503 
L 307.471131 -67.506476 
L 307.802627 -68.4829 
L 308.134122 -67.568168 
L 308.465617 -66.934846 
L 308.797113 -67.201198 
L 309.128608 -68.968084 
L 309.460103 -68.085472 
L 309.791599 -68.394222 
L 310.123094 -68.392456 
L 310.454589 -67.820159 
L 310.786084 -66.879148 
L 311.11758 -68.511491 
L 311.449075 -68.217634 
L 311.78057 -66.437659 
L 312.112066 -65.219001 
L 312.443561 -65.301396 
L 312.775056 -65.344452 
L 313.106552 -67.402589 
L 313.438047 -71.701937 
L 313.769542 -74.020888 
L 314.101038 -74.99496 
L 314.432533 -75.067004 
L 314.764028 -74.287109 
L 315.095524 -73.295125 
L 315.427019 -71.148105 
L 315.758514 -70.00848 
L 316.090009 -69.604389 
L 316.421505 -69.643247 
L 316.753 -70.113662 
L 317.084495 -71.516099 
L 317.415991 -71.876406 
L 317.747486 -71.111478 
L 318.078981 -70.285023 
L 318.410477 -67.149909 
L 318.741972 -66.660377 
L 319.073467 -65.22731 
L 319.404963 -66.11788 
L 319.736458 -66.404409 
L 320.067953 -64.962514 
L 320.399448 -65.012401 
L 320.730944 -65.333834 
L 321.062439 -66.891732 
L 321.393934 -67.305377 
L 321.72543 -67.25955 
L 322.056925 -67.542367 
L 322.38842 -67.860832 
L 322.719916 -68.11752 
L 323.051411 -68.185018 
L 323.382906 -68.017105 
L 323.714402 -66.974587 
L 324.045897 -65.507325 
L 324.377392 -64.270516 
L 324.708887 -64.690491 
L 325.040383 -65.652255 
L 325.371878 -65.579512 
L 325.703373 -66.698412 
L 326.034869 -66.739302 
L 326.366364 -67.006602 
L 326.697859 -66.530874 
L 327.029355 -65.746791 
L 327.36085 -66.312671 
L 327.692345 -63.907489 
L 328.023841 -66.360715 
L 328.355336 -67.551653 
L 328.686831 -68.002604 
L 329.018326 -67.459796 
L 329.349822 -67.314256 
L 329.681317 -67.873497 
L 330.012812 -66.840349 
L 330.344308 -66.63112 
L 330.675803 -67.181425 
L 331.007298 -68.370034 
L 331.338794 -69.07227 
L 331.670289 -68.614755 
L 332.001784 -68.322841 
L 332.33328 -68.272531 
L 332.664775 -66.320572 
L 332.99627 -65.014402 
L 333.327766 -64.796681 
L 333.659261 -64.946605 
L 333.990756 -65.674328 
L 334.322251 -65.513405 
L 334.653747 -65.558301 
L 334.985242 -65.515252 
L 335.316737 -66.08248 
L 335.648233 -66.449056 
L 335.979728 -66.791967 
L 336.311223 -68.001849 
L 336.642719 -69.052888 
L 336.974214 -69.294493 
L 337.305709 -70.307174 
L 337.637205 -68.880401 
L 337.9687 -68.900174 
L 338.300195 -68.795465 
L 338.63169 -68.791764 
L 338.963186 -67.420017 
L 339.294681 -67.30028 
L 339.626176 -67.088755 
L 339.957672 -66.447967 
L 340.289167 -65.305129 
L 340.620662 -66.940097 
L 340.952158 -67.01066 
L 341.283653 -66.734515 
L 341.615148 -66.654309 
L 341.946644 -67.210071 
L 342.278139 -68.211075 
L 342.609634 -68.63819 
L 342.941129 -67.369909 
L 343.272625 -67.357875 
L 343.60412 -66.234931 
L 343.935615 -66.607873 
L 344.267111 -66.360108 
L 344.598606 -65.427254 
L 344.930101 -63.650623 
L 345.261597 -61.833086 
L 345.593092 -61.959782 
L 345.924587 -61.746885 
L 346.256083 -61.379314 
L 346.587578 -62.383777 
L 346.919073 -62.506688 
L 347.250568 -61.446152 
L 347.582064 -59.541818 
L 347.913559 -60.053092 
L 348.245054 -62.411447 
L 348.57655 -62.917318 
L 348.908045 -63.798806 
L 349.23954 -63.606181 
L 349.571036 -62.644083 
L 349.902531 -63.358502 
L 350.234026 -64.191495 
L 350.565522 -64.185182 
L 350.897017 -65.228136 
L 351.228512 -65.32943 
L 351.560008 -64.651433 
L 351.891503 -63.935608 
L 352.222998 -63.526343 
L 352.554493 -64.986752 
L 352.885989 -66.127739 
L 353.217484 -67.520145 
L 353.548979 -68.405914 
L 353.880475 -71.254148 
L 354.21197 -72.690283 
L 354.543465 -77.83259 
L 354.874961 -76.639599 
L 355.206456 -75.096933 
L 355.537951 -74.827103 
L 355.869447 -73.454801 
L 356.200942 -74.900459 
L 356.532437 -76.105964 
L 356.863932 -76.530933 
L 357.195428 -76.547951 
L 357.526923 -75.450262 
L 357.858418 -77.121856 
L 358.189914 -77.202951 
L 358.521409 -78.368195 
L 358.852904 -76.942559 
L 359.1844 -79.357758 
L 359.515895 -80.735929 
L 359.84739 -81.475813 
L 360.178886 -84.606286 
L 360.510381 -84.886855 
L 360.841876 -85.730276 
L 361.173371 -85.706994 
L 361.504867 -83.740611 
L 361.836362 -84.528549 
L 362.167857 -84.128386 
L 362.499353 -85.193605 
L 362.830848 -85.207669 
L 363.162343 -85.003457 
L 363.493839 -86.100723 
L 363.825334 -87.631872 
L 364.156829 -87.980568 
L 364.488325 -87.897758 
L 364.81982 -87.319892 
L 365.151315 -86.988085 
L 365.48281 -85.337749 
L 365.814306 -84.763945 
L 366.145801 -86.163548 
L 366.477296 -86.311393 
L 366.808792 -87.45288 
L 367.140287 -86.463037 
L 367.471782 -83.476362 
L 367.803278 -83.303099 
L 368.134773 -82.924699 
L 368.466268 -81.935568 
L 368.797764 -80.023389 
L 369.129259 -78.409536 
L 369.460754 -76.7907 
L 369.792249 -75.425625 
L 370.123745 -74.491725 
L 370.45524 -74.650136 
L 370.786735 -72.982476 
L 371.118231 -73.015356 
L 371.449726 -73.150917 
L 371.781221 -73.292748 
L 372.112717 -74.795046 
L 372.444212 -75.322199 
L 372.775707 -74.683482 
L 373.107203 -74.315435 
L 373.438698 -73.859857 
L 373.770193 -74.102294 
L 374.101689 -73.148249 
L 374.433184 -72.342221 
L 374.764679 -72.000006 
L 375.096174 -73.130855 
L 375.42767 -72.509699 
L 375.759165 -71.537689 
L 376.09066 -70.542336 
L 376.422156 -71.17266 
L 376.753651 -70.487055 
L 377.085146 -70.118839 
L 377.416642 -70.295461 
L 377.748137 -71.185918 
L 378.079632 -72.136353 
L 378.411128 -71.487583 
L 378.742623 -70.160033 
L 379.074118 -69.382668 
L 379.405613 -67.987297 
L 379.737109 -66.885968 
L 380.068604 -66.507484 
L 380.400099 -65.522892 
L 380.731595 -66.335445 
L 381.06309 -66.183425 
L 381.394585 -64.949099 
L 381.726081 -64.292511 
L 382.057576 -63.47284 
L 382.389071 -63.658347 
L 382.720567 -64.264655 
L 383.052062 -63.985447 
L 383.383557 -63.740888 
L 383.715052 -64.670624 
L 384.046548 -66.357129 
L 384.378043 -65.379847 
L 384.709538 -64.929525 
L 385.041034 -64.365119 
L 385.372529 -63.710263 
L 385.704024 -64.649903 
L 386.03552 -63.770125 
L 386.367015 -63.322716 
L 386.69851 -64.067926 
L 387.030006 -63.240848 
L 387.361501 -62.892909 
L 387.692996 -62.155638 
L 388.024491 -62.264757 
L 388.355987 -63.416497 
L 388.687482 -62.993655 
L 389.018977 -63.051671 
L 389.350473 -62.431509 
L 389.681968 -65.056971 
L 390.013463 -64.418924 
L 390.344959 -64.731532 
L 390.676454 -66.587282 
L 391.007949 -68.580267 
L 391.339445 -69.665907 
L 391.67094 -69.684535 
L 392.002435 -68.223005 
L 392.333931 -68.766882 
L 392.665426 -67.930008 
L 392.996921 -67.867653 
L 393.328416 -67.758668 
L 393.659912 -68.5239 
L 393.991407 -69.859948 
L 394.322902 -70.312629 
L 394.654398 -68.880499 
L 394.985893 -68.512548 
L 395.317388 -67.708174 
L 395.648884 -68.327378 
L 395.980379 -70.429325 
L 396.311874 -74.742987 
L 396.64337 -74.451807 
L 396.974865 -74.921293 
L 397.30636 -73.743927 
L 397.637855 -73.313312 
L 397.969351 -71.14465 
L 398.300846 -70.613234 
L 398.632341 -69.058815 
L 398.963837 -70.20241 
L 399.295332 -70.961345 
L 399.626827 -72.377359 
L 399.958323 -72.664609 
L 399.958323 -87.031396 
L 399.958323 -87.031396 
L 399.626827 -87.570374 
L 399.295332 -85.978026 
L 398.963837 -83.720447 
L 398.632341 -81.642824 
L 398.300846 -82.979778 
L 397.969351 -83.91873 
L 397.637855 -86.61636 
L 397.30636 -87.805349 
L 396.974865 -89.819165 
L 396.64337 -89.884057 
L 396.311874 -90.322603 
L 395.980379 -83.965619 
L 395.648884 -78.243114 
L 395.317388 -77.878926 
L 394.985893 -78.714311 
L 394.654398 -79.19989 
L 394.322902 -80.623875 
L 393.991407 -80.095032 
L 393.659912 -78.697617 
L 393.328416 -77.749147 
L 392.996921 -77.855009 
L 392.665426 -78.102735 
L 392.333931 -78.963127 
L 392.002435 -78.808493 
L 391.67094 -80.570313 
L 391.339445 -80.303621 
L 391.007949 -78.617131 
L 390.676454 -76.316597 
L 390.344959 -74.179406 
L 390.013463 -73.882902 
L 389.681968 -74.520856 
L 389.350473 -71.938007 
L 389.018977 -72.353925 
L 388.687482 -72.352138 
L 388.355987 -72.689351 
L 388.024491 -71.716902 
L 387.692996 -71.54449 
L 387.361501 -72.327475 
L 387.030006 -72.67865 
L 386.69851 -73.480715 
L 386.367015 -72.459005 
L 386.03552 -72.904193 
L 385.704024 -74.043104 
L 385.372529 -73.304893 
L 385.041034 -73.859776 
L 384.709538 -74.304189 
L 384.378043 -74.933676 
L 384.046548 -76.019232 
L 383.715052 -74.148132 
L 383.383557 -73.058029 
L 383.052062 -73.267092 
L 382.720567 -73.487825 
L 382.389071 -72.925536 
L 382.057576 -72.749188 
L 381.726081 -73.648218 
L 381.394585 -74.392487 
L 381.06309 -75.610655 
L 380.731595 -75.835956 
L 380.400099 -75.282845 
L 380.068604 -76.111789 
L 379.737109 -76.596958 
L 379.405613 -77.731896 
L 379.074118 -79.40878 
L 378.742623 -80.274684 
L 378.411128 -81.712041 
L 378.079632 -82.286337 
L 377.748137 -81.525174 
L 377.416642 -80.623216 
L 377.085146 -80.472471 
L 376.753651 -81.041932 
L 376.422156 -82.140515 
L 376.09066 -81.779421 
L 375.759165 -81.933015 
L 375.42767 -82.804413 
L 375.096174 -83.585137 
L 374.764679 -82.586069 
L 374.433184 -83.0819 
L 374.101689 -84.362744 
L 373.770193 -85.438945 
L 373.438698 -85.444081 
L 373.107203 -86.112284 
L 372.775707 -87.069007 
L 372.444212 -87.834044 
L 372.112717 -88.01415 
L 371.781221 -84.771176 
L 371.449726 -84.405109 
L 371.118231 -83.932959 
L 370.786735 -83.935324 
L 370.45524 -85.761667 
L 370.123745 -85.948532 
L 369.792249 -87.223548 
L 369.460754 -89.072438 
L 369.129259 -91.329889 
L 368.797764 -93.672314 
L 368.466268 -96.299724 
L 368.134773 -98.027916 
L 367.803278 -98.485629 
L 367.471782 -98.308282 
L 367.140287 -102.17069 
L 366.808792 -104.17445 
L 366.477296 -102.594355 
L 366.145801 -102.952064 
L 365.814306 -102.760724 
L 365.48281 -102.532252 
L 365.151315 -104.748252 
L 364.81982 -103.955975 
L 364.488325 -105.176156 
L 364.156829 -104.148535 
L 363.825334 -102.06215 
L 363.493839 -100.254515 
L 363.162343 -99.399984 
L 362.830848 -100.388428 
L 362.499353 -101.330393 
L 362.167857 -101.397667 
L 361.836362 -101.010996 
L 361.504867 -100.261626 
L 361.173371 -103.28273 
L 360.841876 -103.231676 
L 360.510381 -102.681706 
L 360.178886 -103.108047 
L 359.84739 -98.121341 
L 359.515895 -96.082804 
L 359.1844 -94.311916 
L 358.852904 -90.81176 
L 358.521409 -91.709014 
L 358.189914 -90.728254 
L 357.858418 -90.852764 
L 357.526923 -88.289848 
L 357.195428 -89.890989 
L 356.863932 -90.289245 
L 356.532437 -90.575794 
L 356.200942 -89.29028 
L 355.869447 -86.551329 
L 355.537951 -87.543188 
L 355.206456 -87.735187 
L 354.874961 -89.184891 
L 354.543465 -90.069051 
L 354.21197 -83.516913 
L 353.880475 -81.797287 
L 353.548979 -78.167328 
L 353.217484 -77.245397 
L 352.885989 -76.208248 
L 352.554493 -74.626946 
L 352.222998 -73.126698 
L 351.891503 -73.456803 
L 351.560008 -74.185811 
L 351.228512 -74.802502 
L 350.897017 -74.461129 
L 350.565522 -73.42115 
L 350.234026 -73.352579 
L 349.902531 -72.511145 
L 349.571036 -71.921918 
L 349.23954 -73.053961 
L 348.908045 -73.312113 
L 348.57655 -72.200387 
L 348.245054 -71.463909 
L 347.913559 -68.965405 
L 347.582064 -68.5333 
L 347.250568 -70.358268 
L 346.919073 -71.324789 
L 346.587578 -71.236078 
L 346.256083 -70.368204 
L 345.924587 -70.828512 
L 345.593092 -71.149397 
L 345.261597 -70.977768 
L 344.930101 -72.93406 
L 344.598606 -74.642352 
L 344.267111 -75.690681 
L 343.935615 -76.003672 
L 343.60412 -75.805685 
L 343.272625 -76.755142 
L 342.941129 -76.748134 
L 342.609634 -78.103599 
L 342.278139 -77.77275 
L 341.946644 -76.628549 
L 341.615148 -76.103336 
L 341.283653 -76.048265 
L 340.952158 -76.441356 
L 340.620662 -76.654628 
L 340.289167 -75.070703 
L 339.957672 -76.065464 
L 339.626176 -76.734018 
L 339.294681 -76.834278 
L 338.963186 -77.092487 
L 338.63169 -78.621074 
L 338.300195 -78.446986 
L 337.9687 -78.680458 
L 337.637205 -78.549541 
L 337.305709 -80.071114 
L 336.974214 -79.108307 
L 336.642719 -79.065664 
L 336.311223 -77.796453 
L 335.979728 -76.548334 
L 335.648233 -76.317151 
L 335.316737 -75.960966 
L 334.985242 -75.285313 
L 334.653747 -75.156569 
L 334.322251 -74.99255 
L 333.990756 -75.016542 
L 333.659261 -74.185313 
L 333.327766 -74.120851 
L 332.99627 -74.356448 
L 332.664775 -75.710617 
L 332.33328 -77.662422 
L 332.001784 -78.050429 
L 331.670289 -78.211118 
L 331.338794 -78.53209 
L 331.007298 -77.807338 
L 330.675803 -76.637907 
L 330.344308 -75.854405 
L 330.012812 -76.070068 
L 329.681317 -77.228437 
L 329.349822 -76.928027 
L 329.018326 -77.077418 
L 328.686831 -77.733604 
L 328.355336 -77.331941 
L 328.023841 -75.97508 
L 327.692345 -73.342557 
L 327.36085 -75.724659 
L 327.029355 -75.19362 
L 326.697859 -75.883317 
L 326.366364 -76.132829 
L 326.034869 -75.892652 
L 325.703373 -75.845993 
L 325.371878 -74.85724 
L 325.040383 -74.711756 
L 324.708887 -73.750937 
L 324.377392 -73.419585 
L 324.045897 -74.984083 
L 323.714402 -76.354737 
L 323.382906 -77.368286 
L 323.051411 -77.552684 
L 322.719916 -77.303936 
L 322.38842 -76.982669 
L 322.056925 -76.742225 
L 321.72543 -76.467513 
L 321.393934 -76.566298 
L 321.062439 -76.323474 
L 320.730944 -74.528566 
L 320.399448 -74.373937 
L 320.067953 -74.149446 
L 319.736458 -75.915193 
L 319.404963 -75.652549 
L 319.073467 -74.866467 
L 318.741972 -76.207719 
L 318.410477 -76.903931 
L 318.078981 -80.286241 
L 317.747486 -81.264505 
L 317.415991 -82.302485 
L 317.084495 -81.535162 
L 316.753 -79.713153 
L 316.421505 -79.307924 
L 316.090009 -79.378265 
L 315.758514 -80.027645 
L 315.427019 -81.267492 
L 315.095524 -83.649893 
L 314.764028 -84.943978 
L 314.432533 -86.230117 
L 314.101038 -86.59692 
L 313.769542 -85.500872 
L 313.438047 -81.592686 
L 313.106552 -76.718418 
L 312.775056 -74.540321 
L 312.443561 -74.251627 
L 312.112066 -74.213133 
L 311.78057 -75.527622 
L 311.449075 -77.379205 
L 311.11758 -77.873083 
L 310.786084 -76.277757 
L 310.454589 -77.036248 
L 310.123094 -77.772783 
L 309.791599 -77.870053 
L 309.460103 -77.566525 
L 309.128608 -78.229933 
L 308.797113 -76.355831 
L 308.465617 -76.075251 
L 308.134122 -76.613878 
L 307.802627 -77.57804 
L 307.471131 -76.706631 
L 307.139636 -77.357663 
L 306.808141 -77.858181 
L 306.476645 -78.252151 
L 306.14515 -79.453274 
L 305.813655 -80.844553 
L 305.48216 -79.66727 
L 305.150664 -78.216426 
L 304.819169 -78.287508 
L 304.487674 -77.437665 
L 304.156178 -76.255203 
L 303.824683 -78.85689 
L 303.493188 -81.196269 
L 303.161692 -81.400101 
L 302.830197 -80.130896 
L 302.498702 -79.32262 
L 302.167206 -80.328894 
L 301.835711 -77.513123 
L 301.504216 -78.442438 
L 301.172721 -77.616444 
L 300.841225 -79.787439 
L 300.50973 -79.540487 
L 300.178235 -80.823126 
L 299.846739 -80.712724 
L 299.515244 -81.527444 
L 299.183749 -81.184634 
L 298.852253 -83.066185 
L 298.520758 -82.185908 
L 298.189263 -80.905468 
L 297.857767 -81.253035 
L 297.526272 -80.319078 
L 297.194777 -79.718625 
L 296.863282 -79.314701 
L 296.531786 -79.628062 
L 296.200291 -79.066455 
L 295.868796 -75.764977 
L 295.5373 -73.368168 
L 295.205805 -70.93711 
L 294.87431 -71.960239 
L 294.542814 -72.482301 
L 294.211319 -73.278877 
L 293.879824 -72.31739 
L 293.548328 -71.738313 
L 293.216833 -72.621898 
L 292.885338 -74.009893 
L 292.553842 -73.293583 
L 292.222347 -75.087685 
L 291.890852 -74.778363 
L 291.559357 -74.781568 
L 291.227861 -73.309587 
L 290.896366 -74.427602 
L 290.564871 -73.401895 
L 290.233375 -73.09611 
L 289.90188 -71.119623 
L 289.570385 -71.501014 
L 289.238889 -72.104293 
L 288.907394 -72.275699 
L 288.575899 -72.601086 
L 288.244403 -73.136295 
L 287.912908 -74.496485 
L 287.581413 -73.693589 
L 287.249918 -73.71622 
L 286.918422 -73.059316 
L 286.586927 -73.009309 
L 286.255432 -73.467024 
L 285.923936 -73.769316 
L 285.592441 -74.59091 
L 285.260946 -74.112516 
L 284.92945 -74.283235 
L 284.597955 -74.401352 
L 284.26646 -75.72873 
L 283.934964 -76.027801 
L 283.603469 -76.372352 
L 283.271974 -75.856995 
L 282.940479 -74.701912 
L 282.608983 -75.298821 
L 282.277488 -77.9393 
L 281.945993 -79.969999 
L 281.614497 -79.226201 
L 281.283002 -79.60752 
L 280.951507 -80.707657 
L 280.620011 -81.261386 
L 280.288516 -82.212106 
L 279.957021 -83.292475 
L 279.625525 -84.091801 
L 279.29403 -84.830541 
L 278.962535 -81.384151 
L 278.63104 -81.809151 
L 278.299544 -81.799267 
L 277.968049 -83.15219 
L 277.636554 -83.30388 
L 277.305058 -83.272131 
L 276.973563 -81.948657 
L 276.642068 -83.368273 
L 276.310572 -83.820126 
L 275.979077 -83.990707 
L 275.647582 -84.749612 
L 275.316086 -84.109632 
L 274.984591 -84.344187 
L 274.653096 -83.674024 
L 274.3216 -82.368468 
L 273.990105 -82.2563 
L 273.65861 -83.213175 
L 273.327115 -83.031507 
L 272.995619 -82.085965 
L 272.664124 -82.058187 
L 272.332629 -82.820566 
L 272.001133 -82.615758 
L 271.669638 -83.529412 
L 271.338143 -86.013672 
L 271.006647 -85.842518 
L 270.675152 -87.76719 
L 270.343657 -89.627523 
L 270.012161 -90.590219 
L 269.680666 -93.078491 
L 269.349171 -94.47908 
L 269.017676 -98.662866 
L 268.68618 -99.585183 
L 268.354685 -98.509193 
L 268.02319 -93.322407 
L 267.691694 -89.819641 
L 267.360199 -86.530898 
L 267.028704 -84.454789 
L 266.697208 -85.094595 
L 266.365713 -87.291107 
L 266.034218 -85.478502 
L 265.702722 -83.245475 
L 265.371227 -81.912761 
L 265.039732 -81.840336 
L 264.708237 -81.765647 
L 264.376741 -79.684684 
L 264.045246 -78.831122 
L 263.713751 -78.122966 
L 263.382255 -77.757604 
L 263.05076 -76.971585 
L 262.719265 -77.071559 
L 262.387769 -75.97296 
L 262.056274 -76.067268 
L 261.724779 -78.119277 
L 261.393283 -79.68719 
L 261.061788 -79.910908 
L 260.730293 -79.65579 
L 260.398798 -80.811551 
L 260.067302 -80.390132 
L 259.735807 -80.90988 
L 259.404312 -81.269036 
L 259.072816 -82.720442 
L 258.741321 -85.313886 
L 258.409826 -87.006792 
L 258.07833 -86.058603 
L 257.746835 -85.112187 
L 257.41534 -83.640655 
L 257.083844 -84.0646 
L 256.752349 -85.715318 
L 256.420854 -84.818682 
L 256.089359 -85.26411 
L 255.757863 -83.029624 
L 255.426368 -82.421521 
L 255.094873 -81.636716 
L 254.763377 -82.269515 
L 254.431882 -83.238621 
L 254.100387 -84.733894 
L 253.768891 -87.242233 
L 253.437396 -89.531789 
L 253.105901 -89.525398 
L 252.774405 -88.723543 
L 252.44291 -87.319501 
L 252.111415 -84.610812 
L 251.779919 -83.447689 
L 251.448424 -84.042441 
L 251.116929 -85.113422 
L 250.785434 -82.813393 
L 250.453938 -81.102259 
L 250.122443 -79.592312 
L 249.790948 -78.744663 
L 249.459452 -78.147162 
L 249.127957 -76.339248 
L 248.796462 -76.834516 
L 248.464966 -77.755715 
L 248.133471 -77.931838 
L 247.801976 -79.383308 
L 247.47048 -79.71867 
L 247.138985 -81.370948 
L 246.80749 -80.338789 
L 246.475995 -77.362321 
L 246.144499 -77.462926 
L 245.813004 -76.949381 
L 245.481509 -76.603813 
L 245.150013 -76.444215 
L 244.818518 -78.253613 
L 244.487023 -78.401391 
L 244.155527 -78.722504 
L 243.824032 -79.73371 
L 243.492537 -78.979829 
L 243.161041 -78.136701 
L 242.829546 -77.654494 
L 242.498051 -79.051701 
L 242.166556 -81.265874 
L 241.83506 -82.299072 
L 241.503565 -84.125824 
L 241.17207 -85.014178 
L 240.840574 -85.657455 
L 240.509079 -86.355638 
L 240.177584 -87.900033 
L 239.846088 -89.239679 
L 239.514593 -88.059076 
L 239.183098 -84.654897 
L 238.851602 -81.946067 
L 238.520107 -80.243392 
L 238.188612 -81.107159 
L 237.857117 -82.65898 
L 237.525621 -84.89635 
L 237.194126 -86.576616 
L 236.862631 -86.788926 
L 236.531135 -88.154868 
L 236.19964 -88.873774 
L 235.868145 -90.761766 
L 235.536649 -86.542179 
L 235.205154 -85.764064 
L 234.873659 -84.398035 
L 234.542163 -83.907955 
L 234.210668 -84.529158 
L 233.879173 -85.124929 
L 233.547677 -84.258652 
L 233.216182 -84.225192 
L 232.884687 -82.676828 
L 232.553192 -82.24865 
L 232.221696 -81.700199 
L 231.890201 -82.371056 
L 231.558706 -81.179502 
L 231.22721 -79.265504 
L 230.895715 -79.816914 
L 230.56422 -81.440188 
L 230.232724 -82.339959 
L 229.901229 -84.048633 
L 229.569734 -84.038955 
L 229.238238 -82.29819 
L 228.906743 -83.566274 
L 228.575248 -84.013871 
L 228.243753 -83.392778 
L 227.912257 -83.854708 
L 227.580762 -84.950507 
L 227.249267 -84.594592 
L 226.917771 -85.406108 
L 226.586276 -84.436185 
L 226.254781 -85.908162 
L 225.923285 -85.885758 
L 225.59179 -85.156569 
L 225.260295 -84.364824 
L 224.928799 -85.149754 
L 224.597304 -86.816116 
L 224.265809 -89.275947 
L 223.934314 -88.750569 
L 223.602818 -88.94688 
L 223.271323 -90.020927 
L 222.939828 -89.317 
L 222.608332 -90.397634 
L 222.276837 -92.046088 
L 221.945342 -92.972321 
L 221.613846 -95.434445 
L 221.282351 -95.231855 
L 220.950856 -97.216632 
L 220.61936 -98.723757 
L 220.287865 -100.764399 
L 219.95637 -99.608751 
L 219.624875 -93.02995 
L 219.293379 -88.813637 
L 218.961884 -90.384546 
L 218.630389 -88.420027 
L 218.298893 -87.022526 
L 217.967398 -86.839995 
L 217.635903 -88.353941 
L 217.304407 -88.229464 
L 216.972912 -86.811538 
L 216.641417 -83.870312 
L 216.309921 -83.379354 
L 215.978426 -82.527884 
L 215.646931 -81.169631 
L 215.315435 -81.184456 
L 214.98394 -80.92698 
L 214.652445 -81.090919 
L 214.32095 -82.33729 
L 213.989454 -84.986224 
L 213.657959 -87.133484 
L 213.326464 -87.793368 
L 212.994968 -89.332028 
L 212.663473 -91.878241 
L 212.331978 -92.063559 
L 212.000482 -91.881858 
L 211.668987 -90.622137 
L 211.337492 -88.702096 
L 211.005996 -88.960406 
L 210.674501 -89.347841 
L 210.343006 -89.934286 
L 210.011511 -90.490239 
L 209.680015 -90.119721 
L 209.34852 -88.745912 
L 209.017025 -89.682979 
L 208.685529 -90.251094 
L 208.354034 -91.363782 
L 208.022539 -91.556206 
L 207.691043 -91.684214 
L 207.359548 -89.504839 
L 207.028053 -89.443305 
L 206.696557 -88.038585 
L 206.365062 -88.082698 
L 206.033567 -86.909877 
L 205.702072 -87.565582 
L 205.370576 -88.042203 
L 205.039081 -88.299784 
L 204.707586 -87.395968 
L 204.37609 -88.715936 
L 204.044595 -91.677373 
L 203.7131 -93.212726 
L 203.381604 -96.451734 
L 203.050109 -91.29891 
L 202.718614 -91.481285 
L 202.387118 -91.224585 
L 202.055623 -90.970483 
L 201.724128 -91.535311 
L 201.392633 -91.482876 
L 201.061137 -93.068885 
L 200.729642 -92.377423 
L 200.398147 -92.50045 
L 200.066651 -91.679474 
L 199.735156 -93.379632 
L 199.403661 -91.773756 
L 199.072165 -91.30034 
L 198.74067 -90.901111 
L 198.409175 -91.324495 
L 198.077679 -90.223804 
L 197.746184 -88.863945 
L 197.414689 -89.20887 
L 197.083193 -90.127142 
L 196.751698 -89.574031 
L 196.420203 -89.503774 
L 196.088708 -92.373309 
L 195.757212 -93.453781 
L 195.425717 -93.028355 
L 195.094222 -93.309444 
L 194.762726 -94.427868 
L 194.431231 -95.035927 
L 194.099736 -94.016449 
L 193.76824 -95.123932 
L 193.436745 -95.467415 
L 193.10525 -96.109878 
L 192.773754 -96.824737 
L 192.442259 -96.797342 
L 192.110764 -96.895861 
L 191.779269 -96.892584 
L 191.447773 -96.722059 
L 191.116278 -96.755617 
L 190.784783 -96.692162 
L 190.453287 -96.41915 
L 190.121792 -94.909206 
L 189.790297 -95.38571 
L 189.458801 -95.087451 
L 189.127306 -95.956126 
L 188.795811 -95.988864 
L 188.464315 -98.083938 
L 188.13282 -99.923737 
L 187.801325 -101.94545 
L 187.46983 -101.997881 
L 187.138334 -103.239308 
L 186.806839 -104.397757 
L 186.475344 -107.173646 
L 186.143848 -109.079828 
L 185.812353 -112.167957 
L 185.480858 -113.267589 
L 185.149362 -116.633307 
L 184.817867 -114.375836 
L 184.486372 -110.967188 
L 184.154876 -105.850613 
L 183.823381 -106.717122 
L 183.491886 -106.897454 
L 183.160391 -107.561627 
L 182.828895 -107.360398 
L 182.4974 -107.513507 
L 182.165905 -110.345542 
L 181.834409 -110.871954 
L 181.502914 -107.010528 
L 181.171419 -102.783179 
L 180.839923 -99.2407 
L 180.508428 -99.016724 
L 180.176933 -96.197584 
L 179.845437 -94.325676 
L 179.513942 -93.172089 
L 179.182447 -94.925397 
L 178.850951 -98.178873 
L 178.519456 -99.636366 
L 178.187961 -100.643019 
L 177.856466 -102.430933 
L 177.52497 -101.386548 
L 177.193475 -100.680915 
L 176.86198 -99.290877 
L 176.530484 -97.235584 
L 176.198989 -96.590669 
L 175.867494 -98.389275 
L 175.535998 -100.051256 
L 175.204503 -101.3081 
L 174.873008 -102.088781 
L 174.541512 -103.278078 
L 174.210017 -102.848904 
L 173.878522 -104.022621 
L 173.547027 -104.831376 
L 173.215531 -106.235593 
L 172.884036 -105.814091 
L 172.552541 -105.617683 
L 172.221045 -105.050872 
L 171.88955 -105.615805 
L 171.558055 -105.677673 
L 171.226559 -107.557025 
L 170.895064 -109.945157 
L 170.563569 -111.456297 
L 170.232073 -109.274184 
L 169.900578 -109.527601 
L 169.569083 -108.632248 
L 169.237588 -108.088036 
L 168.906092 -105.442101 
L 168.574597 -105.684726 
L 168.243102 -107.604135 
L 167.911606 -109.292542 
L 167.580111 -110.549357 
L 167.248616 -112.757303 
L 166.91712 -114.920281 
L 166.585625 -117.690388 
L 166.25413 -114.53529 
L 165.922634 -111.096313 
L 165.591139 -105.048693 
L 165.259644 -103.19922 
L 164.928149 -98.848022 
L 164.596653 -98.554304 
L 164.265158 -97.489742 
L 163.933663 -99.795947 
L 163.602167 -102.01582 
L 163.270672 -102.048361 
L 162.939177 -100.535904 
L 162.607681 -101.602905 
L 162.276186 -101.013656 
L 161.944691 -100.716993 
L 161.613195 -99.36589 
L 161.2817 -99.231705 
L 160.950205 -97.470783 
L 160.618709 -98.460713 
L 160.287214 -101.645971 
L 159.955719 -102.960075 
L 159.624224 -100.433289 
L 159.292728 -103.007586 
L 158.961233 -102.306479 
L 158.629738 -100.307565 
L 158.298242 -101.203991 
L 157.966747 -101.944129 
L 157.635252 -104.303398 
L 157.303756 -105.388217 
L 156.972261 -104.525728 
L 156.640766 -106.295335 
L 156.30927 -105.685823 
L 155.977775 -107.139759 
L 155.64628 -107.237976 
L 155.314785 -108.292322 
L 154.983289 -109.338327 
L 154.651794 -110.658207 
L 154.320299 -110.850227 
L 153.988803 -113.196424 
L 153.657308 -112.709704 
L 153.325813 -112.249264 
L 152.994317 -109.710108 
L 152.662822 -109.733158 
L 152.331327 -107.491536 
L 151.999831 -107.709909 
L 151.668336 -108.622134 
L 151.336841 -109.879817 
L 151.005346 -109.479462 
L 150.67385 -109.660184 
L 150.342355 -107.471801 
L 150.01086 -109.121148 
L 149.679364 -108.336089 
L 149.347869 -109.556006 
L 149.016374 -108.997745 
L 148.684878 -109.729157 
L 148.353383 -110.05107 
L 148.021888 -109.354639 
L 147.690392 -107.44206 
L 147.358897 -107.395206 
L 147.027402 -107.357878 
L 146.695907 -109.129255 
L 146.364411 -112.055639 
L 146.032916 -114.290054 
L 145.701421 -114.439352 
L 145.369925 -116.298014 
L 145.03843 -116.768975 
L 144.706935 -118.491219 
L 144.375439 -120.03043 
L 144.043944 -122.339238 
L 143.712449 -124.324102 
L 143.380953 -126.814053 
L 143.049458 -123.187368 
L 142.717963 -120.886205 
L 142.386468 -119.624115 
L 142.054972 -120.866189 
L 141.723477 -120.93279 
L 141.391982 -122.027147 
L 141.060486 -122.331958 
L 140.728991 -123.64111 
L 140.397496 -124.744298 
L 140.066 -127.142576 
L 139.734505 -128.500094 
L 139.40301 -130.816357 
L 139.071514 -130.98456 
L 138.740019 -132.26605 
L 138.408524 -132.722766 
L 138.077028 -135.370327 
L 137.745533 -136.12975 
L 137.414038 -139.178447 
L 137.082543 -139.612576 
L 136.751047 -140.330708 
L 136.419552 -137.825421 
L 136.088057 -138.100835 
L 135.756561 -136.80432 
L 135.425066 -137.596423 
L 135.093571 -138.064995 
L 134.762075 -140.601004 
L 134.43058 -137.577404 
L 134.099085 -139.330122 
L 133.767589 -138.865739 
L 133.436094 -139.916438 
L 133.104599 -139.797733 
L 132.773104 -140.487693 
L 132.441608 -140.739188 
L 132.110113 -141.595469 
L 131.778618 -141.133494 
L 131.447122 -142.461773 
L 131.115627 -141.325273 
L 130.784132 -141.557067 
L 130.452636 -140.841564 
L 130.121141 -144.269739 
L 129.789646 -145.979501 
L 129.45815 -149.034514 
L 129.126655 -150.362002 
L 128.79516 -152.004151 
L 128.463665 -153.379044 
L 128.132169 -156.558083 
L 127.800674 -157.049049 
L 127.469179 -159.230491 
L 127.137683 -159.524968 
L 126.806188 -160.897411 
L 126.474693 -159.446401 
L 126.143197 -160.086222 
L 125.811702 -159.723537 
L 125.480207 -162.176018 
L 125.148711 -162.56299 
L 124.817216 -164.075155 
L 124.485721 -164.451942 
L 124.154226 -170.625039 
L 123.82273 -172.266368 
L 123.491235 -173.976836 
L 123.15974 -173.192207 
L 122.828244 -174.198449 
L 122.496749 -173.818502 
L 122.165254 -174.149449 
L 121.833758 -169.454109 
L 121.502263 -169.309159 
L 121.170768 -166.193381 
L 120.839272 -166.532883 
L 120.507777 -164.487191 
L 120.176282 -165.707955 
L 119.844786 -162.938792 
L 119.513291 -164.077748 
L 119.181796 -161.790017 
L 118.850301 -162.97111 
L 118.518805 -161.648771 
L 118.18731 -162.914712 
L 117.855815 -159.579555 
L 117.524319 -154.814111 
L 117.192824 -144.104955 
L 116.861329 -130.549297 
L 116.529833 -120.285633 
L 116.198338 -113.159092 
L 115.866843 -111.481993 
L 115.535347 -111.537258 
L 115.203852 -110.380534 
L 114.872357 -110.646298 
L 114.540862 -111.318412 
L 114.209366 -111.494641 
L 113.877871 -112.190466 
L 113.546376 -111.646033 
L 113.21488 -111.531212 
L 112.883385 -110.970933 
L 112.55189 -111.422069 
L 112.220394 -112.518713 
L 111.888899 -112.916674 
L 111.557404 -112.857412 
L 111.225908 -113.558609 
L 110.894413 -114.546514 
L 110.562918 -115.543028 
L 110.231423 -115.416098 
L 109.899927 -115.210488 
L 109.568432 -115.761931 
L 109.236937 -115.386458 
L 108.905441 -115.279471 
L 108.573946 -115.620328 
L 108.242451 -116.889612 
L 107.910955 -116.167423 
L 107.57946 -117.564958 
L 107.247965 -117.539932 
L 106.916469 -118.599737 
L 106.584974 -118.48742 
L 106.253479 -119.387567 
L 105.921984 -119.836285 
L 105.590488 -120.636181 
L 105.258993 -121.313837 
L 104.927498 -121.293088 
L 104.596002 -121.286275 
L 104.264507 -122.683158 
L 103.933012 -124.114367 
L 103.601516 -125.990486 
L 103.270021 -126.039884 
L 102.938526 -124.069521 
L 102.60703 -123.530359 
L 102.275535 -121.845579 
L 101.94404 -123.541771 
L 101.612544 -125.452918 
L 101.281049 -124.699963 
L 100.949554 -125.862427 
L 100.618059 -126.335512 
L 100.286563 -126.488531 
L 99.955068 -127.316687 
L 99.623573 -128.790914 
L 99.292077 -130.790691 
L 98.960582 -131.321792 
L 98.629087 -132.950898 
L 98.297591 -133.809796 
L 97.966096 -134.609396 
L 97.634601 -134.675333 
L 97.303105 -135.324468 
L 96.97161 -135.533576 
L 96.640115 -134.92304 
L 96.30862 -134.815398 
L 95.977124 -135.54139 
L 95.645629 -136.530055 
L 95.314134 -138.302 
L 94.982638 -137.78145 
L 94.651143 -139.044928 
L 94.319648 -139.530977 
L 93.988152 -140.902105 
L 93.656657 -141.398679 
L 93.325162 -141.989839 
L 92.993666 -142.578158 
L 92.662171 -144.073067 
L 92.330676 -146.333781 
L 91.999181 -147.493914 
L 91.667685 -150.383485 
L 91.33619 -151.596179 
L 91.004695 -149.37074 
L 90.673199 -147.282235 
L 90.341704 -147.930862 
L 90.010209 -147.581206 
L 89.678713 -147.140295 
L 89.347218 -149.040774 
L 89.015723 -149.683144 
L 88.684227 -150.021909 
L 88.352732 -151.061141 
L 88.021237 -152.963356 
L 87.689742 -155.198807 
L 87.358246 -157.013943 
L 87.026751 -157.286007 
L 86.695256 -153.420884 
L 86.36376 -151.528115 
L 86.032265 -153.726132 
L 85.70077 -155.618568 
L 85.369274 -157.007956 
L 85.037779 -156.655683 
L 84.706284 -155.674003 
L 84.374788 -155.838706 
L 84.043293 -158.096213 
L 83.711798 -160.737285 
L 83.380302 -161.904497 
L 83.048807 -162.447887 
L 82.717312 -162.836425 
L 82.385817 -163.038117 
L 82.054321 -165.084017 
L 81.722826 -166.901745 
L 81.391331 -169.141036 
L 81.059835 -171.570963 
L 80.72834 -173.71208 
L 80.396845 -174.431398 
L 80.065349 -176.829755 
L 79.733854 -177.931464 
L 79.402359 -180.383889 
L 79.070863 -184.167607 
L 78.739368 -188.319287 
L 78.407873 -194.058634 
L 78.076378 -198.237212 
L 77.744882 -205.261117 
L 77.413387 -209.578182 
L 77.081892 -206.703455 
L 76.750396 -188.103752 
z
" id="m56a4fbf29a" style="stroke:#000000;stroke-opacity:0.2;"/>
    </defs>
    <g clip-path="url(#pfb6c4ea1df)">
     <use style="fill-opacity:0.2;stroke:#000000;stroke-opacity:0.2;" x="0" xlink:href="#m56a4fbf29a" y="230.4"/>
    </g>
   </g>
   <g id="matplotlib.axis_1">
    <g id="xtick_1">
     <g id="line2d_1">
      <defs>
       <path d="M 0 0 
L 0 3.5 
" id="m64124fd86d" style="stroke:#000000;stroke-width:0.8;"/>
      </defs>
      <g>
       <use style="stroke:#000000;stroke-width:0.8;" x="76.418901" xlink:href="#m64124fd86d" y="178.36"/>
      </g>
     </g>
     <g id="text_1">
      <!-- 0 -->
      <defs>
       <path d="M 31.78125 66.40625 
Q 24.171875 66.40625 20.328125 58.90625 
Q 16.5 51.421875 16.5 36.375 
Q 16.5 21.390625 20.328125 13.890625 
Q 24.171875 6.390625 31.78125 6.390625 
Q 39.453125 6.390625 43.28125 13.890625 
Q 47.125 21.390625 47.125 36.375 
Q 47.125 51.421875 43.28125 58.90625 
Q 39.453125 66.40625 31.78125 66.40625 
z
M 31.78125 74.21875 
Q 44.046875 74.21875 50.515625 64.515625 
Q 56.984375 54.828125 56.984375 36.375 
Q 56.984375 17.96875 50.515625 8.265625 
Q 44.046875 -1.421875 31.78125 -1.421875 
Q 19.53125 -1.421875 13.0625 8.265625 
Q 6.59375 17.96875 6.59375 36.375 
Q 6.59375 54.828125 13.0625 64.515625 
Q 19.53125 74.21875 31.78125 74.21875 
z
" id="DejaVuSans-30"/>
      </defs>
      <g transform="translate(71.965151 195.997813)scale(0.14 -0.14)">
       <use xlink:href="#DejaVuSans-30"/>
      </g>
     </g>
    </g>
    <g id="xtick_2">
     <g id="line2d_2">
      <g>
       <use style="stroke:#000000;stroke-width:0.8;" x="142.717963" xlink:href="#m64124fd86d" y="178.36"/>
      </g>
     </g>
     <g id="text_2">
      <!-- 50 -->
      <defs>
       <path d="M 10.796875 72.90625 
L 49.515625 72.90625 
L 49.515625 64.59375 
L 19.828125 64.59375 
L 19.828125 46.734375 
Q 21.96875 47.46875 24.109375 47.828125 
Q 26.265625 48.1875 28.421875 48.1875 
Q 40.625 48.1875 47.75 41.5 
Q 54.890625 34.8125 54.890625 23.390625 
Q 54.890625 11.625 47.5625 5.09375 
Q 40.234375 -1.421875 26.90625 -1.421875 
Q 22.3125 -1.421875 17.546875 -0.640625 
Q 12.796875 0.140625 7.71875 1.703125 
L 7.71875 11.625 
Q 12.109375 9.234375 16.796875 8.0625 
Q 21.484375 6.890625 26.703125 6.890625 
Q 35.15625 6.890625 40.078125 11.328125 
Q 45.015625 15.765625 45.015625 23.390625 
Q 45.015625 31 40.078125 35.4375 
Q 35.15625 39.890625 26.703125 39.890625 
Q 22.75 39.890625 18.8125 39.015625 
Q 14.890625 38.140625 10.796875 36.28125 
z
" id="DejaVuSans-35"/>
      </defs>
      <g transform="translate(133.810463 195.997813)scale(0.14 -0.14)">
       <use xlink:href="#DejaVuSans-35"/>
       <use x="63.623047" xlink:href="#DejaVuSans-30"/>
      </g>
     </g>
    </g>
    <g id="xtick_3">
     <g id="line2d_3">
      <g>
       <use style="stroke:#000000;stroke-width:0.8;" x="209.017025" xlink:href="#m64124fd86d" y="178.36"/>
      </g>
     </g>
     <g id="text_3">
      <!-- 100 -->
      <defs>
       <path d="M 12.40625 8.296875 
L 28.515625 8.296875 
L 28.515625 63.921875 
L 10.984375 60.40625 
L 10.984375 69.390625 
L 28.421875 72.90625 
L 38.28125 72.90625 
L 38.28125 8.296875 
L 54.390625 8.296875 
L 54.390625 0 
L 12.40625 0 
z
" id="DejaVuSans-31"/>
      </defs>
      <g transform="translate(195.655775 195.997813)scale(0.14 -0.14)">
       <use xlink:href="#DejaVuSans-31"/>
       <use x="63.623047" xlink:href="#DejaVuSans-30"/>
       <use x="127.246094" xlink:href="#DejaVuSans-30"/>
      </g>
     </g>
    </g>
    <g id="xtick_4">
     <g id="line2d_4">
      <g>
       <use style="stroke:#000000;stroke-width:0.8;" x="275.316086" xlink:href="#m64124fd86d" y="178.36"/>
      </g>
     </g>
     <g id="text_4">
      <!-- 150 -->
      <g transform="translate(261.954836 195.997813)scale(0.14 -0.14)">
       <use xlink:href="#DejaVuSans-31"/>
       <use x="63.623047" xlink:href="#DejaVuSans-35"/>
       <use x="127.246094" xlink:href="#DejaVuSans-30"/>
      </g>
     </g>
    </g>
    <g id="xtick_5">
     <g id="line2d_5">
      <g>
       <use style="stroke:#000000;stroke-width:0.8;" x="341.615148" xlink:href="#m64124fd86d" y="178.36"/>
      </g>
     </g>
     <g id="text_5">
      <!-- 200 -->
      <defs>
       <path d="M 19.1875 8.296875 
L 53.609375 8.296875 
L 53.609375 0 
L 7.328125 0 
L 7.328125 8.296875 
Q 12.9375 14.109375 22.625 23.890625 
Q 32.328125 33.6875 34.8125 36.53125 
Q 39.546875 41.84375 41.421875 45.53125 
Q 43.3125 49.21875 43.3125 52.78125 
Q 43.3125 58.59375 39.234375 62.25 
Q 35.15625 65.921875 28.609375 65.921875 
Q 23.96875 65.921875 18.8125 64.3125 
Q 13.671875 62.703125 7.8125 59.421875 
L 7.8125 69.390625 
Q 13.765625 71.78125 18.9375 73 
Q 24.125 74.21875 28.421875 74.21875 
Q 39.75 74.21875 46.484375 68.546875 
Q 53.21875 62.890625 53.21875 53.421875 
Q 53.21875 48.921875 51.53125 44.890625 
Q 49.859375 40.875 45.40625 35.40625 
Q 44.1875 33.984375 37.640625 27.21875 
Q 31.109375 20.453125 19.1875 8.296875 
z
" id="DejaVuSans-32"/>
      </defs>
      <g transform="translate(328.253898 195.997813)scale(0.14 -0.14)">
       <use xlink:href="#DejaVuSans-32"/>
       <use x="63.623047" xlink:href="#DejaVuSans-30"/>
       <use x="127.246094" xlink:href="#DejaVuSans-30"/>
      </g>
     </g>
    </g>
    <g id="xtick_6">
     <g id="line2d_6">
      <g>
       <use style="stroke:#000000;stroke-width:0.8;" x="407.91421" xlink:href="#m64124fd86d" y="178.36"/>
      </g>
     </g>
     <g id="text_6">
      <!-- 250 -->
      <g transform="translate(394.55296 195.997813)scale(0.14 -0.14)">
       <use xlink:href="#DejaVuSans-32"/>
       <use x="63.623047" xlink:href="#DejaVuSans-35"/>
       <use x="127.246094" xlink:href="#DejaVuSans-30"/>
      </g>
     </g>
    </g>
    <g id="text_7">
     <!-- seconds -->
     <defs>
      <path d="M 44.28125 53.078125 
L 44.28125 44.578125 
Q 40.484375 46.53125 36.375 47.5 
Q 32.28125 48.484375 27.875 48.484375 
Q 21.1875 48.484375 17.84375 46.4375 
Q 14.5 44.390625 14.5 40.28125 
Q 14.5 37.15625 16.890625 35.375 
Q 19.28125 33.59375 26.515625 31.984375 
L 29.59375 31.296875 
Q 39.15625 29.25 43.1875 25.515625 
Q 47.21875 21.78125 47.21875 15.09375 
Q 47.21875 7.46875 41.1875 3.015625 
Q 35.15625 -1.421875 24.609375 -1.421875 
Q 20.21875 -1.421875 15.453125 -0.5625 
Q 10.6875 0.296875 5.421875 2 
L 5.421875 11.28125 
Q 10.40625 8.6875 15.234375 7.390625 
Q 20.0625 6.109375 24.8125 6.109375 
Q 31.15625 6.109375 34.5625 8.28125 
Q 37.984375 10.453125 37.984375 14.40625 
Q 37.984375 18.0625 35.515625 20.015625 
Q 33.0625 21.96875 24.703125 23.78125 
L 21.578125 24.515625 
Q 13.234375 26.265625 9.515625 29.90625 
Q 5.8125 33.546875 5.8125 39.890625 
Q 5.8125 47.609375 11.28125 51.796875 
Q 16.75 56 26.8125 56 
Q 31.78125 56 36.171875 55.265625 
Q 40.578125 54.546875 44.28125 53.078125 
z
" id="DejaVuSans-73"/>
      <path d="M 56.203125 29.59375 
L 56.203125 25.203125 
L 14.890625 25.203125 
Q 15.484375 15.921875 20.484375 11.0625 
Q 25.484375 6.203125 34.421875 6.203125 
Q 39.59375 6.203125 44.453125 7.46875 
Q 49.3125 8.734375 54.109375 11.28125 
L 54.109375 2.78125 
Q 49.265625 0.734375 44.1875 -0.34375 
Q 39.109375 -1.421875 33.890625 -1.421875 
Q 20.796875 -1.421875 13.15625 6.1875 
Q 5.515625 13.8125 5.515625 26.8125 
Q 5.515625 40.234375 12.765625 48.109375 
Q 20.015625 56 32.328125 56 
Q 43.359375 56 49.78125 48.890625 
Q 56.203125 41.796875 56.203125 29.59375 
z
M 47.21875 32.234375 
Q 47.125 39.59375 43.09375 43.984375 
Q 39.0625 48.390625 32.421875 48.390625 
Q 24.90625 48.390625 20.390625 44.140625 
Q 15.875 39.890625 15.1875 32.171875 
z
" id="DejaVuSans-65"/>
      <path d="M 48.78125 52.59375 
L 48.78125 44.1875 
Q 44.96875 46.296875 41.140625 47.34375 
Q 37.3125 48.390625 33.40625 48.390625 
Q 24.65625 48.390625 19.8125 42.84375 
Q 14.984375 37.3125 14.984375 27.296875 
Q 14.984375 17.28125 19.8125 11.734375 
Q 24.65625 6.203125 33.40625 6.203125 
Q 37.3125 6.203125 41.140625 7.25 
Q 44.96875 8.296875 48.78125 10.40625 
L 48.78125 2.09375 
Q 45.015625 0.34375 40.984375 -0.53125 
Q 36.96875 -1.421875 32.421875 -1.421875 
Q 20.0625 -1.421875 12.78125 6.34375 
Q 5.515625 14.109375 5.515625 27.296875 
Q 5.515625 40.671875 12.859375 48.328125 
Q 20.21875 56 33.015625 56 
Q 37.15625 56 41.109375 55.140625 
Q 45.0625 54.296875 48.78125 52.59375 
z
" id="DejaVuSans-63"/>
      <path d="M 30.609375 48.390625 
Q 23.390625 48.390625 19.1875 42.75 
Q 14.984375 37.109375 14.984375 27.296875 
Q 14.984375 17.484375 19.15625 11.84375 
Q 23.34375 6.203125 30.609375 6.203125 
Q 37.796875 6.203125 41.984375 11.859375 
Q 46.1875 17.53125 46.1875 27.296875 
Q 46.1875 37.015625 41.984375 42.703125 
Q 37.796875 48.390625 30.609375 48.390625 
z
M 30.609375 56 
Q 42.328125 56 49.015625 48.375 
Q 55.71875 40.765625 55.71875 27.296875 
Q 55.71875 13.875 49.015625 6.21875 
Q 42.328125 -1.421875 30.609375 -1.421875 
Q 18.84375 -1.421875 12.171875 6.21875 
Q 5.515625 13.875 5.515625 27.296875 
Q 5.515625 40.765625 12.171875 48.375 
Q 18.84375 56 30.609375 56 
z
" id="DejaVuSans-6f"/>
      <path d="M 54.890625 33.015625 
L 54.890625 0 
L 45.90625 0 
L 45.90625 32.71875 
Q 45.90625 40.484375 42.875 44.328125 
Q 39.84375 48.1875 33.796875 48.1875 
Q 26.515625 48.1875 22.3125 43.546875 
Q 18.109375 38.921875 18.109375 30.90625 
L 18.109375 0 
L 9.078125 0 
L 9.078125 54.6875 
L 18.109375 54.6875 
L 18.109375 46.1875 
Q 21.34375 51.125 25.703125 53.5625 
Q 30.078125 56 35.796875 56 
Q 45.21875 56 50.046875 50.171875 
Q 54.890625 44.34375 54.890625 33.015625 
z
" id="DejaVuSans-6e"/>
      <path d="M 45.40625 46.390625 
L 45.40625 75.984375 
L 54.390625 75.984375 
L 54.390625 0 
L 45.40625 0 
L 45.40625 8.203125 
Q 42.578125 3.328125 38.25 0.953125 
Q 33.9375 -1.421875 27.875 -1.421875 
Q 17.96875 -1.421875 11.734375 6.484375 
Q 5.515625 14.40625 5.515625 27.296875 
Q 5.515625 40.1875 11.734375 48.09375 
Q 17.96875 56 27.875 56 
Q 33.9375 56 38.25 53.625 
Q 42.578125 51.265625 45.40625 46.390625 
z
M 14.796875 27.296875 
Q 14.796875 17.390625 18.875 11.75 
Q 22.953125 6.109375 30.078125 6.109375 
Q 37.203125 6.109375 41.296875 11.75 
Q 45.40625 17.390625 45.40625 27.296875 
Q 45.40625 37.203125 41.296875 42.84375 
Q 37.203125 48.484375 30.078125 48.484375 
Q 22.953125 48.484375 18.875 42.84375 
Q 14.796875 37.203125 14.796875 27.296875 
z
" id="DejaVuSans-64"/>
     </defs>
     <g transform="translate(205.654359 215.066875)scale(0.16 -0.16)">
      <use xlink:href="#DejaVuSans-73"/>
      <use x="52.099609" xlink:href="#DejaVuSans-65"/>
      <use x="113.623047" xlink:href="#DejaVuSans-63"/>
      <use x="168.603516" xlink:href="#DejaVuSans-6f"/>
      <use x="229.785156" xlink:href="#DejaVuSans-6e"/>
      <use x="293.164062" xlink:href="#DejaVuSans-64"/>
      <use x="356.640625" xlink:href="#DejaVuSans-73"/>
     </g>
    </g>
   </g>
   <g id="matplotlib.axis_2">
    <g id="ytick_1">
     <g id="line2d_7">
      <defs>
       <path d="M 0 0 
L -3.5 0 
" id="m3b8c1028e0" style="stroke:#000000;stroke-width:0.8;"/>
      </defs>
      <g>
       <use style="stroke:#000000;stroke-width:0.8;" x="60.59" xlink:href="#m3b8c1028e0" y="141.388716"/>
      </g>
     </g>
     <g id="text_8">
      <!-- 0.0 -->
      <defs>
       <path d="M 10.6875 12.40625 
L 21 12.40625 
L 21 0 
L 10.6875 0 
z
" id="DejaVuSans-2e"/>
      </defs>
      <g transform="translate(31.325625 146.707622)scale(0.14 -0.14)">
       <use xlink:href="#DejaVuSans-30"/>
       <use x="63.623047" xlink:href="#DejaVuSans-2e"/>
       <use x="95.410156" xlink:href="#DejaVuSans-30"/>
      </g>
     </g>
    </g>
    <g id="ytick_2">
     <g id="line2d_8">
      <g>
       <use style="stroke:#000000;stroke-width:0.8;" x="60.59" xlink:href="#m3b8c1028e0" y="114.141649"/>
      </g>
     </g>
     <g id="text_9">
      <!-- 0.5 -->
      <g transform="translate(31.325625 119.460556)scale(0.14 -0.14)">
       <use xlink:href="#DejaVuSans-30"/>
       <use x="63.623047" xlink:href="#DejaVuSans-2e"/>
       <use x="95.410156" xlink:href="#DejaVuSans-35"/>
      </g>
     </g>
    </g>
    <g id="ytick_3">
     <g id="line2d_9">
      <g>
       <use style="stroke:#000000;stroke-width:0.8;" x="60.59" xlink:href="#m3b8c1028e0" y="86.894583"/>
      </g>
     </g>
     <g id="text_10">
      <!-- 1.0 -->
      <g transform="translate(31.325625 92.213489)scale(0.14 -0.14)">
       <use xlink:href="#DejaVuSans-31"/>
       <use x="63.623047" xlink:href="#DejaVuSans-2e"/>
       <use x="95.410156" xlink:href="#DejaVuSans-30"/>
      </g>
     </g>
    </g>
    <g id="ytick_4">
     <g id="line2d_10">
      <g>
       <use style="stroke:#000000;stroke-width:0.8;" x="60.59" xlink:href="#m3b8c1028e0" y="59.647517"/>
      </g>
     </g>
     <g id="text_11">
      <!-- 1.5 -->
      <g transform="translate(31.325625 64.966423)scale(0.14 -0.14)">
       <use xlink:href="#DejaVuSans-31"/>
       <use x="63.623047" xlink:href="#DejaVuSans-2e"/>
       <use x="95.410156" xlink:href="#DejaVuSans-35"/>
      </g>
     </g>
    </g>
    <g id="ytick_5">
     <g id="line2d_11">
      <g>
       <use style="stroke:#000000;stroke-width:0.8;" x="60.59" xlink:href="#m3b8c1028e0" y="32.400451"/>
      </g>
     </g>
     <g id="text_12">
      <!-- 2.0 -->
      <g transform="translate(31.325625 37.719357)scale(0.14 -0.14)">
       <use xlink:href="#DejaVuSans-32"/>
       <use x="63.623047" xlink:href="#DejaVuSans-2e"/>
       <use x="95.410156" xlink:href="#DejaVuSans-30"/>
      </g>
     </g>
    </g>
    <g id="text_13">
     <!-- Z-scored F -->
     <defs>
      <path d="M 5.609375 72.90625 
L 62.890625 72.90625 
L 62.890625 65.375 
L 16.796875 8.296875 
L 64.015625 8.296875 
L 64.015625 0 
L 4.5 0 
L 4.5 7.515625 
L 50.59375 64.59375 
L 5.609375 64.59375 
z
" id="DejaVuSans-5a"/>
      <path d="M 4.890625 31.390625 
L 31.203125 31.390625 
L 31.203125 23.390625 
L 4.890625 23.390625 
z
" id="DejaVuSans-2d"/>
      <path d="M 41.109375 46.296875 
Q 39.59375 47.171875 37.8125 47.578125 
Q 36.03125 48 33.890625 48 
Q 26.265625 48 22.1875 43.046875 
Q 18.109375 38.09375 18.109375 28.8125 
L 18.109375 0 
L 9.078125 0 
L 9.078125 54.6875 
L 18.109375 54.6875 
L 18.109375 46.1875 
Q 20.953125 51.171875 25.484375 53.578125 
Q 30.03125 56 36.53125 56 
Q 37.453125 56 38.578125 55.875 
Q 39.703125 55.765625 41.0625 55.515625 
z
" id="DejaVuSans-72"/>
      <path id="DejaVuSans-20"/>
      <path d="M 9.8125 72.90625 
L 51.703125 72.90625 
L 51.703125 64.59375 
L 19.671875 64.59375 
L 19.671875 43.109375 
L 48.578125 43.109375 
L 48.578125 34.8125 
L 19.671875 34.8125 
L 19.671875 0 
L 9.8125 0 
z
" id="DejaVuSans-46"/>
     </defs>
     <g transform="translate(23.998125 138.0975)rotate(-90)scale(0.16 -0.16)">
      <use xlink:href="#DejaVuSans-5a"/>
      <use x="68.490234" xlink:href="#DejaVuSans-2d"/>
      <use x="104.574219" xlink:href="#DejaVuSans-73"/>
      <use x="156.673828" xlink:href="#DejaVuSans-63"/>
      <use x="211.654297" xlink:href="#DejaVuSans-6f"/>
      <use x="272.835938" xlink:href="#DejaVuSans-72"/>
      <use x="313.917969" xlink:href="#DejaVuSans-65"/>
      <use x="375.441406" xlink:href="#DejaVuSans-64"/>
      <use x="438.917969" xlink:href="#DejaVuSans-20"/>
      <use x="470.705078" xlink:href="#DejaVuSans-46"/>
     </g>
    </g>
   </g>
   <g id="line2d_12">
    <path clip-path="url(#pfb6c4ea1df)" d="M 76.750396 55.686662 
L 77.081892 38.425175 
L 77.413387 35.962015 
L 77.744882 39.967122 
L 78.076378 46.362087 
L 78.407873 49.997779 
L 79.070863 59.115953 
L 79.402359 62.579085 
L 79.733854 64.817351 
L 80.065349 65.721295 
L 80.396845 67.99717 
L 80.72834 68.533046 
L 82.385817 78.627623 
L 82.717312 78.756953 
L 83.380302 79.558712 
L 83.711798 80.524492 
L 84.374788 85.265858 
L 84.706284 85.310684 
L 85.037779 84.491107 
L 85.369274 84.145807 
L 85.70077 85.37337 
L 86.36376 89.218397 
L 86.695256 87.631767 
L 87.026751 84.063667 
L 87.358246 84.322824 
L 88.021237 87.909243 
L 88.352732 89.563542 
L 88.684227 90.46177 
L 89.015723 90.69571 
L 89.347218 91.189472 
L 89.678713 93.096925 
L 90.341704 92.214502 
L 90.673199 92.776984 
L 91.33619 89.24812 
L 91.667685 90.400326 
L 91.999181 93.074397 
L 92.330676 93.897801 
L 92.662171 95.959228 
L 92.993666 97.276072 
L 93.656657 98.327599 
L 93.988152 98.700903 
L 94.319648 100.018923 
L 94.651143 100.295969 
L 94.982638 101.54758 
L 95.314134 100.838401 
L 95.645629 102.593861 
L 96.30862 104.175072 
L 96.640115 104.043328 
L 96.97161 103.383706 
L 97.303105 103.502762 
L 97.634601 104.052031 
L 97.966096 104.040427 
L 98.629087 105.678473 
L 98.960582 107.234584 
L 99.292077 107.732822 
L 99.955068 111.047795 
L 100.286563 111.790335 
L 100.618059 111.929105 
L 100.949554 112.406499 
L 101.281049 113.567399 
L 101.612544 112.775892 
L 102.275535 116.266649 
L 102.60703 114.469431 
L 102.938526 113.932356 
L 103.270021 111.915762 
L 103.601516 111.927373 
L 104.264507 115.068601 
L 104.596002 116.409401 
L 105.258993 116.335106 
L 106.584974 118.94879 
L 106.916469 118.819926 
L 107.247965 119.800875 
L 107.57946 119.78261 
L 107.910955 121.159895 
L 108.242451 120.391265 
L 108.573946 121.603285 
L 108.905441 121.899193 
L 109.236937 121.81454 
L 109.568432 121.328002 
L 109.899927 121.794565 
L 110.231423 121.577161 
L 110.562918 121.500104 
L 111.225908 123.400536 
L 111.557404 124.083966 
L 111.888899 124.00081 
L 112.220394 124.432756 
L 112.55189 125.51974 
L 112.883385 125.91036 
L 113.21488 125.344869 
L 113.546376 125.304388 
L 113.877871 124.720359 
L 114.209366 125.33927 
L 114.540862 125.526014 
L 114.872357 126.262395 
L 115.203852 126.515152 
L 115.535347 125.389463 
L 115.866843 125.454642 
L 116.198338 123.830612 
L 116.529833 118.300522 
L 117.524319 83.154452 
L 118.18731 75.617233 
L 118.518805 76.936987 
L 118.850301 75.749936 
L 119.181796 76.952154 
L 119.513291 74.767173 
L 119.844786 75.765926 
L 120.176282 72.990391 
L 120.507777 74.13296 
L 120.839272 72.099711 
L 121.170768 72.284201 
L 121.502263 69.230185 
L 121.833758 69.124098 
L 122.165254 64.588496 
L 122.496749 64.733415 
L 122.828244 64.416898 
L 123.15974 65.476478 
L 123.491235 64.696643 
L 124.154226 67.675986 
L 124.485721 73.526567 
L 124.817216 73.869247 
L 125.148711 75.210642 
L 125.480207 75.62838 
L 125.811702 77.8989 
L 126.143197 77.644112 
L 126.474693 78.254975 
L 126.806188 76.933866 
L 127.137683 78.100982 
L 127.469179 78.430252 
L 127.800674 80.41146 
L 128.132169 80.910861 
L 128.463665 83.850725 
L 129.45815 88.027404 
L 129.789646 91.007368 
L 130.121141 92.703546 
L 130.452636 96.080227 
L 130.784132 95.381112 
L 131.115627 95.477968 
L 131.447122 94.408023 
L 131.778618 95.633914 
L 132.110113 95.283941 
L 132.441608 96.046096 
L 132.773104 96.312001 
L 133.104599 96.828602 
L 133.436094 96.740124 
L 133.767589 97.724164 
L 134.099085 97.290829 
L 134.43058 99.144706 
L 134.762075 96.215932 
L 135.093571 98.490938 
L 135.425066 98.992178 
L 135.756561 99.69632 
L 136.088057 98.492451 
L 136.419552 98.979511 
L 136.751047 96.712876 
L 137.082543 97.70063 
L 137.414038 98.126398 
L 137.745533 100.945606 
L 138.077028 101.536594 
L 138.408524 104.010149 
L 138.740019 104.409601 
L 139.071514 105.663672 
L 139.40301 105.795683 
L 139.734505 107.973244 
L 140.066 109.310968 
L 140.397496 111.577416 
L 141.060486 113.904121 
L 141.391982 114.258015 
L 141.723477 115.215396 
L 142.054972 115.26736 
L 142.386468 116.437334 
L 143.049458 113.905253 
L 143.380953 110.40113 
L 144.043944 114.492224 
L 144.706935 117.957562 
L 145.03843 119.548113 
L 145.369925 119.973899 
L 145.701421 121.701276 
L 146.032916 121.817722 
L 147.027402 128.410545 
L 147.690392 128.438916 
L 148.021888 126.438593 
L 148.353383 125.783261 
L 148.684878 126.088591 
L 149.016374 126.840946 
L 149.347869 126.221885 
L 149.679364 127.420395 
L 150.01086 126.570577 
L 150.342355 128.188046 
L 150.67385 126.054817 
L 151.005346 126.222941 
L 151.336841 125.779674 
L 151.999831 128.000442 
L 152.331327 128.17879 
L 152.662822 125.990251 
L 152.994317 126.13621 
L 153.325813 123.543785 
L 153.988803 122.558333 
L 154.320299 124.922397 
L 154.651794 125.103475 
L 155.314785 127.357214 
L 155.64628 128.333051 
L 155.977775 128.486961 
L 156.30927 129.891325 
L 156.640766 129.213496 
L 156.972261 131.002968 
L 157.303756 130.122892 
L 157.635252 131.090831 
L 157.966747 133.411098 
L 158.298242 134.082684 
L 158.629738 135.053047 
L 158.961233 132.977675 
L 159.292728 132.304106 
L 159.624224 134.888781 
L 159.955719 132.367227 
L 160.287214 133.663679 
L 160.618709 136.845035 
L 160.950205 137.826228 
L 161.2817 136.186601 
L 161.613195 136.032195 
L 161.944691 134.618877 
L 162.276186 134.358562 
L 162.607681 133.764421 
L 162.939177 134.809658 
L 163.270672 133.269999 
L 163.602167 133.277728 
L 164.265158 137.760199 
L 164.596653 136.731078 
L 164.928149 136.458755 
L 165.259644 132.598484 
L 165.591139 130.452254 
L 165.922634 124.908064 
L 166.585625 118.790625 
L 167.248616 123.100574 
L 167.580111 125.057195 
L 168.243102 127.870415 
L 168.574597 129.690145 
L 168.906092 130.035394 
L 169.237588 127.681359 
L 169.569083 127.253621 
L 169.900578 126.329193 
L 170.232073 126.64585 
L 170.563569 124.714239 
L 170.895064 126.251211 
L 171.558055 130.214076 
L 171.88955 130.136829 
L 172.221045 130.688383 
L 172.552541 129.891904 
L 172.884036 129.759154 
L 173.215531 129.313832 
L 173.547027 130.645228 
L 173.878522 131.409419 
L 174.210017 132.57227 
L 174.541512 132.056148 
L 175.867494 136.788153 
L 176.198989 138.622921 
L 176.530484 137.958572 
L 176.86198 135.967217 
L 177.193475 134.712789 
L 177.52497 134.114936 
L 177.856466 133.041782 
L 178.187961 134.762317 
L 178.519456 135.682962 
L 178.850951 137.116903 
L 179.182447 140.299849 
L 179.513942 142.027637 
L 179.845437 140.775158 
L 180.176933 139.045658 
L 180.508428 136.560021 
L 180.839923 136.343698 
L 181.834409 126.436301 
L 182.165905 126.65078 
L 182.4974 129.287502 
L 183.160391 128.715506 
L 183.491886 129.223345 
L 183.823381 129.200474 
L 184.154876 129.928855 
L 184.817867 123.221437 
L 185.149362 121.038183 
L 185.480858 124.134755 
L 185.812353 124.742057 
L 186.143848 127.526652 
L 186.475344 129.204793 
L 186.806839 131.720413 
L 187.46983 133.800573 
L 187.801325 133.828161 
L 188.795811 139.50346 
L 189.127306 139.357268 
L 189.458801 140.221348 
L 189.790297 139.899304 
L 190.121792 140.483275 
L 190.453287 138.93835 
L 190.784783 138.641329 
L 191.447773 138.711365 
L 191.779269 138.49493 
L 192.110764 138.471715 
L 192.442259 138.697959 
L 192.773754 138.565864 
L 193.436745 139.946565 
L 193.76824 140.149596 
L 194.099736 141.307591 
L 194.431231 140.267229 
L 194.762726 140.812562 
L 195.094222 141.925494 
L 195.425717 142.211384 
L 195.757212 141.802547 
L 196.088708 142.764821 
L 196.420203 145.573795 
L 196.751698 145.493031 
L 197.083193 144.829876 
L 197.414689 145.751026 
L 197.746184 146.018007 
L 198.077679 145.090369 
L 198.409175 143.698334 
L 198.74067 144.109667 
L 199.403661 143.19874 
L 199.735156 141.848298 
L 200.066651 143.415616 
L 200.398147 142.536494 
L 200.729642 142.602569 
L 201.061137 142.017853 
L 201.392633 143.609965 
L 201.724128 143.536904 
L 202.055623 144.100501 
L 202.718614 143.736506 
L 203.050109 143.849173 
L 203.381604 139.5175 
L 203.7131 142.204245 
L 204.044595 143.529953 
L 204.37609 146.364316 
L 204.707586 147.656855 
L 205.039081 146.702288 
L 205.370576 146.895042 
L 205.702072 147.316565 
L 206.033567 147.968397 
L 206.365062 146.887628 
L 206.696557 147.01218 
L 207.028053 145.692734 
L 207.359548 145.742645 
L 207.691043 143.615686 
L 208.022539 143.926574 
L 208.354034 143.958765 
L 208.685529 144.901282 
L 209.017025 145.291908 
L 209.34852 146.226817 
L 209.680015 144.873628 
L 210.011511 144.530837 
L 211.005996 145.941828 
L 211.337492 146.223465 
L 211.668987 144.428855 
L 212.000482 143.347658 
L 212.331978 143.269815 
L 212.663473 143.43001 
L 212.994968 145.752285 
L 213.326464 147.175461 
L 213.657959 147.758428 
L 214.652445 153.692781 
L 214.98394 153.877186 
L 215.315435 153.566749 
L 215.646931 153.587884 
L 215.978426 152.28108 
L 216.309921 151.50125 
L 216.641417 151.08977 
L 216.972912 148.316672 
L 217.304407 147.038021 
L 217.635903 146.8307 
L 217.967398 148.327544 
L 218.298893 148.756055 
L 218.630389 147.36684 
L 218.961884 145.213748 
L 219.293379 146.661142 
L 219.624875 143.30457 
L 219.95637 137.803599 
L 220.287865 136.87301 
L 221.282351 141.10383 
L 221.613846 140.674821 
L 221.945342 142.809907 
L 222.276837 143.652049 
L 222.939828 146.170524 
L 223.271323 145.396138 
L 223.602818 146.476395 
L 223.934314 146.560769 
L 224.265809 146.124325 
L 224.597304 148.527708 
L 224.928799 150.107589 
L 225.260295 150.890766 
L 225.923285 149.331688 
L 226.254781 149.33273 
L 226.586276 150.743064 
L 226.917771 149.680091 
L 227.249267 150.5759 
L 227.580762 150.201479 
L 227.912257 151.198133 
L 228.243753 151.612452 
L 228.575248 150.906947 
L 228.906743 151.480189 
L 229.238238 152.688151 
L 229.569734 150.938149 
L 229.901229 150.897484 
L 230.232724 152.563445 
L 230.56422 153.433929 
L 230.895715 155.038406 
L 231.22721 155.674244 
L 231.558706 153.887224 
L 231.890201 152.747371 
L 232.221696 153.315545 
L 232.884687 152.240077 
L 233.216182 150.851407 
L 233.547677 150.84886 
L 233.879173 150.123247 
L 234.210668 150.532911 
L 234.542163 151.124716 
L 234.873659 150.663668 
L 235.205154 149.474086 
L 235.536649 148.722372 
L 235.868145 144.880473 
L 236.19964 146.367786 
L 236.531135 147.053735 
L 236.862631 148.267053 
L 237.194126 148.371716 
L 237.525621 149.975433 
L 238.188612 153.6616 
L 238.520107 154.591419 
L 238.851602 153.045118 
L 239.846088 146.542847 
L 240.509079 148.985527 
L 241.503565 150.856714 
L 241.83506 152.564215 
L 242.166556 153.622373 
L 242.498051 155.851525 
L 242.829546 157.262669 
L 243.492537 156.033647 
L 243.824032 155.251248 
L 244.155527 156.188073 
L 244.487023 156.422274 
L 244.818518 156.496988 
L 245.150013 158.257836 
L 245.481509 158.129692 
L 245.813004 157.857939 
L 246.144499 157.295382 
L 246.475995 157.486549 
L 246.80749 154.979696 
L 247.138985 154.096606 
L 247.47048 155.510738 
L 247.801976 155.653909 
L 248.133471 157.009867 
L 248.464966 157.017984 
L 248.796462 157.934043 
L 249.127957 158.492017 
L 249.459452 156.743093 
L 250.122443 155.459856 
L 250.785434 152.513638 
L 251.116929 150.451303 
L 251.448424 151.437903 
L 251.779919 151.911296 
L 252.111415 150.912784 
L 252.774405 147.293526 
L 253.105901 146.695838 
L 253.437396 146.453156 
L 254.431882 152.165073 
L 254.763377 153.018337 
L 255.094873 153.517615 
L 255.757863 152.08523 
L 256.089359 149.824531 
L 256.420854 150.308075 
L 256.752349 149.405203 
L 257.083844 151.169762 
L 257.41534 151.705585 
L 258.409826 148.802999 
L 258.741321 150.264848 
L 259.072816 152.780288 
L 259.404312 154.146121 
L 260.067302 154.796148 
L 260.398798 154.273475 
L 260.730293 155.423012 
L 261.061788 155.166295 
L 261.393283 155.327891 
L 261.724779 156.814723 
L 262.056274 158.853954 
L 262.387769 158.926085 
L 262.719265 157.801377 
L 263.05076 157.868962 
L 263.382255 157.023777 
L 263.713751 156.748458 
L 264.376741 155.275844 
L 264.708237 153.533039 
L 265.371227 153.2437 
L 265.702722 151.995937 
L 266.365713 148.568577 
L 266.697208 150.628277 
L 267.028704 151.056197 
L 267.360199 149.228507 
L 268.354685 139.563427 
L 268.68618 138.871871 
L 269.017676 139.468393 
L 269.349171 143.080772 
L 269.680666 144.03301 
L 270.012161 146.161493 
L 270.343657 146.770879 
L 271.006647 150.037312 
L 271.338143 149.809343 
L 271.669638 152.222702 
L 272.001133 153.020953 
L 272.332629 152.801169 
L 272.664124 153.508067 
L 272.995619 153.345838 
L 273.327115 152.422572 
L 273.65861 152.201432 
L 273.990105 153.042381 
L 274.3216 152.924373 
L 274.653096 151.908905 
L 274.984591 151.29324 
L 275.316086 151.581727 
L 275.647582 150.912818 
L 275.979077 151.689094 
L 276.310572 151.740348 
L 276.642068 152.128444 
L 276.973563 153.420658 
L 277.305058 152.126849 
L 277.636554 152.094091 
L 277.968049 152.252771 
L 278.299544 153.50867 
L 278.63104 153.462305 
L 278.962535 153.771946 
L 279.29403 150.973464 
L 279.625525 151.258293 
L 279.957021 151.938609 
L 280.620011 153.790268 
L 280.951507 154.320211 
L 281.283002 155.377246 
L 281.614497 155.708343 
L 281.945993 154.977669 
L 282.608983 159.601159 
L 282.940479 160.141512 
L 283.271974 159.064673 
L 283.603469 158.562972 
L 284.26646 159.224685 
L 284.597955 160.565205 
L 285.260946 160.707228 
L 285.592441 160.162349 
L 285.923936 160.997788 
L 286.586927 161.693917 
L 286.918422 161.777392 
L 287.249918 161.030505 
L 287.581413 161.130669 
L 287.912908 160.412765 
L 288.244403 161.715668 
L 288.575899 162.172865 
L 289.238889 162.738074 
L 289.90188 163.723245 
L 290.233375 161.735525 
L 290.564871 161.412714 
L 290.896366 160.355787 
L 291.227861 161.505861 
L 291.559357 160.093577 
L 291.890852 160.106345 
L 292.222347 159.687947 
L 292.553842 161.463676 
L 292.885338 160.8111 
L 293.548328 163.075664 
L 293.879824 162.56828 
L 294.211319 161.564851 
L 295.205805 163.855207 
L 296.200291 156.531102 
L 296.531786 156.099985 
L 296.863282 156.290012 
L 297.526272 155.015403 
L 297.857767 154.178082 
L 298.189263 154.466953 
L 298.520758 153.154024 
L 298.852253 152.363832 
L 299.183749 154.137646 
L 299.515244 153.829956 
L 299.846739 154.57052 
L 300.178235 154.494392 
L 300.50973 155.676774 
L 300.841225 155.441459 
L 301.172721 157.546721 
L 301.504216 156.688533 
L 301.835711 157.6093 
L 302.167206 154.96805 
L 302.498702 155.996072 
L 302.830197 155.365819 
L 303.161692 154.277286 
L 303.493188 154.464258 
L 304.156178 159.003136 
L 304.487674 157.721947 
L 304.819169 156.906449 
L 305.150664 156.99719 
L 305.813655 154.363947 
L 306.476645 156.859664 
L 306.808141 157.137411 
L 307.471131 158.293447 
L 307.802627 157.36953 
L 308.134122 158.308977 
L 308.465617 158.894952 
L 308.797113 158.621485 
L 309.128608 156.800992 
L 309.460103 157.574001 
L 309.791599 157.267863 
L 310.123094 157.31738 
L 310.786084 158.821548 
L 311.11758 157.207713 
L 311.449075 157.60158 
L 312.112066 160.683933 
L 312.775056 160.457613 
L 313.106552 158.339496 
L 313.769542 150.63912 
L 314.101038 149.60406 
L 314.432533 149.751439 
L 315.095524 151.927491 
L 315.427019 154.192202 
L 315.758514 155.381937 
L 316.090009 155.908673 
L 316.421505 155.924414 
L 316.753 155.486593 
L 317.084495 153.874369 
L 317.415991 153.310554 
L 318.078981 155.114368 
L 318.410477 158.37308 
L 318.741972 158.965952 
L 319.073467 160.353111 
L 319.404963 159.514786 
L 319.736458 159.240199 
L 320.067953 160.84402 
L 320.730944 160.4688 
L 321.062439 158.792397 
L 321.393934 158.464162 
L 321.72543 158.536469 
L 323.051411 157.531149 
L 323.382906 157.707304 
L 323.714402 158.735338 
L 324.377392 161.554949 
L 324.708887 161.179286 
L 325.040383 160.217994 
L 325.371878 160.181624 
L 325.703373 159.127797 
L 326.034869 159.084023 
L 326.366364 158.830285 
L 326.697859 159.192905 
L 327.029355 159.929795 
L 327.36085 159.381335 
L 327.692345 161.774977 
L 328.023841 159.232103 
L 328.355336 157.958203 
L 328.686831 157.531896 
L 329.018326 158.131393 
L 329.349822 158.278859 
L 329.681317 157.849033 
L 330.012812 158.944792 
L 330.344308 159.157237 
L 330.675803 158.490334 
L 331.007298 157.311314 
L 331.338794 156.59782 
L 332.001784 157.213365 
L 332.33328 157.432523 
L 332.99627 160.714575 
L 333.327766 160.941234 
L 333.659261 160.834041 
L 333.990756 160.054565 
L 334.322251 160.147022 
L 334.985242 159.999718 
L 335.316737 159.378277 
L 335.979728 158.72985 
L 336.642719 156.340724 
L 336.974214 156.1986 
L 337.305709 155.210856 
L 337.637205 156.685029 
L 337.9687 156.609684 
L 338.300195 156.778774 
L 338.63169 156.693581 
L 338.963186 158.143748 
L 339.626176 158.488613 
L 339.957672 159.143284 
L 340.289167 160.212084 
L 340.620662 158.602637 
L 340.952158 158.673992 
L 341.283653 159.00861 
L 341.615148 159.021177 
L 341.946644 158.48069 
L 342.278139 157.408087 
L 342.609634 157.029106 
L 342.941129 158.340979 
L 343.272625 158.343492 
L 343.60412 159.379692 
L 343.935615 159.094227 
L 344.267111 159.374605 
L 344.598606 160.365197 
L 345.261597 163.994573 
L 345.593092 163.84541 
L 345.924587 164.112302 
L 346.256083 164.526241 
L 346.587578 163.590073 
L 346.919073 163.484261 
L 347.250568 164.49779 
L 347.582064 166.362441 
L 347.913559 165.890751 
L 348.245054 163.462322 
L 348.57655 162.841147 
L 348.908045 161.84454 
L 349.23954 162.069929 
L 349.571036 163.117 
L 350.234026 161.627963 
L 350.565522 161.596834 
L 350.897017 160.555367 
L 351.228512 160.334034 
L 352.222998 162.073479 
L 353.217484 158.017229 
L 353.548979 157.113379 
L 353.880475 153.874283 
L 354.21197 152.296402 
L 354.543465 146.449179 
L 354.874961 147.487755 
L 355.206456 148.98394 
L 355.537951 149.214855 
L 355.869447 150.396935 
L 356.200942 148.304631 
L 356.532437 147.059121 
L 356.863932 146.989911 
L 357.195428 147.18053 
L 357.526923 148.529945 
L 357.858418 146.41269 
L 358.189914 146.434397 
L 358.521409 145.361396 
L 358.852904 146.52284 
L 359.1844 143.565163 
L 359.84739 140.601423 
L 360.178886 136.542833 
L 360.510381 136.615719 
L 360.841876 135.919024 
L 361.173371 135.905138 
L 361.504867 138.398881 
L 361.836362 137.630227 
L 362.167857 137.636974 
L 362.499353 137.138001 
L 363.162343 138.19828 
L 363.493839 137.222381 
L 364.156829 134.335448 
L 364.488325 133.863043 
L 364.81982 134.762066 
L 365.151315 134.531832 
L 365.48281 136.465 
L 365.814306 136.637666 
L 366.145801 135.842194 
L 366.477296 135.947126 
L 366.808792 134.586335 
L 367.140287 136.083137 
L 367.471782 139.507678 
L 367.803278 139.505636 
L 368.134773 139.923692 
L 368.466268 141.282354 
L 369.460754 147.468431 
L 370.123745 150.179871 
L 370.45524 150.194098 
L 370.786735 151.9411 
L 371.118231 151.925843 
L 371.781221 151.368038 
L 372.112717 148.995402 
L 372.444212 148.821878 
L 373.438698 150.748031 
L 373.770193 150.62938 
L 374.433184 152.687939 
L 374.764679 153.106962 
L 375.096174 152.042004 
L 376.09066 154.239121 
L 376.422156 153.743413 
L 376.753651 154.635506 
L 377.085146 155.104345 
L 377.416642 154.940661 
L 378.079632 153.188655 
L 378.411128 153.800188 
L 378.742623 155.182642 
L 379.074118 156.004276 
L 379.737109 158.658537 
L 380.068604 159.090364 
L 380.400099 159.997131 
L 380.731595 159.314299 
L 381.06309 159.50296 
L 381.394585 160.729207 
L 382.057576 162.288986 
L 382.389071 162.108058 
L 382.720567 161.52376 
L 383.383557 162.000541 
L 383.715052 160.990622 
L 384.046548 159.21182 
L 384.378043 160.243239 
L 385.372529 161.892422 
L 385.704024 161.053497 
L 386.03552 162.062841 
L 386.367015 162.509139 
L 386.69851 161.625679 
L 387.030006 162.440251 
L 387.361501 162.789808 
L 387.692996 163.549936 
L 388.024491 163.409171 
L 388.355987 162.347076 
L 388.687482 162.727104 
L 389.018977 162.697202 
L 389.350473 163.215242 
L 389.681968 160.611087 
L 390.013463 161.249087 
L 390.344959 160.944531 
L 391.339445 155.415236 
L 391.67094 155.272576 
L 392.002435 156.884251 
L 392.333931 156.534995 
L 392.665426 157.383628 
L 393.328416 157.646092 
L 393.659912 156.789242 
L 393.991407 155.42251 
L 394.322902 154.931748 
L 394.654398 156.359806 
L 394.985893 156.786571 
L 395.317388 157.60645 
L 395.648884 157.114754 
L 395.980379 153.202528 
L 396.311874 147.867205 
L 396.64337 148.232068 
L 396.974865 148.029771 
L 397.30636 149.625362 
L 397.637855 150.435164 
L 397.969351 152.86831 
L 398.300846 153.603494 
L 398.632341 155.049181 
L 399.626827 150.426133 
L 399.958323 150.551998 
L 399.958323 150.551998 
" style="fill:none;stroke:#000000;stroke-linecap:square;"/>
   </g>
   <g id="line2d_13">
    <path clip-path="url(#pfb6c4ea1df)" d="M 146.032916 178.36 
L 146.032916 13.32 
" style="fill:none;opacity:0.2;stroke:#000000;stroke-linecap:square;"/>
   </g>
   <g id="line2d_14">
    <path clip-path="url(#pfb6c4ea1df)" d="M 157.303756 178.36 
L 157.303756 13.32 
" style="fill:none;opacity:0.2;stroke:#000000;stroke-linecap:square;"/>
   </g>
   <g id="line2d_15">
    <path clip-path="url(#pfb6c4ea1df)" d="M 159.955719 178.36 
L 159.955719 13.32 
" style="fill:none;opacity:0.2;stroke:#000000;stroke-linecap:square;"/>
   </g>
   <g id="line2d_16">
    <path clip-path="url(#pfb6c4ea1df)" d="M 163.270672 178.36 
L 163.270672 13.32 
" style="fill:none;opacity:0.2;stroke:#000000;stroke-linecap:square;"/>
   </g>
   <g id="line2d_17">
    <path clip-path="url(#pfb6c4ea1df)" d="M 170.563569 178.36 
L 170.563569 13.32 
" style="fill:none;opacity:0.2;stroke:#000000;stroke-linecap:square;"/>
   </g>
   <g id="line2d_18">
    <path clip-path="url(#pfb6c4ea1df)" d="M 175.204503 178.36 
L 175.204503 13.32 
" style="fill:none;opacity:0.2;stroke:#000000;stroke-linecap:square;"/>
   </g>
   <g id="line2d_19">
    <path clip-path="url(#pfb6c4ea1df)" d="M 178.519456 178.36 
L 178.519456 13.32 
" style="fill:none;opacity:0.2;stroke:#000000;stroke-linecap:square;"/>
   </g>
   <g id="line2d_20">
    <path clip-path="url(#pfb6c4ea1df)" d="M 187.801325 178.36 
L 187.801325 13.32 
" style="fill:none;opacity:0.2;stroke:#000000;stroke-linecap:square;"/>
   </g>
   <g id="line2d_21">
    <path clip-path="url(#pfb6c4ea1df)" d="M 195.757212 178.36 
L 195.757212 13.32 
" style="fill:none;opacity:0.2;stroke:#000000;stroke-linecap:square;"/>
   </g>
   <g id="line2d_22">
    <path clip-path="url(#pfb6c4ea1df)" d="M 203.7131 178.36 
L 203.7131 13.32 
" style="fill:none;opacity:0.2;stroke:#000000;stroke-linecap:square;"/>
   </g>
   <g id="line2d_23">
    <path clip-path="url(#pfb6c4ea1df)" d="M 213.657959 178.36 
L 213.657959 13.32 
" style="fill:none;opacity:0.2;stroke:#000000;stroke-linecap:square;"/>
   </g>
   <g id="line2d_24">
    <path clip-path="url(#pfb6c4ea1df)" d="M 217.635903 178.36 
L 217.635903 13.32 
" style="fill:none;opacity:0.2;stroke:#000000;stroke-linecap:square;"/>
   </g>
   <g id="line2d_25">
    <path clip-path="url(#pfb6c4ea1df)" d="M 224.265809 178.36 
L 224.265809 13.32 
" style="fill:none;opacity:0.2;stroke:#000000;stroke-linecap:square;"/>
   </g>
   <g id="line2d_26">
    <path clip-path="url(#pfb6c4ea1df)" d="M 230.232724 178.36 
L 230.232724 13.32 
" style="fill:none;opacity:0.2;stroke:#000000;stroke-linecap:square;"/>
   </g>
   <g id="line2d_27">
    <path clip-path="url(#pfb6c4ea1df)" d="M 237.525621 178.36 
L 237.525621 13.32 
" style="fill:none;opacity:0.2;stroke:#000000;stroke-linecap:square;"/>
   </g>
   <g id="line2d_28">
    <path clip-path="url(#pfb6c4ea1df)" d="M 242.166556 178.36 
L 242.166556 13.32 
" style="fill:none;opacity:0.2;stroke:#000000;stroke-linecap:square;"/>
   </g>
   <g id="line2d_29">
    <path clip-path="url(#pfb6c4ea1df)" d="M 248.133471 178.36 
L 248.133471 13.32 
" style="fill:none;opacity:0.2;stroke:#000000;stroke-linecap:square;"/>
   </g>
   <g id="line2d_30">
    <path clip-path="url(#pfb6c4ea1df)" d="M 256.752349 178.36 
L 256.752349 13.32 
" style="fill:none;opacity:0.2;stroke:#000000;stroke-linecap:square;"/>
   </g>
   <g id="line2d_31">
    <path clip-path="url(#pfb6c4ea1df)" d="M 258.741321 178.36 
L 258.741321 13.32 
" style="fill:none;opacity:0.2;stroke:#000000;stroke-linecap:square;"/>
   </g>
   <g id="line2d_32">
    <path clip-path="url(#pfb6c4ea1df)" d="M 261.393283 178.36 
L 261.393283 13.32 
" style="fill:none;opacity:0.2;stroke:#000000;stroke-linecap:square;"/>
   </g>
   <g id="line2d_33">
    <path clip-path="url(#pfb6c4ea1df)" d="M 271.338143 178.36 
L 271.338143 13.32 
" style="fill:none;opacity:0.2;stroke:#000000;stroke-linecap:square;"/>
   </g>
   <g id="line2d_34">
    <path clip-path="url(#pfb6c4ea1df)" d="M 281.945993 178.36 
L 281.945993 13.32 
" style="fill:none;opacity:0.2;stroke:#000000;stroke-linecap:square;"/>
   </g>
   <g id="line2d_35">
    <path clip-path="url(#pfb6c4ea1df)" d="M 288.575899 178.36 
L 288.575899 13.32 
" style="fill:none;opacity:0.2;stroke:#000000;stroke-linecap:square;"/>
   </g>
   <g id="line2d_36">
    <path clip-path="url(#pfb6c4ea1df)" d="M 294.542814 178.36 
L 294.542814 13.32 
" style="fill:none;opacity:0.2;stroke:#000000;stroke-linecap:square;"/>
   </g>
   <g id="line2d_37">
    <path clip-path="url(#pfb6c4ea1df)" d="M 303.824683 178.36 
L 303.824683 13.32 
" style="fill:none;opacity:0.2;stroke:#000000;stroke-linecap:square;"/>
   </g>
   <g id="line2d_38">
    <path clip-path="url(#pfb6c4ea1df)" d="M 315.095524 178.36 
L 315.095524 13.32 
" style="fill:none;opacity:0.2;stroke:#000000;stroke-linecap:square;"/>
   </g>
   <g id="line2d_39">
    <path clip-path="url(#pfb6c4ea1df)" d="M 317.747486 178.36 
L 317.747486 13.32 
" style="fill:none;opacity:0.2;stroke:#000000;stroke-linecap:square;"/>
   </g>
   <g id="line2d_40">
    <path clip-path="url(#pfb6c4ea1df)" d="M 323.714402 178.36 
L 323.714402 13.32 
" style="fill:none;opacity:0.2;stroke:#000000;stroke-linecap:square;"/>
   </g>
   <g id="line2d_41">
    <path clip-path="url(#pfb6c4ea1df)" d="M 332.33328 178.36 
L 332.33328 13.32 
" style="fill:none;opacity:0.2;stroke:#000000;stroke-linecap:square;"/>
   </g>
   <g id="line2d_42">
    <path clip-path="url(#pfb6c4ea1df)" d="M 334.322251 178.36 
L 334.322251 13.32 
" style="fill:none;opacity:0.2;stroke:#000000;stroke-linecap:square;"/>
   </g>
   <g id="line2d_43">
    <path clip-path="url(#pfb6c4ea1df)" d="M 339.626176 178.36 
L 339.626176 13.32 
" style="fill:none;opacity:0.2;stroke:#000000;stroke-linecap:square;"/>
   </g>
   <g id="line2d_44">
    <path clip-path="url(#pfb6c4ea1df)" d="M 344.930101 178.36 
L 344.930101 13.32 
" style="fill:none;opacity:0.2;stroke:#000000;stroke-linecap:square;"/>
   </g>
   <g id="line2d_45">
    <path clip-path="url(#pfb6c4ea1df)" d="M 346.919073 178.36 
L 346.919073 13.32 
" style="fill:none;opacity:0.2;stroke:#000000;stroke-linecap:square;"/>
   </g>
   <g id="line2d_46">
    <path clip-path="url(#pfb6c4ea1df)" d="M 351.560008 178.36 
L 351.560008 13.32 
" style="fill:none;opacity:0.2;stroke:#000000;stroke-linecap:square;"/>
   </g>
   <g id="line2d_47">
    <path clip-path="url(#pfb6c4ea1df)" d="M 355.537951 178.36 
L 355.537951 13.32 
" style="fill:none;opacity:0.2;stroke:#000000;stroke-linecap:square;"/>
   </g>
   <g id="line2d_48">
    <path clip-path="url(#pfb6c4ea1df)" d="M 359.515895 178.36 
L 359.515895 13.32 
" style="fill:none;opacity:0.2;stroke:#000000;stroke-linecap:square;"/>
   </g>
   <g id="line2d_49">
    <path clip-path="url(#pfb6c4ea1df)" d="M 365.48281 178.36 
L 365.48281 13.32 
" style="fill:none;opacity:0.2;stroke:#000000;stroke-linecap:square;"/>
   </g>
   <g id="line2d_50">
    <path clip-path="url(#pfb6c4ea1df)" d="M 375.42767 178.36 
L 375.42767 13.32 
" style="fill:none;opacity:0.2;stroke:#000000;stroke-linecap:square;"/>
   </g>
   <g id="line2d_51">
    <path clip-path="url(#pfb6c4ea1df)" d="M 386.69851 178.36 
L 386.69851 13.32 
" style="fill:none;opacity:0.2;stroke:#000000;stroke-linecap:square;"/>
   </g>
   <g id="line2d_52">
    <path clip-path="url(#pfb6c4ea1df)" d="M 391.339445 178.36 
L 391.339445 13.32 
" style="fill:none;opacity:0.2;stroke:#000000;stroke-linecap:square;"/>
   </g>
   <g id="patch_3">
    <path d="M 60.59 178.36 
L 60.59 13.32 
" style="fill:none;stroke:#000000;stroke-linecap:square;stroke-linejoin:miter;stroke-width:0.8;"/>
   </g>
   <g id="patch_4">
    <path d="M 60.59 178.36 
L 416.118719 178.36 
" style="fill:none;stroke:#000000;stroke-linecap:square;stroke-linejoin:miter;stroke-width:0.8;"/>
   </g>
  </g>
 </g>
 <defs>
  <clipPath id="pfb6c4ea1df">
   <rect height="165.04" width="355.528719" x="60.59" y="13.32"/>
  </clipPath>
 </defs>
</svg>
