<?xml version="1.0" encoding="utf-8" standalone="no"?>
<!DOCTYPE svg PUBLIC "-//W3C//DTD SVG 1.1//EN"
  "http://www.w3.org/Graphics/SVG/1.1/DTD/svg11.dtd">
<!-- Created with matplotlib (https://matplotlib.org/) -->
<svg height="230.4pt" version="1.1" viewBox="0 0 432 230.4" width="432pt" xmlns="http://www.w3.org/2000/svg" xmlns:xlink="http://www.w3.org/1999/xlink">
 <metadata>
  <rdf:RDF xmlns:cc="http://creativecommons.org/ns#" xmlns:dc="http://purl.org/dc/elements/1.1/" xmlns:rdf="http://www.w3.org/1999/02/22-rdf-syntax-ns#">
   <cc:Work>
    <dc:type rdf:resource="http://purl.org/dc/dcmitype/StillImage"/>
    <dc:date>2024-06-04T16:49:20.613435</dc:date>
    <dc:format>image/svg+xml</dc:format>
    <dc:creator>
     <cc:Agent>
      <dc:title>Matplotlib v3.3.4, https://matplotlib.org/</dc:title>
     </cc:Agent>
    </dc:creator>
   </cc:Work>
  </rdf:RDF>
 </metadata>
 <defs>
  <style type="text/css">*{stroke-linecap:butt;stroke-linejoin:round;}</style>
 </defs>
 <g id="figure_1">
  <g id="patch_1">
   <path d="M 0 230.4 
L 432 230.4 
L 432 0 
L 0 0 
z
" style="fill:#ffffff;"/>
  </g>
  <g id="axes_1">
   <g id="patch_2">
    <path d="M 58.61 180.52 
L 407.925 180.52 
L 407.925 10.8 
L 58.61 10.8 
z
" style="fill:#ffffff;"/>
   </g>
   <g id="PolyCollection_1">
    <path clip-path="url(#pa32cc9d697)" d="M 59.483288 40.597921 
L 59.483288 68.138166 
L 60.356575 51.763362 
L 61.229863 49.653593 
L 62.10315 53.451469 
L 62.976438 59.380999 
L 63.849725 62.561508 
L 64.723013 67.470954 
L 65.5963 71.143474 
L 66.469588 74.375132 
L 67.342875 76.456636 
L 68.216163 77.182839 
L 69.08945 79.397298 
L 69.962738 79.759724 
L 70.836025 81.770364 
L 71.709313 83.947468 
L 72.5826 86.104331 
L 73.455888 87.812493 
L 74.329175 89.544735 
L 75.202462 89.60332 
L 76.07575 90.021635 
L 76.949038 90.293954 
L 77.822325 91.079975 
L 78.695613 93.715738 
L 79.5689 95.794121 
L 80.442188 95.716941 
L 81.315475 95.040823 
L 82.188762 94.692902 
L 83.06205 95.788861 
L 83.935338 97.304194 
L 84.808625 99.490535 
L 85.681913 98.173733 
L 86.5552 94.8099 
L 87.428488 95.063132 
L 88.301775 96.392663 
L 89.175062 98.27392 
L 90.04835 99.720185 
L 90.921638 100.49888 
L 91.794925 100.631656 
L 92.668213 100.986598 
L 93.5415 102.955313 
L 94.414788 102.480879 
L 95.288075 101.953405 
L 96.161362 102.44325 
L 97.03465 101.260728 
L 97.907938 99.62166 
L 98.781225 100.744336 
L 99.654513 103.272624 
L 100.5278 103.7731 
L 101.401088 105.688045 
L 102.274375 106.859116 
L 103.147662 107.520275 
L 104.02095 107.80888 
L 104.894238 108.066004 
L 105.767525 109.366785 
L 106.640813 109.436757 
L 107.5141 110.711657 
L 108.387388 109.78839 
L 109.260675 111.576677 
L 110.133962 112.274023 
L 111.00725 113.065496 
L 111.880538 112.90523 
L 112.753825 112.176426 
L 113.627113 112.206252 
L 114.5004 112.668399 
L 115.373687 112.576725 
L 116.246975 113.417349 
L 117.120262 114.24019 
L 117.99355 115.765361 
L 118.866838 116.243933 
L 119.740125 118.083333 
L 120.613412 119.489367 
L 121.4867 120.164921 
L 122.359987 120.292971 
L 123.233275 120.788335 
L 124.106562 121.980547 
L 124.97985 121.126948 
L 125.853138 122.954943 
L 126.726425 124.596803 
L 127.599713 122.632996 
L 128.473 122.082839 
L 129.346287 119.961518 
L 130.219575 119.934601 
L 131.092862 121.612053 
L 131.96615 122.994094 
L 132.839438 124.315241 
L 133.712725 124.18537 
L 134.586013 124.190781 
L 135.4593 124.826984 
L 136.332587 125.548242 
L 137.205875 126.020174 
L 138.079162 126.659815 
L 138.95245 126.51028 
L 139.825738 127.437953 
L 140.699025 127.426124 
L 141.572313 128.821639 
L 142.4456 127.983455 
L 143.318887 129.170957 
L 144.192175 129.429033 
L 145.065462 129.364946 
L 145.93875 128.750397 
L 146.812038 129.142904 
L 147.685325 128.907205 
L 148.558612 128.879252 
L 149.4319 129.931616 
L 150.305187 130.747204 
L 151.178475 131.431744 
L 152.051762 131.321658 
L 152.92505 131.800801 
L 153.798338 132.908676 
L 154.671625 133.24814 
L 155.544912 132.661253 
L 156.4182 132.696073 
L 157.291487 132.054762 
L 158.164775 132.61213 
L 159.038062 132.814982 
L 159.91135 133.638334 
L 160.784638 133.884882 
L 161.657925 132.759187 
L 162.531212 132.83641 
L 163.4045 131.220901 
L 164.277787 127.175718 
L 165.151075 114.261993 
L 166.024362 100.603175 
L 166.89765 90.397914 
L 167.770938 86.177096 
L 168.644225 83.226322 
L 169.517512 84.638837 
L 170.3908 83.55725 
L 171.264087 84.815284 
L 172.137375 82.674007 
L 173.010662 83.556903 
L 173.88395 80.696111 
L 174.757238 81.790667 
L 175.630525 79.712557 
L 176.503812 79.742872 
L 177.3771 76.665766 
L 178.250387 76.596636 
L 179.123675 72.096686 
L 179.996962 72.054411 
L 180.87025 71.794148 
L 181.743538 72.938625 
L 182.616825 72.141606 
L 183.490112 73.604806 
L 184.3634 74.822417 
L 185.236687 80.507241 
L 186.109975 80.824565 
L 186.983262 82.028384 
L 187.85655 82.489606 
L 188.729838 84.63739 
L 189.603125 84.486334 
L 190.476413 85.084741 
L 191.3497 83.859753 
L 192.222987 84.848816 
L 193.096275 85.223202 
L 193.969562 87.054679 
L 194.84285 87.576916 
L 195.716138 90.354188 
L 196.589425 91.875378 
L 197.462713 93.122995 
L 198.336 94.476692 
L 199.209287 97.463982 
L 200.082575 99.194289 
L 200.955862 102.613768 
L 201.82915 101.911679 
L 202.702438 101.872519 
L 203.575725 100.840675 
L 204.449012 101.996036 
L 205.3223 101.751318 
L 206.195587 102.438289 
L 207.068875 102.726554 
L 207.942162 103.079528 
L 208.81545 103.019626 
L 209.688738 103.963022 
L 210.562025 103.549327 
L 211.435312 105.559802 
L 212.3086 102.645491 
L 213.181887 104.716606 
L 214.055175 105.265652 
L 214.928462 105.899308 
L 215.80175 104.756573 
L 216.675038 105.475093 
L 217.548325 103.389602 
L 218.421612 104.682632 
L 219.2949 105.111878 
L 220.168187 107.775031 
L 221.041475 108.209567 
L 221.914762 110.574323 
L 222.78805 110.926216 
L 223.661338 112.187651 
L 224.534625 112.286187 
L 225.407912 114.382861 
L 226.2812 115.738164 
L 227.154487 117.933312 
L 228.027775 119.099468 
L 228.901062 120.237931 
L 229.77435 120.652336 
L 230.647638 121.496005 
L 231.520925 121.534391 
L 232.394212 122.663398 
L 233.2675 121.685802 
L 234.140787 121.119926 
L 235.014075 117.642477 
L 235.887362 119.831673 
L 236.76065 121.454978 
L 237.633938 123.179096 
L 238.507225 124.62505 
L 239.380512 126.125277 
L 240.2538 126.516679 
L 241.127087 128.158031 
L 242.000375 128.243996 
L 242.873662 130.413874 
L 243.74695 133.000609 
L 244.620238 134.674795 
L 245.493525 134.715102 
L 246.366812 134.819714 
L 247.2401 132.672437 
L 248.113387 132.040785 
L 248.986675 132.33772 
L 249.859962 133.132947 
L 250.73325 132.433807 
L 251.606538 133.64429 
L 252.479825 132.703777 
L 253.353112 134.334331 
L 254.2264 132.197327 
L 255.099687 132.357266 
L 255.972975 131.8573 
L 256.846262 133.239842 
L 257.71955 134.193342 
L 258.592837 134.335589 
L 259.466125 132.139578 
L 260.339412 132.416071 
L 261.2127 129.695354 
L 262.085987 129.111124 
L 262.959275 128.642579 
L 263.832562 131.092054 
L 264.70585 131.267013 
L 265.579137 132.424923 
L 266.452425 133.469336 
L 267.325712 134.39211 
L 268.199 134.607656 
L 269.072287 136.000864 
L 269.945575 135.233562 
L 270.818862 137.094205 
L 271.69215 136.171087 
L 272.565437 137.046279 
L 273.438725 139.392235 
L 274.312012 140.012367 
L 275.1853 141.08628 
L 276.058587 138.873432 
L 276.931875 138.209082 
L 277.805162 140.877723 
L 278.67845 138.290044 
L 279.551737 139.605107 
L 280.425025 142.872664 
L 281.298312 143.872697 
L 282.1716 142.311309 
L 283.044887 142.131731 
L 283.918175 140.614356 
L 284.791462 140.384037 
L 285.66475 139.768017 
L 286.538037 140.820515 
L 287.411325 139.20922 
L 288.284612 139.191654 
L 289.1579 141.524966 
L 290.031187 143.756389 
L 290.904475 142.734532 
L 291.777762 142.47649 
L 292.65105 139.011602 
L 293.524337 136.499338 
L 294.397625 131.315638 
L 295.270912 127.984367 
L 296.1442 125.514882 
L 297.017487 127.706146 
L 297.890775 129.306241 
L 298.764062 131.059893 
L 299.63735 132.232703 
L 300.510637 133.817141 
L 301.383925 135.585967 
L 302.257212 136.046541 
L 303.1305 133.92593 
L 304.003787 133.605841 
L 304.877075 132.625299 
L 305.750362 133.01597 
L 306.62365 131.287189 
L 307.496937 132.894309 
L 308.370225 135.136419 
L 309.243512 136.656292 
L 310.1168 136.433793 
L 310.990087 136.98723 
L 311.863375 135.931985 
L 312.736662 135.860934 
L 313.60995 135.378487 
L 314.483237 136.672752 
L 315.356525 137.412785 
L 316.229812 138.597435 
L 317.1031 137.977265 
L 317.976387 139.093672 
L 318.849675 139.877145 
L 319.722962 141.045967 
L 320.59625 142.682211 
L 321.469538 144.606194 
L 322.342825 143.903021 
L 323.216112 141.920949 
L 324.0894 140.770405 
L 324.962687 140.266435 
L 325.835975 139.133264 
L 326.709262 140.833298 
L 327.58255 141.691603 
L 328.455837 143.141987 
L 329.329125 146.342661 
L 330.202412 148.093199 
L 331.0757 146.703508 
L 331.948987 145.071412 
L 332.822275 142.858249 
L 333.695562 142.643662 
L 334.56885 139.917495 
L 335.442138 137.411817 
L 336.315425 134.228065 
L 337.188712 134.127847 
L 338.062 136.638485 
L 338.935287 135.900184 
L 339.808575 135.511539 
L 340.681862 135.87301 
L 341.55515 135.640526 
L 342.428437 136.247516 
L 343.301725 133.688202 
L 344.175012 131.219249 
L 345.0483 129.050407 
L 345.921587 131.958011 
L 346.794875 132.076242 
L 347.668162 134.627659 
L 348.54145 136.118878 
L 349.414738 138.438183 
L 350.288025 139.423109 
L 351.161312 140.24855 
L 352.0346 140.251372 
L 352.907887 142.154445 
L 353.781175 143.95203 
L 354.654462 145.798339 
L 355.52775 145.463999 
L 356.401037 146.347856 
L 357.274325 145.992221 
L 358.147612 146.703265 
L 359.0209 145.07856 
L 359.894187 144.748425 
L 360.767475 144.793225 
L 361.640762 144.923213 
L 362.51405 144.653429 
L 363.387338 144.609053 
L 364.260625 144.97306 
L 365.133912 144.729549 
L 366.0072 145.453249 
L 366.880487 146.173443 
L 367.753775 146.237798 
L 368.627062 147.480575 
L 369.50035 146.389235 
L 370.373637 146.885526 
L 371.246925 148.024371 
L 372.120212 148.323306 
L 372.9935 147.919934 
L 373.866787 148.787946 
L 374.740075 151.614294 
L 375.613362 151.520435 
L 376.48665 150.725311 
L 377.359937 151.675541 
L 378.233225 151.869939 
L 379.106512 151.360472 
L 379.9798 149.629358 
L 380.853087 150.039962 
L 381.726375 149.521795 
L 382.599662 149.063837 
L 383.47295 147.937778 
L 384.346237 149.412933 
L 385.219525 148.449089 
L 386.092812 148.45847 
L 386.9661 147.966946 
L 387.839387 149.610482 
L 388.712675 149.514136 
L 389.585962 150.092451 
L 390.45925 150.075428 
L 391.332537 149.869103 
L 392.205825 149.91328 
L 393.079112 146.303211 
L 393.9524 148.498221 
L 394.825687 149.645932 
L 395.698975 152.42999 
L 396.572262 153.730974 
L 397.44555 152.69715 
L 398.318837 152.828705 
L 399.192125 153.205519 
L 400.065412 153.871853 
L 400.9387 152.855098 
L 401.811987 153.065904 
L 402.685275 151.796734 
L 403.558562 151.962664 
L 404.43185 149.829294 
L 405.305137 150.337064 
L 406.178425 150.205392 
L 407.051712 150.99964 
L 407.925 151.21882 
L 408.798287 152.17802 
L 409.671575 150.807664 
L 410.544862 150.483666 
L 411.41815 150.997339 
L 412.291437 151.473349 
L 413.164725 151.812456 
L 414.038012 152.126067 
L 414.9113 150.409557 
L 415.784587 149.481288 
L 416.657875 149.508039 
L 417.531162 149.646942 
L 418.40445 151.804781 
L 419.277737 153.149556 
L 420.151025 153.669955 
L 421.024312 155.928573 
L 421.8976 158.384341 
L 422.770887 159.661305 
L 423.644175 159.871987 
L 424.517462 159.498283 
L 425.39075 159.526507 
L 426.264037 158.235555 
L 427.137325 157.507282 
L 428.010612 157.165865 
L 428.8839 154.487026 
L 429.757187 153.315343 
L 430.630475 153.016949 
L 431.503762 154.538652 
L 432.37705 155.607684 
L 433.250337 154.187596 
L 434.123625 151.779528 
L 434.996912 153.140948 
L 435.8702 150.573316 
L 436.743487 146.024749 
L 437.616775 145.299211 
L 438.490062 146.383956 
L 439.36335 147.082487 
L 440.236637 148.311367 
L 441.109925 147.637354 
L 441.983212 149.496672 
L 442.8565 150.276219 
L 443.729787 151.580646 
L 444.603075 152.649525 
L 445.476362 151.780723 
L 446.34965 152.897999 
L 447.222937 152.869652 
L 448.096225 152.512288 
L 448.969512 154.925777 
L 449.8428 156.461524 
L 450.716087 157.265106 
L 451.589375 156.314441 
L 452.462662 155.622591 
L 453.33595 155.647775 
L 454.209237 157.034711 
L 455.082525 155.845906 
L 455.955812 156.8538 
L 456.8291 156.449733 
L 457.702387 157.372692 
L 458.575675 157.749798 
L 459.448962 156.937482 
L 460.32225 157.656186 
L 461.195537 158.836575 
L 462.068825 157.02745 
L 462.942112 156.953767 
L 463.8154 158.623044 
L 464.688687 159.488096 
L 465.561975 161.11874 
L 466.435262 161.859431 
L 467.30855 160.152313 
L 468.181837 159.033307 
L 469.055125 159.511996 
L 469.928412 158.901383 
L 470.8017 158.304392 
L 471.674987 157.040565 
L 472.548275 157.069735 
L 473.421562 156.468198 
L 474.29485 156.698095 
L 475.168137 157.276451 
L 476.041425 156.832183 
L 476.914712 155.79032 
L 477.788 155.044439 
L 478.661287 151.481993 
L 479.534575 152.599441 
L 480.407862 153.270951 
L 481.28115 154.361721 
L 482.154437 154.358653 
L 483.027725 155.929127 
L 483.901012 158.188183 
L 484.7743 159.613876 
L 485.647587 160.637988 
L 486.520875 159.208647 
L 487.394162 157.158497 
L 488.26745 154.498845 
L 489.140737 153.335774 
L 490.014025 154.382761 
L 490.887312 155.393842 
L 491.7606 155.87869 
L 492.633887 156.29601 
L 493.507175 156.949294 
L 494.380462 158.582582 
L 495.25375 159.696414 
L 496.127037 162.004179 
L 497.000325 163.469671 
L 497.873612 162.909366 
L 498.7469 162.304844 
L 499.620187 161.47093 
L 500.493475 162.357831 
L 501.366762 162.509297 
L 502.24005 162.510994 
L 503.113337 164.271846 
L 503.986625 164.172415 
L 504.859912 163.968865 
L 505.7332 163.339954 
L 506.606487 163.629672 
L 507.479775 161.534662 
L 508.353062 160.779827 
L 509.22635 161.989161 
L 510.099637 161.938751 
L 510.972925 163.23494 
L 511.846212 163.070516 
L 512.7195 164.007266 
L 513.592787 164.645545 
L 514.466075 162.907692 
L 515.339362 162.350584 
L 516.21265 161.754571 
L 517.085937 160.515841 
L 517.959225 159.007464 
L 518.832512 157.131083 
L 519.7058 158.058886 
L 520.579087 158.420901 
L 521.452375 157.563355 
L 522.325662 156.263759 
L 523.19895 154.348932 
L 524.072237 153.944253 
L 524.945525 153.451698 
L 525.818812 155.266638 
L 526.6921 157.372267 
L 527.565387 158.727852 
L 528.438675 159.486186 
L 529.311962 159.862315 
L 530.18525 158.908142 
L 531.058537 158.348715 
L 531.931825 155.996952 
L 532.805112 156.533406 
L 533.6784 155.598519 
L 534.551687 157.530185 
L 535.424975 158.196252 
L 536.298262 157.572201 
L 537.17155 156.742624 
L 538.044837 155.688053 
L 538.918125 156.953745 
L 539.791412 159.4603 
L 540.6647 160.776864 
L 541.537987 160.97964 
L 542.411275 161.209957 
L 543.284562 160.568337 
L 544.15785 161.74407 
L 545.031137 161.47843 
L 545.904425 161.580724 
L 546.777712 163.026338 
L 547.651 165.110255 
L 548.524287 165.161626 
L 549.397575 163.978175 
L 550.270862 164.014369 
L 551.14415 163.084373 
L 552.017437 162.893844 
L 552.890725 162.08167 
L 553.764012 161.471102 
L 554.6373 160.026625 
L 555.510587 159.863808 
L 556.383875 159.582821 
L 557.257162 158.387037 
L 558.13045 156.71642 
L 559.003737 155.498291 
L 559.877025 157.475708 
L 560.750312 157.697866 
L 561.6236 156.073814 
L 562.496887 152.800518 
L 563.370175 151.179566 
L 564.243462 148.513473 
L 565.11675 148.197641 
L 565.990037 148.476046 
L 566.863325 151.60325 
L 567.736612 152.121426 
L 568.6099 153.940273 
L 569.483187 154.203611 
L 570.356475 155.540326 
L 571.229762 157.029393 
L 572.10305 156.736534 
L 572.976337 159.145417 
L 573.849625 159.847628 
L 574.722912 159.606209 
L 575.5962 160.276099 
L 576.469487 159.971007 
L 577.342775 159.044467 
L 578.216062 158.776465 
L 579.08935 159.522047 
L 579.962637 159.394688 
L 580.835925 158.648737 
L 581.709212 158.071657 
L 582.5825 158.423787 
L 583.455787 157.706161 
L 584.329075 158.522314 
L 585.202362 158.452309 
L 586.07565 158.785845 
L 586.948937 159.983688 
L 587.822225 158.683698 
L 588.695512 158.648972 
L 589.5688 158.81934 
L 590.442087 160.011076 
L 591.315375 159.925882 
L 592.188662 160.125674 
L 593.06195 157.914115 
L 593.935237 157.740238 
L 594.808525 158.317462 
L 595.681812 159.17876 
L 596.5551 160.03711 
L 597.428387 160.557619 
L 598.301675 161.600305 
L 599.174962 161.889143 
L 600.04825 161.151247 
L 600.921537 163.262046 
L 601.794825 165.856805 
L 602.668112 166.354319 
L 603.5414 165.327408 
L 604.414687 164.825522 
L 605.287975 165.291999 
L 606.161262 165.524604 
L 607.03455 166.916652 
L 607.907837 166.828272 
L 608.781125 166.911726 
L 609.654412 166.283025 
L 610.5277 167.156394 
L 611.400987 167.496378 
L 612.274275 167.806571 
L 613.147562 168.029681 
L 614.02085 167.169081 
L 614.894137 167.351816 
L 615.767425 166.700958 
L 616.640712 167.981895 
L 617.514 168.371832 
L 618.387287 168.548223 
L 619.260575 169.023426 
L 620.133862 169.55426 
L 621.00715 170.037047 
L 621.880437 167.98141 
L 622.753725 167.631937 
L 623.627012 166.512934 
L 624.5003 167.728587 
L 625.373587 166.337645 
L 626.246875 166.360611 
L 627.120162 165.81818 
L 627.99345 167.625369 
L 628.866737 167.019829 
L 629.740025 168.404648 
L 630.613312 169.341392 
L 631.4866 168.893347 
L 632.359887 167.818332 
L 633.233175 168.571627 
L 634.106462 169.165143 
L 634.97975 170.120767 
L 635.853037 167.957618 
L 636.726325 165.784535 
L 637.599612 163.417048 
L 638.4729 163.107897 
L 639.346187 163.176481 
L 640.219475 162.452384 
L 641.092762 161.587833 
L 641.96605 160.826145 
L 642.839337 161.062846 
L 643.712625 159.679277 
L 644.585912 158.959317 
L 645.4592 160.672638 
L 646.332487 160.39234 
L 647.205775 161.077644 
L 648.079062 161.034603 
L 648.95235 162.147413 
L 649.825637 161.917394 
L 650.698925 164.014757 
L 651.572212 163.099126 
L 652.4455 164.037214 
L 653.318787 161.500535 
L 654.192075 162.580074 
L 655.065362 162.115021 
L 655.93865 161.181416 
L 656.811937 161.356351 
L 657.685225 163.131475 
L 658.558512 165.610344 
L 659.4318 164.191297 
L 660.305087 163.387994 
L 661.178375 163.501524 
L 662.051662 162.233671 
L 662.92495 160.788351 
L 663.798237 162.059096 
L 664.671525 163.255412 
L 665.544812 163.421514 
L 666.4181 163.90535 
L 667.291387 164.614945 
L 668.164675 163.610833 
L 669.037962 164.551503 
L 669.91125 165.202784 
L 670.784537 164.928879 
L 671.657825 163.11189 
L 672.531112 164.01953 
L 673.4044 163.702025 
L 674.277687 163.703841 
L 675.150975 164.292366 
L 676.024262 165.260062 
L 676.89755 163.58143 
L 677.770837 163.88362 
L 678.644125 165.71407 
L 679.517412 166.967285 
L 680.3907 166.882554 
L 681.263987 166.838277 
L 682.137275 164.721778 
L 683.010562 160.300514 
L 683.88385 157.915805 
L 684.757137 156.914112 
L 685.630425 156.840025 
L 686.503712 157.642035 
L 687.377 158.662148 
L 688.250287 160.870051 
L 689.123575 162.041992 
L 689.996862 162.457542 
L 690.87015 162.417582 
L 691.743437 161.933828 
L 692.616725 160.491621 
L 693.490012 160.121097 
L 694.3633 160.907717 
L 695.236587 161.757607 
L 696.109875 164.981623 
L 696.983162 165.485036 
L 697.85645 166.958741 
L 698.729737 166.042917 
L 699.603025 165.748263 
L 700.476312 167.231045 
L 701.3496 167.179743 
L 702.222887 166.849196 
L 703.096175 165.247121 
L 703.969462 164.821746 
L 704.84275 164.868873 
L 705.716037 164.578037 
L 706.589325 164.250541 
L 707.462612 163.986574 
L 708.3359 163.917162 
L 709.209187 164.089836 
L 710.082475 165.161917 
L 710.955762 166.670785 
L 711.82905 167.942666 
L 712.702337 167.510782 
L 713.575625 166.521746 
L 714.448912 166.596552 
L 715.3222 165.445923 
L 716.195487 165.403873 
L 717.068775 165.128994 
L 717.942062 165.618212 
L 718.81535 166.424529 
L 719.688637 165.842602 
L 720.561925 168.315987 
L 721.435212 165.793196 
L 722.3085 164.568487 
L 723.181787 164.104748 
L 724.055075 164.662948 
L 724.928362 164.812616 
L 725.80165 164.237516 
L 726.674937 165.299961 
L 727.548225 165.515123 
L 728.421512 164.949213 
L 729.2948 163.726899 
L 730.168087 163.00475 
L 731.041375 163.475238 
L 731.914662 163.77543 
L 732.78795 163.827167 
L 733.661237 165.834477 
L 734.534525 167.177685 
L 735.407812 167.401581 
L 736.2811 167.247405 
L 737.154387 166.499047 
L 738.027675 166.664532 
L 738.900962 166.618364 
L 739.77425 166.662633 
L 740.647537 166.07932 
L 741.520825 165.70235 
L 742.394112 165.349715 
L 743.2674 164.105524 
L 744.140687 163.024682 
L 745.013975 162.776225 
L 745.887262 161.734828 
L 746.76055 163.20206 
L 747.633837 163.181726 
L 748.507125 163.289404 
L 749.380412 163.29321 
L 750.2537 164.703856 
L 751.126987 164.826988 
L 752.000275 165.044511 
L 752.873562 165.703469 
L 753.74685 166.878715 
L 754.620137 165.197385 
L 755.493425 165.12482 
L 756.366712 165.408796 
L 757.24 165.491276 
L 758.113287 164.919755 
L 758.986575 163.890366 
L 759.859862 163.45114 
L 760.73315 164.755384 
L 761.606437 164.767759 
L 762.479725 165.922547 
L 763.353012 165.539029 
L 764.2263 165.79382 
L 765.099587 166.753127 
L 765.972875 168.580138 
L 766.846162 170.449214 
L 767.71945 170.318925 
L 768.592737 170.53786 
L 769.466025 170.915854 
L 770.339312 169.882907 
L 771.2126 169.75651 
L 772.085887 170.84712 
L 772.959175 172.805455 
L 773.832462 172.279682 
L 774.70575 169.854452 
L 775.579037 169.334237 
L 776.452325 168.427752 
L 777.325612 168.62584 
L 778.1989 169.61522 
L 779.072187 168.880542 
L 779.945475 168.023928 
L 780.818762 168.03042 
L 781.69205 166.957891 
L 782.565337 166.853725 
L 783.438625 167.550948 
L 784.311912 168.287071 
L 785.1852 168.707941 
L 786.058487 167.20612 
L 786.931775 166.032778 
L 787.805062 164.600888 
L 788.67835 163.690002 
L 789.551637 160.761001 
L 790.424925 159.284141 
L 791.298212 153.996015 
L 792.1715 155.222836 
L 793.044787 156.809247 
L 793.918075 157.086728 
L 794.791362 158.497944 
L 795.66465 157.011292 
L 796.537937 155.771604 
L 797.411225 155.334584 
L 798.284512 155.317083 
L 799.1578 156.445898 
L 800.031087 154.726903 
L 800.904375 154.64351 
L 801.777662 153.445222 
L 802.65095 154.911285 
L 803.524237 152.427599 
L 804.397525 151.010347 
L 805.270812 150.249483 
L 806.1441 147.03024 
L 807.017387 146.741714 
L 807.890675 145.874377 
L 808.763962 145.898319 
L 809.63725 147.920462 
L 810.510537 147.11018 
L 811.383825 147.521691 
L 812.257112 146.426266 
L 813.1304 146.411803 
L 814.003687 146.621806 
L 814.876975 145.493425 
L 815.750262 143.918858 
L 816.62355 143.560273 
L 817.496837 143.645432 
L 818.370125 144.239684 
L 819.243412 144.5809 
L 820.1167 146.278035 
L 820.989987 146.868109 
L 821.863275 145.428819 
L 822.736562 145.276781 
L 823.60985 144.102925 
L 824.483137 145.120838 
L 825.356425 148.192204 
L 826.229712 148.370381 
L 827.103 148.759511 
L 827.976287 149.776691 
L 828.849575 151.743093 
L 829.722862 153.402709 
L 830.59615 155.06745 
L 831.469437 156.471234 
L 832.342725 157.431617 
L 833.216012 157.268714 
L 834.0893 158.983663 
L 834.962587 158.949851 
L 835.835875 158.810446 
L 836.709162 158.664593 
L 837.58245 157.119695 
L 838.455737 156.577593 
L 839.329025 157.234422 
L 840.202312 157.612906 
L 841.0756 158.081403 
L 841.948887 157.83209 
L 842.822175 158.813189 
L 843.695462 159.642074 
L 844.56875 159.993993 
L 845.442037 158.831076 
L 846.315325 159.469846 
L 847.188612 160.469419 
L 848.0619 161.492998 
L 848.935187 160.844799 
L 849.808475 161.549846 
L 850.681762 161.928504 
L 851.55505 161.746873 
L 852.428337 160.831166 
L 853.301625 159.85378 
L 854.174912 160.520947 
L 855.0482 161.886142 
L 855.921487 162.68555 
L 856.794775 164.120489 
L 857.668062 165.253048 
L 858.54135 165.642265 
L 859.414637 166.654777 
L 860.287925 165.819182 
L 861.161212 165.975513 
L 862.0345 167.244841 
L 862.907787 167.920047 
L 863.781075 168.762962 
L 864.654362 168.572194 
L 865.52765 167.948694 
L 866.400937 168.235819 
L 867.274225 168.487312 
L 868.147512 167.531213 
L 869.0208 165.796884 
L 869.894087 166.801878 
L 870.767375 167.26497 
L 871.640662 167.84538 
L 872.51395 168.518806 
L 873.387237 167.552521 
L 874.260525 168.457246 
L 875.133812 168.917343 
L 876.0071 168.151001 
L 876.880387 169.001532 
L 877.753675 169.359338 
L 878.626962 170.117515 
L 879.50025 170.005302 
L 880.373537 168.820903 
L 881.246825 169.255735 
L 882.120112 169.196074 
L 882.9934 169.833821 
L 883.866687 167.13391 
L 884.739975 167.79005 
L 885.613262 167.468577 
L 886.48655 165.560204 
L 887.359837 163.510704 
L 888.233125 162.394279 
L 889.106412 162.375123 
L 889.9797 163.878098 
L 890.852987 163.318798 
L 891.726275 164.179402 
L 892.599562 164.243526 
L 893.47285 164.355602 
L 894.346137 163.56867 
L 895.219425 162.194736 
L 896.092712 161.729219 
L 896.966 163.201959 
L 897.839287 163.580344 
L 898.712575 164.407527 
L 899.585862 163.770764 
L 900.45915 161.609214 
L 901.332437 157.17323 
L 902.205725 157.472667 
L 903.079012 156.989868 
L 903.9523 158.20062 
L 904.825587 158.643446 
L 905.698875 160.873604 
L 906.572162 161.42009 
L 907.44545 163.018587 
L 908.318737 161.842562 
L 909.192025 161.062107 
L 910.065312 159.605939 
L 910.9386 159.310544 
L 910.9386 144.536361 
L 910.9386 144.536361 
L 910.065312 143.9821 
L 909.192025 145.619602 
L 908.318737 147.941198 
L 907.44545 150.077736 
L 906.572162 148.70287 
L 905.698875 147.737292 
L 904.825587 144.963166 
L 903.9523 143.740461 
L 903.079012 141.66954 
L 902.205725 141.602808 
L 901.332437 141.151827 
L 900.45915 147.689074 
L 899.585862 153.57385 
L 898.712575 153.948365 
L 897.839287 153.089292 
L 896.966 152.589944 
L 896.092712 151.125579 
L 895.219425 151.669418 
L 894.346137 153.10646 
L 893.47285 154.081824 
L 892.599562 153.972961 
L 891.726275 153.71821 
L 890.852987 152.83342 
L 889.9797 152.992439 
L 889.106412 151.180659 
L 888.233125 151.454914 
L 887.359837 153.189227 
L 886.48655 155.554998 
L 885.613262 157.752792 
L 884.739975 158.057704 
L 883.866687 157.40166 
L 882.9934 160.05775 
L 882.120112 159.630037 
L 881.246825 159.631876 
L 880.373537 159.285101 
L 879.50025 160.285125 
L 878.626962 160.462426 
L 877.753675 159.657237 
L 876.880387 159.296104 
L 876.0071 158.471296 
L 875.133812 159.521978 
L 874.260525 159.064166 
L 873.387237 157.89296 
L 872.51395 158.652104 
L 871.640662 158.081486 
L 870.767375 157.624471 
L 869.894087 156.977134 
L 869.0208 155.860795 
L 868.147512 157.784953 
L 867.274225 158.905967 
L 866.400937 158.690976 
L 865.52765 158.463984 
L 864.654362 159.042218 
L 863.781075 159.223566 
L 862.907787 158.299043 
L 862.0345 157.533669 
L 861.161212 156.280958 
L 860.287925 156.049268 
L 859.414637 156.618063 
L 858.54135 155.765613 
L 857.668062 155.266687 
L 856.794775 154.099565 
L 855.921487 152.37513 
L 855.0482 151.484672 
L 854.174912 150.006556 
L 853.301625 149.415975 
L 852.428337 150.198722 
L 851.55505 151.126256 
L 850.681762 151.281277 
L 849.808475 150.695667 
L 848.935187 149.565932 
L 848.0619 149.937265 
L 847.188612 149.779315 
L 846.315325 148.883207 
L 845.442037 148.080345 
L 844.56875 149.107743 
L 843.695462 148.597852 
L 842.822175 147.280688 
L 841.948887 146.173969 
L 841.0756 146.168688 
L 840.202312 145.481536 
L 839.329025 144.497684 
L 838.455737 143.710953 
L 837.58245 143.52574 
L 836.709162 146.860674 
L 835.835875 147.237121 
L 834.962587 147.72266 
L 834.0893 147.720228 
L 833.216012 145.842095 
L 832.342725 145.649932 
L 831.469437 144.338761 
L 830.59615 142.437442 
L 829.722862 140.115977 
L 828.849575 137.707128 
L 827.976287 135.005214 
L 827.103 133.228016 
L 826.229712 132.757324 
L 825.356425 132.939699 
L 824.483137 128.967766 
L 823.60985 126.907186 
L 822.736562 128.532087 
L 821.863275 128.164234 
L 820.989987 128.361001 
L 820.1167 128.595951 
L 819.243412 126.317113 
L 818.370125 127.131856 
L 817.496837 125.877075 
L 816.62355 126.933836 
L 815.750262 129.079384 
L 814.876975 130.938277 
L 814.003687 131.81704 
L 813.1304 130.800567 
L 812.257112 129.831891 
L 811.383825 129.76271 
L 810.510537 130.160346 
L 809.63725 130.930964 
L 808.763962 127.824192 
L 807.890675 127.876694 
L 807.017387 128.442259 
L 806.1441 128.003828 
L 805.270812 133.131942 
L 804.397525 135.228284 
L 803.524237 137.049389 
L 802.65095 140.648798 
L 801.777662 139.726102 
L 800.904375 140.734672 
L 800.031087 140.606631 
L 799.1578 143.242223 
L 798.284512 141.59568 
L 797.411225 141.18613 
L 796.537937 140.891456 
L 795.66465 142.213423 
L 794.791362 145.030041 
L 793.918075 144.010057 
L 793.044787 143.812613 
L 792.1715 142.321801 
L 791.298212 141.412568 
L 790.424925 148.150504 
L 789.551637 149.918893 
L 788.67835 153.651786 
L 787.805062 154.599859 
L 786.931775 155.666418 
L 786.058487 157.292561 
L 785.1852 158.835351 
L 784.311912 158.495886 
L 783.438625 157.746205 
L 782.565337 157.112028 
L 781.69205 157.46308 
L 780.818762 158.53255 
L 779.945475 158.603065 
L 779.072187 159.468359 
L 778.1989 160.074295 
L 777.325612 158.910151 
L 776.452325 158.644679 
L 775.579037 159.787929 
L 774.70575 160.545291 
L 773.832462 163.114645 
L 772.959175 163.559004 
L 772.085887 161.682286 
L 771.2126 160.688357 
L 770.339312 160.779584 
L 769.466025 161.672067 
L 768.592737 161.198707 
L 767.71945 160.868722 
L 766.846162 161.045218 
L 765.972875 159.033452 
L 765.099587 157.276718 
L 764.2263 156.198662 
L 763.353012 155.876796 
L 762.479725 156.080397 
L 761.606437 155.104017 
L 760.73315 155.111224 
L 759.859862 153.717321 
L 758.986575 154.057552 
L 758.113287 155.2342 
L 757.24 155.774305 
L 756.366712 155.830939 
L 755.493425 155.4267 
L 754.620137 155.207381 
L 753.74685 156.836221 
L 752.873562 155.813252 
L 752.000275 155.125739 
L 751.126987 155.022637 
L 750.2537 154.757106 
L 749.380412 153.185173 
L 748.507125 153.364197 
L 747.633837 153.124105 
L 746.76055 153.258734 
L 745.887262 151.694015 
L 745.013975 152.684124 
L 744.140687 152.727975 
L 743.2674 154.033178 
L 742.394112 155.316689 
L 741.520825 155.554428 
L 740.647537 155.920713 
L 739.77425 156.615525 
L 738.900962 156.74792 
L 738.027675 156.91659 
L 737.154387 156.891918 
L 736.2811 157.746718 
L 735.407812 157.813008 
L 734.534525 157.57073 
L 733.661237 156.178161 
L 732.78795 154.171009 
L 731.914662 153.772 
L 731.041375 153.606753 
L 730.168087 153.27668 
L 729.2948 154.021984 
L 728.421512 155.224576 
L 727.548225 156.030295 
L 726.674937 155.808518 
L 725.80165 154.6173 
L 724.928362 154.926229 
L 724.055075 154.772602 
L 723.181787 154.097808 
L 722.3085 154.510861 
L 721.435212 155.906199 
L 720.561925 158.613371 
L 719.688637 156.163721 
L 718.81535 156.709819 
L 717.942062 156.000564 
L 717.068775 155.743977 
L 716.195487 155.990964 
L 715.3222 156.038946 
L 714.448912 157.055737 
L 713.575625 157.205346 
L 712.702337 158.193411 
L 711.82905 158.534159 
L 710.955762 156.925298 
L 710.082475 155.515776 
L 709.209187 154.473486 
L 708.3359 154.283859 
L 707.462612 154.539661 
L 706.589325 154.870038 
L 705.716037 155.1173 
L 704.84275 155.399802 
L 703.969462 155.298215 
L 703.096175 155.547926 
L 702.222887 157.393731 
L 701.3496 157.552745 
L 700.476312 157.783602 
L 699.603025 155.967784 
L 698.729737 156.237876 
L 697.85645 157.046248 
L 696.983162 155.666962 
L 696.109875 154.951008 
L 695.236587 151.472787 
L 694.3633 150.466783 
L 693.490012 149.399369 
L 692.616725 150.188451 
L 691.743437 152.062126 
L 690.87015 152.478846 
L 689.996862 152.406511 
L 689.123575 151.738716 
L 688.250287 150.463711 
L 687.377 148.013753 
L 686.503712 146.682972 
L 685.630425 145.360362 
L 684.757137 144.983157 
L 683.88385 146.110286 
L 683.010562 150.129295 
L 682.137275 155.141782 
L 681.263987 157.381642 
L 680.3907 157.678523 
L 679.517412 157.718109 
L 678.644125 156.366345 
L 677.770837 154.462257 
L 676.89755 153.954375 
L 676.024262 155.594939 
L 675.150975 154.814939 
L 674.277687 154.057519 
L 673.4044 153.957491 
L 672.531112 154.269625 
L 671.657825 153.587406 
L 670.784537 155.51465 
L 669.91125 155.803187 
L 669.037962 155.249287 
L 668.164675 154.257784 
L 667.291387 155.153903 
L 666.4181 154.48441 
L 665.544812 153.969699 
L 664.671525 153.564557 
L 663.798237 152.329374 
L 662.92495 150.898643 
L 662.051662 152.10931 
L 661.178375 153.601296 
L 660.305087 153.528198 
L 659.4318 154.402139 
L 658.558512 155.618132 
L 657.685225 152.94267 
L 656.811937 150.536953 
L 655.93865 150.327342 
L 655.065362 151.632537 
L 654.192075 152.463733 
L 653.318787 151.428924 
L 652.4455 154.324542 
L 651.572212 153.368875 
L 650.698925 154.218291 
L 649.825637 151.985733 
L 648.95235 152.239688 
L 648.079062 150.920677 
L 647.205775 151.03421 
L 646.332487 150.196387 
L 645.4592 150.548919 
L 644.585912 148.614013 
L 643.712625 149.519252 
L 642.839337 150.836001 
L 641.96605 150.478577 
L 641.092762 151.439019 
L 640.219475 152.056499 
L 639.346187 152.471877 
L 638.4729 152.149629 
L 637.599612 152.727162 
L 636.726325 156.122259 
L 635.853037 158.587034 
L 634.97975 161.08703 
L 634.106462 160.034887 
L 633.233175 159.498022 
L 632.359887 158.678857 
L 631.4866 159.667609 
L 630.613312 160.263107 
L 629.740025 159.354466 
L 628.866737 157.927112 
L 627.99345 158.663734 
L 627.120162 156.818757 
L 626.246875 157.136851 
L 625.373587 157.133555 
L 624.5003 158.647277 
L 623.627012 157.497558 
L 622.753725 158.552351 
L 621.880437 158.866807 
L 621.00715 160.899341 
L 620.133862 160.507135 
L 619.260575 159.886748 
L 618.387287 159.710483 
L 617.514 159.375869 
L 616.640712 158.825483 
L 615.767425 157.426721 
L 614.894137 158.252385 
L 614.02085 158.229113 
L 613.147562 158.904644 
L 612.274275 158.95607 
L 611.400987 158.485375 
L 610.5277 158.174511 
L 609.654412 157.32962 
L 608.781125 157.821579 
L 607.907837 157.646019 
L 607.03455 157.524553 
L 606.161262 156.159534 
L 605.287975 155.851983 
L 604.414687 155.497662 
L 603.5414 156.027633 
L 602.668112 157.215469 
L 601.794825 156.601634 
L 600.921537 153.88628 
L 600.04825 151.797996 
L 599.174962 152.562887 
L 598.301675 152.170754 
L 597.428387 151.039422 
L 596.5551 150.46999 
L 595.681812 149.492311 
L 594.808525 148.381306 
L 593.935237 147.559314 
L 593.06195 146.799626 
L 592.188662 150.343744 
L 591.315375 149.906692 
L 590.442087 149.916857 
L 589.5688 148.525569 
L 588.695512 148.369578 
L 587.822225 148.402227 
L 586.948937 149.76323 
L 586.07565 148.303359 
L 585.202362 147.838693 
L 584.329075 147.663274 
L 583.455787 146.882849 
L 582.5825 147.540977 
L 581.709212 147.299771 
L 580.835925 147.988938 
L 579.962637 149.331515 
L 579.08935 149.446863 
L 578.216062 148.462855 
L 577.342775 148.649674 
L 576.469487 149.622028 
L 575.5962 149.650595 
L 574.722912 148.866597 
L 573.849625 149.077212 
L 572.976337 148.13765 
L 572.10305 145.582944 
L 571.229762 145.758952 
L 570.356475 143.779702 
L 569.483187 141.866617 
L 568.6099 140.876622 
L 567.736612 138.317791 
L 566.863325 136.877485 
L 565.990037 132.57506 
L 565.11675 131.62659 
L 564.243462 132.733091 
L 563.370175 138.066958 
L 562.496887 141.66905 
L 561.6236 145.051051 
L 560.750312 147.186033 
L 559.877025 146.528083 
L 559.003737 144.269286 
L 558.13045 146.133291 
L 557.257162 148.429639 
L 556.383875 149.800145 
L 555.510587 149.874623 
L 554.6373 149.95143 
L 553.764012 152.091402 
L 552.890725 152.969168 
L 552.017437 153.697406 
L 551.14415 154.073129 
L 550.270862 154.881436 
L 549.397575 154.778627 
L 548.524287 155.908379 
L 547.651 155.811397 
L 546.777712 153.701199 
L 545.904425 152.088825 
L 545.031137 151.858764 
L 544.15785 152.121115 
L 543.284562 150.932581 
L 542.411275 151.36595 
L 541.537987 150.831464 
L 540.6647 150.462124 
L 539.791412 148.96956 
L 538.918125 146.302575 
L 538.044837 144.561663 
L 537.17155 145.53674 
L 536.298262 146.509993 
L 535.424975 148.023252 
L 534.551687 147.587286 
L 533.6784 145.889759 
L 532.805112 146.811821 
L 531.931825 146.353762 
L 531.058537 148.651611 
L 530.18525 149.276958 
L 529.311962 150.084017 
L 528.438675 149.433274 
L 527.565387 148.436687 
L 526.6921 146.899013 
L 525.818812 144.319546 
L 524.945525 141.965065 
L 524.072237 141.971637 
L 523.19895 142.796231 
L 522.325662 144.240086 
L 521.452375 147.025585 
L 520.579087 148.221691 
L 519.7058 147.610073 
L 518.832512 146.508723 
L 517.959225 148.873973 
L 517.085937 150.63363 
L 516.21265 152.186393 
L 515.339362 153.058079 
L 514.466075 153.672524 
L 513.592787 155.531704 
L 512.7195 155.022392 
L 511.846212 154.07507 
L 510.972925 153.893953 
L 510.099637 152.401324 
L 509.22635 152.056453 
L 508.353062 150.357322 
L 507.479775 151.418749 
L 506.606487 154.479619 
L 505.7332 154.376162 
L 504.859912 154.90427 
L 503.986625 155.259637 
L 503.113337 155.423761 
L 502.24005 153.563054 
L 501.366762 153.411085 
L 500.493475 153.080867 
L 499.620187 152.040987 
L 498.7469 152.816245 
L 497.873612 153.683282 
L 497.000325 154.179162 
L 496.127037 152.742335 
L 495.25375 150.465374 
L 494.380462 149.402879 
L 493.507175 147.524326 
L 492.633887 146.610781 
L 491.7606 145.949263 
L 490.887312 145.231281 
L 490.014025 143.643092 
L 489.140737 142.265458 
L 488.26745 143.479539 
L 487.394162 146.98025 
L 486.520875 149.765894 
L 485.647587 151.516851 
L 484.7743 150.62859 
L 483.901012 149.032765 
L 483.027725 146.73195 
L 482.154437 145.004037 
L 481.28115 144.785707 
L 480.407862 143.381031 
L 479.534575 142.64174 
L 478.661287 140.700211 
L 477.788 145.039451 
L 476.914712 145.839631 
L 476.041425 147.244396 
L 475.168137 147.748373 
L 474.29485 147.109554 
L 473.421562 146.49689 
L 472.548275 147.387732 
L 471.674987 147.42214 
L 470.8017 149.01441 
L 469.928412 149.454731 
L 469.055125 150.018734 
L 468.181837 149.328853 
L 467.30855 150.554197 
L 466.435262 152.522469 
L 465.561975 151.955422 
L 464.688687 150.286118 
L 463.8154 149.360833 
L 462.942112 147.603706 
L 462.068825 147.613659 
L 461.195537 149.403786 
L 460.32225 148.099742 
L 459.448962 147.639453 
L 458.575675 148.278159 
L 457.702387 147.80313 
L 456.8291 146.676257 
L 455.955812 147.042266 
L 455.082525 146.207737 
L 454.209237 147.205164 
L 453.33595 145.691447 
L 452.462662 145.714486 
L 451.589375 146.464352 
L 450.716087 147.278549 
L 449.8428 146.471361 
L 448.969512 144.757746 
L 448.096225 142.228162 
L 447.222937 142.768439 
L 446.34965 142.56656 
L 445.476362 141.462057 
L 444.603075 142.185945 
L 443.729787 141.074668 
L 442.8565 139.379469 
L 441.983212 138.426971 
L 441.109925 135.89503 
L 440.236637 136.103364 
L 439.36335 134.062305 
L 438.490062 132.512443 
L 437.616775 130.413935 
L 436.743487 131.602353 
L 435.8702 138.367708 
L 434.996912 142.703582 
L 434.123625 141.088127 
L 433.250337 143.108353 
L 432.37705 144.545483 
L 431.503762 144.73319 
L 430.630475 143.176313 
L 429.757187 143.30432 
L 428.8839 144.762454 
L 428.010612 147.787083 
L 427.137325 148.291963 
L 426.264037 149.167578 
L 425.39075 150.564347 
L 424.517462 150.549101 
L 423.644175 150.813879 
L 422.770887 150.645291 
L 421.8976 149.363577 
L 421.024312 146.639528 
L 420.151025 144.431379 
L 419.277737 143.752782 
L 418.40445 142.170491 
L 417.531162 139.552076 
L 416.657875 139.361502 
L 415.784587 139.548355 
L 414.9113 140.843799 
L 414.038012 142.818286 
L 413.164725 142.552651 
L 412.291437 142.154229 
L 411.41815 141.551154 
L 410.544862 140.979437 
L 409.671575 141.360461 
L 408.798287 142.773228 
L 407.925 141.809588 
L 407.051712 141.225363 
L 406.178425 140.081123 
L 405.305137 139.883243 
L 404.43185 139.751604 
L 403.558562 141.99278 
L 402.685275 142.056058 
L 401.811987 143.500612 
L 400.9387 143.455248 
L 400.065412 144.661326 
L 399.192125 143.987028 
L 398.318837 143.496891 
L 397.44555 143.232006 
L 396.572262 144.161452 
L 395.698975 142.804053 
L 394.825687 139.75864 
L 393.9524 138.179749 
L 393.079112 134.848893 
L 392.205825 140.147835 
L 391.332537 139.960288 
L 390.45925 140.224267 
L 389.585962 140.485575 
L 388.712675 139.90473 
L 387.839387 139.958652 
L 386.9661 138.327668 
L 386.092812 139.038739 
L 385.219525 138.912222 
L 384.346237 139.756479 
L 383.47295 138.00811 
L 382.599662 139.659523 
L 381.726375 140.146364 
L 380.853087 140.556914 
L 379.9798 140.121524 
L 379.106512 141.253427 
L 378.233225 142.651847 
L 377.359937 142.297141 
L 376.48665 141.352829 
L 375.613362 141.921626 
L 374.740075 141.993875 
L 373.866787 139.042968 
L 372.9935 137.931859 
L 372.120212 138.369348 
L 371.246925 138.080288 
L 370.373637 136.930149 
L 369.50035 136.304848 
L 368.627062 137.353235 
L 367.753775 136.214347 
L 366.880487 135.861124 
L 366.0072 135.200443 
L 365.133912 134.465313 
L 364.260625 134.493484 
L 363.387338 134.392172 
L 362.51405 134.395542 
L 361.640762 134.570902 
L 360.767475 134.536393 
L 359.894187 134.601647 
L 359.0209 134.882401 
L 358.147612 136.435162 
L 357.274325 135.945146 
L 356.401037 136.251863 
L 355.52775 135.358554 
L 354.654462 135.324889 
L 353.781175 133.170405 
L 352.907887 131.278435 
L 352.0346 129.199393 
L 351.161312 129.145475 
L 350.288025 127.868845 
L 349.414738 126.677547 
L 348.54145 123.822942 
L 347.668162 121.862707 
L 346.794875 118.687009 
L 345.921587 117.556195 
L 345.0483 114.095036 
L 344.175012 116.416522 
L 343.301725 119.921828 
L 342.428437 125.183493 
L 341.55515 124.292412 
L 340.681862 124.106967 
L 339.808575 123.42396 
L 338.935287 123.630895 
L 338.062 123.473444 
L 337.188712 120.561102 
L 336.315425 120.019762 
L 335.442138 123.990686 
L 334.56885 128.337908 
L 333.695562 131.980841 
L 332.822275 132.211168 
L 331.948987 135.11025 
L 331.0757 137.035239 
L 330.202412 138.221538 
L 329.329125 136.418512 
L 328.455837 133.072777 
L 327.58255 131.573955 
L 326.709262 130.538757 
L 325.835975 128.700144 
L 324.962687 129.774144 
L 324.0894 130.499786 
L 323.216112 131.929241 
L 322.342825 134.042815 
L 321.469538 134.706018 
L 320.59625 132.85641 
L 319.722962 131.1473 
L 318.849675 129.854816 
L 317.976387 129.051998 
L 317.1031 127.828976 
L 316.229812 128.27032 
L 315.356525 127.06332 
L 314.483237 126.231631 
L 313.60995 124.787596 
L 312.736662 125.22105 
L 311.863375 125.423028 
L 310.990087 126.005911 
L 310.1168 125.424959 
L 309.243512 125.361336 
L 308.370225 123.428692 
L 307.496937 120.972841 
L 306.62365 119.418849 
L 305.750362 121.66284 
L 304.877075 121.402236 
L 304.003787 122.322979 
L 303.1305 122.882623 
L 302.257212 125.603588 
L 301.383925 125.354083 
L 300.510637 123.380246 
L 299.63735 121.643962 
L 298.764062 120.351508 
L 297.890775 118.080951 
L 297.017487 115.856638 
L 296.1442 113.007979 
L 295.270912 116.252546 
L 294.397625 119.789041 
L 293.524337 126.008152 
L 292.65105 127.91007 
L 291.777762 132.384654 
L 290.904475 132.686701 
L 290.031187 133.781451 
L 289.1579 131.409849 
L 288.284612 129.127027 
L 287.411325 129.093564 
L 286.538037 130.648909 
L 285.66475 129.551652 
L 284.791462 130.15761 
L 283.918175 130.462685 
L 283.044887 131.852101 
L 282.1716 131.990091 
L 281.298312 133.800947 
L 280.425025 132.782945 
L 279.551737 129.507365 
L 278.67845 128.155997 
L 277.805162 130.754434 
L 276.931875 128.107139 
L 276.058587 128.828126 
L 275.1853 130.883724 
L 274.312012 129.961877 
L 273.438725 129.200752 
L 272.565437 126.774581 
L 271.69215 125.659001 
L 270.818862 126.545947 
L 269.945575 124.72616 
L 269.072287 125.352955 
L 268.199 123.85779 
L 267.325712 123.756788 
L 266.452425 122.672544 
L 265.579137 121.596878 
L 264.70585 120.239571 
L 263.832562 120.042105 
L 262.959275 117.629378 
L 262.085987 118.129899 
L 261.2127 118.603396 
L 260.339412 121.214555 
L 259.466125 121.190851 
L 258.592837 123.496038 
L 257.71955 123.271473 
L 256.846262 122.33338 
L 255.972975 121.040033 
L 255.099687 121.45174 
L 254.2264 121.265894 
L 253.353112 123.516332 
L 252.479825 121.820216 
L 251.606538 122.627536 
L 250.73325 121.373026 
L 249.859962 121.947118 
L 248.986675 121.194966 
L 248.113387 120.863924 
L 247.2401 121.580103 
L 246.366812 123.546917 
L 245.493525 123.595099 
L 244.620238 123.633486 
L 243.74695 121.811879 
L 242.873662 118.802512 
L 242.000375 116.504736 
L 241.127087 116.351204 
L 240.2538 114.439836 
L 239.380512 113.955521 
L 238.507225 112.18444 
L 237.633938 110.601582 
L 236.76065 108.227304 
L 235.887362 106.186155 
L 235.014075 103.625597 
L 234.140787 107.355123 
L 233.2675 109.72154 
L 232.394212 111.019418 
L 231.520925 109.742124 
L 230.647638 109.673633 
L 229.77435 108.548244 
L 228.901062 108.23479 
L 228.027775 106.888514 
L 227.154487 105.754044 
L 226.2812 103.287758 
L 225.407912 101.891745 
L 224.534625 99.509801 
L 223.661338 99.336828 
L 222.78805 98.018999 
L 221.914762 97.549332 
L 221.041475 94.826695 
L 220.168187 94.045737 
L 219.2949 90.910589 
L 218.421612 90.46415 
L 217.548325 89.725653 
L 216.675038 92.301982 
L 215.80175 92.018758 
L 214.928462 93.352038 
L 214.055175 92.537474 
L 213.181887 92.055615 
L 212.3086 89.447692 
L 211.435312 92.557032 
L 210.562025 90.754613 
L 209.688738 91.232164 
L 208.81545 90.15167 
L 207.942162 90.273742 
L 207.068875 89.564217 
L 206.195587 89.305591 
L 205.3223 88.425028 
L 204.449012 88.900103 
L 203.575725 87.534158 
L 202.702438 88.702886 
L 201.82915 88.464519 
L 200.955862 89.200311 
L 200.082575 85.674924 
L 199.209287 83.916679 
L 198.336 80.775035 
L 197.462713 79.409905 
L 196.589425 77.72119 
L 195.716138 76.307308 
L 194.84285 73.038123 
L 193.969562 72.533235 
L 193.096275 70.289934 
L 192.222987 69.987106 
L 191.3497 68.575745 
L 190.476413 70.067901 
L 189.603125 69.409937 
L 188.729838 69.782907 
L 187.85655 67.260881 
L 186.983262 66.862936 
L 186.109975 65.30789 
L 185.236687 64.92042 
L 184.3634 58.572274 
L 183.490112 56.884401 
L 182.616825 55.125431 
L 181.743538 55.932309 
L 180.87025 54.897533 
L 179.996962 55.288254 
L 179.123675 54.947923 
L 178.250387 59.776407 
L 177.3771 59.925467 
L 176.503812 63.129598 
L 175.630525 62.78047 
L 174.757238 64.884171 
L 173.88395 63.62879 
L 173.010662 66.476477 
L 172.137375 65.305225 
L 171.264087 67.657827 
L 170.3908 66.443243 
L 169.517512 67.803079 
L 168.644225 66.50124 
L 167.770938 69.930972 
L 166.89765 74.831548 
L 166.024362 85.844381 
L 165.151075 99.784434 
L 164.277787 110.339142 
L 163.4045 117.667769 
L 162.531212 119.392424 
L 161.657925 119.335592 
L 160.784638 120.525118 
L 159.91135 120.251817 
L 159.038062 119.560645 
L 158.164775 119.379418 
L 157.291487 118.663862 
L 156.4182 119.223733 
L 155.544912 119.34181 
L 154.671625 119.917977 
L 153.798338 119.454048 
L 152.92505 118.326307 
L 152.051762 117.917061 
L 151.178475 117.978003 
L 150.305187 117.256922 
L 149.4319 116.241003 
L 148.558612 115.216231 
L 147.685325 115.346761 
L 146.812038 115.558202 
L 145.93875 114.991121 
L 145.065462 115.377242 
L 144.192175 115.487262 
L 143.318887 115.13674 
L 142.4456 113.831463 
L 141.572313 114.574131 
L 140.699025 113.136966 
L 139.825738 113.162702 
L 138.95245 112.072844 
L 138.079162 112.188347 
L 137.205875 111.262674 
L 136.332587 110.801232 
L 135.4593 109.978653 
L 134.586013 109.281781 
L 133.712725 109.303119 
L 132.839438 109.310125 
L 131.96615 107.873631 
L 131.092862 106.401838 
L 130.219575 104.472517 
L 129.346287 104.421719 
L 128.473 106.447955 
L 127.599713 107.002406 
L 126.726425 108.734961 
L 125.853138 106.99067 
L 124.97985 105.025329 
L 124.106562 105.799635 
L 123.233275 104.604208 
L 122.359987 104.117708 
L 121.4867 103.960349 
L 120.613412 103.10871 
L 119.740125 101.592678 
L 118.866838 99.536195 
L 117.99355 98.990034 
L 117.120262 97.314731 
L 116.246975 96.431478 
L 115.373687 95.609204 
L 114.5004 95.541397 
L 113.627113 94.873854 
L 112.753825 94.658816 
L 111.880538 95.286666 
L 111.00725 95.39736 
L 110.133962 94.650781 
L 109.260675 93.634081 
L 108.387388 91.811889 
L 107.5141 92.3472 
L 106.640813 91.047894 
L 105.767525 90.548063 
L 104.894238 89.138053 
L 104.02095 88.627398 
L 103.147662 88.019475 
L 102.274375 87.414473 
L 101.401088 85.877173 
L 100.5278 83.552352 
L 99.654513 82.359322 
L 98.781225 79.387813 
L 97.907938 78.14073 
L 97.03465 80.429275 
L 96.161362 82.577003 
L 95.288075 81.909983 
L 94.414788 82.269554 
L 93.5415 82.722968 
L 92.668213 80.768598 
L 91.794925 80.108013 
L 90.921638 79.759641 
L 90.04835 78.69094 
L 89.175062 76.734784 
L 88.301775 74.435944 
L 87.428488 72.569336 
L 86.5552 72.289557 
L 85.681913 76.264283 
L 84.808625 78.210724 
L 83.935338 75.950379 
L 83.06205 74.00428 
L 82.188762 72.575493 
L 81.315475 72.937755 
L 80.442188 73.947273 
L 79.5689 73.777899 
L 78.695613 71.456377 
L 77.822325 68.740412 
L 76.949038 67.540102 
L 76.07575 66.981303 
L 75.202462 66.581747 
L 74.329175 66.374336 
L 73.455888 64.270421 
L 72.5826 62.401148 
L 71.709313 60.098357 
L 70.836025 57.599526 
L 69.962738 55.397694 
L 69.08945 54.657978 
L 68.216163 52.191612 
L 67.342875 51.058662 
L 66.469588 48.536694 
L 65.5963 44.645682 
L 64.723013 40.376274 
L 63.849725 34.474177 
L 62.976438 30.177109 
L 62.10315 22.954028 
L 61.229863 18.514545 
L 60.356575 21.470791 
L 59.483288 40.597921 
z
" style="fill-opacity:0.2;stroke:#000000;stroke-opacity:0.2;"/>
   </g>
   <g id="patch_3">
    <path clip-path="url(#pa32cc9d697)" d="M 215.80175 180.52 
L 215.80175 10.8 
L 296.1442 10.8 
L 296.1442 180.52 
z
" style="fill:#d3d3d3;opacity:0.5;stroke:#d3d3d3;stroke-linejoin:miter;"/>
   </g>
   <g id="matplotlib.axis_1">
    <g id="xtick_1">
     <g id="line2d_1">
      <defs>
       <path d="M 0 0 
L 0 3.5 
" id="m305a2fa22a" style="stroke:#000000;stroke-width:0.8;"/>
      </defs>
      <g>
       <use style="stroke:#000000;stroke-width:0.8;" x="58.61" xlink:href="#m305a2fa22a" y="180.52"/>
      </g>
     </g>
     <g id="text_1">
      <!-- 0 -->
      <g transform="translate(54.15625 198.157813)scale(0.14 -0.14)">
       <defs>
        <path d="M 31.78125 66.40625 
Q 24.171875 66.40625 20.328125 58.90625 
Q 16.5 51.421875 16.5 36.375 
Q 16.5 21.390625 20.328125 13.890625 
Q 24.171875 6.390625 31.78125 6.390625 
Q 39.453125 6.390625 43.28125 13.890625 
Q 47.125 21.390625 47.125 36.375 
Q 47.125 51.421875 43.28125 58.90625 
Q 39.453125 66.40625 31.78125 66.40625 
z
M 31.78125 74.21875 
Q 44.046875 74.21875 50.515625 64.515625 
Q 56.984375 54.828125 56.984375 36.375 
Q 56.984375 17.96875 50.515625 8.265625 
Q 44.046875 -1.421875 31.78125 -1.421875 
Q 19.53125 -1.421875 13.0625 8.265625 
Q 6.59375 17.96875 6.59375 36.375 
Q 6.59375 54.828125 13.0625 64.515625 
Q 19.53125 74.21875 31.78125 74.21875 
z
" id="DejaVuSans-48"/>
       </defs>
       <use xlink:href="#DejaVuSans-48"/>
      </g>
     </g>
    </g>
    <g id="xtick_2">
     <g id="line2d_2">
      <g>
       <use style="stroke:#000000;stroke-width:0.8;" x="233.2675" xlink:href="#m305a2fa22a" y="180.52"/>
      </g>
     </g>
     <g id="text_2">
      <!-- 50 -->
      <g transform="translate(224.36 198.157813)scale(0.14 -0.14)">
       <defs>
        <path d="M 10.796875 72.90625 
L 49.515625 72.90625 
L 49.515625 64.59375 
L 19.828125 64.59375 
L 19.828125 46.734375 
Q 21.96875 47.46875 24.109375 47.828125 
Q 26.265625 48.1875 28.421875 48.1875 
Q 40.625 48.1875 47.75 41.5 
Q 54.890625 34.8125 54.890625 23.390625 
Q 54.890625 11.625 47.5625 5.09375 
Q 40.234375 -1.421875 26.90625 -1.421875 
Q 22.3125 -1.421875 17.546875 -0.640625 
Q 12.796875 0.140625 7.71875 1.703125 
L 7.71875 11.625 
Q 12.109375 9.234375 16.796875 8.0625 
Q 21.484375 6.890625 26.703125 6.890625 
Q 35.15625 6.890625 40.078125 11.328125 
Q 45.015625 15.765625 45.015625 23.390625 
Q 45.015625 31 40.078125 35.4375 
Q 35.15625 39.890625 26.703125 39.890625 
Q 22.75 39.890625 18.8125 39.015625 
Q 14.890625 38.140625 10.796875 36.28125 
z
" id="DejaVuSans-53"/>
       </defs>
       <use xlink:href="#DejaVuSans-53"/>
       <use x="63.623047" xlink:href="#DejaVuSans-48"/>
      </g>
     </g>
    </g>
    <g id="xtick_3">
     <g id="line2d_3">
      <g>
       <use style="stroke:#000000;stroke-width:0.8;" x="407.925" xlink:href="#m305a2fa22a" y="180.52"/>
      </g>
     </g>
     <g id="text_3">
      <!-- 100 -->
      <g transform="translate(394.56375 198.157813)scale(0.14 -0.14)">
       <defs>
        <path d="M 12.40625 8.296875 
L 28.515625 8.296875 
L 28.515625 63.921875 
L 10.984375 60.40625 
L 10.984375 69.390625 
L 28.421875 72.90625 
L 38.28125 72.90625 
L 38.28125 8.296875 
L 54.390625 8.296875 
L 54.390625 0 
L 12.40625 0 
z
" id="DejaVuSans-49"/>
       </defs>
       <use xlink:href="#DejaVuSans-49"/>
       <use x="63.623047" xlink:href="#DejaVuSans-48"/>
       <use x="127.246094" xlink:href="#DejaVuSans-48"/>
      </g>
     </g>
    </g>
    <g id="text_4">
     <!-- Time (seconds) -->
     <g transform="translate(172.20875 217.226875)scale(0.16 -0.16)">
      <defs>
       <path d="M -0.296875 72.90625 
L 61.375 72.90625 
L 61.375 64.59375 
L 35.5 64.59375 
L 35.5 0 
L 25.59375 0 
L 25.59375 64.59375 
L -0.296875 64.59375 
z
" id="DejaVuSans-84"/>
       <path d="M 9.421875 54.6875 
L 18.40625 54.6875 
L 18.40625 0 
L 9.421875 0 
z
M 9.421875 75.984375 
L 18.40625 75.984375 
L 18.40625 64.59375 
L 9.421875 64.59375 
z
" id="DejaVuSans-105"/>
       <path d="M 52 44.1875 
Q 55.375 50.25 60.0625 53.125 
Q 64.75 56 71.09375 56 
Q 79.640625 56 84.28125 50.015625 
Q 88.921875 44.046875 88.921875 33.015625 
L 88.921875 0 
L 79.890625 0 
L 79.890625 32.71875 
Q 79.890625 40.578125 77.09375 44.375 
Q 74.3125 48.1875 68.609375 48.1875 
Q 61.625 48.1875 57.5625 43.546875 
Q 53.515625 38.921875 53.515625 30.90625 
L 53.515625 0 
L 44.484375 0 
L 44.484375 32.71875 
Q 44.484375 40.625 41.703125 44.40625 
Q 38.921875 48.1875 33.109375 48.1875 
Q 26.21875 48.1875 22.15625 43.53125 
Q 18.109375 38.875 18.109375 30.90625 
L 18.109375 0 
L 9.078125 0 
L 9.078125 54.6875 
L 18.109375 54.6875 
L 18.109375 46.1875 
Q 21.1875 51.21875 25.484375 53.609375 
Q 29.78125 56 35.6875 56 
Q 41.65625 56 45.828125 52.96875 
Q 50 49.953125 52 44.1875 
z
" id="DejaVuSans-109"/>
       <path d="M 56.203125 29.59375 
L 56.203125 25.203125 
L 14.890625 25.203125 
Q 15.484375 15.921875 20.484375 11.0625 
Q 25.484375 6.203125 34.421875 6.203125 
Q 39.59375 6.203125 44.453125 7.46875 
Q 49.3125 8.734375 54.109375 11.28125 
L 54.109375 2.78125 
Q 49.265625 0.734375 44.1875 -0.34375 
Q 39.109375 -1.421875 33.890625 -1.421875 
Q 20.796875 -1.421875 13.15625 6.1875 
Q 5.515625 13.8125 5.515625 26.8125 
Q 5.515625 40.234375 12.765625 48.109375 
Q 20.015625 56 32.328125 56 
Q 43.359375 56 49.78125 48.890625 
Q 56.203125 41.796875 56.203125 29.59375 
z
M 47.21875 32.234375 
Q 47.125 39.59375 43.09375 43.984375 
Q 39.0625 48.390625 32.421875 48.390625 
Q 24.90625 48.390625 20.390625 44.140625 
Q 15.875 39.890625 15.1875 32.171875 
z
" id="DejaVuSans-101"/>
       <path id="DejaVuSans-32"/>
       <path d="M 31 75.875 
Q 24.46875 64.65625 21.28125 53.65625 
Q 18.109375 42.671875 18.109375 31.390625 
Q 18.109375 20.125 21.3125 9.0625 
Q 24.515625 -2 31 -13.1875 
L 23.1875 -13.1875 
Q 15.875 -1.703125 12.234375 9.375 
Q 8.59375 20.453125 8.59375 31.390625 
Q 8.59375 42.28125 12.203125 53.3125 
Q 15.828125 64.359375 23.1875 75.875 
z
" id="DejaVuSans-40"/>
       <path d="M 44.28125 53.078125 
L 44.28125 44.578125 
Q 40.484375 46.53125 36.375 47.5 
Q 32.28125 48.484375 27.875 48.484375 
Q 21.1875 48.484375 17.84375 46.4375 
Q 14.5 44.390625 14.5 40.28125 
Q 14.5 37.15625 16.890625 35.375 
Q 19.28125 33.59375 26.515625 31.984375 
L 29.59375 31.296875 
Q 39.15625 29.25 43.1875 25.515625 
Q 47.21875 21.78125 47.21875 15.09375 
Q 47.21875 7.46875 41.1875 3.015625 
Q 35.15625 -1.421875 24.609375 -1.421875 
Q 20.21875 -1.421875 15.453125 -0.5625 
Q 10.6875 0.296875 5.421875 2 
L 5.421875 11.28125 
Q 10.40625 8.6875 15.234375 7.390625 
Q 20.0625 6.109375 24.8125 6.109375 
Q 31.15625 6.109375 34.5625 8.28125 
Q 37.984375 10.453125 37.984375 14.40625 
Q 37.984375 18.0625 35.515625 20.015625 
Q 33.0625 21.96875 24.703125 23.78125 
L 21.578125 24.515625 
Q 13.234375 26.265625 9.515625 29.90625 
Q 5.8125 33.546875 5.8125 39.890625 
Q 5.8125 47.609375 11.28125 51.796875 
Q 16.75 56 26.8125 56 
Q 31.78125 56 36.171875 55.265625 
Q 40.578125 54.546875 44.28125 53.078125 
z
" id="DejaVuSans-115"/>
       <path d="M 48.78125 52.59375 
L 48.78125 44.1875 
Q 44.96875 46.296875 41.140625 47.34375 
Q 37.3125 48.390625 33.40625 48.390625 
Q 24.65625 48.390625 19.8125 42.84375 
Q 14.984375 37.3125 14.984375 27.296875 
Q 14.984375 17.28125 19.8125 11.734375 
Q 24.65625 6.203125 33.40625 6.203125 
Q 37.3125 6.203125 41.140625 7.25 
Q 44.96875 8.296875 48.78125 10.40625 
L 48.78125 2.09375 
Q 45.015625 0.34375 40.984375 -0.53125 
Q 36.96875 -1.421875 32.421875 -1.421875 
Q 20.0625 -1.421875 12.78125 6.34375 
Q 5.515625 14.109375 5.515625 27.296875 
Q 5.515625 40.671875 12.859375 48.328125 
Q 20.21875 56 33.015625 56 
Q 37.15625 56 41.109375 55.140625 
Q 45.0625 54.296875 48.78125 52.59375 
z
" id="DejaVuSans-99"/>
       <path d="M 30.609375 48.390625 
Q 23.390625 48.390625 19.1875 42.75 
Q 14.984375 37.109375 14.984375 27.296875 
Q 14.984375 17.484375 19.15625 11.84375 
Q 23.34375 6.203125 30.609375 6.203125 
Q 37.796875 6.203125 41.984375 11.859375 
Q 46.1875 17.53125 46.1875 27.296875 
Q 46.1875 37.015625 41.984375 42.703125 
Q 37.796875 48.390625 30.609375 48.390625 
z
M 30.609375 56 
Q 42.328125 56 49.015625 48.375 
Q 55.71875 40.765625 55.71875 27.296875 
Q 55.71875 13.875 49.015625 6.21875 
Q 42.328125 -1.421875 30.609375 -1.421875 
Q 18.84375 -1.421875 12.171875 6.21875 
Q 5.515625 13.875 5.515625 27.296875 
Q 5.515625 40.765625 12.171875 48.375 
Q 18.84375 56 30.609375 56 
z
" id="DejaVuSans-111"/>
       <path d="M 54.890625 33.015625 
L 54.890625 0 
L 45.90625 0 
L 45.90625 32.71875 
Q 45.90625 40.484375 42.875 44.328125 
Q 39.84375 48.1875 33.796875 48.1875 
Q 26.515625 48.1875 22.3125 43.546875 
Q 18.109375 38.921875 18.109375 30.90625 
L 18.109375 0 
L 9.078125 0 
L 9.078125 54.6875 
L 18.109375 54.6875 
L 18.109375 46.1875 
Q 21.34375 51.125 25.703125 53.5625 
Q 30.078125 56 35.796875 56 
Q 45.21875 56 50.046875 50.171875 
Q 54.890625 44.34375 54.890625 33.015625 
z
" id="DejaVuSans-110"/>
       <path d="M 45.40625 46.390625 
L 45.40625 75.984375 
L 54.390625 75.984375 
L 54.390625 0 
L 45.40625 0 
L 45.40625 8.203125 
Q 42.578125 3.328125 38.25 0.953125 
Q 33.9375 -1.421875 27.875 -1.421875 
Q 17.96875 -1.421875 11.734375 6.484375 
Q 5.515625 14.40625 5.515625 27.296875 
Q 5.515625 40.1875 11.734375 48.09375 
Q 17.96875 56 27.875 56 
Q 33.9375 56 38.25 53.625 
Q 42.578125 51.265625 45.40625 46.390625 
z
M 14.796875 27.296875 
Q 14.796875 17.390625 18.875 11.75 
Q 22.953125 6.109375 30.078125 6.109375 
Q 37.203125 6.109375 41.296875 11.75 
Q 45.40625 17.390625 45.40625 27.296875 
Q 45.40625 37.203125 41.296875 42.84375 
Q 37.203125 48.484375 30.078125 48.484375 
Q 22.953125 48.484375 18.875 42.84375 
Q 14.796875 37.203125 14.796875 27.296875 
z
" id="DejaVuSans-100"/>
       <path d="M 8.015625 75.875 
L 15.828125 75.875 
Q 23.140625 64.359375 26.78125 53.3125 
Q 30.421875 42.28125 30.421875 31.390625 
Q 30.421875 20.453125 26.78125 9.375 
Q 23.140625 -1.703125 15.828125 -13.1875 
L 8.015625 -13.1875 
Q 14.5 -2 17.703125 9.0625 
Q 20.90625 20.125 20.90625 31.390625 
Q 20.90625 42.671875 17.703125 53.65625 
Q 14.5 64.65625 8.015625 75.875 
z
" id="DejaVuSans-41"/>
      </defs>
      <use xlink:href="#DejaVuSans-84"/>
      <use x="57.958984" xlink:href="#DejaVuSans-105"/>
      <use x="85.742188" xlink:href="#DejaVuSans-109"/>
      <use x="183.154297" xlink:href="#DejaVuSans-101"/>
      <use x="244.677734" xlink:href="#DejaVuSans-32"/>
      <use x="276.464844" xlink:href="#DejaVuSans-40"/>
      <use x="315.478516" xlink:href="#DejaVuSans-115"/>
      <use x="367.578125" xlink:href="#DejaVuSans-101"/>
      <use x="429.101562" xlink:href="#DejaVuSans-99"/>
      <use x="484.082031" xlink:href="#DejaVuSans-111"/>
      <use x="545.263672" xlink:href="#DejaVuSans-110"/>
      <use x="608.642578" xlink:href="#DejaVuSans-100"/>
      <use x="672.119141" xlink:href="#DejaVuSans-115"/>
      <use x="724.21875" xlink:href="#DejaVuSans-41"/>
     </g>
    </g>
   </g>
   <g id="matplotlib.axis_2">
    <g id="ytick_1">
     <g id="line2d_4">
      <defs>
       <path d="M 0 0 
L -3.5 0 
" id="m214e2e4047" style="stroke:#000000;stroke-width:0.8;"/>
      </defs>
      <g>
       <use style="stroke:#000000;stroke-width:0.8;" x="58.61" xlink:href="#m214e2e4047" y="142.50033"/>
      </g>
     </g>
     <g id="text_5">
      <!-- 0.0 -->
      <g transform="translate(29.345625 147.819236)scale(0.14 -0.14)">
       <defs>
        <path d="M 10.6875 12.40625 
L 21 12.40625 
L 21 0 
L 10.6875 0 
z
" id="DejaVuSans-46"/>
       </defs>
       <use xlink:href="#DejaVuSans-48"/>
       <use x="63.623047" xlink:href="#DejaVuSans-46"/>
       <use x="95.410156" xlink:href="#DejaVuSans-48"/>
      </g>
     </g>
    </g>
    <g id="ytick_2">
     <g id="line2d_5">
      <g>
       <use style="stroke:#000000;stroke-width:0.8;" x="58.61" xlink:href="#m214e2e4047" y="114.480625"/>
      </g>
     </g>
     <g id="text_6">
      <!-- 0.5 -->
      <g transform="translate(29.345625 119.799531)scale(0.14 -0.14)">
       <use xlink:href="#DejaVuSans-48"/>
       <use x="63.623047" xlink:href="#DejaVuSans-46"/>
       <use x="95.410156" xlink:href="#DejaVuSans-53"/>
      </g>
     </g>
    </g>
    <g id="ytick_3">
     <g id="line2d_6">
      <g>
       <use style="stroke:#000000;stroke-width:0.8;" x="58.61" xlink:href="#m214e2e4047" y="86.46092"/>
      </g>
     </g>
     <g id="text_7">
      <!-- 1.0 -->
      <g transform="translate(29.345625 91.779826)scale(0.14 -0.14)">
       <use xlink:href="#DejaVuSans-49"/>
       <use x="63.623047" xlink:href="#DejaVuSans-46"/>
       <use x="95.410156" xlink:href="#DejaVuSans-48"/>
      </g>
     </g>
    </g>
    <g id="ytick_4">
     <g id="line2d_7">
      <g>
       <use style="stroke:#000000;stroke-width:0.8;" x="58.61" xlink:href="#m214e2e4047" y="58.441215"/>
      </g>
     </g>
     <g id="text_8">
      <!-- 1.5 -->
      <g transform="translate(29.345625 63.760122)scale(0.14 -0.14)">
       <use xlink:href="#DejaVuSans-49"/>
       <use x="63.623047" xlink:href="#DejaVuSans-46"/>
       <use x="95.410156" xlink:href="#DejaVuSans-53"/>
      </g>
     </g>
    </g>
    <g id="ytick_5">
     <g id="line2d_8">
      <g>
       <use style="stroke:#000000;stroke-width:0.8;" x="58.61" xlink:href="#m214e2e4047" y="30.421511"/>
      </g>
     </g>
     <g id="text_9">
      <!-- 2.0 -->
      <g transform="translate(29.345625 35.740417)scale(0.14 -0.14)">
       <defs>
        <path d="M 19.1875 8.296875 
L 53.609375 8.296875 
L 53.609375 0 
L 7.328125 0 
L 7.328125 8.296875 
Q 12.9375 14.109375 22.625 23.890625 
Q 32.328125 33.6875 34.8125 36.53125 
Q 39.546875 41.84375 41.421875 45.53125 
Q 43.3125 49.21875 43.3125 52.78125 
Q 43.3125 58.59375 39.234375 62.25 
Q 35.15625 65.921875 28.609375 65.921875 
Q 23.96875 65.921875 18.8125 64.3125 
Q 13.671875 62.703125 7.8125 59.421875 
L 7.8125 69.390625 
Q 13.765625 71.78125 18.9375 73 
Q 24.125 74.21875 28.421875 74.21875 
Q 39.75 74.21875 46.484375 68.546875 
Q 53.21875 62.890625 53.21875 53.421875 
Q 53.21875 48.921875 51.53125 44.890625 
Q 49.859375 40.875 45.40625 35.40625 
Q 44.1875 33.984375 37.640625 27.21875 
Q 31.109375 20.453125 19.1875 8.296875 
z
" id="DejaVuSans-50"/>
       </defs>
       <use xlink:href="#DejaVuSans-50"/>
       <use x="63.623047" xlink:href="#DejaVuSans-46"/>
       <use x="95.410156" xlink:href="#DejaVuSans-48"/>
      </g>
     </g>
    </g>
    <g id="text_10">
     <!-- Z-scored F -->
     <g transform="translate(22.018125 137.60125)rotate(-90)scale(0.16 -0.16)">
      <defs>
       <path d="M 5.609375 72.90625 
L 62.890625 72.90625 
L 62.890625 65.375 
L 16.796875 8.296875 
L 64.015625 8.296875 
L 64.015625 0 
L 4.5 0 
L 4.5 7.515625 
L 50.59375 64.59375 
L 5.609375 64.59375 
z
" id="DejaVuSans-90"/>
       <path d="M 4.890625 31.390625 
L 31.203125 31.390625 
L 31.203125 23.390625 
L 4.890625 23.390625 
z
" id="DejaVuSans-45"/>
       <path d="M 41.109375 46.296875 
Q 39.59375 47.171875 37.8125 47.578125 
Q 36.03125 48 33.890625 48 
Q 26.265625 48 22.1875 43.046875 
Q 18.109375 38.09375 18.109375 28.8125 
L 18.109375 0 
L 9.078125 0 
L 9.078125 54.6875 
L 18.109375 54.6875 
L 18.109375 46.1875 
Q 20.953125 51.171875 25.484375 53.578125 
Q 30.03125 56 36.53125 56 
Q 37.453125 56 38.578125 55.875 
Q 39.703125 55.765625 41.0625 55.515625 
z
" id="DejaVuSans-114"/>
       <path d="M 9.8125 72.90625 
L 51.703125 72.90625 
L 51.703125 64.59375 
L 19.671875 64.59375 
L 19.671875 43.109375 
L 48.578125 43.109375 
L 48.578125 34.8125 
L 19.671875 34.8125 
L 19.671875 0 
L 9.8125 0 
z
" id="DejaVuSans-70"/>
      </defs>
      <use xlink:href="#DejaVuSans-90"/>
      <use x="66.755859" xlink:href="#DejaVuSans-45"/>
      <use x="102.839844" xlink:href="#DejaVuSans-115"/>
      <use x="154.939453" xlink:href="#DejaVuSans-99"/>
      <use x="209.919922" xlink:href="#DejaVuSans-111"/>
      <use x="271.101562" xlink:href="#DejaVuSans-114"/>
      <use x="309.964844" xlink:href="#DejaVuSans-101"/>
      <use x="371.488281" xlink:href="#DejaVuSans-100"/>
      <use x="434.964844" xlink:href="#DejaVuSans-32"/>
      <use x="466.751953" xlink:href="#DejaVuSans-70"/>
     </g>
    </g>
   </g>
   <g id="line2d_9">
    <path clip-path="url(#pa32cc9d697)" d="M 59.483288 54.368044 
L 60.356575 36.617076 
L 61.229863 34.084069 
L 62.10315 38.202749 
L 62.976438 44.779054 
L 63.849725 48.517842 
L 64.723013 53.923614 
L 66.469588 61.455913 
L 67.342875 63.757649 
L 68.216163 64.687226 
L 69.08945 67.027638 
L 69.962738 67.578709 
L 71.709313 72.022913 
L 72.5826 74.252739 
L 74.329175 77.959535 
L 75.202462 78.092534 
L 76.949038 78.917028 
L 77.822325 79.910194 
L 78.695613 82.586057 
L 79.5689 84.78601 
L 80.442188 84.832107 
L 81.315475 83.989289 
L 82.188762 83.634197 
L 83.06205 84.89657 
L 83.935338 86.627286 
L 84.808625 88.850629 
L 85.681913 87.219008 
L 86.5552 83.549728 
L 87.428488 83.816234 
L 88.301775 85.414303 
L 89.175062 87.504352 
L 90.04835 89.205562 
L 90.921638 90.129261 
L 91.794925 90.369835 
L 92.668213 90.877598 
L 93.5415 92.839141 
L 95.288075 91.931694 
L 96.161362 92.510127 
L 97.03465 90.845002 
L 97.907938 88.881195 
L 98.781225 90.066074 
L 99.654513 92.815973 
L 100.5278 93.662726 
L 101.401088 95.782609 
L 102.274375 97.136795 
L 103.147662 97.769875 
L 104.894238 98.602029 
L 105.767525 99.957424 
L 106.640813 100.242326 
L 107.5141 101.529429 
L 108.387388 100.800139 
L 109.260675 102.605379 
L 111.00725 104.231428 
L 111.880538 104.095948 
L 112.753825 103.417621 
L 113.627113 103.540053 
L 114.5004 104.104898 
L 115.373687 104.092964 
L 117.120262 105.77746 
L 117.99355 107.377697 
L 118.866838 107.890064 
L 119.740125 109.838006 
L 120.613412 111.299039 
L 121.4867 112.062635 
L 122.359987 112.20534 
L 123.233275 112.696271 
L 124.106562 113.890091 
L 124.97985 113.076139 
L 126.726425 116.665882 
L 127.599713 114.817701 
L 128.473 114.265397 
L 129.346287 112.191619 
L 130.219575 112.203559 
L 131.092862 114.006945 
L 132.839438 116.812683 
L 134.586013 116.736281 
L 138.079162 119.424081 
L 138.95245 119.291562 
L 139.825738 120.300327 
L 140.699025 120.281545 
L 141.572313 121.697885 
L 142.4456 120.907459 
L 143.318887 122.153849 
L 144.192175 122.458148 
L 145.065462 122.371094 
L 145.93875 121.870759 
L 146.812038 122.350553 
L 147.685325 122.126983 
L 148.558612 122.047741 
L 150.305187 124.002063 
L 151.178475 124.704874 
L 152.051762 124.619359 
L 152.92505 125.063554 
L 153.798338 126.181362 
L 154.671625 126.583058 
L 155.544912 126.001531 
L 156.4182 125.959903 
L 157.291487 125.359312 
L 158.164775 125.995774 
L 159.038062 126.187813 
L 159.91135 126.945075 
L 160.784638 127.205 
L 161.657925 126.04739 
L 162.531212 126.114417 
L 163.4045 124.444335 
L 164.277787 118.75743 
L 165.151075 107.023213 
L 166.024362 93.223778 
L 166.89765 82.614731 
L 167.770938 78.054034 
L 168.644225 74.863781 
L 169.517512 76.220958 
L 170.3908 75.000247 
L 171.264087 76.236556 
L 172.137375 73.989616 
L 173.010662 75.01669 
L 173.88395 72.16245 
L 174.757238 73.337419 
L 175.630525 71.246513 
L 176.503812 71.436235 
L 177.3771 68.295617 
L 178.250387 68.186521 
L 179.123675 63.522305 
L 179.996962 63.671332 
L 180.87025 63.345841 
L 181.743538 64.435467 
L 182.616825 63.633518 
L 184.3634 66.697345 
L 185.236687 72.713831 
L 186.109975 73.066228 
L 186.983262 74.44566 
L 187.85655 74.875244 
L 188.729838 77.210148 
L 189.603125 76.948135 
L 190.476413 77.576321 
L 191.3497 76.217749 
L 192.222987 77.417961 
L 193.096275 77.756568 
L 193.969562 79.793957 
L 194.84285 80.307519 
L 195.716138 83.330748 
L 198.336 87.625864 
L 199.209287 90.690331 
L 200.082575 92.434607 
L 200.955862 95.907039 
L 201.82915 95.188099 
L 202.702438 95.287702 
L 203.575725 94.187416 
L 204.449012 95.44807 
L 205.3223 95.088173 
L 206.195587 95.87194 
L 207.068875 96.145386 
L 207.942162 96.676635 
L 208.81545 96.585648 
L 209.688738 97.597593 
L 210.562025 97.15197 
L 211.435312 99.058417 
L 212.3086 96.046592 
L 213.181887 98.38611 
L 214.055175 98.901563 
L 214.928462 99.625673 
L 215.80175 98.387666 
L 216.675038 98.888538 
L 217.548325 96.557628 
L 218.421612 97.573391 
L 219.2949 98.011233 
L 220.168187 100.910384 
L 221.041475 101.518131 
L 221.914762 104.061828 
L 222.78805 104.472608 
L 223.661338 105.762239 
L 224.534625 105.897994 
L 225.407912 108.137303 
L 226.2812 109.512961 
L 227.154487 111.843678 
L 228.901062 114.236361 
L 229.77435 114.60029 
L 230.647638 115.584819 
L 231.520925 115.638257 
L 232.394212 116.841408 
L 233.2675 115.703671 
L 234.140787 114.237525 
L 235.014075 110.634037 
L 235.887362 113.008914 
L 238.507225 118.404745 
L 239.380512 120.040399 
L 240.2538 120.478258 
L 241.127087 122.254618 
L 242.000375 122.374366 
L 242.873662 124.608193 
L 243.74695 127.406244 
L 244.620238 129.15414 
L 246.366812 129.183316 
L 247.2401 127.12627 
L 248.113387 126.452355 
L 248.986675 126.766343 
L 249.859962 127.540033 
L 250.73325 126.903417 
L 251.606538 128.135913 
L 252.479825 127.261997 
L 253.353112 128.925332 
L 254.2264 126.731611 
L 255.099687 126.904503 
L 255.972975 126.448666 
L 256.846262 127.786611 
L 257.71955 128.732408 
L 258.592837 128.915814 
L 259.466125 126.665215 
L 260.339412 126.815313 
L 261.2127 124.149375 
L 262.959275 123.135979 
L 263.832562 125.56708 
L 264.70585 125.753292 
L 265.579137 127.010901 
L 267.325712 129.074449 
L 268.199 129.232723 
L 269.072287 130.67691 
L 269.945575 129.979861 
L 270.818862 131.820076 
L 271.69215 130.915044 
L 272.565437 131.91043 
L 273.438725 134.296493 
L 274.312012 134.987122 
L 275.1853 135.985002 
L 276.058587 133.850779 
L 276.931875 133.15811 
L 277.805162 135.816078 
L 278.67845 133.223021 
L 279.551737 134.556236 
L 280.425025 137.827805 
L 281.298312 138.836822 
L 282.1716 137.1507 
L 283.044887 136.991916 
L 283.918175 135.538521 
L 284.791462 135.270823 
L 285.66475 134.659834 
L 286.538037 135.734712 
L 287.411325 134.151392 
L 288.284612 134.159341 
L 290.031187 138.76892 
L 290.904475 137.710616 
L 291.777762 137.430572 
L 292.65105 133.460836 
L 293.524337 131.253745 
L 294.397625 125.55234 
L 295.270912 122.118456 
L 296.1442 119.261431 
L 297.017487 121.781392 
L 298.764062 125.7057 
L 299.63735 126.938332 
L 301.383925 130.470025 
L 302.257212 130.825064 
L 303.1305 128.404277 
L 304.003787 127.96441 
L 304.877075 127.013768 
L 305.750362 127.339405 
L 306.62365 125.353019 
L 307.496937 126.933575 
L 308.370225 129.282556 
L 309.243512 131.008814 
L 310.1168 130.929376 
L 310.990087 131.496571 
L 311.863375 130.677506 
L 312.736662 130.540992 
L 313.60995 130.083042 
L 314.483237 131.452192 
L 315.356525 132.238053 
L 316.229812 133.433878 
L 317.1031 132.903121 
L 317.976387 134.072835 
L 318.849675 134.865981 
L 319.722962 136.096634 
L 321.469538 139.656106 
L 322.342825 138.972918 
L 323.216112 136.925095 
L 324.0894 135.635096 
L 324.962687 135.02029 
L 325.835975 133.916704 
L 326.709262 135.686027 
L 327.58255 136.632779 
L 328.455837 138.107382 
L 329.329125 141.380586 
L 330.202412 143.157369 
L 331.0757 141.869374 
L 331.948987 140.090831 
L 332.822275 137.534708 
L 333.695562 137.312252 
L 335.442138 130.701251 
L 336.315425 127.123914 
L 337.188712 127.344474 
L 338.062 130.055965 
L 339.808575 129.467749 
L 340.681862 129.989988 
L 341.55515 129.966469 
L 342.428437 130.715504 
L 343.301725 126.805015 
L 344.175012 123.817885 
L 345.0483 121.572722 
L 345.921587 124.757103 
L 346.794875 125.381626 
L 347.668162 128.245183 
L 348.54145 129.97091 
L 349.414738 132.557865 
L 351.161312 134.697012 
L 352.0346 134.725382 
L 354.654462 140.561614 
L 355.52775 140.411277 
L 356.401037 141.299859 
L 357.274325 140.968683 
L 358.147612 141.569214 
L 359.0209 139.98048 
L 359.894187 139.675036 
L 361.640762 139.747058 
L 362.51405 139.524485 
L 363.387338 139.500612 
L 364.260625 139.733272 
L 365.133912 139.597431 
L 366.880487 141.017284 
L 367.753775 141.226073 
L 368.627062 142.416905 
L 369.50035 141.347042 
L 370.373637 141.907838 
L 371.246925 143.052329 
L 372.120212 143.346327 
L 372.9935 142.925896 
L 373.866787 143.915457 
L 374.740075 146.804085 
L 375.613362 146.72103 
L 376.48665 146.03907 
L 377.359937 146.986341 
L 378.233225 147.260893 
L 379.106512 146.30695 
L 379.9798 144.875441 
L 380.853087 145.298438 
L 382.599662 144.36168 
L 383.47295 142.972944 
L 384.346237 144.584706 
L 385.219525 143.680656 
L 386.092812 143.748604 
L 386.9661 143.147307 
L 387.839387 144.784567 
L 388.712675 144.709433 
L 389.585962 145.289013 
L 391.332537 144.914695 
L 392.205825 145.030557 
L 393.079112 140.576052 
L 393.9524 143.338985 
L 394.825687 144.702286 
L 395.698975 147.617022 
L 396.572262 148.946213 
L 397.44555 147.964578 
L 398.318837 148.162798 
L 399.192125 148.596273 
L 400.065412 149.26659 
L 400.9387 148.155173 
L 401.811987 148.283258 
L 402.685275 146.926396 
L 403.558562 146.977722 
L 404.43185 144.790449 
L 405.305137 145.110153 
L 406.178425 145.143257 
L 407.051712 146.112502 
L 407.925 146.514204 
L 408.798287 147.475624 
L 409.671575 146.084063 
L 410.544862 145.731552 
L 412.291437 146.813789 
L 414.038012 147.472176 
L 414.9113 145.626678 
L 415.784587 144.514822 
L 416.657875 144.434771 
L 417.531162 144.599509 
L 418.40445 146.987636 
L 419.277737 148.451169 
L 420.151025 149.050667 
L 421.024312 151.284051 
L 421.8976 153.873959 
L 422.770887 155.153298 
L 423.644175 155.342933 
L 424.517462 155.023692 
L 425.39075 155.045427 
L 426.264037 153.701567 
L 427.137325 152.899622 
L 428.010612 152.476474 
L 428.8839 149.62474 
L 429.757187 148.309832 
L 430.630475 148.096631 
L 431.503762 149.635921 
L 432.37705 150.076583 
L 433 149.057501 
L 433 149.057501 
" style="fill:none;stroke:#000000;stroke-linecap:square;"/>
   </g>
   <g id="line2d_10">
    <path clip-path="url(#pa32cc9d697)" d="M 242.000375 180.52 
L 242.000375 10.8 
" style="fill:none;stroke:#000000;stroke-linecap:square;stroke-opacity:0.5;"/>
   </g>
   <g id="line2d_11">
    <path clip-path="url(#pa32cc9d697)" d="M 271.69215 180.52 
L 271.69215 10.8 
" style="fill:none;stroke:#000000;stroke-linecap:square;stroke-opacity:0.5;"/>
   </g>
   <g id="line2d_12">
    <path clip-path="url(#pa32cc9d697)" d="M 278.67845 180.52 
L 278.67845 10.8 
" style="fill:none;stroke:#000000;stroke-linecap:square;stroke-opacity:0.5;"/>
   </g>
   <g id="line2d_13">
    <path clip-path="url(#pa32cc9d697)" d="M 287.411325 180.52 
L 287.411325 10.8 
" style="fill:none;stroke:#000000;stroke-linecap:square;stroke-opacity:0.5;"/>
   </g>
   <g id="line2d_14">
    <path clip-path="url(#pa32cc9d697)" d="M 306.62365 180.52 
L 306.62365 10.8 
" style="fill:none;stroke:#000000;stroke-linecap:square;stroke-opacity:0.5;"/>
   </g>
   <g id="line2d_15">
    <path clip-path="url(#pa32cc9d697)" d="M 318.849675 180.52 
L 318.849675 10.8 
" style="fill:none;stroke:#000000;stroke-linecap:square;stroke-opacity:0.5;"/>
   </g>
   <g id="line2d_16">
    <path clip-path="url(#pa32cc9d697)" d="M 327.58255 180.52 
L 327.58255 10.8 
" style="fill:none;stroke:#000000;stroke-linecap:square;stroke-opacity:0.5;"/>
   </g>
   <g id="line2d_17">
    <path clip-path="url(#pa32cc9d697)" d="M 352.0346 180.52 
L 352.0346 10.8 
" style="fill:none;stroke:#000000;stroke-linecap:square;stroke-opacity:0.5;"/>
   </g>
   <g id="line2d_18">
    <path clip-path="url(#pa32cc9d697)" d="M 372.9935 180.52 
L 372.9935 10.8 
" style="fill:none;stroke:#000000;stroke-linecap:square;stroke-opacity:0.5;"/>
   </g>
   <g id="line2d_19">
    <path clip-path="url(#pa32cc9d697)" d="M 393.9524 180.52 
L 393.9524 10.8 
" style="fill:none;stroke:#000000;stroke-linecap:square;stroke-opacity:0.5;"/>
   </g>
   <g id="line2d_20">
    <path clip-path="url(#pa32cc9d697)" d="M 420.151025 180.52 
L 420.151025 10.8 
" style="fill:none;stroke:#000000;stroke-linecap:square;stroke-opacity:0.5;"/>
   </g>
   <g id="line2d_21">
    <path clip-path="url(#pa32cc9d697)" d="M 430.630475 180.52 
L 430.630475 10.8 
" style="fill:none;stroke:#000000;stroke-linecap:square;stroke-opacity:0.5;"/>
   </g>
   <g id="line2d_22">
    <path clip-path="url(#pa32cc9d697)" style="fill:none;stroke:#000000;stroke-linecap:square;stroke-opacity:0.5;"/>
   </g>
   <g id="line2d_23">
    <path clip-path="url(#pa32cc9d697)" style="fill:none;stroke:#000000;stroke-linecap:square;stroke-opacity:0.5;"/>
   </g>
   <g id="line2d_24">
    <path clip-path="url(#pa32cc9d697)" style="fill:none;stroke:#000000;stroke-linecap:square;stroke-opacity:0.5;"/>
   </g>
   <g id="line2d_25">
    <path clip-path="url(#pa32cc9d697)" style="fill:none;stroke:#000000;stroke-linecap:square;stroke-opacity:0.5;"/>
   </g>
   <g id="line2d_26">
    <path clip-path="url(#pa32cc9d697)" style="fill:none;stroke:#000000;stroke-linecap:square;stroke-opacity:0.5;"/>
   </g>
   <g id="line2d_27">
    <path clip-path="url(#pa32cc9d697)" style="fill:none;stroke:#000000;stroke-linecap:square;stroke-opacity:0.5;"/>
   </g>
   <g id="line2d_28">
    <path clip-path="url(#pa32cc9d697)" style="fill:none;stroke:#000000;stroke-linecap:square;stroke-opacity:0.5;"/>
   </g>
   <g id="line2d_29">
    <path clip-path="url(#pa32cc9d697)" style="fill:none;stroke:#000000;stroke-linecap:square;stroke-opacity:0.5;"/>
   </g>
   <g id="line2d_30">
    <path clip-path="url(#pa32cc9d697)" style="fill:none;stroke:#000000;stroke-linecap:square;stroke-opacity:0.5;"/>
   </g>
   <g id="line2d_31">
    <path clip-path="url(#pa32cc9d697)" style="fill:none;stroke:#000000;stroke-linecap:square;stroke-opacity:0.5;"/>
   </g>
   <g id="line2d_32">
    <path clip-path="url(#pa32cc9d697)" style="fill:none;stroke:#000000;stroke-linecap:square;stroke-opacity:0.5;"/>
   </g>
   <g id="line2d_33">
    <path clip-path="url(#pa32cc9d697)" style="fill:none;stroke:#000000;stroke-linecap:square;stroke-opacity:0.5;"/>
   </g>
   <g id="line2d_34">
    <path clip-path="url(#pa32cc9d697)" style="fill:none;stroke:#000000;stroke-linecap:square;stroke-opacity:0.5;"/>
   </g>
   <g id="line2d_35">
    <path clip-path="url(#pa32cc9d697)" style="fill:none;stroke:#000000;stroke-linecap:square;stroke-opacity:0.5;"/>
   </g>
   <g id="line2d_36">
    <path clip-path="url(#pa32cc9d697)" style="fill:none;stroke:#000000;stroke-linecap:square;stroke-opacity:0.5;"/>
   </g>
   <g id="line2d_37">
    <path clip-path="url(#pa32cc9d697)" style="fill:none;stroke:#000000;stroke-linecap:square;stroke-opacity:0.5;"/>
   </g>
   <g id="line2d_38">
    <path clip-path="url(#pa32cc9d697)" style="fill:none;stroke:#000000;stroke-linecap:square;stroke-opacity:0.5;"/>
   </g>
   <g id="line2d_39">
    <path clip-path="url(#pa32cc9d697)" style="fill:none;stroke:#000000;stroke-linecap:square;stroke-opacity:0.5;"/>
   </g>
   <g id="line2d_40">
    <path clip-path="url(#pa32cc9d697)" style="fill:none;stroke:#000000;stroke-linecap:square;stroke-opacity:0.5;"/>
   </g>
   <g id="line2d_41">
    <path clip-path="url(#pa32cc9d697)" style="fill:none;stroke:#000000;stroke-linecap:square;stroke-opacity:0.5;"/>
   </g>
   <g id="line2d_42">
    <path clip-path="url(#pa32cc9d697)" style="fill:none;stroke:#000000;stroke-linecap:square;stroke-opacity:0.5;"/>
   </g>
   <g id="line2d_43">
    <path clip-path="url(#pa32cc9d697)" style="fill:none;stroke:#000000;stroke-linecap:square;stroke-opacity:0.5;"/>
   </g>
   <g id="line2d_44">
    <path clip-path="url(#pa32cc9d697)" style="fill:none;stroke:#000000;stroke-linecap:square;stroke-opacity:0.5;"/>
   </g>
   <g id="line2d_45">
    <path clip-path="url(#pa32cc9d697)" style="fill:none;stroke:#000000;stroke-linecap:square;stroke-opacity:0.5;"/>
   </g>
   <g id="line2d_46">
    <path clip-path="url(#pa32cc9d697)" style="fill:none;stroke:#000000;stroke-linecap:square;stroke-opacity:0.5;"/>
   </g>
   <g id="line2d_47">
    <path clip-path="url(#pa32cc9d697)" style="fill:none;stroke:#000000;stroke-linecap:square;stroke-opacity:0.5;"/>
   </g>
   <g id="line2d_48">
    <path clip-path="url(#pa32cc9d697)" style="fill:none;stroke:#000000;stroke-linecap:square;stroke-opacity:0.5;"/>
   </g>
   <g id="line2d_49">
    <path clip-path="url(#pa32cc9d697)" style="fill:none;stroke:#000000;stroke-linecap:square;stroke-opacity:0.5;"/>
   </g>
   <g id="patch_4">
    <path d="M 58.61 180.52 
L 58.61 10.8 
" style="fill:none;stroke:#000000;stroke-linecap:square;stroke-linejoin:miter;stroke-width:0.8;"/>
   </g>
   <g id="patch_5">
    <path d="M 58.61 180.52 
L 407.925 180.52 
" style="fill:none;stroke:#000000;stroke-linecap:square;stroke-linejoin:miter;stroke-width:0.8;"/>
   </g>
  </g>
 </g>
 <defs>
  <clipPath id="pa32cc9d697">
   <rect height="169.72" width="349.315" x="58.61" y="10.8"/>
  </clipPath>
 </defs>
</svg>
