<?xml version="1.0" encoding="utf-8" standalone="no"?>
<!DOCTYPE svg PUBLIC "-//W3C//DTD SVG 1.1//EN"
  "http://www.w3.org/Graphics/SVG/1.1/DTD/svg11.dtd">
<!-- Created with matplotlib (https://matplotlib.org/) -->
<svg height="252pt" version="1.1" viewBox="0 0 288 252" width="288pt" xmlns="http://www.w3.org/2000/svg" xmlns:xlink="http://www.w3.org/1999/xlink">
 <metadata>
  <rdf:RDF xmlns:cc="http://creativecommons.org/ns#" xmlns:dc="http://purl.org/dc/elements/1.1/" xmlns:rdf="http://www.w3.org/1999/02/22-rdf-syntax-ns#">
   <cc:Work>
    <dc:type rdf:resource="http://purl.org/dc/dcmitype/StillImage"/>
    <dc:date>2024-06-04T18:17:14.182253</dc:date>
    <dc:format>image/svg+xml</dc:format>
    <dc:creator>
     <cc:Agent>
      <dc:title>Matplotlib v3.3.4, https://matplotlib.org/</dc:title>
     </cc:Agent>
    </dc:creator>
   </cc:Work>
  </rdf:RDF>
 </metadata>
 <defs>
  <style type="text/css">*{stroke-linecap:butt;stroke-linejoin:round;}</style>
 </defs>
 <g id="figure_1">
  <g id="patch_1">
   <path d="M 0 252 
L 288 252 
L 288 0 
L 0 0 
z
" style="fill:#ffffff;"/>
  </g>
  <g id="axes_1">
   <g id="patch_2">
    <path d="M 36 224.28 
L 259.2 224.28 
L 259.2 30.24 
L 36 30.24 
z
" style="fill:#ffffff;"/>
   </g>
   <g id="PathCollection_1">
    <defs>
     <path d="M 0 3 
C 0.795609 3 1.55874 2.683901 2.12132 2.12132 
C 2.683901 1.55874 3 0.795609 3 0 
C 3 -0.795609 2.683901 -1.55874 2.12132 -2.12132 
C 1.55874 -2.683901 0.795609 -3 0 -3 
C -0.795609 -3 -1.55874 -2.683901 -2.12132 -2.12132 
C -2.683901 -1.55874 -3 -0.795609 -3 0 
C -3 0.795609 -2.683901 1.55874 -2.12132 2.12132 
C -1.55874 2.683901 -0.795609 3 0 3 
z
" id="mf24177d32e" style="stroke:#000000;"/>
    </defs>
    <g clip-path="url(#pee034f5cc0)">
     <use style="stroke:#000000;" x="74.817391" xlink:href="#mf24177d32e" y="111.254894"/>
     <use style="stroke:#000000;" x="74.817391" xlink:href="#mf24177d32e" y="186.110445"/>
     <use style="stroke:#000000;" x="74.817391" xlink:href="#mf24177d32e" y="186.410864"/>
     <use style="stroke:#000000;" x="74.817391" xlink:href="#mf24177d32e" y="95.375163"/>
     <use style="stroke:#000000;" x="74.817391" xlink:href="#mf24177d32e" y="162.993372"/>
     <use style="stroke:#000000;" x="74.817391" xlink:href="#mf24177d32e" y="139.313686"/>
     <use style="stroke:#000000;" x="74.817391" xlink:href="#mf24177d32e" y="133.516261"/>
     <use style="stroke:#000000;" x="74.817391" xlink:href="#mf24177d32e" y="165.151681"/>
     <use style="stroke:#000000;" x="74.817391" xlink:href="#mf24177d32e" y="159.128908"/>
     <use style="stroke:#000000;" x="74.817391" xlink:href="#mf24177d32e" y="158.561773"/>
     <use style="stroke:#000000;" x="74.817391" xlink:href="#mf24177d32e" y="143.204455"/>
     <use style="stroke:#000000;" x="74.817391" xlink:href="#mf24177d32e" y="122.856745"/>
    </g>
   </g>
   <g id="PathCollection_2">
    <g clip-path="url(#pee034f5cc0)">
     <use style="stroke:#000000;" x="171.86087" xlink:href="#mf24177d32e" y="151.958474"/>
     <use style="stroke:#000000;" x="171.86087" xlink:href="#mf24177d32e" y="79.933986"/>
     <use style="stroke:#000000;" x="171.86087" xlink:href="#mf24177d32e" y="99.659363"/>
     <use style="stroke:#000000;" x="171.86087" xlink:href="#mf24177d32e" y="169.860961"/>
     <use style="stroke:#000000;" x="171.86087" xlink:href="#mf24177d32e" y="180.065917"/>
     <use style="stroke:#000000;" x="171.86087" xlink:href="#mf24177d32e" y="39.06"/>
     <use style="stroke:#000000;" x="171.86087" xlink:href="#mf24177d32e" y="126.017272"/>
     <use style="stroke:#000000;" x="171.86087" xlink:href="#mf24177d32e" y="118.773432"/>
     <use style="stroke:#000000;" x="171.86087" xlink:href="#mf24177d32e" y="159.972088"/>
     <use style="stroke:#000000;" x="171.86087" xlink:href="#mf24177d32e" y="182.415718"/>
     <use style="stroke:#000000;" x="171.86087" xlink:href="#mf24177d32e" y="198.338905"/>
     <use style="stroke:#000000;" x="171.86087" xlink:href="#mf24177d32e" y="133.114101"/>
    </g>
   </g>
   <g id="matplotlib.axis_1">
    <g id="xtick_1">
     <g id="line2d_1">
      <defs>
       <path d="M 0 0 
L 0 3.5 
" id="m331cc9273f" style="stroke:#000000;stroke-width:0.8;"/>
      </defs>
      <g>
       <use style="stroke:#000000;stroke-width:0.8;" x="99.078261" xlink:href="#m331cc9273f" y="224.28"/>
      </g>
     </g>
     <g id="text_1">
      <!-- Block 1 -->
      <g transform="translate(73.467011 241.917812)scale(0.14 -0.14)">
       <defs>
        <path d="M 19.671875 34.8125 
L 19.671875 8.109375 
L 35.5 8.109375 
Q 43.453125 8.109375 47.28125 11.40625 
Q 51.125 14.703125 51.125 21.484375 
Q 51.125 28.328125 47.28125 31.5625 
Q 43.453125 34.8125 35.5 34.8125 
z
M 19.671875 64.796875 
L 19.671875 42.828125 
L 34.28125 42.828125 
Q 41.5 42.828125 45.03125 45.53125 
Q 48.578125 48.25 48.578125 53.8125 
Q 48.578125 59.328125 45.03125 62.0625 
Q 41.5 64.796875 34.28125 64.796875 
z
M 9.8125 72.90625 
L 35.015625 72.90625 
Q 46.296875 72.90625 52.390625 68.21875 
Q 58.5 63.53125 58.5 54.890625 
Q 58.5 48.1875 55.375 44.234375 
Q 52.25 40.28125 46.1875 39.3125 
Q 53.46875 37.75 57.5 32.78125 
Q 61.53125 27.828125 61.53125 20.40625 
Q 61.53125 10.640625 54.890625 5.3125 
Q 48.25 0 35.984375 0 
L 9.8125 0 
z
" id="DejaVuSans-66"/>
        <path d="M 9.421875 75.984375 
L 18.40625 75.984375 
L 18.40625 0 
L 9.421875 0 
z
" id="DejaVuSans-108"/>
        <path d="M 30.609375 48.390625 
Q 23.390625 48.390625 19.1875 42.75 
Q 14.984375 37.109375 14.984375 27.296875 
Q 14.984375 17.484375 19.15625 11.84375 
Q 23.34375 6.203125 30.609375 6.203125 
Q 37.796875 6.203125 41.984375 11.859375 
Q 46.1875 17.53125 46.1875 27.296875 
Q 46.1875 37.015625 41.984375 42.703125 
Q 37.796875 48.390625 30.609375 48.390625 
z
M 30.609375 56 
Q 42.328125 56 49.015625 48.375 
Q 55.71875 40.765625 55.71875 27.296875 
Q 55.71875 13.875 49.015625 6.21875 
Q 42.328125 -1.421875 30.609375 -1.421875 
Q 18.84375 -1.421875 12.171875 6.21875 
Q 5.515625 13.875 5.515625 27.296875 
Q 5.515625 40.765625 12.171875 48.375 
Q 18.84375 56 30.609375 56 
z
" id="DejaVuSans-111"/>
        <path d="M 48.78125 52.59375 
L 48.78125 44.1875 
Q 44.96875 46.296875 41.140625 47.34375 
Q 37.3125 48.390625 33.40625 48.390625 
Q 24.65625 48.390625 19.8125 42.84375 
Q 14.984375 37.3125 14.984375 27.296875 
Q 14.984375 17.28125 19.8125 11.734375 
Q 24.65625 6.203125 33.40625 6.203125 
Q 37.3125 6.203125 41.140625 7.25 
Q 44.96875 8.296875 48.78125 10.40625 
L 48.78125 2.09375 
Q 45.015625 0.34375 40.984375 -0.53125 
Q 36.96875 -1.421875 32.421875 -1.421875 
Q 20.0625 -1.421875 12.78125 6.34375 
Q 5.515625 14.109375 5.515625 27.296875 
Q 5.515625 40.671875 12.859375 48.328125 
Q 20.21875 56 33.015625 56 
Q 37.15625 56 41.109375 55.140625 
Q 45.0625 54.296875 48.78125 52.59375 
z
" id="DejaVuSans-99"/>
        <path d="M 9.078125 75.984375 
L 18.109375 75.984375 
L 18.109375 31.109375 
L 44.921875 54.6875 
L 56.390625 54.6875 
L 27.390625 29.109375 
L 57.625 0 
L 45.90625 0 
L 18.109375 26.703125 
L 18.109375 0 
L 9.078125 0 
z
" id="DejaVuSans-107"/>
        <path id="DejaVuSans-32"/>
        <path d="M 12.40625 8.296875 
L 28.515625 8.296875 
L 28.515625 63.921875 
L 10.984375 60.40625 
L 10.984375 69.390625 
L 28.421875 72.90625 
L 38.28125 72.90625 
L 38.28125 8.296875 
L 54.390625 8.296875 
L 54.390625 0 
L 12.40625 0 
z
" id="DejaVuSans-49"/>
       </defs>
       <use xlink:href="#DejaVuSans-66"/>
       <use x="68.603516" xlink:href="#DejaVuSans-108"/>
       <use x="96.386719" xlink:href="#DejaVuSans-111"/>
       <use x="157.568359" xlink:href="#DejaVuSans-99"/>
       <use x="212.548828" xlink:href="#DejaVuSans-107"/>
       <use x="270.458984" xlink:href="#DejaVuSans-32"/>
       <use x="302.246094" xlink:href="#DejaVuSans-49"/>
      </g>
     </g>
    </g>
    <g id="xtick_2">
     <g id="line2d_2">
      <g>
       <use style="stroke:#000000;stroke-width:0.8;" x="196.121739" xlink:href="#m331cc9273f" y="224.28"/>
      </g>
     </g>
     <g id="text_2">
      <!-- Block 2 -->
      <g transform="translate(170.510489 241.917812)scale(0.14 -0.14)">
       <defs>
        <path d="M 19.1875 8.296875 
L 53.609375 8.296875 
L 53.609375 0 
L 7.328125 0 
L 7.328125 8.296875 
Q 12.9375 14.109375 22.625 23.890625 
Q 32.328125 33.6875 34.8125 36.53125 
Q 39.546875 41.84375 41.421875 45.53125 
Q 43.3125 49.21875 43.3125 52.78125 
Q 43.3125 58.59375 39.234375 62.25 
Q 35.15625 65.921875 28.609375 65.921875 
Q 23.96875 65.921875 18.8125 64.3125 
Q 13.671875 62.703125 7.8125 59.421875 
L 7.8125 69.390625 
Q 13.765625 71.78125 18.9375 73 
Q 24.125 74.21875 28.421875 74.21875 
Q 39.75 74.21875 46.484375 68.546875 
Q 53.21875 62.890625 53.21875 53.421875 
Q 53.21875 48.921875 51.53125 44.890625 
Q 49.859375 40.875 45.40625 35.40625 
Q 44.1875 33.984375 37.640625 27.21875 
Q 31.109375 20.453125 19.1875 8.296875 
z
" id="DejaVuSans-50"/>
       </defs>
       <use xlink:href="#DejaVuSans-66"/>
       <use x="68.603516" xlink:href="#DejaVuSans-108"/>
       <use x="96.386719" xlink:href="#DejaVuSans-111"/>
       <use x="157.568359" xlink:href="#DejaVuSans-99"/>
       <use x="212.548828" xlink:href="#DejaVuSans-107"/>
       <use x="270.458984" xlink:href="#DejaVuSans-32"/>
       <use x="302.246094" xlink:href="#DejaVuSans-50"/>
      </g>
     </g>
    </g>
   </g>
   <g id="matplotlib.axis_2">
    <g id="ytick_1">
     <g id="line2d_3">
      <defs>
       <path d="M 0 0 
L -3.5 0 
" id="m84597ebb44" style="stroke:#000000;stroke-width:0.8;"/>
      </defs>
      <g>
       <use style="stroke:#000000;stroke-width:0.8;" x="36" xlink:href="#m84597ebb44" y="210.197161"/>
      </g>
     </g>
     <g id="text_3">
      <!-- -0.02 -->
      <g transform="translate(-7.222813 215.516068)scale(0.14 -0.14)">
       <defs>
        <path d="M 4.890625 31.390625 
L 31.203125 31.390625 
L 31.203125 23.390625 
L 4.890625 23.390625 
z
" id="DejaVuSans-45"/>
        <path d="M 31.78125 66.40625 
Q 24.171875 66.40625 20.328125 58.90625 
Q 16.5 51.421875 16.5 36.375 
Q 16.5 21.390625 20.328125 13.890625 
Q 24.171875 6.390625 31.78125 6.390625 
Q 39.453125 6.390625 43.28125 13.890625 
Q 47.125 21.390625 47.125 36.375 
Q 47.125 51.421875 43.28125 58.90625 
Q 39.453125 66.40625 31.78125 66.40625 
z
M 31.78125 74.21875 
Q 44.046875 74.21875 50.515625 64.515625 
Q 56.984375 54.828125 56.984375 36.375 
Q 56.984375 17.96875 50.515625 8.265625 
Q 44.046875 -1.421875 31.78125 -1.421875 
Q 19.53125 -1.421875 13.0625 8.265625 
Q 6.59375 17.96875 6.59375 36.375 
Q 6.59375 54.828125 13.0625 64.515625 
Q 19.53125 74.21875 31.78125 74.21875 
z
" id="DejaVuSans-48"/>
        <path d="M 10.6875 12.40625 
L 21 12.40625 
L 21 0 
L 10.6875 0 
z
" id="DejaVuSans-46"/>
       </defs>
       <use xlink:href="#DejaVuSans-45"/>
       <use x="36.083984" xlink:href="#DejaVuSans-48"/>
       <use x="99.707031" xlink:href="#DejaVuSans-46"/>
       <use x="131.494141" xlink:href="#DejaVuSans-48"/>
       <use x="195.117188" xlink:href="#DejaVuSans-50"/>
      </g>
     </g>
    </g>
    <g id="ytick_2">
     <g id="line2d_4">
      <g>
       <use style="stroke:#000000;stroke-width:0.8;" x="36" xlink:href="#m84597ebb44" y="133.91657"/>
      </g>
     </g>
     <g id="text_4">
      <!-- 0.0 -->
      <g transform="translate(6.735625 139.235476)scale(0.14 -0.14)">
       <use xlink:href="#DejaVuSans-48"/>
       <use x="63.623047" xlink:href="#DejaVuSans-46"/>
       <use x="95.410156" xlink:href="#DejaVuSans-48"/>
      </g>
     </g>
    </g>
    <g id="ytick_3">
     <g id="line2d_5">
      <g>
       <use style="stroke:#000000;stroke-width:0.8;" x="36" xlink:href="#m84597ebb44" y="57.635979"/>
      </g>
     </g>
     <g id="text_5">
      <!-- 0.02 -->
      <g transform="translate(-2.171875 62.954885)scale(0.14 -0.14)">
       <use xlink:href="#DejaVuSans-48"/>
       <use x="63.623047" xlink:href="#DejaVuSans-46"/>
       <use x="95.410156" xlink:href="#DejaVuSans-48"/>
       <use x="159.033203" xlink:href="#DejaVuSans-50"/>
      </g>
     </g>
    </g>
    <g id="text_6">
     <!-- Mean ΔF/F -->
     <g transform="translate(-14.550313 168.97)rotate(-90)scale(0.16 -0.16)">
      <defs>
       <path d="M 9.8125 72.90625 
L 24.515625 72.90625 
L 43.109375 23.296875 
L 61.8125 72.90625 
L 76.515625 72.90625 
L 76.515625 0 
L 66.890625 0 
L 66.890625 64.015625 
L 48.09375 14.015625 
L 38.1875 14.015625 
L 19.390625 64.015625 
L 19.390625 0 
L 9.8125 0 
z
" id="DejaVuSans-77"/>
       <path d="M 56.203125 29.59375 
L 56.203125 25.203125 
L 14.890625 25.203125 
Q 15.484375 15.921875 20.484375 11.0625 
Q 25.484375 6.203125 34.421875 6.203125 
Q 39.59375 6.203125 44.453125 7.46875 
Q 49.3125 8.734375 54.109375 11.28125 
L 54.109375 2.78125 
Q 49.265625 0.734375 44.1875 -0.34375 
Q 39.109375 -1.421875 33.890625 -1.421875 
Q 20.796875 -1.421875 13.15625 6.1875 
Q 5.515625 13.8125 5.515625 26.8125 
Q 5.515625 40.234375 12.765625 48.109375 
Q 20.015625 56 32.328125 56 
Q 43.359375 56 49.78125 48.890625 
Q 56.203125 41.796875 56.203125 29.59375 
z
M 47.21875 32.234375 
Q 47.125 39.59375 43.09375 43.984375 
Q 39.0625 48.390625 32.421875 48.390625 
Q 24.90625 48.390625 20.390625 44.140625 
Q 15.875 39.890625 15.1875 32.171875 
z
" id="DejaVuSans-101"/>
       <path d="M 34.28125 27.484375 
Q 23.390625 27.484375 19.1875 25 
Q 14.984375 22.515625 14.984375 16.5 
Q 14.984375 11.71875 18.140625 8.90625 
Q 21.296875 6.109375 26.703125 6.109375 
Q 34.1875 6.109375 38.703125 11.40625 
Q 43.21875 16.703125 43.21875 25.484375 
L 43.21875 27.484375 
z
M 52.203125 31.203125 
L 52.203125 0 
L 43.21875 0 
L 43.21875 8.296875 
Q 40.140625 3.328125 35.546875 0.953125 
Q 30.953125 -1.421875 24.3125 -1.421875 
Q 15.921875 -1.421875 10.953125 3.296875 
Q 6 8.015625 6 15.921875 
Q 6 25.140625 12.171875 29.828125 
Q 18.359375 34.515625 30.609375 34.515625 
L 43.21875 34.515625 
L 43.21875 35.40625 
Q 43.21875 41.609375 39.140625 45 
Q 35.0625 48.390625 27.6875 48.390625 
Q 23 48.390625 18.546875 47.265625 
Q 14.109375 46.140625 10.015625 43.890625 
L 10.015625 52.203125 
Q 14.9375 54.109375 19.578125 55.046875 
Q 24.21875 56 28.609375 56 
Q 40.484375 56 46.34375 49.84375 
Q 52.203125 43.703125 52.203125 31.203125 
z
" id="DejaVuSans-97"/>
       <path d="M 54.890625 33.015625 
L 54.890625 0 
L 45.90625 0 
L 45.90625 32.71875 
Q 45.90625 40.484375 42.875 44.328125 
Q 39.84375 48.1875 33.796875 48.1875 
Q 26.515625 48.1875 22.3125 43.546875 
Q 18.109375 38.921875 18.109375 30.90625 
L 18.109375 0 
L 9.078125 0 
L 9.078125 54.6875 
L 18.109375 54.6875 
L 18.109375 46.1875 
Q 21.34375 51.125 25.703125 53.5625 
Q 30.078125 56 35.796875 56 
Q 45.21875 56 50.046875 50.171875 
Q 54.890625 44.34375 54.890625 33.015625 
z
" id="DejaVuSans-110"/>
       <path d="M 34.1875 63.1875 
L 14.15625 8.203125 
L 54.25 8.203125 
z
M 0.78125 0 
L 28.609375 72.90625 
L 39.796875 72.90625 
L 67.578125 0 
z
" id="DejaVuSans-916"/>
       <path d="M 9.8125 72.90625 
L 51.703125 72.90625 
L 51.703125 64.59375 
L 19.671875 64.59375 
L 19.671875 43.109375 
L 48.578125 43.109375 
L 48.578125 34.8125 
L 19.671875 34.8125 
L 19.671875 0 
L 9.8125 0 
z
" id="DejaVuSans-70"/>
       <path d="M 25.390625 72.90625 
L 33.6875 72.90625 
L 8.296875 -9.28125 
L 0 -9.28125 
z
" id="DejaVuSans-47"/>
      </defs>
      <use xlink:href="#DejaVuSans-77"/>
      <use x="86.279297" xlink:href="#DejaVuSans-101"/>
      <use x="147.802734" xlink:href="#DejaVuSans-97"/>
      <use x="209.082031" xlink:href="#DejaVuSans-110"/>
      <use x="272.460938" xlink:href="#DejaVuSans-32"/>
      <use x="304.248047" xlink:href="#DejaVuSans-916"/>
      <use x="372.65625" xlink:href="#DejaVuSans-70"/>
      <use x="430.175781" xlink:href="#DejaVuSans-47"/>
      <use x="463.867188" xlink:href="#DejaVuSans-70"/>
     </g>
    </g>
   </g>
   <g id="line2d_6">
    <path clip-path="url(#pee034f5cc0)" d="M 74.817391 111.254894 
L 123.33913 122.346163 
" style="fill:none;stroke:#000000;stroke-linecap:square;stroke-opacity:0.5;"/>
   </g>
   <g id="line2d_7">
    <path clip-path="url(#pee034f5cc0)" d="M 74.817391 186.110445 
L 123.33913 152.576113 
" style="fill:none;stroke:#000000;stroke-linecap:square;stroke-opacity:0.5;"/>
   </g>
   <g id="line2d_8">
    <path clip-path="url(#pee034f5cc0)" d="M 74.817391 186.410864 
L 123.33913 151.025415 
" style="fill:none;stroke:#000000;stroke-linecap:square;stroke-opacity:0.5;"/>
   </g>
   <g id="line2d_9">
    <path clip-path="url(#pee034f5cc0)" d="M 74.817391 95.375163 
L 123.33913 72.48604 
" style="fill:none;stroke:#000000;stroke-linecap:square;stroke-opacity:0.5;"/>
   </g>
   <g id="line2d_10">
    <path clip-path="url(#pee034f5cc0)" d="M 74.817391 162.993372 
L 123.33913 166.859694 
" style="fill:none;stroke:#000000;stroke-linecap:square;stroke-opacity:0.5;"/>
   </g>
   <g id="line2d_11">
    <path clip-path="url(#pee034f5cc0)" d="M 74.817391 139.313686 
L 123.33913 181.877104 
" style="fill:none;stroke:#000000;stroke-linecap:square;stroke-opacity:0.5;"/>
   </g>
   <g id="line2d_12">
    <path clip-path="url(#pee034f5cc0)" d="M 74.817391 133.516261 
L 123.33913 143.839897 
" style="fill:none;stroke:#000000;stroke-linecap:square;stroke-opacity:0.5;"/>
   </g>
   <g id="line2d_13">
    <path clip-path="url(#pee034f5cc0)" d="M 74.817391 165.151681 
L 123.33913 148.89709 
" style="fill:none;stroke:#000000;stroke-linecap:square;stroke-opacity:0.5;"/>
   </g>
   <g id="line2d_14">
    <path clip-path="url(#pee034f5cc0)" d="M 74.817391 159.128908 
L 123.33913 134.590604 
" style="fill:none;stroke:#000000;stroke-linecap:square;stroke-opacity:0.5;"/>
   </g>
   <g id="line2d_15">
    <path clip-path="url(#pee034f5cc0)" d="M 74.817391 158.561773 
L 123.33913 163.767534 
" style="fill:none;stroke:#000000;stroke-linecap:square;stroke-opacity:0.5;"/>
   </g>
   <g id="line2d_16">
    <path clip-path="url(#pee034f5cc0)" d="M 74.817391 143.204455 
L 123.33913 93.597134 
" style="fill:none;stroke:#000000;stroke-linecap:square;stroke-opacity:0.5;"/>
   </g>
   <g id="line2d_17">
    <path clip-path="url(#pee034f5cc0)" d="M 74.817391 122.856745 
L 123.33913 105.831493 
" style="fill:none;stroke:#000000;stroke-linecap:square;stroke-opacity:0.5;"/>
   </g>
   <g id="line2d_18">
    <path clip-path="url(#pee034f5cc0)" d="M 171.86087 151.958474 
L 220.382609 166.864946 
" style="fill:none;stroke:#000000;stroke-linecap:square;stroke-opacity:0.5;"/>
   </g>
   <g id="line2d_19">
    <path clip-path="url(#pee034f5cc0)" d="M 171.86087 79.933986 
L 220.382609 144.58707 
" style="fill:none;stroke:#000000;stroke-linecap:square;stroke-opacity:0.5;"/>
   </g>
   <g id="line2d_20">
    <path clip-path="url(#pee034f5cc0)" d="M 171.86087 99.659363 
L 220.382609 215.46 
" style="fill:none;stroke:#000000;stroke-linecap:square;stroke-opacity:0.5;"/>
   </g>
   <g id="line2d_21">
    <path clip-path="url(#pee034f5cc0)" d="M 171.86087 169.860961 
L 220.382609 130.367842 
" style="fill:none;stroke:#000000;stroke-linecap:square;stroke-opacity:0.5;"/>
   </g>
   <g id="line2d_22">
    <path clip-path="url(#pee034f5cc0)" d="M 171.86087 180.065917 
L 220.382609 142.38038 
" style="fill:none;stroke:#000000;stroke-linecap:square;stroke-opacity:0.5;"/>
   </g>
   <g id="line2d_23">
    <path clip-path="url(#pee034f5cc0)" d="M 171.86087 39.06 
L 220.382609 190.584549 
" style="fill:none;stroke:#000000;stroke-linecap:square;stroke-opacity:0.5;"/>
   </g>
   <g id="line2d_24">
    <path clip-path="url(#pee034f5cc0)" d="M 171.86087 126.017272 
L 220.382609 124.113424 
" style="fill:none;stroke:#000000;stroke-linecap:square;stroke-opacity:0.5;"/>
   </g>
   <g id="line2d_25">
    <path clip-path="url(#pee034f5cc0)" d="M 171.86087 118.773432 
L 220.382609 161.916047 
" style="fill:none;stroke:#000000;stroke-linecap:square;stroke-opacity:0.5;"/>
   </g>
   <g id="line2d_26">
    <path clip-path="url(#pee034f5cc0)" d="M 171.86087 159.972088 
L 220.382609 137.164868 
" style="fill:none;stroke:#000000;stroke-linecap:square;stroke-opacity:0.5;"/>
   </g>
   <g id="line2d_27">
    <path clip-path="url(#pee034f5cc0)" d="M 171.86087 182.415718 
L 220.382609 182.554958 
" style="fill:none;stroke:#000000;stroke-linecap:square;stroke-opacity:0.5;"/>
   </g>
   <g id="line2d_28">
    <path clip-path="url(#pee034f5cc0)" d="M 171.86087 198.338905 
L 220.382609 208.02216 
" style="fill:none;stroke:#000000;stroke-linecap:square;stroke-opacity:0.5;"/>
   </g>
   <g id="line2d_29">
    <path clip-path="url(#pee034f5cc0)" d="M 171.86087 133.114101 
L 220.382609 112.763395 
" style="fill:none;stroke:#000000;stroke-linecap:square;stroke-opacity:0.5;"/>
   </g>
   <g id="patch_3">
    <path d="M 36 224.28 
L 36 30.24 
" style="fill:none;stroke:#000000;stroke-linecap:square;stroke-linejoin:miter;stroke-width:0.8;"/>
   </g>
   <g id="patch_4">
    <path d="M 36 224.28 
L 259.2 224.28 
" style="fill:none;stroke:#000000;stroke-linecap:square;stroke-linejoin:miter;stroke-width:0.8;"/>
   </g>
   <g id="PathCollection_3">
    <defs>
     <path d="M 0 3 
C 0.795609 3 1.55874 2.683901 2.12132 2.12132 
C 2.683901 1.55874 3 0.795609 3 0 
C 3 -0.795609 2.683901 -1.55874 2.12132 -2.12132 
C 1.55874 -2.683901 0.795609 -3 0 -3 
C -0.795609 -3 -1.55874 -2.683901 -2.12132 -2.12132 
C -2.683901 -1.55874 -3 -0.795609 -3 0 
C -3 0.795609 -2.683901 1.55874 -2.12132 2.12132 
C -1.55874 2.683901 -0.795609 3 0 3 
z
" id="mc7b91209e9" style="stroke:#ffa500;"/>
    </defs>
    <g clip-path="url(#pee034f5cc0)">
     <use style="fill:#ffa500;stroke:#ffa500;" x="123.33913" xlink:href="#mc7b91209e9" y="122.346163"/>
     <use style="fill:#ffa500;stroke:#ffa500;" x="123.33913" xlink:href="#mc7b91209e9" y="152.576113"/>
     <use style="fill:#ffa500;stroke:#ffa500;" x="123.33913" xlink:href="#mc7b91209e9" y="151.025415"/>
     <use style="fill:#ffa500;stroke:#ffa500;" x="123.33913" xlink:href="#mc7b91209e9" y="72.48604"/>
     <use style="fill:#ffa500;stroke:#ffa500;" x="123.33913" xlink:href="#mc7b91209e9" y="166.859694"/>
     <use style="fill:#ffa500;stroke:#ffa500;" x="123.33913" xlink:href="#mc7b91209e9" y="181.877104"/>
     <use style="fill:#ffa500;stroke:#ffa500;" x="123.33913" xlink:href="#mc7b91209e9" y="143.839897"/>
     <use style="fill:#ffa500;stroke:#ffa500;" x="123.33913" xlink:href="#mc7b91209e9" y="148.89709"/>
     <use style="fill:#ffa500;stroke:#ffa500;" x="123.33913" xlink:href="#mc7b91209e9" y="134.590604"/>
     <use style="fill:#ffa500;stroke:#ffa500;" x="123.33913" xlink:href="#mc7b91209e9" y="163.767534"/>
     <use style="fill:#ffa500;stroke:#ffa500;" x="123.33913" xlink:href="#mc7b91209e9" y="93.597134"/>
     <use style="fill:#ffa500;stroke:#ffa500;" x="123.33913" xlink:href="#mc7b91209e9" y="105.831493"/>
    </g>
   </g>
   <g id="PathCollection_4">
    <g clip-path="url(#pee034f5cc0)">
     <use style="fill:#ffa500;stroke:#ffa500;" x="220.382609" xlink:href="#mc7b91209e9" y="166.864946"/>
     <use style="fill:#ffa500;stroke:#ffa500;" x="220.382609" xlink:href="#mc7b91209e9" y="144.58707"/>
     <use style="fill:#ffa500;stroke:#ffa500;" x="220.382609" xlink:href="#mc7b91209e9" y="215.46"/>
     <use style="fill:#ffa500;stroke:#ffa500;" x="220.382609" xlink:href="#mc7b91209e9" y="130.367842"/>
     <use style="fill:#ffa500;stroke:#ffa500;" x="220.382609" xlink:href="#mc7b91209e9" y="142.38038"/>
     <use style="fill:#ffa500;stroke:#ffa500;" x="220.382609" xlink:href="#mc7b91209e9" y="190.584549"/>
     <use style="fill:#ffa500;stroke:#ffa500;" x="220.382609" xlink:href="#mc7b91209e9" y="124.113424"/>
     <use style="fill:#ffa500;stroke:#ffa500;" x="220.382609" xlink:href="#mc7b91209e9" y="161.916047"/>
     <use style="fill:#ffa500;stroke:#ffa500;" x="220.382609" xlink:href="#mc7b91209e9" y="137.164868"/>
     <use style="fill:#ffa500;stroke:#ffa500;" x="220.382609" xlink:href="#mc7b91209e9" y="182.554958"/>
     <use style="fill:#ffa500;stroke:#ffa500;" x="220.382609" xlink:href="#mc7b91209e9" y="208.02216"/>
     <use style="fill:#ffa500;stroke:#ffa500;" x="220.382609" xlink:href="#mc7b91209e9" y="112.763395"/>
    </g>
   </g>
  </g>
 </g>
 <defs>
  <clipPath id="pee034f5cc0">
   <rect height="194.04" width="223.2" x="36" y="30.24"/>
  </clipPath>
 </defs>
</svg>
