<?xml version="1.0" encoding="utf-8" standalone="no"?>
<!DOCTYPE svg PUBLIC "-//W3C//DTD SVG 1.1//EN"
  "http://www.w3.org/Graphics/SVG/1.1/DTD/svg11.dtd">
<!-- Created with matplotlib (https://matplotlib.org/) -->
<svg height="345.6pt" version="1.1" viewBox="0 0 460.8 345.6" width="460.8pt" xmlns="http://www.w3.org/2000/svg" xmlns:xlink="http://www.w3.org/1999/xlink">
 <metadata>
  <rdf:RDF xmlns:cc="http://creativecommons.org/ns#" xmlns:dc="http://purl.org/dc/elements/1.1/" xmlns:rdf="http://www.w3.org/1999/02/22-rdf-syntax-ns#">
   <cc:Work>
    <dc:type rdf:resource="http://purl.org/dc/dcmitype/StillImage"/>
    <dc:date>2024-06-04T17:28:49.531150</dc:date>
    <dc:format>image/svg+xml</dc:format>
    <dc:creator>
     <cc:Agent>
      <dc:title>Matplotlib v3.3.4, https://matplotlib.org/</dc:title>
     </cc:Agent>
    </dc:creator>
   </cc:Work>
  </rdf:RDF>
 </metadata>
 <defs>
  <style type="text/css">*{stroke-linecap:butt;stroke-linejoin:round;}</style>
 </defs>
 <g id="figure_1">
  <g id="patch_1">
   <path d="M 0 345.6 
L 460.8 345.6 
L 460.8 0 
L 0 0 
z
" style="fill:#ffffff;"/>
  </g>
  <g id="axes_1">
   <g id="patch_2">
    <path d="M 57.6 307.584 
L 414.72 307.584 
L 414.72 41.472 
L 57.6 41.472 
z
" style="fill:#ffffff;"/>
   </g>
   <g id="PathCollection_1">
    <defs>
     <path d="M 0 3 
C 0.795609 3 1.55874 2.683901 2.12132 2.12132 
C 2.683901 1.55874 3 0.795609 3 0 
C 3 -0.795609 2.683901 -1.55874 2.12132 -2.12132 
C 1.55874 -2.683901 0.795609 -3 0 -3 
C -0.795609 -3 -1.55874 -2.683901 -2.12132 -2.12132 
C -2.683901 -1.55874 -3 -0.795609 -3 0 
C -3 0.795609 -2.683901 1.55874 -2.12132 2.12132 
C -1.55874 2.683901 -0.795609 3 0 3 
z
" id="mb56e19aa34"/>
    </defs>
    <g clip-path="url(#p91dc9dce2f)">
     <use style="fill-opacity:0.5;" x="238.320078" xlink:href="#mb56e19aa34" y="47.257043"/>
     <use style="fill-opacity:0.5;" x="215.814053" xlink:href="#mb56e19aa34" y="110.892522"/>
     <use style="fill-opacity:0.5;" x="219.81751" xlink:href="#mb56e19aa34" y="261.303652"/>
     <use style="fill-opacity:0.5;" x="237.617809" xlink:href="#mb56e19aa34" y="249.733565"/>
     <use style="fill-opacity:0.5;" x="266.995584" xlink:href="#mb56e19aa34" y="180.313043"/>
     <use style="fill-opacity:0.5;" x="240.075872" xlink:href="#mb56e19aa34" y="226.593391"/>
     <use style="fill-opacity:0.5;" x="208.659915" xlink:href="#mb56e19aa34" y="249.733565"/>
     <use style="fill-opacity:0.5;" x="249.93774" xlink:href="#mb56e19aa34" y="145.602783"/>
     <use style="fill-opacity:0.5;" x="218.782563" xlink:href="#mb56e19aa34" y="168.742957"/>
     <use style="fill-opacity:0.5;" x="244.224356" xlink:href="#mb56e19aa34" y="168.742957"/>
     <use style="fill-opacity:0.5;" x="223.59315" xlink:href="#mb56e19aa34" y="134.032696"/>
     <use style="fill-opacity:0.5;" x="239.459946" xlink:href="#mb56e19aa34" y="238.163478"/>
     <use style="fill-opacity:0.5;" x="254.005749" xlink:href="#mb56e19aa34" y="191.88313"/>
     <use style="fill-opacity:0.5;" x="231.002162" xlink:href="#mb56e19aa34" y="203.453217"/>
     <use style="fill-opacity:0.5;" x="192.838068" xlink:href="#mb56e19aa34" y="180.313043"/>
     <use style="fill-opacity:0.5;" x="236.587184" xlink:href="#mb56e19aa34" y="226.593391"/>
     <use style="fill-opacity:0.5;" x="279.884704" xlink:href="#mb56e19aa34" y="203.453217"/>
     <use style="fill-opacity:0.5;" x="264.589685" xlink:href="#mb56e19aa34" y="157.17287"/>
     <use style="fill-opacity:0.5;" x="289.938765" xlink:href="#mb56e19aa34" y="272.873739"/>
     <use style="fill-opacity:0.5;" x="209.594761" xlink:href="#mb56e19aa34" y="261.303652"/>
     <use style="fill-opacity:0.5;" x="186.53372" xlink:href="#mb56e19aa34" y="134.032696"/>
     <use style="fill-opacity:0.5;" x="243.448684" xlink:href="#mb56e19aa34" y="122.462609"/>
     <use style="fill-opacity:0.5;" x="280.324188" xlink:href="#mb56e19aa34" y="191.88313"/>
     <use style="fill-opacity:0.5;" x="261.175176" xlink:href="#mb56e19aa34" y="203.453217"/>
     <use style="fill-opacity:0.5;" x="252.639774" xlink:href="#mb56e19aa34" y="145.602783"/>
     <use style="fill-opacity:0.5;" x="247.261158" xlink:href="#mb56e19aa34" y="110.892522"/>
     <use style="fill-opacity:0.5;" x="281.924518" xlink:href="#mb56e19aa34" y="261.303652"/>
     <use style="fill-opacity:0.5;" x="258.672707" xlink:href="#mb56e19aa34" y="203.453217"/>
     <use style="fill-opacity:0.5;" x="244.805825" xlink:href="#mb56e19aa34" y="157.17287"/>
     <use style="fill-opacity:0.5;" x="251.57599" xlink:href="#mb56e19aa34" y="272.873739"/>
     <use style="fill-opacity:0.5;" x="274.361207" xlink:href="#mb56e19aa34" y="215.023304"/>
     <use style="fill-opacity:0.5;" x="224.207322" xlink:href="#mb56e19aa34" y="215.023304"/>
     <use style="fill-opacity:0.5;" x="254.127967" xlink:href="#mb56e19aa34" y="272.873739"/>
     <use style="fill-opacity:0.5;" x="239.796678" xlink:href="#mb56e19aa34" y="226.593391"/>
     <use style="fill-opacity:0.5;" x="255.718556" xlink:href="#mb56e19aa34" y="238.163478"/>
     <use style="fill-opacity:0.5;" x="287.783689" xlink:href="#mb56e19aa34" y="238.163478"/>
     <use style="fill-opacity:0.5;" x="229.041381" xlink:href="#mb56e19aa34" y="203.453217"/>
     <use style="fill-opacity:0.5;" x="216.800919" xlink:href="#mb56e19aa34" y="134.032696"/>
     <use style="fill-opacity:0.5;" x="258.918331" xlink:href="#mb56e19aa34" y="110.892522"/>
     <use style="fill-opacity:0.5;" x="251.288126" xlink:href="#mb56e19aa34" y="226.593391"/>
    </g>
   </g>
   <g id="PathCollection_2">
    <g clip-path="url(#p91dc9dce2f)">
     <use style="fill-opacity:0.5;" x="118.194993" xlink:href="#mb56e19aa34" y="47.257043"/>
     <use style="fill-opacity:0.5;" x="107.03455" xlink:href="#mb56e19aa34" y="110.892522"/>
     <use style="fill-opacity:0.5;" x="152.294161" xlink:href="#mb56e19aa34" y="261.303652"/>
     <use style="fill-opacity:0.5;" x="112.395924" xlink:href="#mb56e19aa34" y="249.733565"/>
     <use style="fill-opacity:0.5;" x="114.338936" xlink:href="#mb56e19aa34" y="180.313043"/>
     <use style="fill-opacity:0.5;" x="123.594027" xlink:href="#mb56e19aa34" y="226.593391"/>
     <use style="fill-opacity:0.5;" x="145.097667" xlink:href="#mb56e19aa34" y="249.733565"/>
     <use style="fill-opacity:0.5;" x="107.942727" xlink:href="#mb56e19aa34" y="145.602783"/>
     <use style="fill-opacity:0.5;" x="126.717843" xlink:href="#mb56e19aa34" y="168.742957"/>
     <use style="fill-opacity:0.5;" x="164.491697" xlink:href="#mb56e19aa34" y="168.742957"/>
     <use style="fill-opacity:0.5;" x="145.86911" xlink:href="#mb56e19aa34" y="134.032696"/>
     <use style="fill-opacity:0.5;" x="214.438402" xlink:href="#mb56e19aa34" y="238.163478"/>
     <use style="fill-opacity:0.5;" x="108.905582" xlink:href="#mb56e19aa34" y="191.88313"/>
     <use style="fill-opacity:0.5;" x="116.761517" xlink:href="#mb56e19aa34" y="203.453217"/>
     <use style="fill-opacity:0.5;" x="111.532103" xlink:href="#mb56e19aa34" y="180.313043"/>
     <use style="fill-opacity:0.5;" x="122.968254" xlink:href="#mb56e19aa34" y="226.593391"/>
     <use style="fill-opacity:0.5;" x="134.968377" xlink:href="#mb56e19aa34" y="203.453217"/>
     <use style="fill-opacity:0.5;" x="108.587573" xlink:href="#mb56e19aa34" y="157.17287"/>
     <use style="fill-opacity:0.5;" x="139.873422" xlink:href="#mb56e19aa34" y="272.873739"/>
     <use style="fill-opacity:0.5;" x="169.646029" xlink:href="#mb56e19aa34" y="261.303652"/>
     <use style="fill-opacity:0.5;" x="138.936477" xlink:href="#mb56e19aa34" y="134.032696"/>
     <use style="fill-opacity:0.5;" x="138.255102" xlink:href="#mb56e19aa34" y="122.462609"/>
     <use style="fill-opacity:0.5;" x="160.997653" xlink:href="#mb56e19aa34" y="191.88313"/>
     <use style="fill-opacity:0.5;" x="119.321518" xlink:href="#mb56e19aa34" y="203.453217"/>
     <use style="fill-opacity:0.5;" x="176.583377" xlink:href="#mb56e19aa34" y="145.602783"/>
     <use style="fill-opacity:0.5;" x="94.453393" xlink:href="#mb56e19aa34" y="110.892522"/>
     <use style="fill-opacity:0.5;" x="159.93115" xlink:href="#mb56e19aa34" y="261.303652"/>
     <use style="fill-opacity:0.5;" x="147.896246" xlink:href="#mb56e19aa34" y="203.453217"/>
     <use style="fill-opacity:0.5;" x="125.873439" xlink:href="#mb56e19aa34" y="157.17287"/>
     <use style="fill-opacity:0.5;" x="171.36191" xlink:href="#mb56e19aa34" y="272.873739"/>
     <use style="fill-opacity:0.5;" x="141.504352" xlink:href="#mb56e19aa34" y="215.023304"/>
     <use style="fill-opacity:0.5;" x="154.76999" xlink:href="#mb56e19aa34" y="215.023304"/>
     <use style="fill-opacity:0.5;" x="185.32404" xlink:href="#mb56e19aa34" y="272.873739"/>
     <use style="fill-opacity:0.5;" x="148.308511" xlink:href="#mb56e19aa34" y="226.593391"/>
     <use style="fill-opacity:0.5;" x="129.110356" xlink:href="#mb56e19aa34" y="238.163478"/>
     <use style="fill-opacity:0.5;" x="166.145421" xlink:href="#mb56e19aa34" y="238.163478"/>
     <use style="fill-opacity:0.5;" x="171.634829" xlink:href="#mb56e19aa34" y="203.453217"/>
     <use style="fill-opacity:0.5;" x="189.730124" xlink:href="#mb56e19aa34" y="134.032696"/>
     <use style="fill-opacity:0.5;" x="156.718018" xlink:href="#mb56e19aa34" y="110.892522"/>
     <use style="fill-opacity:0.5;" x="150.299334" xlink:href="#mb56e19aa34" y="226.593391"/>
    </g>
   </g>
   <g id="PathCollection_3">
    <g clip-path="url(#p91dc9dce2f)">
     <use style="fill-opacity:0.5;" x="91.848607" xlink:href="#mb56e19aa34" y="47.257043"/>
     <use style="fill-opacity:0.5;" x="107.915788" xlink:href="#mb56e19aa34" y="110.892522"/>
     <use style="fill-opacity:0.5;" x="151.489063" xlink:href="#mb56e19aa34" y="261.303652"/>
     <use style="fill-opacity:0.5;" x="138.875292" xlink:href="#mb56e19aa34" y="249.733565"/>
     <use style="fill-opacity:0.5;" x="92.707377" xlink:href="#mb56e19aa34" y="180.313043"/>
     <use style="fill-opacity:0.5;" x="111.409532" xlink:href="#mb56e19aa34" y="226.593391"/>
     <use style="fill-opacity:0.5;" x="123.64039" xlink:href="#mb56e19aa34" y="249.733565"/>
     <use style="fill-opacity:0.5;" x="74.300565" xlink:href="#mb56e19aa34" y="145.602783"/>
     <use style="fill-opacity:0.5;" x="115.5967" xlink:href="#mb56e19aa34" y="168.742957"/>
     <use style="fill-opacity:0.5;" x="117.141276" xlink:href="#mb56e19aa34" y="168.742957"/>
     <use style="fill-opacity:0.5;" x="143.150872" xlink:href="#mb56e19aa34" y="134.032696"/>
     <use style="fill-opacity:0.5;" x="82.928899" xlink:href="#mb56e19aa34" y="238.163478"/>
     <use style="fill-opacity:0.5;" x="82.348553" xlink:href="#mb56e19aa34" y="191.88313"/>
     <use style="fill-opacity:0.5;" x="106.205381" xlink:href="#mb56e19aa34" y="203.453217"/>
     <use style="fill-opacity:0.5;" x="95.540689" xlink:href="#mb56e19aa34" y="180.313043"/>
     <use style="fill-opacity:0.5;" x="151.621998" xlink:href="#mb56e19aa34" y="226.593391"/>
     <use style="fill-opacity:0.5;" x="83.878067" xlink:href="#mb56e19aa34" y="203.453217"/>
     <use style="fill-opacity:0.5;" x="155.831239" xlink:href="#mb56e19aa34" y="157.17287"/>
     <use style="fill-opacity:0.5;" x="143.380504" xlink:href="#mb56e19aa34" y="272.873739"/>
     <use style="fill-opacity:0.5;" x="176.598418" xlink:href="#mb56e19aa34" y="261.303652"/>
     <use style="fill-opacity:0.5;" x="73.832727" xlink:href="#mb56e19aa34" y="134.032696"/>
     <use style="fill-opacity:0.5;" x="106.349734" xlink:href="#mb56e19aa34" y="122.462609"/>
     <use style="fill-opacity:0.5;" x="135.185903" xlink:href="#mb56e19aa34" y="191.88313"/>
     <use style="fill-opacity:0.5;" x="165.962336" xlink:href="#mb56e19aa34" y="203.453217"/>
     <use style="fill-opacity:0.5;" x="117.046638" xlink:href="#mb56e19aa34" y="145.602783"/>
     <use style="fill-opacity:0.5;" x="143.91857" xlink:href="#mb56e19aa34" y="110.892522"/>
     <use style="fill-opacity:0.5;" x="155.053144" xlink:href="#mb56e19aa34" y="261.303652"/>
     <use style="fill-opacity:0.5;" x="146.239972" xlink:href="#mb56e19aa34" y="203.453217"/>
     <use style="fill-opacity:0.5;" x="112.969337" xlink:href="#mb56e19aa34" y="157.17287"/>
     <use style="fill-opacity:0.5;" x="131.145257" xlink:href="#mb56e19aa34" y="272.873739"/>
     <use style="fill-opacity:0.5;" x="150.783461" xlink:href="#mb56e19aa34" y="215.023304"/>
     <use style="fill-opacity:0.5;" x="146.365035" xlink:href="#mb56e19aa34" y="215.023304"/>
     <use style="fill-opacity:0.5;" x="125.949946" xlink:href="#mb56e19aa34" y="272.873739"/>
     <use style="fill-opacity:0.5;" x="133.085173" xlink:href="#mb56e19aa34" y="226.593391"/>
     <use style="fill-opacity:0.5;" x="189.109259" xlink:href="#mb56e19aa34" y="238.163478"/>
     <use style="fill-opacity:0.5;" x="184.29868" xlink:href="#mb56e19aa34" y="238.163478"/>
     <use style="fill-opacity:0.5;" x="122.318967" xlink:href="#mb56e19aa34" y="203.453217"/>
     <use style="fill-opacity:0.5;" x="142.620477" xlink:href="#mb56e19aa34" y="134.032696"/>
     <use style="fill-opacity:0.5;" x="136.737308" xlink:href="#mb56e19aa34" y="110.892522"/>
     <use style="fill-opacity:0.5;" x="150.440085" xlink:href="#mb56e19aa34" y="226.593391"/>
    </g>
   </g>
   <g id="PathCollection_4">
    <g clip-path="url(#p91dc9dce2f)">
     <use style="fill-opacity:0.5;" x="90.083476" xlink:href="#mb56e19aa34" y="47.257043"/>
     <use style="fill-opacity:0.5;" x="123.872537" xlink:href="#mb56e19aa34" y="110.892522"/>
     <use style="fill-opacity:0.5;" x="113.32265" xlink:href="#mb56e19aa34" y="261.303652"/>
     <use style="fill-opacity:0.5;" x="115.466277" xlink:href="#mb56e19aa34" y="249.733565"/>
     <use style="fill-opacity:0.5;" x="115.254477" xlink:href="#mb56e19aa34" y="180.313043"/>
     <use style="fill-opacity:0.5;" x="126.528412" xlink:href="#mb56e19aa34" y="226.593391"/>
     <use style="fill-opacity:0.5;" x="107.767401" xlink:href="#mb56e19aa34" y="249.733565"/>
     <use style="fill-opacity:0.5;" x="120.776846" xlink:href="#mb56e19aa34" y="145.602783"/>
     <use style="fill-opacity:0.5;" x="138.377723" xlink:href="#mb56e19aa34" y="168.742957"/>
     <use style="fill-opacity:0.5;" x="145.766078" xlink:href="#mb56e19aa34" y="168.742957"/>
     <use style="fill-opacity:0.5;" x="154.77261" xlink:href="#mb56e19aa34" y="134.032696"/>
     <use style="fill-opacity:0.5;" x="154.480197" xlink:href="#mb56e19aa34" y="238.163478"/>
     <use style="fill-opacity:0.5;" x="121.508771" xlink:href="#mb56e19aa34" y="191.88313"/>
     <use style="fill-opacity:0.5;" x="172.670184" xlink:href="#mb56e19aa34" y="203.453217"/>
     <use style="fill-opacity:0.5;" x="137.329476" xlink:href="#mb56e19aa34" y="180.313043"/>
     <use style="fill-opacity:0.5;" x="205.783713" xlink:href="#mb56e19aa34" y="226.593391"/>
     <use style="fill-opacity:0.5;" x="132.18768" xlink:href="#mb56e19aa34" y="203.453217"/>
     <use style="fill-opacity:0.5;" x="198.30664" xlink:href="#mb56e19aa34" y="157.17287"/>
     <use style="fill-opacity:0.5;" x="168.813195" xlink:href="#mb56e19aa34" y="272.873739"/>
     <use style="fill-opacity:0.5;" x="159.954398" xlink:href="#mb56e19aa34" y="261.303652"/>
     <use style="fill-opacity:0.5;" x="145.707275" xlink:href="#mb56e19aa34" y="134.032696"/>
     <use style="fill-opacity:0.5;" x="152.736503" xlink:href="#mb56e19aa34" y="122.462609"/>
     <use style="fill-opacity:0.5;" x="164.782201" xlink:href="#mb56e19aa34" y="191.88313"/>
     <use style="fill-opacity:0.5;" x="157.94399" xlink:href="#mb56e19aa34" y="203.453217"/>
     <use style="fill-opacity:0.5;" x="191.222558" xlink:href="#mb56e19aa34" y="145.602783"/>
     <use style="fill-opacity:0.5;" x="212.63067" xlink:href="#mb56e19aa34" y="110.892522"/>
     <use style="fill-opacity:0.5;" x="169.972627" xlink:href="#mb56e19aa34" y="261.303652"/>
     <use style="fill-opacity:0.5;" x="152.57074" xlink:href="#mb56e19aa34" y="203.453217"/>
     <use style="fill-opacity:0.5;" x="164.771115" xlink:href="#mb56e19aa34" y="157.17287"/>
     <use style="fill-opacity:0.5;" x="195.279466" xlink:href="#mb56e19aa34" y="272.873739"/>
     <use style="fill-opacity:0.5;" x="136.978848" xlink:href="#mb56e19aa34" y="215.023304"/>
     <use style="fill-opacity:0.5;" x="192.37406" xlink:href="#mb56e19aa34" y="215.023304"/>
     <use style="fill-opacity:0.5;" x="161.02036" xlink:href="#mb56e19aa34" y="272.873739"/>
     <use style="fill-opacity:0.5;" x="148.588488" xlink:href="#mb56e19aa34" y="226.593391"/>
     <use style="fill-opacity:0.5;" x="162.254467" xlink:href="#mb56e19aa34" y="238.163478"/>
     <use style="fill-opacity:0.5;" x="239.37619" xlink:href="#mb56e19aa34" y="238.163478"/>
     <use style="fill-opacity:0.5;" x="205.923395" xlink:href="#mb56e19aa34" y="203.453217"/>
     <use style="fill-opacity:0.5;" x="169.584385" xlink:href="#mb56e19aa34" y="134.032696"/>
     <use style="fill-opacity:0.5;" x="166.625235" xlink:href="#mb56e19aa34" y="110.892522"/>
     <use style="fill-opacity:0.5;" x="283.742917" xlink:href="#mb56e19aa34" y="226.593391"/>
    </g>
   </g>
   <g id="PathCollection_5">
    <g clip-path="url(#p91dc9dce2f)">
     <use style="fill-opacity:0.5;" x="138.080662" xlink:href="#mb56e19aa34" y="47.257043"/>
     <use style="fill-opacity:0.5;" x="213.759581" xlink:href="#mb56e19aa34" y="110.892522"/>
     <use style="fill-opacity:0.5;" x="168.566646" xlink:href="#mb56e19aa34" y="261.303652"/>
     <use style="fill-opacity:0.5;" x="259.683727" xlink:href="#mb56e19aa34" y="249.733565"/>
     <use style="fill-opacity:0.5;" x="113.950476" xlink:href="#mb56e19aa34" y="180.313043"/>
     <use style="fill-opacity:0.5;" x="166.480058" xlink:href="#mb56e19aa34" y="226.593391"/>
     <use style="fill-opacity:0.5;" x="202.438073" xlink:href="#mb56e19aa34" y="249.733565"/>
     <use style="fill-opacity:0.5;" x="174.810738" xlink:href="#mb56e19aa34" y="145.602783"/>
     <use style="fill-opacity:0.5;" x="192.443234" xlink:href="#mb56e19aa34" y="168.742957"/>
     <use style="fill-opacity:0.5;" x="199.305347" xlink:href="#mb56e19aa34" y="168.742957"/>
     <use style="fill-opacity:0.5;" x="204.994922" xlink:href="#mb56e19aa34" y="134.032696"/>
     <use style="fill-opacity:0.5;" x="189.11857" xlink:href="#mb56e19aa34" y="238.163478"/>
     <use style="fill-opacity:0.5;" x="185.054839" xlink:href="#mb56e19aa34" y="191.88313"/>
     <use style="fill-opacity:0.5;" x="198.553222" xlink:href="#mb56e19aa34" y="203.453217"/>
     <use style="fill-opacity:0.5;" x="193.111708" xlink:href="#mb56e19aa34" y="180.313043"/>
     <use style="fill-opacity:0.5;" x="180.404374" xlink:href="#mb56e19aa34" y="226.593391"/>
     <use style="fill-opacity:0.5;" x="228.204193" xlink:href="#mb56e19aa34" y="203.453217"/>
     <use style="fill-opacity:0.5;" x="206.084134" xlink:href="#mb56e19aa34" y="157.17287"/>
     <use style="fill-opacity:0.5;" x="203.235565" xlink:href="#mb56e19aa34" y="272.873739"/>
     <use style="fill-opacity:0.5;" x="224.364332" xlink:href="#mb56e19aa34" y="261.303652"/>
     <use style="fill-opacity:0.5;" x="199.633667" xlink:href="#mb56e19aa34" y="134.032696"/>
     <use style="fill-opacity:0.5;" x="191.850349" xlink:href="#mb56e19aa34" y="122.462609"/>
     <use style="fill-opacity:0.5;" x="192.592942" xlink:href="#mb56e19aa34" y="191.88313"/>
     <use style="fill-opacity:0.5;" x="256.782177" xlink:href="#mb56e19aa34" y="203.453217"/>
     <use style="fill-opacity:0.5;" x="91.648633" xlink:href="#mb56e19aa34" y="145.602783"/>
     <use style="fill-opacity:0.5;" x="213.398507" xlink:href="#mb56e19aa34" y="110.892522"/>
     <use style="fill-opacity:0.5;" x="201.916291" xlink:href="#mb56e19aa34" y="261.303652"/>
     <use style="fill-opacity:0.5;" x="205.444167" xlink:href="#mb56e19aa34" y="203.453217"/>
     <use style="fill-opacity:0.5;" x="237.410698" xlink:href="#mb56e19aa34" y="157.17287"/>
     <use style="fill-opacity:0.5;" x="224.951033" xlink:href="#mb56e19aa34" y="272.873739"/>
     <use style="fill-opacity:0.5;" x="211.180668" xlink:href="#mb56e19aa34" y="215.023304"/>
     <use style="fill-opacity:0.5;" x="216.636377" xlink:href="#mb56e19aa34" y="215.023304"/>
     <use style="fill-opacity:0.5;" x="174.610274" xlink:href="#mb56e19aa34" y="272.873739"/>
     <use style="fill-opacity:0.5;" x="270.275034" xlink:href="#mb56e19aa34" y="226.593391"/>
     <use style="fill-opacity:0.5;" x="232.718391" xlink:href="#mb56e19aa34" y="238.163478"/>
     <use style="fill-opacity:0.5;" x="226.641751" xlink:href="#mb56e19aa34" y="238.163478"/>
     <use style="fill-opacity:0.5;" x="204.952763" xlink:href="#mb56e19aa34" y="203.453217"/>
     <use style="fill-opacity:0.5;" x="231.516731" xlink:href="#mb56e19aa34" y="134.032696"/>
     <use style="fill-opacity:0.5;" x="215.808966" xlink:href="#mb56e19aa34" y="110.892522"/>
     <use style="fill-opacity:0.5;" x="222.690728" xlink:href="#mb56e19aa34" y="226.593391"/>
    </g>
   </g>
   <g id="PathCollection_6">
    <g clip-path="url(#p91dc9dce2f)">
     <use style="fill-opacity:0.5;" x="207.743997" xlink:href="#mb56e19aa34" y="47.257043"/>
     <use style="fill-opacity:0.5;" x="279.074048" xlink:href="#mb56e19aa34" y="110.892522"/>
     <use style="fill-opacity:0.5;" x="236.80568" xlink:href="#mb56e19aa34" y="261.303652"/>
     <use style="fill-opacity:0.5;" x="137.142584" xlink:href="#mb56e19aa34" y="249.733565"/>
     <use style="fill-opacity:0.5;" x="265.089792" xlink:href="#mb56e19aa34" y="180.313043"/>
     <use style="fill-opacity:0.5;" x="277.850845" xlink:href="#mb56e19aa34" y="226.593391"/>
     <use style="fill-opacity:0.5;" x="250.119793" xlink:href="#mb56e19aa34" y="249.733565"/>
     <use style="fill-opacity:0.5;" x="286.732623" xlink:href="#mb56e19aa34" y="145.602783"/>
     <use style="fill-opacity:0.5;" x="269.594882" xlink:href="#mb56e19aa34" y="168.742957"/>
     <use style="fill-opacity:0.5;" x="261.530264" xlink:href="#mb56e19aa34" y="168.742957"/>
     <use style="fill-opacity:0.5;" x="219.93647" xlink:href="#mb56e19aa34" y="134.032696"/>
     <use style="fill-opacity:0.5;" x="212.858844" xlink:href="#mb56e19aa34" y="238.163478"/>
     <use style="fill-opacity:0.5;" x="219.447689" xlink:href="#mb56e19aa34" y="191.88313"/>
     <use style="fill-opacity:0.5;" x="233.556079" xlink:href="#mb56e19aa34" y="203.453217"/>
     <use style="fill-opacity:0.5;" x="200.456934" xlink:href="#mb56e19aa34" y="180.313043"/>
     <use style="fill-opacity:0.5;" x="255.969885" xlink:href="#mb56e19aa34" y="226.593391"/>
     <use style="fill-opacity:0.5;" x="238.258317" xlink:href="#mb56e19aa34" y="203.453217"/>
     <use style="fill-opacity:0.5;" x="207.93922" xlink:href="#mb56e19aa34" y="157.17287"/>
     <use style="fill-opacity:0.5;" x="255.918822" xlink:href="#mb56e19aa34" y="272.873739"/>
     <use style="fill-opacity:0.5;" x="246.430693" xlink:href="#mb56e19aa34" y="261.303652"/>
     <use style="fill-opacity:0.5;" x="156.715098" xlink:href="#mb56e19aa34" y="134.032696"/>
     <use style="fill-opacity:0.5;" x="233.009135" xlink:href="#mb56e19aa34" y="122.462609"/>
     <use style="fill-opacity:0.5;" x="246.724961" xlink:href="#mb56e19aa34" y="191.88313"/>
     <use style="fill-opacity:0.5;" x="272.009988" xlink:href="#mb56e19aa34" y="203.453217"/>
     <use style="fill-opacity:0.5;" x="166.831762" xlink:href="#mb56e19aa34" y="145.602783"/>
     <use style="fill-opacity:0.5;" x="304.906678" xlink:href="#mb56e19aa34" y="110.892522"/>
     <use style="fill-opacity:0.5;" x="168.17977" xlink:href="#mb56e19aa34" y="261.303652"/>
     <use style="fill-opacity:0.5;" x="251.648185" xlink:href="#mb56e19aa34" y="203.453217"/>
     <use style="fill-opacity:0.5;" x="245.894811" xlink:href="#mb56e19aa34" y="157.17287"/>
     <use style="fill-opacity:0.5;" x="398.487273" xlink:href="#mb56e19aa34" y="272.873739"/>
     <use style="fill-opacity:0.5;" x="226.435798" xlink:href="#mb56e19aa34" y="215.023304"/>
     <use style="fill-opacity:0.5;" x="319.465734" xlink:href="#mb56e19aa34" y="215.023304"/>
     <use style="fill-opacity:0.5;" x="214.551233" xlink:href="#mb56e19aa34" y="272.873739"/>
     <use style="fill-opacity:0.5;" x="191.775145" xlink:href="#mb56e19aa34" y="226.593391"/>
     <use style="fill-opacity:0.5;" x="212.54257" xlink:href="#mb56e19aa34" y="238.163478"/>
     <use style="fill-opacity:0.5;" x="246.350854" xlink:href="#mb56e19aa34" y="238.163478"/>
     <use style="fill-opacity:0.5;" x="345.148691" xlink:href="#mb56e19aa34" y="203.453217"/>
     <use style="fill-opacity:0.5;" x="194.013114" xlink:href="#mb56e19aa34" y="134.032696"/>
     <use style="fill-opacity:0.5;" x="193.869007" xlink:href="#mb56e19aa34" y="110.892522"/>
     <use style="fill-opacity:0.5;" x="262.728943" xlink:href="#mb56e19aa34" y="226.593391"/>
    </g>
   </g>
   <g id="PathCollection_7">
    <g clip-path="url(#p91dc9dce2f)">
     <use style="fill-opacity:0.5;" x="190.727347" xlink:href="#mb56e19aa34" y="47.257043"/>
     <use style="fill-opacity:0.5;" x="193.16702" xlink:href="#mb56e19aa34" y="110.892522"/>
     <use style="fill-opacity:0.5;" x="182.319853" xlink:href="#mb56e19aa34" y="261.303652"/>
     <use style="fill-opacity:0.5;" x="173.088747" xlink:href="#mb56e19aa34" y="249.733565"/>
     <use style="fill-opacity:0.5;" x="167.105562" xlink:href="#mb56e19aa34" y="180.313043"/>
     <use style="fill-opacity:0.5;" x="199.644591" xlink:href="#mb56e19aa34" y="226.593391"/>
     <use style="fill-opacity:0.5;" x="216.875566" xlink:href="#mb56e19aa34" y="249.733565"/>
     <use style="fill-opacity:0.5;" x="202.082217" xlink:href="#mb56e19aa34" y="145.602783"/>
     <use style="fill-opacity:0.5;" x="143.860695" xlink:href="#mb56e19aa34" y="168.742957"/>
     <use style="fill-opacity:0.5;" x="173.485092" xlink:href="#mb56e19aa34" y="168.742957"/>
     <use style="fill-opacity:0.5;" x="131.66697" xlink:href="#mb56e19aa34" y="134.032696"/>
     <use style="fill-opacity:0.5;" x="206.6184" xlink:href="#mb56e19aa34" y="238.163478"/>
     <use style="fill-opacity:0.5;" x="205.17687" xlink:href="#mb56e19aa34" y="191.88313"/>
     <use style="fill-opacity:0.5;" x="169.218963" xlink:href="#mb56e19aa34" y="203.453217"/>
     <use style="fill-opacity:0.5;" x="128.038943" xlink:href="#mb56e19aa34" y="180.313043"/>
     <use style="fill-opacity:0.5;" x="166.3697" xlink:href="#mb56e19aa34" y="226.593391"/>
     <use style="fill-opacity:0.5;" x="220.919312" xlink:href="#mb56e19aa34" y="203.453217"/>
     <use style="fill-opacity:0.5;" x="187.464211" xlink:href="#mb56e19aa34" y="157.17287"/>
     <use style="fill-opacity:0.5;" x="172.692783" xlink:href="#mb56e19aa34" y="272.873739"/>
     <use style="fill-opacity:0.5;" x="147.737393" xlink:href="#mb56e19aa34" y="261.303652"/>
     <use style="fill-opacity:0.5;" x="188.165682" xlink:href="#mb56e19aa34" y="134.032696"/>
     <use style="fill-opacity:0.5;" x="186.375215" xlink:href="#mb56e19aa34" y="122.462609"/>
     <use style="fill-opacity:0.5;" x="144.278511" xlink:href="#mb56e19aa34" y="191.88313"/>
     <use style="fill-opacity:0.5;" x="151.514565" xlink:href="#mb56e19aa34" y="203.453217"/>
     <use style="fill-opacity:0.5;" x="163.344377" xlink:href="#mb56e19aa34" y="145.602783"/>
     <use style="fill-opacity:0.5;" x="173.703316" xlink:href="#mb56e19aa34" y="110.892522"/>
     <use style="fill-opacity:0.5;" x="168.284333" xlink:href="#mb56e19aa34" y="261.303652"/>
     <use style="fill-opacity:0.5;" x="207.278822" xlink:href="#mb56e19aa34" y="203.453217"/>
     <use style="fill-opacity:0.5;" x="169.273356" xlink:href="#mb56e19aa34" y="157.17287"/>
     <use style="fill-opacity:0.5;" x="182.930504" xlink:href="#mb56e19aa34" y="272.873739"/>
     <use style="fill-opacity:0.5;" x="181.526608" xlink:href="#mb56e19aa34" y="215.023304"/>
     <use style="fill-opacity:0.5;" x="147.387205" xlink:href="#mb56e19aa34" y="215.023304"/>
     <use style="fill-opacity:0.5;" x="209.280643" xlink:href="#mb56e19aa34" y="272.873739"/>
     <use style="fill-opacity:0.5;" x="223.40111" xlink:href="#mb56e19aa34" y="226.593391"/>
     <use style="fill-opacity:0.5;" x="224.620893" xlink:href="#mb56e19aa34" y="238.163478"/>
     <use style="fill-opacity:0.5;" x="323.368161" xlink:href="#mb56e19aa34" y="238.163478"/>
     <use style="fill-opacity:0.5;" x="211.22897" xlink:href="#mb56e19aa34" y="203.453217"/>
     <use style="fill-opacity:0.5;" x="128.859513" xlink:href="#mb56e19aa34" y="134.032696"/>
     <use style="fill-opacity:0.5;" x="133.279686" xlink:href="#mb56e19aa34" y="110.892522"/>
     <use style="fill-opacity:0.5;" x="126.389699" xlink:href="#mb56e19aa34" y="226.593391"/>
    </g>
   </g>
   <g id="PathCollection_8">
    <g clip-path="url(#p91dc9dce2f)">
     <use style="fill-opacity:0.5;" x="152.066643" xlink:href="#mb56e19aa34" y="47.257043"/>
     <use style="fill-opacity:0.5;" x="88.940424" xlink:href="#mb56e19aa34" y="110.892522"/>
     <use style="fill-opacity:0.5;" x="132.406332" xlink:href="#mb56e19aa34" y="261.303652"/>
     <use style="fill-opacity:0.5;" x="125.943881" xlink:href="#mb56e19aa34" y="249.733565"/>
     <use style="fill-opacity:0.5;" x="202.928274" xlink:href="#mb56e19aa34" y="180.313043"/>
     <use style="fill-opacity:0.5;" x="184.416589" xlink:href="#mb56e19aa34" y="226.593391"/>
     <use style="fill-opacity:0.5;" x="177.026018" xlink:href="#mb56e19aa34" y="249.733565"/>
     <use style="fill-opacity:0.5;" x="136.014985" xlink:href="#mb56e19aa34" y="145.602783"/>
     <use style="fill-opacity:0.5;" x="94.577334" xlink:href="#mb56e19aa34" y="168.742957"/>
     <use style="fill-opacity:0.5;" x="197.577197" xlink:href="#mb56e19aa34" y="168.742957"/>
     <use style="fill-opacity:0.5;" x="171.244011" xlink:href="#mb56e19aa34" y="134.032696"/>
     <use style="fill-opacity:0.5;" x="174.603559" xlink:href="#mb56e19aa34" y="238.163478"/>
     <use style="fill-opacity:0.5;" x="95.305912" xlink:href="#mb56e19aa34" y="191.88313"/>
     <use style="fill-opacity:0.5;" x="96.406512" xlink:href="#mb56e19aa34" y="203.453217"/>
     <use style="fill-opacity:0.5;" x="170.673366" xlink:href="#mb56e19aa34" y="180.313043"/>
     <use style="fill-opacity:0.5;" x="174.081576" xlink:href="#mb56e19aa34" y="226.593391"/>
     <use style="fill-opacity:0.5;" x="176.627615" xlink:href="#mb56e19aa34" y="203.453217"/>
     <use style="fill-opacity:0.5;" x="205.02959" xlink:href="#mb56e19aa34" y="157.17287"/>
     <use style="fill-opacity:0.5;" x="202.90304" xlink:href="#mb56e19aa34" y="272.873739"/>
     <use style="fill-opacity:0.5;" x="235.70581" xlink:href="#mb56e19aa34" y="261.303652"/>
     <use style="fill-opacity:0.5;" x="192.357129" xlink:href="#mb56e19aa34" y="134.032696"/>
     <use style="fill-opacity:0.5;" x="206.203782" xlink:href="#mb56e19aa34" y="122.462609"/>
     <use style="fill-opacity:0.5;" x="144.683483" xlink:href="#mb56e19aa34" y="191.88313"/>
     <use style="fill-opacity:0.5;" x="251.239393" xlink:href="#mb56e19aa34" y="203.453217"/>
     <use style="fill-opacity:0.5;" x="275.114916" xlink:href="#mb56e19aa34" y="145.602783"/>
     <use style="fill-opacity:0.5;" x="175.600294" xlink:href="#mb56e19aa34" y="110.892522"/>
     <use style="fill-opacity:0.5;" x="216.053487" xlink:href="#mb56e19aa34" y="261.303652"/>
     <use style="fill-opacity:0.5;" x="222.092149" xlink:href="#mb56e19aa34" y="203.453217"/>
     <use style="fill-opacity:0.5;" x="130.489734" xlink:href="#mb56e19aa34" y="157.17287"/>
     <use style="fill-opacity:0.5;" x="261.963603" xlink:href="#mb56e19aa34" y="272.873739"/>
     <use style="fill-opacity:0.5;" x="209.095682" xlink:href="#mb56e19aa34" y="215.023304"/>
     <use style="fill-opacity:0.5;" x="222.370511" xlink:href="#mb56e19aa34" y="215.023304"/>
     <use style="fill-opacity:0.5;" x="215.42763" xlink:href="#mb56e19aa34" y="272.873739"/>
     <use style="fill-opacity:0.5;" x="203.247761" xlink:href="#mb56e19aa34" y="226.593391"/>
     <use style="fill-opacity:0.5;" x="182.046042" xlink:href="#mb56e19aa34" y="238.163478"/>
     <use style="fill-opacity:0.5;" x="239.820118" xlink:href="#mb56e19aa34" y="238.163478"/>
     <use style="fill-opacity:0.5;" x="219.220729" xlink:href="#mb56e19aa34" y="203.453217"/>
     <use style="fill-opacity:0.5;" x="186.162103" xlink:href="#mb56e19aa34" y="134.032696"/>
     <use style="fill-opacity:0.5;" x="163.848502" xlink:href="#mb56e19aa34" y="110.892522"/>
     <use style="fill-opacity:0.5;" x="191.107534" xlink:href="#mb56e19aa34" y="226.593391"/>
    </g>
   </g>
   <g id="matplotlib.axis_1">
    <g id="xtick_1">
     <g id="line2d_1">
      <defs>
       <path d="M 0 0 
L 0 3.5 
" id="md5ad5acb6b" style="stroke:#000000;stroke-width:0.8;"/>
      </defs>
      <g>
       <use style="stroke:#000000;stroke-width:0.8;" x="79.338946" xlink:href="#md5ad5acb6b" y="307.584"/>
      </g>
     </g>
     <g id="text_1">
      <!-- -0.5 -->
      <g transform="translate(65.68129 325.221812)scale(0.14 -0.14)">
       <defs>
        <path d="M 4.890625 31.390625 
L 31.203125 31.390625 
L 31.203125 23.390625 
L 4.890625 23.390625 
z
" id="DejaVuSans-45"/>
        <path d="M 31.78125 66.40625 
Q 24.171875 66.40625 20.328125 58.90625 
Q 16.5 51.421875 16.5 36.375 
Q 16.5 21.390625 20.328125 13.890625 
Q 24.171875 6.390625 31.78125 6.390625 
Q 39.453125 6.390625 43.28125 13.890625 
Q 47.125 21.390625 47.125 36.375 
Q 47.125 51.421875 43.28125 58.90625 
Q 39.453125 66.40625 31.78125 66.40625 
z
M 31.78125 74.21875 
Q 44.046875 74.21875 50.515625 64.515625 
Q 56.984375 54.828125 56.984375 36.375 
Q 56.984375 17.96875 50.515625 8.265625 
Q 44.046875 -1.421875 31.78125 -1.421875 
Q 19.53125 -1.421875 13.0625 8.265625 
Q 6.59375 17.96875 6.59375 36.375 
Q 6.59375 54.828125 13.0625 64.515625 
Q 19.53125 74.21875 31.78125 74.21875 
z
" id="DejaVuSans-48"/>
        <path d="M 10.6875 12.40625 
L 21 12.40625 
L 21 0 
L 10.6875 0 
z
" id="DejaVuSans-46"/>
        <path d="M 10.796875 72.90625 
L 49.515625 72.90625 
L 49.515625 64.59375 
L 19.828125 64.59375 
L 19.828125 46.734375 
Q 21.96875 47.46875 24.109375 47.828125 
Q 26.265625 48.1875 28.421875 48.1875 
Q 40.625 48.1875 47.75 41.5 
Q 54.890625 34.8125 54.890625 23.390625 
Q 54.890625 11.625 47.5625 5.09375 
Q 40.234375 -1.421875 26.90625 -1.421875 
Q 22.3125 -1.421875 17.546875 -0.640625 
Q 12.796875 0.140625 7.71875 1.703125 
L 7.71875 11.625 
Q 12.109375 9.234375 16.796875 8.0625 
Q 21.484375 6.890625 26.703125 6.890625 
Q 35.15625 6.890625 40.078125 11.328125 
Q 45.015625 15.765625 45.015625 23.390625 
Q 45.015625 31 40.078125 35.4375 
Q 35.15625 39.890625 26.703125 39.890625 
Q 22.75 39.890625 18.8125 39.015625 
Q 14.890625 38.140625 10.796875 36.28125 
z
" id="DejaVuSans-53"/>
       </defs>
       <use xlink:href="#DejaVuSans-45"/>
       <use x="36.083984" xlink:href="#DejaVuSans-48"/>
       <use x="99.707031" xlink:href="#DejaVuSans-46"/>
       <use x="131.494141" xlink:href="#DejaVuSans-53"/>
      </g>
     </g>
    </g>
    <g id="xtick_2">
     <g id="line2d_2">
      <g>
       <use style="stroke:#000000;stroke-width:0.8;" x="163.61401" xlink:href="#md5ad5acb6b" y="307.584"/>
      </g>
     </g>
     <g id="text_2">
      <!-- -0.25 -->
      <g transform="translate(145.502604 325.221812)scale(0.14 -0.14)">
       <defs>
        <path d="M 19.1875 8.296875 
L 53.609375 8.296875 
L 53.609375 0 
L 7.328125 0 
L 7.328125 8.296875 
Q 12.9375 14.109375 22.625 23.890625 
Q 32.328125 33.6875 34.8125 36.53125 
Q 39.546875 41.84375 41.421875 45.53125 
Q 43.3125 49.21875 43.3125 52.78125 
Q 43.3125 58.59375 39.234375 62.25 
Q 35.15625 65.921875 28.609375 65.921875 
Q 23.96875 65.921875 18.8125 64.3125 
Q 13.671875 62.703125 7.8125 59.421875 
L 7.8125 69.390625 
Q 13.765625 71.78125 18.9375 73 
Q 24.125 74.21875 28.421875 74.21875 
Q 39.75 74.21875 46.484375 68.546875 
Q 53.21875 62.890625 53.21875 53.421875 
Q 53.21875 48.921875 51.53125 44.890625 
Q 49.859375 40.875 45.40625 35.40625 
Q 44.1875 33.984375 37.640625 27.21875 
Q 31.109375 20.453125 19.1875 8.296875 
z
" id="DejaVuSans-50"/>
       </defs>
       <use xlink:href="#DejaVuSans-45"/>
       <use x="36.083984" xlink:href="#DejaVuSans-48"/>
       <use x="99.707031" xlink:href="#DejaVuSans-46"/>
       <use x="131.494141" xlink:href="#DejaVuSans-50"/>
       <use x="195.117188" xlink:href="#DejaVuSans-53"/>
      </g>
     </g>
    </g>
    <g id="xtick_3">
     <g id="line2d_3">
      <g>
       <use style="stroke:#000000;stroke-width:0.8;" x="247.889074" xlink:href="#md5ad5acb6b" y="307.584"/>
      </g>
     </g>
     <g id="text_3">
      <!-- 0.0 -->
      <g transform="translate(236.756887 325.221812)scale(0.14 -0.14)">
       <use xlink:href="#DejaVuSans-48"/>
       <use x="63.623047" xlink:href="#DejaVuSans-46"/>
       <use x="95.410156" xlink:href="#DejaVuSans-48"/>
      </g>
     </g>
    </g>
    <g id="xtick_4">
     <g id="line2d_4">
      <g>
       <use style="stroke:#000000;stroke-width:0.8;" x="332.164138" xlink:href="#md5ad5acb6b" y="307.584"/>
      </g>
     </g>
     <g id="text_4">
      <!-- 0.25 -->
      <g transform="translate(316.578201 325.221812)scale(0.14 -0.14)">
       <use xlink:href="#DejaVuSans-48"/>
       <use x="63.623047" xlink:href="#DejaVuSans-46"/>
       <use x="95.410156" xlink:href="#DejaVuSans-50"/>
       <use x="159.033203" xlink:href="#DejaVuSans-53"/>
      </g>
     </g>
    </g>
    <g id="text_5">
     <!-- Mean change Z-scored F -->
     <g transform="translate(137.89375 344.290875)scale(0.16 -0.16)">
      <defs>
       <path d="M 9.8125 72.90625 
L 24.515625 72.90625 
L 43.109375 23.296875 
L 61.8125 72.90625 
L 76.515625 72.90625 
L 76.515625 0 
L 66.890625 0 
L 66.890625 64.015625 
L 48.09375 14.015625 
L 38.1875 14.015625 
L 19.390625 64.015625 
L 19.390625 0 
L 9.8125 0 
z
" id="DejaVuSans-77"/>
       <path d="M 56.203125 29.59375 
L 56.203125 25.203125 
L 14.890625 25.203125 
Q 15.484375 15.921875 20.484375 11.0625 
Q 25.484375 6.203125 34.421875 6.203125 
Q 39.59375 6.203125 44.453125 7.46875 
Q 49.3125 8.734375 54.109375 11.28125 
L 54.109375 2.78125 
Q 49.265625 0.734375 44.1875 -0.34375 
Q 39.109375 -1.421875 33.890625 -1.421875 
Q 20.796875 -1.421875 13.15625 6.1875 
Q 5.515625 13.8125 5.515625 26.8125 
Q 5.515625 40.234375 12.765625 48.109375 
Q 20.015625 56 32.328125 56 
Q 43.359375 56 49.78125 48.890625 
Q 56.203125 41.796875 56.203125 29.59375 
z
M 47.21875 32.234375 
Q 47.125 39.59375 43.09375 43.984375 
Q 39.0625 48.390625 32.421875 48.390625 
Q 24.90625 48.390625 20.390625 44.140625 
Q 15.875 39.890625 15.1875 32.171875 
z
" id="DejaVuSans-101"/>
       <path d="M 34.28125 27.484375 
Q 23.390625 27.484375 19.1875 25 
Q 14.984375 22.515625 14.984375 16.5 
Q 14.984375 11.71875 18.140625 8.90625 
Q 21.296875 6.109375 26.703125 6.109375 
Q 34.1875 6.109375 38.703125 11.40625 
Q 43.21875 16.703125 43.21875 25.484375 
L 43.21875 27.484375 
z
M 52.203125 31.203125 
L 52.203125 0 
L 43.21875 0 
L 43.21875 8.296875 
Q 40.140625 3.328125 35.546875 0.953125 
Q 30.953125 -1.421875 24.3125 -1.421875 
Q 15.921875 -1.421875 10.953125 3.296875 
Q 6 8.015625 6 15.921875 
Q 6 25.140625 12.171875 29.828125 
Q 18.359375 34.515625 30.609375 34.515625 
L 43.21875 34.515625 
L 43.21875 35.40625 
Q 43.21875 41.609375 39.140625 45 
Q 35.0625 48.390625 27.6875 48.390625 
Q 23 48.390625 18.546875 47.265625 
Q 14.109375 46.140625 10.015625 43.890625 
L 10.015625 52.203125 
Q 14.9375 54.109375 19.578125 55.046875 
Q 24.21875 56 28.609375 56 
Q 40.484375 56 46.34375 49.84375 
Q 52.203125 43.703125 52.203125 31.203125 
z
" id="DejaVuSans-97"/>
       <path d="M 54.890625 33.015625 
L 54.890625 0 
L 45.90625 0 
L 45.90625 32.71875 
Q 45.90625 40.484375 42.875 44.328125 
Q 39.84375 48.1875 33.796875 48.1875 
Q 26.515625 48.1875 22.3125 43.546875 
Q 18.109375 38.921875 18.109375 30.90625 
L 18.109375 0 
L 9.078125 0 
L 9.078125 54.6875 
L 18.109375 54.6875 
L 18.109375 46.1875 
Q 21.34375 51.125 25.703125 53.5625 
Q 30.078125 56 35.796875 56 
Q 45.21875 56 50.046875 50.171875 
Q 54.890625 44.34375 54.890625 33.015625 
z
" id="DejaVuSans-110"/>
       <path id="DejaVuSans-32"/>
       <path d="M 48.78125 52.59375 
L 48.78125 44.1875 
Q 44.96875 46.296875 41.140625 47.34375 
Q 37.3125 48.390625 33.40625 48.390625 
Q 24.65625 48.390625 19.8125 42.84375 
Q 14.984375 37.3125 14.984375 27.296875 
Q 14.984375 17.28125 19.8125 11.734375 
Q 24.65625 6.203125 33.40625 6.203125 
Q 37.3125 6.203125 41.140625 7.25 
Q 44.96875 8.296875 48.78125 10.40625 
L 48.78125 2.09375 
Q 45.015625 0.34375 40.984375 -0.53125 
Q 36.96875 -1.421875 32.421875 -1.421875 
Q 20.0625 -1.421875 12.78125 6.34375 
Q 5.515625 14.109375 5.515625 27.296875 
Q 5.515625 40.671875 12.859375 48.328125 
Q 20.21875 56 33.015625 56 
Q 37.15625 56 41.109375 55.140625 
Q 45.0625 54.296875 48.78125 52.59375 
z
" id="DejaVuSans-99"/>
       <path d="M 54.890625 33.015625 
L 54.890625 0 
L 45.90625 0 
L 45.90625 32.71875 
Q 45.90625 40.484375 42.875 44.328125 
Q 39.84375 48.1875 33.796875 48.1875 
Q 26.515625 48.1875 22.3125 43.546875 
Q 18.109375 38.921875 18.109375 30.90625 
L 18.109375 0 
L 9.078125 0 
L 9.078125 75.984375 
L 18.109375 75.984375 
L 18.109375 46.1875 
Q 21.34375 51.125 25.703125 53.5625 
Q 30.078125 56 35.796875 56 
Q 45.21875 56 50.046875 50.171875 
Q 54.890625 44.34375 54.890625 33.015625 
z
" id="DejaVuSans-104"/>
       <path d="M 45.40625 27.984375 
Q 45.40625 37.75 41.375 43.109375 
Q 37.359375 48.484375 30.078125 48.484375 
Q 22.859375 48.484375 18.828125 43.109375 
Q 14.796875 37.75 14.796875 27.984375 
Q 14.796875 18.265625 18.828125 12.890625 
Q 22.859375 7.515625 30.078125 7.515625 
Q 37.359375 7.515625 41.375 12.890625 
Q 45.40625 18.265625 45.40625 27.984375 
z
M 54.390625 6.78125 
Q 54.390625 -7.171875 48.1875 -13.984375 
Q 42 -20.796875 29.203125 -20.796875 
Q 24.46875 -20.796875 20.265625 -20.09375 
Q 16.0625 -19.390625 12.109375 -17.921875 
L 12.109375 -9.1875 
Q 16.0625 -11.328125 19.921875 -12.34375 
Q 23.78125 -13.375 27.78125 -13.375 
Q 36.625 -13.375 41.015625 -8.765625 
Q 45.40625 -4.15625 45.40625 5.171875 
L 45.40625 9.625 
Q 42.625 4.78125 38.28125 2.390625 
Q 33.9375 0 27.875 0 
Q 17.828125 0 11.671875 7.65625 
Q 5.515625 15.328125 5.515625 27.984375 
Q 5.515625 40.671875 11.671875 48.328125 
Q 17.828125 56 27.875 56 
Q 33.9375 56 38.28125 53.609375 
Q 42.625 51.21875 45.40625 46.390625 
L 45.40625 54.6875 
L 54.390625 54.6875 
z
" id="DejaVuSans-103"/>
       <path d="M 5.609375 72.90625 
L 62.890625 72.90625 
L 62.890625 65.375 
L 16.796875 8.296875 
L 64.015625 8.296875 
L 64.015625 0 
L 4.5 0 
L 4.5 7.515625 
L 50.59375 64.59375 
L 5.609375 64.59375 
z
" id="DejaVuSans-90"/>
       <path d="M 44.28125 53.078125 
L 44.28125 44.578125 
Q 40.484375 46.53125 36.375 47.5 
Q 32.28125 48.484375 27.875 48.484375 
Q 21.1875 48.484375 17.84375 46.4375 
Q 14.5 44.390625 14.5 40.28125 
Q 14.5 37.15625 16.890625 35.375 
Q 19.28125 33.59375 26.515625 31.984375 
L 29.59375 31.296875 
Q 39.15625 29.25 43.1875 25.515625 
Q 47.21875 21.78125 47.21875 15.09375 
Q 47.21875 7.46875 41.1875 3.015625 
Q 35.15625 -1.421875 24.609375 -1.421875 
Q 20.21875 -1.421875 15.453125 -0.5625 
Q 10.6875 0.296875 5.421875 2 
L 5.421875 11.28125 
Q 10.40625 8.6875 15.234375 7.390625 
Q 20.0625 6.109375 24.8125 6.109375 
Q 31.15625 6.109375 34.5625 8.28125 
Q 37.984375 10.453125 37.984375 14.40625 
Q 37.984375 18.0625 35.515625 20.015625 
Q 33.0625 21.96875 24.703125 23.78125 
L 21.578125 24.515625 
Q 13.234375 26.265625 9.515625 29.90625 
Q 5.8125 33.546875 5.8125 39.890625 
Q 5.8125 47.609375 11.28125 51.796875 
Q 16.75 56 26.8125 56 
Q 31.78125 56 36.171875 55.265625 
Q 40.578125 54.546875 44.28125 53.078125 
z
" id="DejaVuSans-115"/>
       <path d="M 30.609375 48.390625 
Q 23.390625 48.390625 19.1875 42.75 
Q 14.984375 37.109375 14.984375 27.296875 
Q 14.984375 17.484375 19.15625 11.84375 
Q 23.34375 6.203125 30.609375 6.203125 
Q 37.796875 6.203125 41.984375 11.859375 
Q 46.1875 17.53125 46.1875 27.296875 
Q 46.1875 37.015625 41.984375 42.703125 
Q 37.796875 48.390625 30.609375 48.390625 
z
M 30.609375 56 
Q 42.328125 56 49.015625 48.375 
Q 55.71875 40.765625 55.71875 27.296875 
Q 55.71875 13.875 49.015625 6.21875 
Q 42.328125 -1.421875 30.609375 -1.421875 
Q 18.84375 -1.421875 12.171875 6.21875 
Q 5.515625 13.875 5.515625 27.296875 
Q 5.515625 40.765625 12.171875 48.375 
Q 18.84375 56 30.609375 56 
z
" id="DejaVuSans-111"/>
       <path d="M 41.109375 46.296875 
Q 39.59375 47.171875 37.8125 47.578125 
Q 36.03125 48 33.890625 48 
Q 26.265625 48 22.1875 43.046875 
Q 18.109375 38.09375 18.109375 28.8125 
L 18.109375 0 
L 9.078125 0 
L 9.078125 54.6875 
L 18.109375 54.6875 
L 18.109375 46.1875 
Q 20.953125 51.171875 25.484375 53.578125 
Q 30.03125 56 36.53125 56 
Q 37.453125 56 38.578125 55.875 
Q 39.703125 55.765625 41.0625 55.515625 
z
" id="DejaVuSans-114"/>
       <path d="M 45.40625 46.390625 
L 45.40625 75.984375 
L 54.390625 75.984375 
L 54.390625 0 
L 45.40625 0 
L 45.40625 8.203125 
Q 42.578125 3.328125 38.25 0.953125 
Q 33.9375 -1.421875 27.875 -1.421875 
Q 17.96875 -1.421875 11.734375 6.484375 
Q 5.515625 14.40625 5.515625 27.296875 
Q 5.515625 40.1875 11.734375 48.09375 
Q 17.96875 56 27.875 56 
Q 33.9375 56 38.25 53.625 
Q 42.578125 51.265625 45.40625 46.390625 
z
M 14.796875 27.296875 
Q 14.796875 17.390625 18.875 11.75 
Q 22.953125 6.109375 30.078125 6.109375 
Q 37.203125 6.109375 41.296875 11.75 
Q 45.40625 17.390625 45.40625 27.296875 
Q 45.40625 37.203125 41.296875 42.84375 
Q 37.203125 48.484375 30.078125 48.484375 
Q 22.953125 48.484375 18.875 42.84375 
Q 14.796875 37.203125 14.796875 27.296875 
z
" id="DejaVuSans-100"/>
       <path d="M 9.8125 72.90625 
L 51.703125 72.90625 
L 51.703125 64.59375 
L 19.671875 64.59375 
L 19.671875 43.109375 
L 48.578125 43.109375 
L 48.578125 34.8125 
L 19.671875 34.8125 
L 19.671875 0 
L 9.8125 0 
z
" id="DejaVuSans-70"/>
      </defs>
      <use xlink:href="#DejaVuSans-77"/>
      <use x="86.279297" xlink:href="#DejaVuSans-101"/>
      <use x="147.802734" xlink:href="#DejaVuSans-97"/>
      <use x="209.082031" xlink:href="#DejaVuSans-110"/>
      <use x="272.460938" xlink:href="#DejaVuSans-32"/>
      <use x="304.248047" xlink:href="#DejaVuSans-99"/>
      <use x="359.228516" xlink:href="#DejaVuSans-104"/>
      <use x="422.607422" xlink:href="#DejaVuSans-97"/>
      <use x="483.886719" xlink:href="#DejaVuSans-110"/>
      <use x="547.265625" xlink:href="#DejaVuSans-103"/>
      <use x="610.742188" xlink:href="#DejaVuSans-101"/>
      <use x="672.265625" xlink:href="#DejaVuSans-32"/>
      <use x="704.052734" xlink:href="#DejaVuSans-90"/>
      <use x="770.808594" xlink:href="#DejaVuSans-45"/>
      <use x="806.892578" xlink:href="#DejaVuSans-115"/>
      <use x="858.992188" xlink:href="#DejaVuSans-99"/>
      <use x="913.972656" xlink:href="#DejaVuSans-111"/>
      <use x="975.154297" xlink:href="#DejaVuSans-114"/>
      <use x="1014.017578" xlink:href="#DejaVuSans-101"/>
      <use x="1075.541016" xlink:href="#DejaVuSans-100"/>
      <use x="1139.017578" xlink:href="#DejaVuSans-32"/>
      <use x="1170.804688" xlink:href="#DejaVuSans-70"/>
     </g>
    </g>
   </g>
   <g id="matplotlib.axis_2">
    <g id="ytick_1">
     <g id="line2d_5">
      <defs>
       <path d="M 0 0 
L -3.5 0 
" id="m9c52aa30f3" style="stroke:#000000;stroke-width:0.8;"/>
      </defs>
      <g>
       <use style="stroke:#000000;stroke-width:0.8;" x="57.6" xlink:href="#m9c52aa30f3" y="249.733565"/>
      </g>
     </g>
     <g id="text_6">
      <!-- 10 -->
      <g transform="translate(32.785 255.052471)scale(0.14 -0.14)">
       <defs>
        <path d="M 12.40625 8.296875 
L 28.515625 8.296875 
L 28.515625 63.921875 
L 10.984375 60.40625 
L 10.984375 69.390625 
L 28.421875 72.90625 
L 38.28125 72.90625 
L 38.28125 8.296875 
L 54.390625 8.296875 
L 54.390625 0 
L 12.40625 0 
z
" id="DejaVuSans-49"/>
       </defs>
       <use xlink:href="#DejaVuSans-49"/>
       <use x="63.623047" xlink:href="#DejaVuSans-48"/>
      </g>
     </g>
    </g>
    <g id="ytick_2">
     <g id="line2d_6">
      <g>
       <use style="stroke:#000000;stroke-width:0.8;" x="57.6" xlink:href="#m9c52aa30f3" y="191.88313"/>
      </g>
     </g>
     <g id="text_7">
      <!-- 20 -->
      <g transform="translate(32.785 197.202037)scale(0.14 -0.14)">
       <use xlink:href="#DejaVuSans-50"/>
       <use x="63.623047" xlink:href="#DejaVuSans-48"/>
      </g>
     </g>
    </g>
    <g id="ytick_3">
     <g id="line2d_7">
      <g>
       <use style="stroke:#000000;stroke-width:0.8;" x="57.6" xlink:href="#m9c52aa30f3" y="134.032696"/>
      </g>
     </g>
     <g id="text_8">
      <!-- 30 -->
      <g transform="translate(32.785 139.351602)scale(0.14 -0.14)">
       <defs>
        <path d="M 40.578125 39.3125 
Q 47.65625 37.796875 51.625 33 
Q 55.609375 28.21875 55.609375 21.1875 
Q 55.609375 10.40625 48.1875 4.484375 
Q 40.765625 -1.421875 27.09375 -1.421875 
Q 22.515625 -1.421875 17.65625 -0.515625 
Q 12.796875 0.390625 7.625 2.203125 
L 7.625 11.71875 
Q 11.71875 9.328125 16.59375 8.109375 
Q 21.484375 6.890625 26.8125 6.890625 
Q 36.078125 6.890625 40.9375 10.546875 
Q 45.796875 14.203125 45.796875 21.1875 
Q 45.796875 27.640625 41.28125 31.265625 
Q 36.765625 34.90625 28.71875 34.90625 
L 20.21875 34.90625 
L 20.21875 43.015625 
L 29.109375 43.015625 
Q 36.375 43.015625 40.234375 45.921875 
Q 44.09375 48.828125 44.09375 54.296875 
Q 44.09375 59.90625 40.109375 62.90625 
Q 36.140625 65.921875 28.71875 65.921875 
Q 24.65625 65.921875 20.015625 65.03125 
Q 15.375 64.15625 9.8125 62.3125 
L 9.8125 71.09375 
Q 15.4375 72.65625 20.34375 73.4375 
Q 25.25 74.21875 29.59375 74.21875 
Q 40.828125 74.21875 47.359375 69.109375 
Q 53.90625 64.015625 53.90625 55.328125 
Q 53.90625 49.265625 50.4375 45.09375 
Q 46.96875 40.921875 40.578125 39.3125 
z
" id="DejaVuSans-51"/>
       </defs>
       <use xlink:href="#DejaVuSans-51"/>
       <use x="63.623047" xlink:href="#DejaVuSans-48"/>
      </g>
     </g>
    </g>
    <g id="ytick_4">
     <g id="line2d_8">
      <g>
       <use style="stroke:#000000;stroke-width:0.8;" x="57.6" xlink:href="#m9c52aa30f3" y="76.182261"/>
      </g>
     </g>
     <g id="text_9">
      <!-- 40 -->
      <g transform="translate(32.785 81.501167)scale(0.14 -0.14)">
       <defs>
        <path d="M 37.796875 64.3125 
L 12.890625 25.390625 
L 37.796875 25.390625 
z
M 35.203125 72.90625 
L 47.609375 72.90625 
L 47.609375 25.390625 
L 58.015625 25.390625 
L 58.015625 17.1875 
L 47.609375 17.1875 
L 47.609375 0 
L 37.796875 0 
L 37.796875 17.1875 
L 4.890625 17.1875 
L 4.890625 26.703125 
z
" id="DejaVuSans-52"/>
       </defs>
       <use xlink:href="#DejaVuSans-52"/>
       <use x="63.623047" xlink:href="#DejaVuSans-48"/>
      </g>
     </g>
    </g>
    <g id="text_10">
     <!-- Repetitions before gap -->
     <g transform="translate(25.4575 265.38925)rotate(-90)scale(0.16 -0.16)">
      <defs>
       <path d="M 44.390625 34.1875 
Q 47.5625 33.109375 50.5625 29.59375 
Q 53.5625 26.078125 56.59375 19.921875 
L 66.609375 0 
L 56 0 
L 46.6875 18.703125 
Q 43.0625 26.03125 39.671875 28.421875 
Q 36.28125 30.8125 30.421875 30.8125 
L 19.671875 30.8125 
L 19.671875 0 
L 9.8125 0 
L 9.8125 72.90625 
L 32.078125 72.90625 
Q 44.578125 72.90625 50.734375 67.671875 
Q 56.890625 62.453125 56.890625 51.90625 
Q 56.890625 45.015625 53.6875 40.46875 
Q 50.484375 35.9375 44.390625 34.1875 
z
M 19.671875 64.796875 
L 19.671875 38.921875 
L 32.078125 38.921875 
Q 39.203125 38.921875 42.84375 42.21875 
Q 46.484375 45.515625 46.484375 51.90625 
Q 46.484375 58.296875 42.84375 61.546875 
Q 39.203125 64.796875 32.078125 64.796875 
z
" id="DejaVuSans-82"/>
       <path d="M 18.109375 8.203125 
L 18.109375 -20.796875 
L 9.078125 -20.796875 
L 9.078125 54.6875 
L 18.109375 54.6875 
L 18.109375 46.390625 
Q 20.953125 51.265625 25.265625 53.625 
Q 29.59375 56 35.59375 56 
Q 45.5625 56 51.78125 48.09375 
Q 58.015625 40.1875 58.015625 27.296875 
Q 58.015625 14.40625 51.78125 6.484375 
Q 45.5625 -1.421875 35.59375 -1.421875 
Q 29.59375 -1.421875 25.265625 0.953125 
Q 20.953125 3.328125 18.109375 8.203125 
z
M 48.6875 27.296875 
Q 48.6875 37.203125 44.609375 42.84375 
Q 40.53125 48.484375 33.40625 48.484375 
Q 26.265625 48.484375 22.1875 42.84375 
Q 18.109375 37.203125 18.109375 27.296875 
Q 18.109375 17.390625 22.1875 11.75 
Q 26.265625 6.109375 33.40625 6.109375 
Q 40.53125 6.109375 44.609375 11.75 
Q 48.6875 17.390625 48.6875 27.296875 
z
" id="DejaVuSans-112"/>
       <path d="M 18.3125 70.21875 
L 18.3125 54.6875 
L 36.8125 54.6875 
L 36.8125 47.703125 
L 18.3125 47.703125 
L 18.3125 18.015625 
Q 18.3125 11.328125 20.140625 9.421875 
Q 21.96875 7.515625 27.59375 7.515625 
L 36.8125 7.515625 
L 36.8125 0 
L 27.59375 0 
Q 17.1875 0 13.234375 3.875 
Q 9.28125 7.765625 9.28125 18.015625 
L 9.28125 47.703125 
L 2.6875 47.703125 
L 2.6875 54.6875 
L 9.28125 54.6875 
L 9.28125 70.21875 
z
" id="DejaVuSans-116"/>
       <path d="M 9.421875 54.6875 
L 18.40625 54.6875 
L 18.40625 0 
L 9.421875 0 
z
M 9.421875 75.984375 
L 18.40625 75.984375 
L 18.40625 64.59375 
L 9.421875 64.59375 
z
" id="DejaVuSans-105"/>
       <path d="M 48.6875 27.296875 
Q 48.6875 37.203125 44.609375 42.84375 
Q 40.53125 48.484375 33.40625 48.484375 
Q 26.265625 48.484375 22.1875 42.84375 
Q 18.109375 37.203125 18.109375 27.296875 
Q 18.109375 17.390625 22.1875 11.75 
Q 26.265625 6.109375 33.40625 6.109375 
Q 40.53125 6.109375 44.609375 11.75 
Q 48.6875 17.390625 48.6875 27.296875 
z
M 18.109375 46.390625 
Q 20.953125 51.265625 25.265625 53.625 
Q 29.59375 56 35.59375 56 
Q 45.5625 56 51.78125 48.09375 
Q 58.015625 40.1875 58.015625 27.296875 
Q 58.015625 14.40625 51.78125 6.484375 
Q 45.5625 -1.421875 35.59375 -1.421875 
Q 29.59375 -1.421875 25.265625 0.953125 
Q 20.953125 3.328125 18.109375 8.203125 
L 18.109375 0 
L 9.078125 0 
L 9.078125 75.984375 
L 18.109375 75.984375 
z
" id="DejaVuSans-98"/>
       <path d="M 37.109375 75.984375 
L 37.109375 68.5 
L 28.515625 68.5 
Q 23.6875 68.5 21.796875 66.546875 
Q 19.921875 64.59375 19.921875 59.515625 
L 19.921875 54.6875 
L 34.71875 54.6875 
L 34.71875 47.703125 
L 19.921875 47.703125 
L 19.921875 0 
L 10.890625 0 
L 10.890625 47.703125 
L 2.296875 47.703125 
L 2.296875 54.6875 
L 10.890625 54.6875 
L 10.890625 58.5 
Q 10.890625 67.625 15.140625 71.796875 
Q 19.390625 75.984375 28.609375 75.984375 
z
" id="DejaVuSans-102"/>
      </defs>
      <use xlink:href="#DejaVuSans-82"/>
      <use x="64.982422" xlink:href="#DejaVuSans-101"/>
      <use x="126.505859" xlink:href="#DejaVuSans-112"/>
      <use x="189.982422" xlink:href="#DejaVuSans-101"/>
      <use x="251.505859" xlink:href="#DejaVuSans-116"/>
      <use x="290.714844" xlink:href="#DejaVuSans-105"/>
      <use x="318.498047" xlink:href="#DejaVuSans-116"/>
      <use x="357.707031" xlink:href="#DejaVuSans-105"/>
      <use x="385.490234" xlink:href="#DejaVuSans-111"/>
      <use x="446.671875" xlink:href="#DejaVuSans-110"/>
      <use x="510.050781" xlink:href="#DejaVuSans-115"/>
      <use x="562.150391" xlink:href="#DejaVuSans-32"/>
      <use x="593.9375" xlink:href="#DejaVuSans-98"/>
      <use x="657.414062" xlink:href="#DejaVuSans-101"/>
      <use x="718.9375" xlink:href="#DejaVuSans-102"/>
      <use x="754.142578" xlink:href="#DejaVuSans-111"/>
      <use x="815.324219" xlink:href="#DejaVuSans-114"/>
      <use x="854.1875" xlink:href="#DejaVuSans-101"/>
      <use x="915.710938" xlink:href="#DejaVuSans-32"/>
      <use x="947.498047" xlink:href="#DejaVuSans-103"/>
      <use x="1010.974609" xlink:href="#DejaVuSans-97"/>
      <use x="1072.253906" xlink:href="#DejaVuSans-112"/>
     </g>
    </g>
   </g>
   <g id="patch_3">
    <path d="M 57.6 307.584 
L 57.6 41.472 
" style="fill:none;stroke:#000000;stroke-linecap:square;stroke-linejoin:miter;stroke-width:0.8;"/>
   </g>
   <g id="patch_4">
    <path d="M 57.6 307.584 
L 414.72 307.584 
" style="fill:none;stroke:#000000;stroke-linecap:square;stroke-linejoin:miter;stroke-width:0.8;"/>
   </g>
  </g>
 </g>
 <defs>
  <clipPath id="p91dc9dce2f">
   <rect height="266.112" width="357.12" x="57.6" y="41.472"/>
  </clipPath>
 </defs>
</svg>
